%TF.GenerationSoftware,KiCad,Pcbnew,(2017-03-19 revision 2637835)-master*%
%TF.CreationDate,2017-03-30T20:36:30+01:00*%
%TF.ProjectId,kicad-rtep-audio-spectrum-analyser,6B696361642D727465702D617564696F,1.0.0*%
%TF.FileFunction,Soldermask,Bot*%
%TF.FilePolarity,Negative*%
%FSLAX46Y46*%
G04 Gerber Fmt 4.6, Leading zero omitted, Abs format (unit mm)*
G04 Created by KiCad (PCBNEW (2017-03-19 revision 2637835)-master) date Thursday, 30 March 2017 20:36:30*
%MOMM*%
%LPD*%
G01*
G04 APERTURE LIST*
%ADD10C,0.203200*%
%ADD11C,0.101600*%
%ADD12R,1.200000X0.522000*%
%ADD13R,0.600000X1.044000*%
%ADD14C,1.624000*%
%ADD15C,0.500000*%
%ADD16R,1.750000X0.650000*%
%ADD17R,0.500000X0.900000*%
%ADD18C,6.000000*%
%ADD19R,0.750000X0.800000*%
%ADD20O,1.727200X1.727200*%
%ADD21R,1.727200X1.727200*%
G04 APERTURE END LIST*
D10*
%TO.C,MK1*%
D11*
X831547Y-14787261D02*
X831547Y-14152261D01*
X619880Y-14605833D01*
X408214Y-14152261D01*
X408214Y-14787261D01*
X105833Y-14787261D02*
X105833Y-14152261D01*
X-257024Y-14787261D02*
X15119Y-14424404D01*
X-257024Y-14152261D02*
X105833Y-14515119D01*
X-861786Y-14787261D02*
X-498929Y-14787261D01*
X-680358Y-14787261D02*
X-680358Y-14152261D01*
X-619881Y-14242976D01*
X-559405Y-14303452D01*
X-498929Y-14333690D01*
%TO.C,Q1*%
X-8939524Y24652262D02*
X-8879048Y24682500D01*
X-8818572Y24742977D01*
X-8727858Y24833691D01*
X-8667381Y24863929D01*
X-8606905Y24863929D01*
X-8637143Y24712739D02*
X-8576667Y24742977D01*
X-8516191Y24803453D01*
X-8485953Y24924405D01*
X-8485953Y25136072D01*
X-8516191Y25257024D01*
X-8576667Y25317500D01*
X-8637143Y25347739D01*
X-8758096Y25347739D01*
X-8818572Y25317500D01*
X-8879048Y25257024D01*
X-8909286Y25136072D01*
X-8909286Y24924405D01*
X-8879048Y24803453D01*
X-8818572Y24742977D01*
X-8758096Y24712739D01*
X-8637143Y24712739D01*
X-9514048Y24712739D02*
X-9151191Y24712739D01*
X-9332620Y24712739D02*
X-9332620Y25347739D01*
X-9272143Y25257024D01*
X-9211667Y25196548D01*
X-9151191Y25166310D01*
%TO.C,Q2*%
X-8939524Y8652262D02*
X-8879048Y8682500D01*
X-8818572Y8742977D01*
X-8727858Y8833691D01*
X-8667381Y8863929D01*
X-8606905Y8863929D01*
X-8637143Y8712739D02*
X-8576667Y8742977D01*
X-8516191Y8803453D01*
X-8485953Y8924405D01*
X-8485953Y9136072D01*
X-8516191Y9257024D01*
X-8576667Y9317500D01*
X-8637143Y9347739D01*
X-8758096Y9347739D01*
X-8818572Y9317500D01*
X-8879048Y9257024D01*
X-8909286Y9136072D01*
X-8909286Y8924405D01*
X-8879048Y8803453D01*
X-8818572Y8742977D01*
X-8758096Y8712739D01*
X-8637143Y8712739D01*
X-9151191Y9287262D02*
X-9181429Y9317500D01*
X-9241905Y9347739D01*
X-9393096Y9347739D01*
X-9453572Y9317500D01*
X-9483810Y9287262D01*
X-9514048Y9226786D01*
X-9514048Y9166310D01*
X-9483810Y9075596D01*
X-9120953Y8712739D01*
X-9514048Y8712739D01*
%TO.C,R1*%
X7105833Y12392739D02*
X7317500Y12695120D01*
X7468690Y12392739D02*
X7468690Y13027739D01*
X7226785Y13027739D01*
X7166309Y12997500D01*
X7136071Y12967262D01*
X7105833Y12906786D01*
X7105833Y12816072D01*
X7136071Y12755596D01*
X7166309Y12725358D01*
X7226785Y12695120D01*
X7468690Y12695120D01*
X6501071Y12392739D02*
X6863928Y12392739D01*
X6682500Y12392739D02*
X6682500Y13027739D01*
X6742976Y12937024D01*
X6803452Y12876548D01*
X6863928Y12846310D01*
%TO.C,R2*%
X-12394167Y23137739D02*
X-12182500Y23440120D01*
X-12031310Y23137739D02*
X-12031310Y23772739D01*
X-12273215Y23772739D01*
X-12333691Y23742500D01*
X-12363929Y23712262D01*
X-12394167Y23651786D01*
X-12394167Y23561072D01*
X-12363929Y23500596D01*
X-12333691Y23470358D01*
X-12273215Y23440120D01*
X-12031310Y23440120D01*
X-12636072Y23712262D02*
X-12666310Y23742500D01*
X-12726786Y23772739D01*
X-12877977Y23772739D01*
X-12938453Y23742500D01*
X-12968691Y23712262D01*
X-12998929Y23651786D01*
X-12998929Y23591310D01*
X-12968691Y23500596D01*
X-12605834Y23137739D01*
X-12998929Y23137739D01*
%TO.C,R3*%
X105833Y25962739D02*
X317500Y26265120D01*
X468690Y25962739D02*
X468690Y26597739D01*
X226785Y26597739D01*
X166309Y26567500D01*
X136071Y26537262D01*
X105833Y26476786D01*
X105833Y26386072D01*
X136071Y26325596D01*
X166309Y26295358D01*
X226785Y26265120D01*
X468690Y26265120D01*
X-105834Y26597739D02*
X-498929Y26597739D01*
X-287262Y26355834D01*
X-377977Y26355834D01*
X-438453Y26325596D01*
X-468691Y26295358D01*
X-498929Y26234881D01*
X-498929Y26083691D01*
X-468691Y26023215D01*
X-438453Y25992977D01*
X-377977Y25962739D01*
X-196548Y25962739D01*
X-136072Y25992977D01*
X-105834Y26023215D01*
%TO.C,R4*%
X7105833Y9852739D02*
X7317500Y10155120D01*
X7468690Y9852739D02*
X7468690Y10487739D01*
X7226785Y10487739D01*
X7166309Y10457500D01*
X7136071Y10427262D01*
X7105833Y10366786D01*
X7105833Y10276072D01*
X7136071Y10215596D01*
X7166309Y10185358D01*
X7226785Y10155120D01*
X7468690Y10155120D01*
X6561547Y10276072D02*
X6561547Y9852739D01*
X6712738Y10517977D02*
X6863928Y10064405D01*
X6470833Y10064405D01*
%TO.C,R5*%
X-12394167Y20597739D02*
X-12182500Y20900120D01*
X-12031310Y20597739D02*
X-12031310Y21232739D01*
X-12273215Y21232739D01*
X-12333691Y21202500D01*
X-12363929Y21172262D01*
X-12394167Y21111786D01*
X-12394167Y21021072D01*
X-12363929Y20960596D01*
X-12333691Y20930358D01*
X-12273215Y20900120D01*
X-12031310Y20900120D01*
X-12968691Y21232739D02*
X-12666310Y21232739D01*
X-12636072Y20930358D01*
X-12666310Y20960596D01*
X-12726786Y20990834D01*
X-12877977Y20990834D01*
X-12938453Y20960596D01*
X-12968691Y20930358D01*
X-12998929Y20869881D01*
X-12998929Y20718691D01*
X-12968691Y20658215D01*
X-12938453Y20627977D01*
X-12877977Y20597739D01*
X-12726786Y20597739D01*
X-12666310Y20627977D01*
X-12636072Y20658215D01*
%TO.C,R6*%
X105833Y21962739D02*
X317500Y22265120D01*
X468690Y21962739D02*
X468690Y22597739D01*
X226785Y22597739D01*
X166309Y22567500D01*
X136071Y22537262D01*
X105833Y22476786D01*
X105833Y22386072D01*
X136071Y22325596D01*
X166309Y22295358D01*
X226785Y22265120D01*
X468690Y22265120D01*
X-438453Y22597739D02*
X-317500Y22597739D01*
X-257024Y22567500D01*
X-226786Y22537262D01*
X-166310Y22446548D01*
X-136072Y22325596D01*
X-136072Y22083691D01*
X-166310Y22023215D01*
X-196548Y21992977D01*
X-257024Y21962739D01*
X-377977Y21962739D01*
X-438453Y21992977D01*
X-468691Y22023215D01*
X-498929Y22083691D01*
X-498929Y22234881D01*
X-468691Y22295358D01*
X-438453Y22325596D01*
X-377977Y22355834D01*
X-257024Y22355834D01*
X-196548Y22325596D01*
X-166310Y22295358D01*
X-136072Y22234881D01*
%TO.C,R7*%
X7105833Y7312739D02*
X7317500Y7615120D01*
X7468690Y7312739D02*
X7468690Y7947739D01*
X7226785Y7947739D01*
X7166309Y7917500D01*
X7136071Y7887262D01*
X7105833Y7826786D01*
X7105833Y7736072D01*
X7136071Y7675596D01*
X7166309Y7645358D01*
X7226785Y7615120D01*
X7468690Y7615120D01*
X6894166Y7947739D02*
X6470833Y7947739D01*
X6742976Y7312739D01*
%TO.C,R8*%
X-12394167Y18057739D02*
X-12182500Y18360120D01*
X-12031310Y18057739D02*
X-12031310Y18692739D01*
X-12273215Y18692739D01*
X-12333691Y18662500D01*
X-12363929Y18632262D01*
X-12394167Y18571786D01*
X-12394167Y18481072D01*
X-12363929Y18420596D01*
X-12333691Y18390358D01*
X-12273215Y18360120D01*
X-12031310Y18360120D01*
X-12757024Y18420596D02*
X-12696548Y18450834D01*
X-12666310Y18481072D01*
X-12636072Y18541548D01*
X-12636072Y18571786D01*
X-12666310Y18632262D01*
X-12696548Y18662500D01*
X-12757024Y18692739D01*
X-12877977Y18692739D01*
X-12938453Y18662500D01*
X-12968691Y18632262D01*
X-12998929Y18571786D01*
X-12998929Y18541548D01*
X-12968691Y18481072D01*
X-12938453Y18450834D01*
X-12877977Y18420596D01*
X-12757024Y18420596D01*
X-12696548Y18390358D01*
X-12666310Y18360120D01*
X-12636072Y18299643D01*
X-12636072Y18178691D01*
X-12666310Y18118215D01*
X-12696548Y18087977D01*
X-12757024Y18057739D01*
X-12877977Y18057739D01*
X-12938453Y18087977D01*
X-12968691Y18118215D01*
X-12998929Y18178691D01*
X-12998929Y18299643D01*
X-12968691Y18360120D01*
X-12938453Y18390358D01*
X-12877977Y18420596D01*
%TO.C,R9*%
X105833Y17962739D02*
X317500Y18265120D01*
X468690Y17962739D02*
X468690Y18597739D01*
X226785Y18597739D01*
X166309Y18567500D01*
X136071Y18537262D01*
X105833Y18476786D01*
X105833Y18386072D01*
X136071Y18325596D01*
X166309Y18295358D01*
X226785Y18265120D01*
X468690Y18265120D01*
X-196548Y17962739D02*
X-317500Y17962739D01*
X-377977Y17992977D01*
X-408215Y18023215D01*
X-468691Y18113929D01*
X-498929Y18234881D01*
X-498929Y18476786D01*
X-468691Y18537262D01*
X-438453Y18567500D01*
X-377977Y18597739D01*
X-257024Y18597739D01*
X-196548Y18567500D01*
X-166310Y18537262D01*
X-136072Y18476786D01*
X-136072Y18325596D01*
X-166310Y18265120D01*
X-196548Y18234881D01*
X-257024Y18204643D01*
X-377977Y18204643D01*
X-438453Y18234881D01*
X-468691Y18265120D01*
X-498929Y18325596D01*
%TO.C,R10*%
X7408214Y2232739D02*
X7619880Y2535120D01*
X7771071Y2232739D02*
X7771071Y2867739D01*
X7529166Y2867739D01*
X7468690Y2837500D01*
X7438452Y2807262D01*
X7408214Y2746786D01*
X7408214Y2656072D01*
X7438452Y2595596D01*
X7468690Y2565358D01*
X7529166Y2535120D01*
X7771071Y2535120D01*
X6803452Y2232739D02*
X7166309Y2232739D01*
X6984880Y2232739D02*
X6984880Y2867739D01*
X7045357Y2777024D01*
X7105833Y2716548D01*
X7166309Y2686310D01*
X6410357Y2867739D02*
X6349880Y2867739D01*
X6289404Y2837500D01*
X6259166Y2807262D01*
X6228928Y2746786D01*
X6198690Y2625834D01*
X6198690Y2474643D01*
X6228928Y2353691D01*
X6259166Y2293215D01*
X6289404Y2262977D01*
X6349880Y2232739D01*
X6410357Y2232739D01*
X6470833Y2262977D01*
X6501071Y2293215D01*
X6531309Y2353691D01*
X6561547Y2474643D01*
X6561547Y2625834D01*
X6531309Y2746786D01*
X6501071Y2807262D01*
X6470833Y2837500D01*
X6410357Y2867739D01*
%TO.C,R11*%
X-12091786Y15517739D02*
X-11880120Y15820120D01*
X-11728929Y15517739D02*
X-11728929Y16152739D01*
X-11970834Y16152739D01*
X-12031310Y16122500D01*
X-12061548Y16092262D01*
X-12091786Y16031786D01*
X-12091786Y15941072D01*
X-12061548Y15880596D01*
X-12031310Y15850358D01*
X-11970834Y15820120D01*
X-11728929Y15820120D01*
X-12696548Y15517739D02*
X-12333691Y15517739D01*
X-12515120Y15517739D02*
X-12515120Y16152739D01*
X-12454643Y16062024D01*
X-12394167Y16001548D01*
X-12333691Y15971310D01*
X-13301310Y15517739D02*
X-12938453Y15517739D01*
X-13119881Y15517739D02*
X-13119881Y16152739D01*
X-13059405Y16062024D01*
X-12998929Y16001548D01*
X-12938453Y15971310D01*
%TO.C,R12*%
X408214Y13962739D02*
X619880Y14265120D01*
X771071Y13962739D02*
X771071Y14597739D01*
X529166Y14597739D01*
X468690Y14567500D01*
X438452Y14537262D01*
X408214Y14476786D01*
X408214Y14386072D01*
X438452Y14325596D01*
X468690Y14295358D01*
X529166Y14265120D01*
X771071Y14265120D01*
X-196548Y13962739D02*
X166309Y13962739D01*
X-15120Y13962739D02*
X-15120Y14597739D01*
X45357Y14507024D01*
X105833Y14446548D01*
X166309Y14416310D01*
X-438453Y14537262D02*
X-468691Y14567500D01*
X-529167Y14597739D01*
X-680358Y14597739D01*
X-740834Y14567500D01*
X-771072Y14537262D01*
X-801310Y14476786D01*
X-801310Y14416310D01*
X-771072Y14325596D01*
X-408215Y13962739D01*
X-801310Y13962739D01*
%TO.C,R13*%
X7408214Y-307261D02*
X7619880Y-4880D01*
X7771071Y-307261D02*
X7771071Y327739D01*
X7529166Y327739D01*
X7468690Y297500D01*
X7438452Y267262D01*
X7408214Y206786D01*
X7408214Y116072D01*
X7438452Y55596D01*
X7468690Y25358D01*
X7529166Y-4880D01*
X7771071Y-4880D01*
X6803452Y-307261D02*
X7166309Y-307261D01*
X6984880Y-307261D02*
X6984880Y327739D01*
X7045357Y237024D01*
X7105833Y176548D01*
X7166309Y146310D01*
X6591785Y327739D02*
X6198690Y327739D01*
X6410357Y85834D01*
X6319642Y85834D01*
X6259166Y55596D01*
X6228928Y25358D01*
X6198690Y-35119D01*
X6198690Y-186309D01*
X6228928Y-246785D01*
X6259166Y-277023D01*
X6319642Y-307261D01*
X6501071Y-307261D01*
X6561547Y-277023D01*
X6591785Y-246785D01*
%TO.C,R14*%
X-12091786Y7137739D02*
X-11880120Y7440120D01*
X-11728929Y7137739D02*
X-11728929Y7772739D01*
X-11970834Y7772739D01*
X-12031310Y7742500D01*
X-12061548Y7712262D01*
X-12091786Y7651786D01*
X-12091786Y7561072D01*
X-12061548Y7500596D01*
X-12031310Y7470358D01*
X-11970834Y7440120D01*
X-11728929Y7440120D01*
X-12696548Y7137739D02*
X-12333691Y7137739D01*
X-12515120Y7137739D02*
X-12515120Y7772739D01*
X-12454643Y7682024D01*
X-12394167Y7621548D01*
X-12333691Y7591310D01*
X-13240834Y7561072D02*
X-13240834Y7137739D01*
X-13089643Y7802977D02*
X-12938453Y7349405D01*
X-13331548Y7349405D01*
%TO.C,R15*%
X408214Y9962739D02*
X619880Y10265120D01*
X771071Y9962739D02*
X771071Y10597739D01*
X529166Y10597739D01*
X468690Y10567500D01*
X438452Y10537262D01*
X408214Y10476786D01*
X408214Y10386072D01*
X438452Y10325596D01*
X468690Y10295358D01*
X529166Y10265120D01*
X771071Y10265120D01*
X-196548Y9962739D02*
X166309Y9962739D01*
X-15120Y9962739D02*
X-15120Y10597739D01*
X45357Y10507024D01*
X105833Y10446548D01*
X166309Y10416310D01*
X-771072Y10597739D02*
X-468691Y10597739D01*
X-438453Y10295358D01*
X-468691Y10325596D01*
X-529167Y10355834D01*
X-680358Y10355834D01*
X-740834Y10325596D01*
X-771072Y10295358D01*
X-801310Y10234881D01*
X-801310Y10083691D01*
X-771072Y10023215D01*
X-740834Y9992977D01*
X-680358Y9962739D01*
X-529167Y9962739D01*
X-468691Y9992977D01*
X-438453Y10023215D01*
%TO.C,R16*%
X7408214Y-2847261D02*
X7619880Y-2544880D01*
X7771071Y-2847261D02*
X7771071Y-2212261D01*
X7529166Y-2212261D01*
X7468690Y-2242500D01*
X7438452Y-2272738D01*
X7408214Y-2333214D01*
X7408214Y-2423928D01*
X7438452Y-2484404D01*
X7468690Y-2514642D01*
X7529166Y-2544880D01*
X7771071Y-2544880D01*
X6803452Y-2847261D02*
X7166309Y-2847261D01*
X6984880Y-2847261D02*
X6984880Y-2212261D01*
X7045357Y-2302976D01*
X7105833Y-2363452D01*
X7166309Y-2393690D01*
X6259166Y-2212261D02*
X6380119Y-2212261D01*
X6440595Y-2242500D01*
X6470833Y-2272738D01*
X6531309Y-2363452D01*
X6561547Y-2484404D01*
X6561547Y-2726309D01*
X6531309Y-2786785D01*
X6501071Y-2817023D01*
X6440595Y-2847261D01*
X6319642Y-2847261D01*
X6259166Y-2817023D01*
X6228928Y-2786785D01*
X6198690Y-2726309D01*
X6198690Y-2575119D01*
X6228928Y-2514642D01*
X6259166Y-2484404D01*
X6319642Y-2454166D01*
X6440595Y-2454166D01*
X6501071Y-2484404D01*
X6531309Y-2514642D01*
X6561547Y-2575119D01*
%TO.C,R17*%
X-12091786Y4597739D02*
X-11880120Y4900120D01*
X-11728929Y4597739D02*
X-11728929Y5232739D01*
X-11970834Y5232739D01*
X-12031310Y5202500D01*
X-12061548Y5172262D01*
X-12091786Y5111786D01*
X-12091786Y5021072D01*
X-12061548Y4960596D01*
X-12031310Y4930358D01*
X-11970834Y4900120D01*
X-11728929Y4900120D01*
X-12696548Y4597739D02*
X-12333691Y4597739D01*
X-12515120Y4597739D02*
X-12515120Y5232739D01*
X-12454643Y5142024D01*
X-12394167Y5081548D01*
X-12333691Y5051310D01*
X-12908215Y5232739D02*
X-13331548Y5232739D01*
X-13059405Y4597739D01*
%TO.C,R18*%
X408214Y5962739D02*
X619880Y6265120D01*
X771071Y5962739D02*
X771071Y6597739D01*
X529166Y6597739D01*
X468690Y6567500D01*
X438452Y6537262D01*
X408214Y6476786D01*
X408214Y6386072D01*
X438452Y6325596D01*
X468690Y6295358D01*
X529166Y6265120D01*
X771071Y6265120D01*
X-196548Y5962739D02*
X166309Y5962739D01*
X-15120Y5962739D02*
X-15120Y6597739D01*
X45357Y6507024D01*
X105833Y6446548D01*
X166309Y6416310D01*
X-559405Y6325596D02*
X-498929Y6355834D01*
X-468691Y6386072D01*
X-438453Y6446548D01*
X-438453Y6476786D01*
X-468691Y6537262D01*
X-498929Y6567500D01*
X-559405Y6597739D01*
X-680358Y6597739D01*
X-740834Y6567500D01*
X-771072Y6537262D01*
X-801310Y6476786D01*
X-801310Y6446548D01*
X-771072Y6386072D01*
X-740834Y6355834D01*
X-680358Y6325596D01*
X-559405Y6325596D01*
X-498929Y6295358D01*
X-468691Y6265120D01*
X-438453Y6204643D01*
X-438453Y6083691D01*
X-468691Y6023215D01*
X-498929Y5992977D01*
X-559405Y5962739D01*
X-680358Y5962739D01*
X-740834Y5992977D01*
X-771072Y6023215D01*
X-801310Y6083691D01*
X-801310Y6204643D01*
X-771072Y6265120D01*
X-740834Y6295358D01*
X-680358Y6325596D01*
%TO.C,R19*%
X7408214Y-10467261D02*
X7619880Y-10164880D01*
X7771071Y-10467261D02*
X7771071Y-9832261D01*
X7529166Y-9832261D01*
X7468690Y-9862500D01*
X7438452Y-9892738D01*
X7408214Y-9953214D01*
X7408214Y-10043928D01*
X7438452Y-10104404D01*
X7468690Y-10134642D01*
X7529166Y-10164880D01*
X7771071Y-10164880D01*
X6803452Y-10467261D02*
X7166309Y-10467261D01*
X6984880Y-10467261D02*
X6984880Y-9832261D01*
X7045357Y-9922976D01*
X7105833Y-9983452D01*
X7166309Y-10013690D01*
X6501071Y-10467261D02*
X6380119Y-10467261D01*
X6319642Y-10437023D01*
X6289404Y-10406785D01*
X6228928Y-10316071D01*
X6198690Y-10195119D01*
X6198690Y-9953214D01*
X6228928Y-9892738D01*
X6259166Y-9862500D01*
X6319642Y-9832261D01*
X6440595Y-9832261D01*
X6501071Y-9862500D01*
X6531309Y-9892738D01*
X6561547Y-9953214D01*
X6561547Y-10104404D01*
X6531309Y-10164880D01*
X6501071Y-10195119D01*
X6440595Y-10225357D01*
X6319642Y-10225357D01*
X6259166Y-10195119D01*
X6228928Y-10164880D01*
X6198690Y-10104404D01*
%TO.C,R20*%
X-12091786Y2057739D02*
X-11880120Y2360120D01*
X-11728929Y2057739D02*
X-11728929Y2692739D01*
X-11970834Y2692739D01*
X-12031310Y2662500D01*
X-12061548Y2632262D01*
X-12091786Y2571786D01*
X-12091786Y2481072D01*
X-12061548Y2420596D01*
X-12031310Y2390358D01*
X-11970834Y2360120D01*
X-11728929Y2360120D01*
X-12333691Y2632262D02*
X-12363929Y2662500D01*
X-12424405Y2692739D01*
X-12575596Y2692739D01*
X-12636072Y2662500D01*
X-12666310Y2632262D01*
X-12696548Y2571786D01*
X-12696548Y2511310D01*
X-12666310Y2420596D01*
X-12303453Y2057739D01*
X-12696548Y2057739D01*
X-13089643Y2692739D02*
X-13150120Y2692739D01*
X-13210596Y2662500D01*
X-13240834Y2632262D01*
X-13271072Y2571786D01*
X-13301310Y2450834D01*
X-13301310Y2299643D01*
X-13271072Y2178691D01*
X-13240834Y2118215D01*
X-13210596Y2087977D01*
X-13150120Y2057739D01*
X-13089643Y2057739D01*
X-13029167Y2087977D01*
X-12998929Y2118215D01*
X-12968691Y2178691D01*
X-12938453Y2299643D01*
X-12938453Y2450834D01*
X-12968691Y2571786D01*
X-12998929Y2632262D01*
X-13029167Y2662500D01*
X-13089643Y2692739D01*
%TO.C,R21*%
X408214Y1962739D02*
X619880Y2265120D01*
X771071Y1962739D02*
X771071Y2597739D01*
X529166Y2597739D01*
X468690Y2567500D01*
X438452Y2537262D01*
X408214Y2476786D01*
X408214Y2386072D01*
X438452Y2325596D01*
X468690Y2295358D01*
X529166Y2265120D01*
X771071Y2265120D01*
X166309Y2537262D02*
X136071Y2567500D01*
X75595Y2597739D01*
X-75596Y2597739D01*
X-136072Y2567500D01*
X-166310Y2537262D01*
X-196548Y2476786D01*
X-196548Y2416310D01*
X-166310Y2325596D01*
X196547Y1962739D01*
X-196548Y1962739D01*
X-801310Y1962739D02*
X-438453Y1962739D01*
X-619881Y1962739D02*
X-619881Y2597739D01*
X-559405Y2507024D01*
X-498929Y2446548D01*
X-438453Y2416310D01*
%TO.C,R22*%
X7408214Y-13007261D02*
X7619880Y-12704880D01*
X7771071Y-13007261D02*
X7771071Y-12372261D01*
X7529166Y-12372261D01*
X7468690Y-12402500D01*
X7438452Y-12432738D01*
X7408214Y-12493214D01*
X7408214Y-12583928D01*
X7438452Y-12644404D01*
X7468690Y-12674642D01*
X7529166Y-12704880D01*
X7771071Y-12704880D01*
X7166309Y-12432738D02*
X7136071Y-12402500D01*
X7075595Y-12372261D01*
X6924404Y-12372261D01*
X6863928Y-12402500D01*
X6833690Y-12432738D01*
X6803452Y-12493214D01*
X6803452Y-12553690D01*
X6833690Y-12644404D01*
X7196547Y-13007261D01*
X6803452Y-13007261D01*
X6561547Y-12432738D02*
X6531309Y-12402500D01*
X6470833Y-12372261D01*
X6319642Y-12372261D01*
X6259166Y-12402500D01*
X6228928Y-12432738D01*
X6198690Y-12493214D01*
X6198690Y-12553690D01*
X6228928Y-12644404D01*
X6591785Y-13007261D01*
X6198690Y-13007261D01*
%TO.C,R23*%
X-12091786Y-482261D02*
X-11880120Y-179880D01*
X-11728929Y-482261D02*
X-11728929Y152739D01*
X-11970834Y152739D01*
X-12031310Y122500D01*
X-12061548Y92262D01*
X-12091786Y31786D01*
X-12091786Y-58928D01*
X-12061548Y-119404D01*
X-12031310Y-149642D01*
X-11970834Y-179880D01*
X-11728929Y-179880D01*
X-12333691Y92262D02*
X-12363929Y122500D01*
X-12424405Y152739D01*
X-12575596Y152739D01*
X-12636072Y122500D01*
X-12666310Y92262D01*
X-12696548Y31786D01*
X-12696548Y-28690D01*
X-12666310Y-119404D01*
X-12303453Y-482261D01*
X-12696548Y-482261D01*
X-12908215Y152739D02*
X-13301310Y152739D01*
X-13089643Y-89166D01*
X-13180358Y-89166D01*
X-13240834Y-119404D01*
X-13271072Y-149642D01*
X-13301310Y-210119D01*
X-13301310Y-361309D01*
X-13271072Y-421785D01*
X-13240834Y-452023D01*
X-13180358Y-482261D01*
X-12998929Y-482261D01*
X-12938453Y-452023D01*
X-12908215Y-421785D01*
%TO.C,R24*%
X408214Y-2037261D02*
X619880Y-1734880D01*
X771071Y-2037261D02*
X771071Y-1402261D01*
X529166Y-1402261D01*
X468690Y-1432500D01*
X438452Y-1462738D01*
X408214Y-1523214D01*
X408214Y-1613928D01*
X438452Y-1674404D01*
X468690Y-1704642D01*
X529166Y-1734880D01*
X771071Y-1734880D01*
X166309Y-1462738D02*
X136071Y-1432500D01*
X75595Y-1402261D01*
X-75596Y-1402261D01*
X-136072Y-1432500D01*
X-166310Y-1462738D01*
X-196548Y-1523214D01*
X-196548Y-1583690D01*
X-166310Y-1674404D01*
X196547Y-2037261D01*
X-196548Y-2037261D01*
X-740834Y-1613928D02*
X-740834Y-2037261D01*
X-589643Y-1372023D02*
X-438453Y-1825595D01*
X-831548Y-1825595D01*
%TO.C,R25*%
X7408214Y-15547261D02*
X7619880Y-15244880D01*
X7771071Y-15547261D02*
X7771071Y-14912261D01*
X7529166Y-14912261D01*
X7468690Y-14942500D01*
X7438452Y-14972738D01*
X7408214Y-15033214D01*
X7408214Y-15123928D01*
X7438452Y-15184404D01*
X7468690Y-15214642D01*
X7529166Y-15244880D01*
X7771071Y-15244880D01*
X7166309Y-14972738D02*
X7136071Y-14942500D01*
X7075595Y-14912261D01*
X6924404Y-14912261D01*
X6863928Y-14942500D01*
X6833690Y-14972738D01*
X6803452Y-15033214D01*
X6803452Y-15093690D01*
X6833690Y-15184404D01*
X7196547Y-15547261D01*
X6803452Y-15547261D01*
X6228928Y-14912261D02*
X6531309Y-14912261D01*
X6561547Y-15214642D01*
X6531309Y-15184404D01*
X6470833Y-15154166D01*
X6319642Y-15154166D01*
X6259166Y-15184404D01*
X6228928Y-15214642D01*
X6198690Y-15275119D01*
X6198690Y-15426309D01*
X6228928Y-15486785D01*
X6259166Y-15517023D01*
X6319642Y-15547261D01*
X6470833Y-15547261D01*
X6531309Y-15517023D01*
X6561547Y-15486785D01*
%TO.C,R26*%
X7408214Y-23167261D02*
X7619880Y-22864880D01*
X7771071Y-23167261D02*
X7771071Y-22532261D01*
X7529166Y-22532261D01*
X7468690Y-22562500D01*
X7438452Y-22592738D01*
X7408214Y-22653214D01*
X7408214Y-22743928D01*
X7438452Y-22804404D01*
X7468690Y-22834642D01*
X7529166Y-22864880D01*
X7771071Y-22864880D01*
X7166309Y-22592738D02*
X7136071Y-22562500D01*
X7075595Y-22532261D01*
X6924404Y-22532261D01*
X6863928Y-22562500D01*
X6833690Y-22592738D01*
X6803452Y-22653214D01*
X6803452Y-22713690D01*
X6833690Y-22804404D01*
X7196547Y-23167261D01*
X6803452Y-23167261D01*
X6259166Y-22532261D02*
X6380119Y-22532261D01*
X6440595Y-22562500D01*
X6470833Y-22592738D01*
X6531309Y-22683452D01*
X6561547Y-22804404D01*
X6561547Y-23046309D01*
X6531309Y-23106785D01*
X6501071Y-23137023D01*
X6440595Y-23167261D01*
X6319642Y-23167261D01*
X6259166Y-23137023D01*
X6228928Y-23106785D01*
X6198690Y-23046309D01*
X6198690Y-22895119D01*
X6228928Y-22834642D01*
X6259166Y-22804404D01*
X6319642Y-22774166D01*
X6440595Y-22774166D01*
X6501071Y-22804404D01*
X6531309Y-22834642D01*
X6561547Y-22895119D01*
%TO.C,R27*%
X1158214Y-23167261D02*
X1369880Y-22864880D01*
X1521071Y-23167261D02*
X1521071Y-22532261D01*
X1279166Y-22532261D01*
X1218690Y-22562500D01*
X1188452Y-22592738D01*
X1158214Y-22653214D01*
X1158214Y-22743928D01*
X1188452Y-22804404D01*
X1218690Y-22834642D01*
X1279166Y-22864880D01*
X1521071Y-22864880D01*
X916309Y-22592738D02*
X886071Y-22562500D01*
X825595Y-22532261D01*
X674404Y-22532261D01*
X613928Y-22562500D01*
X583690Y-22592738D01*
X553452Y-22653214D01*
X553452Y-22713690D01*
X583690Y-22804404D01*
X946547Y-23167261D01*
X553452Y-23167261D01*
X341785Y-22532261D02*
X-81548Y-22532261D01*
X190595Y-23167261D01*
%TO.C,R28*%
X1158214Y-20627261D02*
X1369880Y-20324880D01*
X1521071Y-20627261D02*
X1521071Y-19992261D01*
X1279166Y-19992261D01*
X1218690Y-20022500D01*
X1188452Y-20052738D01*
X1158214Y-20113214D01*
X1158214Y-20203928D01*
X1188452Y-20264404D01*
X1218690Y-20294642D01*
X1279166Y-20324880D01*
X1521071Y-20324880D01*
X916309Y-20052738D02*
X886071Y-20022500D01*
X825595Y-19992261D01*
X674404Y-19992261D01*
X613928Y-20022500D01*
X583690Y-20052738D01*
X553452Y-20113214D01*
X553452Y-20173690D01*
X583690Y-20264404D01*
X946547Y-20627261D01*
X553452Y-20627261D01*
X190595Y-20264404D02*
X251071Y-20234166D01*
X281309Y-20203928D01*
X311547Y-20143452D01*
X311547Y-20113214D01*
X281309Y-20052738D01*
X251071Y-20022500D01*
X190595Y-19992261D01*
X69642Y-19992261D01*
X9166Y-20022500D01*
X-21072Y-20052738D01*
X-51310Y-20113214D01*
X-51310Y-20143452D01*
X-21072Y-20203928D01*
X9166Y-20234166D01*
X69642Y-20264404D01*
X190595Y-20264404D01*
X251071Y-20294642D01*
X281309Y-20324880D01*
X311547Y-20385357D01*
X311547Y-20506309D01*
X281309Y-20566785D01*
X251071Y-20597023D01*
X190595Y-20627261D01*
X69642Y-20627261D01*
X9166Y-20597023D01*
X-21072Y-20566785D01*
X-51310Y-20506309D01*
X-51310Y-20385357D01*
X-21072Y-20324880D01*
X9166Y-20294642D01*
X69642Y-20264404D01*
%TO.C,C1*%
X4605833Y-22546785D02*
X4636071Y-22577023D01*
X4726785Y-22607261D01*
X4787261Y-22607261D01*
X4877976Y-22577023D01*
X4938452Y-22516547D01*
X4968690Y-22456071D01*
X4998928Y-22335119D01*
X4998928Y-22244404D01*
X4968690Y-22123452D01*
X4938452Y-22062976D01*
X4877976Y-22002500D01*
X4787261Y-21972261D01*
X4726785Y-21972261D01*
X4636071Y-22002500D01*
X4605833Y-22032738D01*
X4001071Y-22607261D02*
X4363928Y-22607261D01*
X4182500Y-22607261D02*
X4182500Y-21972261D01*
X4242976Y-22062976D01*
X4303452Y-22123452D01*
X4363928Y-22153690D01*
%TO.C,C2*%
X3105833Y-22546785D02*
X3136071Y-22577023D01*
X3226785Y-22607261D01*
X3287261Y-22607261D01*
X3377976Y-22577023D01*
X3438452Y-22516547D01*
X3468690Y-22456071D01*
X3498928Y-22335119D01*
X3498928Y-22244404D01*
X3468690Y-22123452D01*
X3438452Y-22062976D01*
X3377976Y-22002500D01*
X3287261Y-21972261D01*
X3226785Y-21972261D01*
X3136071Y-22002500D01*
X3105833Y-22032738D01*
X2863928Y-22032738D02*
X2833690Y-22002500D01*
X2773214Y-21972261D01*
X2622023Y-21972261D01*
X2561547Y-22002500D01*
X2531309Y-22032738D01*
X2501071Y-22093214D01*
X2501071Y-22153690D01*
X2531309Y-22244404D01*
X2894166Y-22607261D01*
X2501071Y-22607261D01*
%TD*%
D12*
%TO.C,MK1*%
X1200000Y-16250000D03*
X-1200000Y-16250000D03*
X1200000Y-17502000D03*
X-1200000Y-17502000D03*
D13*
X900000Y-18585000D03*
X-900000Y-18585000D03*
X0Y-18585000D03*
D14*
X0Y-16250000D03*
%TD*%
D15*
%TO.C,Q1*%
X-4980000Y23445000D03*
D16*
X-9050000Y23445000D03*
X-9050000Y22175000D03*
X-9050000Y20905000D03*
X-9050000Y19635000D03*
X-9050000Y18365000D03*
X-9050000Y17095000D03*
X-9050000Y15825000D03*
X-9050000Y14555000D03*
X-3450000Y14555000D03*
X-3450000Y15825000D03*
X-3450000Y17095000D03*
X-3450000Y18365000D03*
X-3450000Y19635000D03*
X-3450000Y20905000D03*
X-3450000Y22175000D03*
X-3450000Y23445000D03*
%TD*%
D15*
%TO.C,Q2*%
X-4980000Y7445000D03*
D16*
X-9050000Y7445000D03*
X-9050000Y6175000D03*
X-9050000Y4905000D03*
X-9050000Y3635000D03*
X-9050000Y2365000D03*
X-9050000Y1095000D03*
X-9050000Y-175000D03*
X-9050000Y-1445000D03*
X-3450000Y-1445000D03*
X-3450000Y-175000D03*
X-3450000Y1095000D03*
X-3450000Y2365000D03*
X-3450000Y3635000D03*
X-3450000Y4905000D03*
X-3450000Y6175000D03*
X-3450000Y7445000D03*
%TD*%
D17*
%TO.C,R1*%
X6250000Y11430000D03*
X7750000Y11430000D03*
%TD*%
%TO.C,R2*%
X-11750000Y22175000D03*
X-13250000Y22175000D03*
%TD*%
%TO.C,R3*%
X750000Y25000000D03*
X-750000Y25000000D03*
%TD*%
%TO.C,R4*%
X6250000Y8890000D03*
X7750000Y8890000D03*
%TD*%
%TO.C,R5*%
X-11750000Y19635000D03*
X-13250000Y19635000D03*
%TD*%
%TO.C,R6*%
X750000Y21000000D03*
X-750000Y21000000D03*
%TD*%
%TO.C,R7*%
X6250000Y6350000D03*
X7750000Y6350000D03*
%TD*%
%TO.C,R8*%
X-11750000Y17095000D03*
X-13250000Y17095000D03*
%TD*%
%TO.C,R9*%
X750000Y17000000D03*
X-750000Y17000000D03*
%TD*%
%TO.C,R10*%
X6250000Y1270000D03*
X7750000Y1270000D03*
%TD*%
%TO.C,R11*%
X-11750000Y14555000D03*
X-13250000Y14555000D03*
%TD*%
%TO.C,R12*%
X750000Y13000000D03*
X-750000Y13000000D03*
%TD*%
%TO.C,R13*%
X6250000Y-1270000D03*
X7750000Y-1270000D03*
%TD*%
%TO.C,R14*%
X-11750000Y6175000D03*
X-13250000Y6175000D03*
%TD*%
%TO.C,R15*%
X750000Y9000000D03*
X-750000Y9000000D03*
%TD*%
%TO.C,R16*%
X6250000Y-3810000D03*
X7750000Y-3810000D03*
%TD*%
%TO.C,R17*%
X-11750000Y3635000D03*
X-13250000Y3635000D03*
%TD*%
%TO.C,R18*%
X750000Y5000000D03*
X-750000Y5000000D03*
%TD*%
%TO.C,R19*%
X6250000Y-11430000D03*
X7750000Y-11430000D03*
%TD*%
%TO.C,R20*%
X-11750000Y1095000D03*
X-13250000Y1095000D03*
%TD*%
%TO.C,R21*%
X750000Y1000000D03*
X-750000Y1000000D03*
%TD*%
%TO.C,R22*%
X6250000Y-13970000D03*
X7750000Y-13970000D03*
%TD*%
%TO.C,R23*%
X-11750000Y-1445000D03*
X-13250000Y-1445000D03*
%TD*%
%TO.C,R24*%
X750000Y-3000000D03*
X-750000Y-3000000D03*
%TD*%
%TO.C,R25*%
X7750000Y-16510000D03*
X6250000Y-16510000D03*
%TD*%
%TO.C,R26*%
X7750000Y-24130000D03*
X6250000Y-24130000D03*
%TD*%
%TO.C,R27*%
X0Y-24130000D03*
X1500000Y-24130000D03*
%TD*%
%TO.C,R28*%
X0Y-21590000D03*
X1500000Y-21590000D03*
%TD*%
D18*
%TO.C,MOUNTING-HOLE*%
X11500000Y-29000000D03*
%TD*%
%TO.C,MOUNTING-HOLE*%
X-11500000Y-29000000D03*
%TD*%
%TO.C,MOUNTING-HOLE*%
X-11500000Y29000000D03*
%TD*%
%TO.C,MOUNTING-HOLE*%
X11500000Y29000000D03*
%TD*%
D19*
%TO.C,C1*%
X4500000Y-19570000D03*
X4500000Y-21070000D03*
%TD*%
%TO.C,C2*%
X3000000Y-21070000D03*
X3000000Y-19570000D03*
%TD*%
D20*
%TO.C,P1*%
X12770000Y-24130000D03*
X10230000Y-24130000D03*
X12770000Y-21590000D03*
X10230000Y-21590000D03*
X12770000Y-19050000D03*
X10230000Y-19050000D03*
X12770000Y-16510000D03*
X10230000Y-16510000D03*
X12770000Y-13970000D03*
X10230000Y-13970000D03*
X12770000Y-11430000D03*
X10230000Y-11430000D03*
X12770000Y-8890000D03*
X10230000Y-8890000D03*
X12770000Y-6350000D03*
X10230000Y-6350000D03*
X12770000Y-3810000D03*
X10230000Y-3810000D03*
X12770000Y-1270000D03*
X10230000Y-1270000D03*
X12770000Y1270000D03*
X10230000Y1270000D03*
X12770000Y3810000D03*
X10230000Y3810000D03*
X12770000Y6350000D03*
X10230000Y6350000D03*
X12770000Y8890000D03*
X10230000Y8890000D03*
X12770000Y11430000D03*
X10230000Y11430000D03*
X12770000Y13970000D03*
X10230000Y13970000D03*
X12770000Y16510000D03*
X10230000Y16510000D03*
X12770000Y19050000D03*
X10230000Y19050000D03*
X12770000Y21590000D03*
X10230000Y21590000D03*
X12770000Y24130000D03*
D21*
X10230000Y24130000D03*
%TD*%
M02*
