G04 #@! TF.FileFunction,Copper,L1,Top,Signal*
%FSLAX46Y46*%
G04 Gerber Fmt 4.6, Leading zero omitted, Abs format (unit mm)*
G04 Created by KiCad (PCBNEW 4.0.5) date 04/11/17 14:07:49*
%MOMM*%
%LPD*%
G01*
G04 APERTURE LIST*
%ADD10C,0.100000*%
%ADD11C,0.600000*%
%ADD12R,2.600000X2.000000*%
%ADD13O,2.600000X2.000000*%
%ADD14R,1.525000X0.410000*%
%ADD15C,0.250000*%
%ADD16C,0.254000*%
G04 APERTURE END LIST*
D10*
D11*
X102250000Y-46230000D03*
X97250000Y-46230000D03*
X92250000Y-46230000D03*
X87250000Y-46230000D03*
X102000000Y-28000000D03*
X97000000Y-28000000D03*
X92000000Y-28000000D03*
D12*
X109400000Y-28000000D03*
D13*
X109400000Y-30540000D03*
X109400000Y-33080000D03*
X109400000Y-35620000D03*
X109400000Y-38160000D03*
X109400000Y-40700000D03*
X109400000Y-43240000D03*
X109400000Y-45780000D03*
D12*
X81100000Y-45900000D03*
D13*
X81100000Y-43360000D03*
X81100000Y-40820000D03*
X81100000Y-38280000D03*
X81100000Y-35740000D03*
X81100000Y-33200000D03*
X81100000Y-30660000D03*
X81100000Y-28120000D03*
D14*
X98700000Y-41090000D03*
X98700000Y-39820000D03*
X98700000Y-38550000D03*
X98700000Y-37280000D03*
X98700000Y-36010000D03*
X98700000Y-34740000D03*
X98700000Y-33470000D03*
X98700000Y-32200000D03*
X90200000Y-41090000D03*
X90200000Y-39820000D03*
X90200000Y-38550000D03*
X90200000Y-37280000D03*
X90200000Y-36010000D03*
X90200000Y-34740000D03*
X90200000Y-33470000D03*
X90200000Y-32200000D03*
D11*
X87000000Y-28000000D03*
D15*
X90200000Y-41090000D02*
X87210000Y-41090000D01*
X87210000Y-41090000D02*
X82400000Y-45900000D01*
X82400000Y-45900000D02*
X81100000Y-45900000D01*
X90200000Y-39820000D02*
X85680000Y-39820000D01*
X85467568Y-39799483D02*
X85450086Y-39807902D01*
X85450086Y-39807902D02*
X85434916Y-39820000D01*
X85680000Y-39820000D02*
X85664829Y-39832097D01*
X84688412Y-40578638D02*
X84684095Y-40597555D01*
X85505888Y-39795165D02*
X85486485Y-39795165D01*
X85664829Y-39832097D02*
X85647347Y-39840516D01*
X84760761Y-40739239D02*
X84822032Y-40800510D01*
X85647347Y-39840516D02*
X85628430Y-39844834D01*
X84696831Y-40653357D02*
X84708929Y-40668528D01*
X84688412Y-40635876D02*
X84696831Y-40653357D01*
X85628430Y-39844834D02*
X85609027Y-39844834D01*
X85486485Y-39795165D02*
X85467568Y-39799483D01*
X84044477Y-41673873D02*
X84025073Y-41673873D01*
X84708929Y-40545986D02*
X84696831Y-40561156D01*
X84006156Y-41669556D02*
X83988675Y-41661137D01*
X85609027Y-39844834D02*
X85590110Y-39840516D01*
X84696831Y-40561156D02*
X84688412Y-40578638D01*
X85590110Y-39840516D02*
X85572628Y-39832097D01*
X84822032Y-40800510D02*
X84834131Y-40815680D01*
X85572628Y-39832097D02*
X85542287Y-39807902D01*
X84846867Y-40871483D02*
X84842550Y-40890399D01*
X84708929Y-40668528D02*
X84770199Y-40729798D01*
X85542287Y-39807902D02*
X85524805Y-39799483D01*
X85434916Y-39820000D02*
X84708929Y-40545986D01*
X85524805Y-39799483D02*
X85505888Y-39795165D01*
X83921935Y-41624205D02*
X83902533Y-41624204D01*
X84684095Y-40597555D02*
X84684095Y-40616959D01*
X84684095Y-40616959D02*
X84688412Y-40635876D01*
X84834131Y-40815680D02*
X84842550Y-40833161D01*
X84770199Y-40729798D02*
X84760761Y-40739239D01*
X84842550Y-40833161D02*
X84846867Y-40852079D01*
X84846867Y-40852079D02*
X84846867Y-40871483D01*
X84842550Y-40890399D02*
X84834130Y-40907882D01*
X84834130Y-40907882D02*
X84822032Y-40923052D01*
X84822032Y-40923052D02*
X84096047Y-41649038D01*
X84096047Y-41649038D02*
X84080877Y-41661136D01*
X84025073Y-41673873D02*
X84006156Y-41669556D01*
X84080877Y-41661136D02*
X84063394Y-41669556D01*
X83866134Y-41636941D02*
X83850963Y-41649039D01*
X84063394Y-41669556D02*
X84044477Y-41673873D01*
X83988675Y-41661137D02*
X83973505Y-41649038D01*
X83973505Y-41649038D02*
X83958334Y-41636942D01*
X83958334Y-41636942D02*
X83940853Y-41628522D01*
X83940853Y-41628522D02*
X83921935Y-41624205D01*
X83902533Y-41624204D02*
X83883615Y-41628523D01*
X83883615Y-41628523D02*
X83866134Y-41636941D01*
X83850963Y-41649039D02*
X82140000Y-43360000D01*
X82140000Y-43360000D02*
X81100000Y-43360000D01*
X90200000Y-38550000D02*
X89000000Y-38550000D01*
X89000000Y-38550000D02*
X88974224Y-38547095D01*
X88794111Y-38321239D02*
X88768336Y-38318335D01*
X87972095Y-38691609D02*
X87963529Y-38716091D01*
X88074224Y-38321239D02*
X88049742Y-38329805D01*
X88974224Y-38547095D02*
X88949742Y-38538529D01*
X88818593Y-38329805D02*
X88794111Y-38321239D01*
X87975000Y-38665833D02*
X87972095Y-38691609D01*
X88949742Y-38538529D02*
X88927779Y-38524729D01*
X88909438Y-38506388D02*
X88895638Y-38484425D01*
X88927779Y-38524729D02*
X88909438Y-38506388D01*
X86218611Y-38343605D02*
X86200270Y-38361946D01*
X83939643Y-38724618D02*
X83913705Y-38724618D01*
X86186470Y-38383909D02*
X86177904Y-38408391D01*
X88872697Y-38383909D02*
X88858897Y-38361946D01*
X88881263Y-38408391D02*
X88872697Y-38383909D01*
X88895638Y-38484425D02*
X88887072Y-38459943D01*
X88887072Y-38459943D02*
X88881263Y-38408391D01*
X84150000Y-38550000D02*
X84008580Y-38691420D01*
X88858897Y-38361946D02*
X88840556Y-38343605D01*
X87984168Y-38550000D02*
X87975000Y-38550000D01*
X87984168Y-38434168D02*
X87984168Y-38550000D01*
X87086470Y-38716091D02*
X87077904Y-38691609D01*
X88840556Y-38343605D02*
X88818593Y-38329805D01*
X87884943Y-38778761D02*
X87859168Y-38781665D01*
X88768336Y-38318335D02*
X88100000Y-38318335D01*
X83180944Y-39284166D02*
X83192198Y-39307535D01*
X83192198Y-39307535D02*
X83224543Y-39348094D01*
X88100000Y-38318335D02*
X88074224Y-38321239D01*
X87975000Y-38550000D02*
X87975000Y-38665833D01*
X88049742Y-38329805D02*
X88027779Y-38343605D01*
X87931388Y-38756395D02*
X87909425Y-38770195D01*
X85390832Y-38781665D02*
X85365056Y-38778761D01*
X88027779Y-38343605D02*
X88009438Y-38361946D01*
X88009438Y-38361946D02*
X87995638Y-38383909D01*
X87995638Y-38383909D02*
X87987072Y-38408391D01*
X87987072Y-38408391D02*
X87984168Y-38434168D01*
X87140574Y-38770195D02*
X87118611Y-38756395D01*
X83680956Y-38691419D02*
X83208371Y-39164003D01*
X86131388Y-38756395D02*
X86109425Y-38770195D01*
X87963529Y-38716091D02*
X87949729Y-38738054D01*
X86109425Y-38770195D02*
X86084943Y-38778761D01*
X87949729Y-38738054D02*
X87931388Y-38756395D01*
X87009425Y-38329805D02*
X86984943Y-38321239D01*
X87909425Y-38770195D02*
X87884943Y-38778761D01*
X87859168Y-38781665D02*
X87190832Y-38781665D01*
X87049729Y-38361946D02*
X87031388Y-38343605D01*
X87190832Y-38781665D02*
X87165056Y-38778761D01*
X85263529Y-38615575D02*
X85249729Y-38593612D01*
X83888417Y-38718846D02*
X83865048Y-38707592D01*
X86175000Y-38434167D02*
X86175000Y-38665833D01*
X86175000Y-38665833D02*
X86172095Y-38691609D01*
X86265056Y-38321239D02*
X86240574Y-38329805D01*
X87165056Y-38778761D02*
X87140574Y-38770195D01*
X87118611Y-38756395D02*
X87100270Y-38738054D01*
X87100270Y-38738054D02*
X87086470Y-38716091D01*
X87075000Y-38434167D02*
X87072095Y-38408391D01*
X87075000Y-38665833D02*
X87075000Y-38434167D01*
X87077904Y-38691609D02*
X87075000Y-38665833D01*
X87072095Y-38408391D02*
X87063529Y-38383909D01*
X83775830Y-38658221D02*
X83749892Y-38658221D01*
X87063529Y-38383909D02*
X87049729Y-38361946D01*
X83865048Y-38707592D02*
X83824488Y-38675247D01*
X87031388Y-38343605D02*
X87009425Y-38329805D01*
X86984943Y-38321239D02*
X86959168Y-38318335D01*
X86290832Y-38318335D02*
X86265056Y-38321239D01*
X86959168Y-38318335D02*
X86290832Y-38318335D01*
X85249729Y-38593612D02*
X85231388Y-38575271D01*
X83224543Y-39471347D02*
X83208371Y-39491626D01*
X86240574Y-38329805D02*
X86218611Y-38343605D01*
X86200270Y-38361946D02*
X86186470Y-38383909D01*
X86163529Y-38716091D02*
X86149729Y-38738054D01*
X86177904Y-38408391D02*
X86175000Y-38434167D01*
X85272095Y-38640057D02*
X85263529Y-38615575D01*
X86172095Y-38691609D02*
X86163529Y-38716091D01*
X86149729Y-38738054D02*
X86131388Y-38756395D01*
X86084943Y-38778761D02*
X86059168Y-38781665D01*
X86059168Y-38781665D02*
X85390832Y-38781665D01*
X85365056Y-38778761D02*
X85340574Y-38770195D01*
X85340574Y-38770195D02*
X85318611Y-38756395D01*
X83913705Y-38724618D02*
X83888417Y-38718846D01*
X85318611Y-38756395D02*
X85300270Y-38738054D01*
X85300270Y-38738054D02*
X85286470Y-38716091D01*
X85286470Y-38716091D02*
X85277904Y-38691609D01*
X85277904Y-38691609D02*
X85272095Y-38640057D01*
X85231388Y-38575271D02*
X85209425Y-38561471D01*
X85209425Y-38561471D02*
X85184943Y-38552905D01*
X83180944Y-39207652D02*
X83175173Y-39232940D01*
X83241569Y-39422690D02*
X83235798Y-39447978D01*
X85184943Y-38552905D02*
X85159168Y-38550000D01*
X85159168Y-38550000D02*
X84150000Y-38550000D01*
X84008580Y-38691420D02*
X83988300Y-38707592D01*
X83988300Y-38707592D02*
X83964931Y-38718846D01*
X83175173Y-39258878D02*
X83180944Y-39284166D01*
X83964931Y-38718846D02*
X83939643Y-38724618D01*
X83824488Y-38675247D02*
X83801118Y-38663992D01*
X83801118Y-38663992D02*
X83775830Y-38658221D01*
X83749892Y-38658221D02*
X83724604Y-38663992D01*
X83724604Y-38663992D02*
X83701235Y-38675247D01*
X83701235Y-38675247D02*
X83680956Y-38691419D01*
X83208371Y-39164003D02*
X83192198Y-39184283D01*
X83192198Y-39184283D02*
X83180944Y-39207652D01*
X83175173Y-39232940D02*
X83175173Y-39258878D01*
X83224543Y-39348094D02*
X83235798Y-39371464D01*
X83235798Y-39371464D02*
X83241569Y-39396752D01*
X83241569Y-39396752D02*
X83241569Y-39422690D01*
X83235798Y-39447978D02*
X83224543Y-39471347D01*
X83208371Y-39491626D02*
X81880000Y-40820000D01*
X81880000Y-40820000D02*
X81181296Y-40820000D01*
X81181296Y-40820000D02*
X81100000Y-40820000D01*
X83720000Y-37280000D02*
X82720000Y-38280000D01*
X82720000Y-38280000D02*
X81100000Y-38280000D01*
X90200000Y-37280000D02*
X83720000Y-37280000D01*
X90200000Y-36010000D02*
X81370000Y-36010000D01*
X81370000Y-36010000D02*
X81100000Y-35740000D01*
X90200000Y-34740000D02*
X84740000Y-34740000D01*
X83200000Y-33200000D02*
X81100000Y-33200000D01*
X84740000Y-34740000D02*
X83200000Y-33200000D01*
X82223025Y-33014505D02*
X82203173Y-33021452D01*
X82159302Y-33065323D02*
X82152355Y-33085175D01*
X82114637Y-33179509D02*
X82096828Y-33190699D01*
X82076976Y-33197646D02*
X82056075Y-33200000D01*
X82129509Y-33164637D02*
X82114637Y-33179509D01*
X82243925Y-33012150D02*
X82223025Y-33014505D01*
X82203173Y-33021452D02*
X82185364Y-33032642D01*
X82185364Y-33032642D02*
X82170492Y-33047514D01*
X82170492Y-33047514D02*
X82159302Y-33065323D01*
X82152355Y-33085175D02*
X82147646Y-33126976D01*
X82147646Y-33126976D02*
X82140699Y-33146828D01*
X82140699Y-33146828D02*
X82129509Y-33164637D01*
X82096828Y-33190699D02*
X82076976Y-33197646D01*
X82056075Y-33200000D02*
X81100000Y-33200000D01*
X90200000Y-33470000D02*
X85470000Y-33470000D01*
X82660000Y-30660000D02*
X81100000Y-30660000D01*
X85470000Y-33470000D02*
X82660000Y-30660000D01*
X90200000Y-32200000D02*
X87000000Y-32200000D01*
X87000000Y-32200000D02*
X82920000Y-28120000D01*
X82920000Y-28120000D02*
X81100000Y-28120000D01*
X98700000Y-33470000D02*
X101530000Y-33470000D01*
X104460000Y-30540000D02*
X109400000Y-30540000D01*
X101530000Y-33470000D02*
X104460000Y-30540000D01*
X102360000Y-34740000D02*
X104020000Y-33080000D01*
X104020000Y-33080000D02*
X109400000Y-33080000D01*
X98700000Y-34740000D02*
X102360000Y-34740000D01*
X98700000Y-36010000D02*
X109010000Y-36010000D01*
X109010000Y-36010000D02*
X109400000Y-35620000D01*
X98700000Y-37280000D02*
X104680000Y-37280000D01*
X105560000Y-38160000D02*
X109400000Y-38160000D01*
X104680000Y-37280000D02*
X105560000Y-38160000D01*
X98700000Y-38550000D02*
X104450000Y-38550000D01*
X106600000Y-40700000D02*
X109400000Y-40700000D01*
X104450000Y-38550000D02*
X106600000Y-40700000D01*
X98700000Y-39820000D02*
X103520000Y-39820000D01*
X104470237Y-41002063D02*
X104492281Y-40997031D01*
X103520000Y-39820000D02*
X104000000Y-40300000D01*
X104014097Y-40425118D02*
X103985902Y-40460472D01*
X104000000Y-40300000D02*
X104014097Y-40317677D01*
X105196536Y-41415698D02*
X105191503Y-41437740D01*
X104425583Y-40997031D02*
X104447626Y-41002063D01*
X104000000Y-40585590D02*
X104387534Y-40973124D01*
X104014097Y-40317677D02*
X104023907Y-40338049D01*
X104832909Y-40847318D02*
X105220443Y-41234852D01*
X104690115Y-40847320D02*
X104707791Y-40833220D01*
X104492281Y-40997031D02*
X104512652Y-40987221D01*
X104794861Y-40823411D02*
X104815233Y-40833221D01*
X104023907Y-40338049D02*
X104028939Y-40360092D01*
X104023907Y-40404746D02*
X104014097Y-40425118D01*
X104028939Y-40360092D02*
X104028939Y-40382703D01*
X103976092Y-40480844D02*
X103971060Y-40502887D01*
X104028939Y-40382703D02*
X104023907Y-40404746D01*
X103985902Y-40460472D02*
X103976092Y-40480844D01*
X104618717Y-40918717D02*
X104690115Y-40847320D01*
X103971060Y-40502887D02*
X103971060Y-40525498D01*
X104707791Y-40833220D02*
X104728163Y-40823410D01*
X104530330Y-40973124D02*
X104601727Y-40901726D01*
X104772817Y-40818378D02*
X104794861Y-40823411D01*
X103971060Y-40525498D02*
X103976092Y-40547541D01*
X103976092Y-40547541D02*
X103985902Y-40567913D01*
X103985902Y-40567913D02*
X104000000Y-40585590D01*
X104387534Y-40973124D02*
X104405211Y-40987221D01*
X104405211Y-40987221D02*
X104425583Y-40997031D01*
X104447626Y-41002063D02*
X104470237Y-41002063D01*
X104512652Y-40987221D02*
X104530330Y-40973124D01*
X104601727Y-40901726D02*
X104618717Y-40918717D01*
X104728163Y-40823410D02*
X104750207Y-40818379D01*
X104750207Y-40818379D02*
X104772817Y-40818378D01*
X104815233Y-40833221D02*
X104832909Y-40847318D01*
X105249383Y-41294945D02*
X105249382Y-41317555D01*
X105220443Y-41234852D02*
X105234540Y-41252529D01*
X105234540Y-41252529D02*
X105244350Y-41272901D01*
X105244350Y-41272901D02*
X105249383Y-41294945D01*
X105249382Y-41317555D02*
X105244350Y-41339599D01*
X105244350Y-41339599D02*
X105234541Y-41359971D01*
X105234541Y-41359971D02*
X105206346Y-41395326D01*
X105206346Y-41395326D02*
X105196536Y-41415698D01*
X105191503Y-41437740D02*
X105191504Y-41460352D01*
X105191504Y-41460352D02*
X105196535Y-41482394D01*
X105196535Y-41482394D02*
X105206345Y-41502766D01*
X105206345Y-41502766D02*
X105220444Y-41520444D01*
X105220444Y-41520444D02*
X106940000Y-43240000D01*
X106940000Y-43240000D02*
X106978060Y-43240000D01*
X106978060Y-43240000D02*
X109400000Y-43240000D01*
X98700000Y-41090000D02*
X102490000Y-41090000D01*
X107180000Y-45780000D02*
X109400000Y-45780000D01*
X102490000Y-41090000D02*
X107180000Y-45780000D01*
D16*
G36*
X114873000Y-48873000D02*
X76127000Y-48873000D01*
X76127000Y-28120000D01*
X79127091Y-28120000D01*
X79251548Y-28745687D01*
X79605971Y-29276120D01*
X79776405Y-29390000D01*
X79605971Y-29503880D01*
X79251548Y-30034313D01*
X79127091Y-30660000D01*
X79251548Y-31285687D01*
X79605971Y-31816120D01*
X79776405Y-31930000D01*
X79605971Y-32043880D01*
X79251548Y-32574313D01*
X79127091Y-33200000D01*
X79251548Y-33825687D01*
X79605971Y-34356120D01*
X79776405Y-34470000D01*
X79605971Y-34583880D01*
X79251548Y-35114313D01*
X79127091Y-35740000D01*
X79251548Y-36365687D01*
X79605971Y-36896120D01*
X79776405Y-37010000D01*
X79605971Y-37123880D01*
X79251548Y-37654313D01*
X79127091Y-38280000D01*
X79251548Y-38905687D01*
X79605971Y-39436120D01*
X79776405Y-39550000D01*
X79605971Y-39663880D01*
X79251548Y-40194313D01*
X79127091Y-40820000D01*
X79251548Y-41445687D01*
X79605971Y-41976120D01*
X79776405Y-42090000D01*
X79605971Y-42203880D01*
X79251548Y-42734313D01*
X79127091Y-43360000D01*
X79251548Y-43985687D01*
X79491093Y-44344192D01*
X79348559Y-44435910D01*
X79203569Y-44648110D01*
X79152560Y-44900000D01*
X79152560Y-46900000D01*
X79196838Y-47135317D01*
X79335910Y-47351441D01*
X79548110Y-47496431D01*
X79800000Y-47547440D01*
X82400000Y-47547440D01*
X82635317Y-47503162D01*
X82851441Y-47364090D01*
X82996431Y-47151890D01*
X83047440Y-46900000D01*
X83047440Y-46327362D01*
X87524802Y-41850000D01*
X89124974Y-41850000D01*
X89185610Y-41891431D01*
X89437500Y-41942440D01*
X90962500Y-41942440D01*
X91197817Y-41898162D01*
X91413941Y-41759090D01*
X91558931Y-41546890D01*
X91609940Y-41295000D01*
X91609940Y-40885000D01*
X91565662Y-40649683D01*
X91438858Y-40452623D01*
X91558931Y-40276890D01*
X91609940Y-40025000D01*
X91609940Y-39615000D01*
X91565662Y-39379683D01*
X91438858Y-39182623D01*
X91558931Y-39006890D01*
X91609940Y-38755000D01*
X91609940Y-38345000D01*
X91565662Y-38109683D01*
X91438858Y-37912623D01*
X91558931Y-37736890D01*
X91609940Y-37485000D01*
X91609940Y-37075000D01*
X91565662Y-36839683D01*
X91438858Y-36642623D01*
X91558931Y-36466890D01*
X91609940Y-36215000D01*
X91609940Y-35805000D01*
X91565662Y-35569683D01*
X91438858Y-35372623D01*
X91558931Y-35196890D01*
X91609940Y-34945000D01*
X91609940Y-34535000D01*
X91565662Y-34299683D01*
X91438858Y-34102623D01*
X91558931Y-33926890D01*
X91609940Y-33675000D01*
X91609940Y-33265000D01*
X97290060Y-33265000D01*
X97290060Y-33675000D01*
X97334338Y-33910317D01*
X97461142Y-34107377D01*
X97341069Y-34283110D01*
X97290060Y-34535000D01*
X97290060Y-34945000D01*
X97334338Y-35180317D01*
X97461142Y-35377377D01*
X97341069Y-35553110D01*
X97290060Y-35805000D01*
X97290060Y-36215000D01*
X97334338Y-36450317D01*
X97461142Y-36647377D01*
X97341069Y-36823110D01*
X97290060Y-37075000D01*
X97290060Y-37485000D01*
X97334338Y-37720317D01*
X97461142Y-37917377D01*
X97341069Y-38093110D01*
X97290060Y-38345000D01*
X97290060Y-38755000D01*
X97334338Y-38990317D01*
X97461142Y-39187377D01*
X97341069Y-39363110D01*
X97290060Y-39615000D01*
X97290060Y-40025000D01*
X97334338Y-40260317D01*
X97461142Y-40457377D01*
X97341069Y-40633110D01*
X97290060Y-40885000D01*
X97290060Y-41295000D01*
X97334338Y-41530317D01*
X97473410Y-41746441D01*
X97685610Y-41891431D01*
X97937500Y-41942440D01*
X99462500Y-41942440D01*
X99697817Y-41898162D01*
X99772663Y-41850000D01*
X102175198Y-41850000D01*
X106642599Y-46317401D01*
X106889161Y-46482148D01*
X107180000Y-46540000D01*
X107641293Y-46540000D01*
X107905971Y-46936120D01*
X108436404Y-47290543D01*
X109062091Y-47415000D01*
X109737909Y-47415000D01*
X110363596Y-47290543D01*
X110894029Y-46936120D01*
X111248452Y-46405687D01*
X111372909Y-45780000D01*
X111248452Y-45154313D01*
X110894029Y-44623880D01*
X110723595Y-44510000D01*
X110894029Y-44396120D01*
X111248452Y-43865687D01*
X111372909Y-43240000D01*
X111248452Y-42614313D01*
X110894029Y-42083880D01*
X110723595Y-41970000D01*
X110894029Y-41856120D01*
X111248452Y-41325687D01*
X111372909Y-40700000D01*
X111248452Y-40074313D01*
X110894029Y-39543880D01*
X110723595Y-39430000D01*
X110894029Y-39316120D01*
X111248452Y-38785687D01*
X111372909Y-38160000D01*
X111248452Y-37534313D01*
X110894029Y-37003880D01*
X110723595Y-36890000D01*
X110894029Y-36776120D01*
X111248452Y-36245687D01*
X111372909Y-35620000D01*
X111248452Y-34994313D01*
X110894029Y-34463880D01*
X110723595Y-34350000D01*
X110894029Y-34236120D01*
X111248452Y-33705687D01*
X111372909Y-33080000D01*
X111248452Y-32454313D01*
X110894029Y-31923880D01*
X110723595Y-31810000D01*
X110894029Y-31696120D01*
X111248452Y-31165687D01*
X111372909Y-30540000D01*
X111248452Y-29914313D01*
X111010769Y-29558594D01*
X111059699Y-29538327D01*
X111238327Y-29359698D01*
X111335000Y-29126309D01*
X111335000Y-28285750D01*
X111176250Y-28127000D01*
X109527000Y-28127000D01*
X109527000Y-28147000D01*
X109273000Y-28147000D01*
X109273000Y-28127000D01*
X107623750Y-28127000D01*
X107465000Y-28285750D01*
X107465000Y-29126309D01*
X107561673Y-29359698D01*
X107740301Y-29538327D01*
X107789231Y-29558594D01*
X107641293Y-29780000D01*
X104460000Y-29780000D01*
X104169161Y-29837852D01*
X103922599Y-30002599D01*
X101215198Y-32710000D01*
X100023484Y-32710000D01*
X100097500Y-32531309D01*
X100097500Y-32461250D01*
X99938750Y-32302500D01*
X98827000Y-32302500D01*
X98827000Y-32347000D01*
X98573000Y-32347000D01*
X98573000Y-32302500D01*
X97461250Y-32302500D01*
X97302500Y-32461250D01*
X97302500Y-32531309D01*
X97399173Y-32764698D01*
X97465489Y-32831015D01*
X97341069Y-33013110D01*
X97290060Y-33265000D01*
X91609940Y-33265000D01*
X91565662Y-33029683D01*
X91438858Y-32832623D01*
X91558931Y-32656890D01*
X91609940Y-32405000D01*
X91609940Y-31995000D01*
X91586174Y-31868691D01*
X97302500Y-31868691D01*
X97302500Y-31938750D01*
X97461250Y-32097500D01*
X98573000Y-32097500D01*
X98573000Y-31518750D01*
X98827000Y-31518750D01*
X98827000Y-32097500D01*
X99938750Y-32097500D01*
X100097500Y-31938750D01*
X100097500Y-31868691D01*
X100000827Y-31635302D01*
X99822199Y-31456673D01*
X99588810Y-31360000D01*
X98985750Y-31360000D01*
X98827000Y-31518750D01*
X98573000Y-31518750D01*
X98414250Y-31360000D01*
X97811190Y-31360000D01*
X97577801Y-31456673D01*
X97399173Y-31635302D01*
X97302500Y-31868691D01*
X91586174Y-31868691D01*
X91565662Y-31759683D01*
X91426590Y-31543559D01*
X91214390Y-31398569D01*
X90962500Y-31347560D01*
X89437500Y-31347560D01*
X89202183Y-31391838D01*
X89127337Y-31440000D01*
X87314802Y-31440000D01*
X83457401Y-27582599D01*
X83210839Y-27417852D01*
X82920000Y-27360000D01*
X82858707Y-27360000D01*
X82594029Y-26963880D01*
X82459052Y-26873691D01*
X107465000Y-26873691D01*
X107465000Y-27714250D01*
X107623750Y-27873000D01*
X109273000Y-27873000D01*
X109273000Y-26523750D01*
X109527000Y-26523750D01*
X109527000Y-27873000D01*
X111176250Y-27873000D01*
X111335000Y-27714250D01*
X111335000Y-26873691D01*
X111238327Y-26640302D01*
X111059699Y-26461673D01*
X110826310Y-26365000D01*
X109685750Y-26365000D01*
X109527000Y-26523750D01*
X109273000Y-26523750D01*
X109114250Y-26365000D01*
X107973690Y-26365000D01*
X107740301Y-26461673D01*
X107561673Y-26640302D01*
X107465000Y-26873691D01*
X82459052Y-26873691D01*
X82063596Y-26609457D01*
X81437909Y-26485000D01*
X80762091Y-26485000D01*
X80136404Y-26609457D01*
X79605971Y-26963880D01*
X79251548Y-27494313D01*
X79127091Y-28120000D01*
X76127000Y-28120000D01*
X76127000Y-25127000D01*
X114873000Y-25127000D01*
X114873000Y-48873000D01*
X114873000Y-48873000D01*
G37*
X114873000Y-48873000D02*
X76127000Y-48873000D01*
X76127000Y-28120000D01*
X79127091Y-28120000D01*
X79251548Y-28745687D01*
X79605971Y-29276120D01*
X79776405Y-29390000D01*
X79605971Y-29503880D01*
X79251548Y-30034313D01*
X79127091Y-30660000D01*
X79251548Y-31285687D01*
X79605971Y-31816120D01*
X79776405Y-31930000D01*
X79605971Y-32043880D01*
X79251548Y-32574313D01*
X79127091Y-33200000D01*
X79251548Y-33825687D01*
X79605971Y-34356120D01*
X79776405Y-34470000D01*
X79605971Y-34583880D01*
X79251548Y-35114313D01*
X79127091Y-35740000D01*
X79251548Y-36365687D01*
X79605971Y-36896120D01*
X79776405Y-37010000D01*
X79605971Y-37123880D01*
X79251548Y-37654313D01*
X79127091Y-38280000D01*
X79251548Y-38905687D01*
X79605971Y-39436120D01*
X79776405Y-39550000D01*
X79605971Y-39663880D01*
X79251548Y-40194313D01*
X79127091Y-40820000D01*
X79251548Y-41445687D01*
X79605971Y-41976120D01*
X79776405Y-42090000D01*
X79605971Y-42203880D01*
X79251548Y-42734313D01*
X79127091Y-43360000D01*
X79251548Y-43985687D01*
X79491093Y-44344192D01*
X79348559Y-44435910D01*
X79203569Y-44648110D01*
X79152560Y-44900000D01*
X79152560Y-46900000D01*
X79196838Y-47135317D01*
X79335910Y-47351441D01*
X79548110Y-47496431D01*
X79800000Y-47547440D01*
X82400000Y-47547440D01*
X82635317Y-47503162D01*
X82851441Y-47364090D01*
X82996431Y-47151890D01*
X83047440Y-46900000D01*
X83047440Y-46327362D01*
X87524802Y-41850000D01*
X89124974Y-41850000D01*
X89185610Y-41891431D01*
X89437500Y-41942440D01*
X90962500Y-41942440D01*
X91197817Y-41898162D01*
X91413941Y-41759090D01*
X91558931Y-41546890D01*
X91609940Y-41295000D01*
X91609940Y-40885000D01*
X91565662Y-40649683D01*
X91438858Y-40452623D01*
X91558931Y-40276890D01*
X91609940Y-40025000D01*
X91609940Y-39615000D01*
X91565662Y-39379683D01*
X91438858Y-39182623D01*
X91558931Y-39006890D01*
X91609940Y-38755000D01*
X91609940Y-38345000D01*
X91565662Y-38109683D01*
X91438858Y-37912623D01*
X91558931Y-37736890D01*
X91609940Y-37485000D01*
X91609940Y-37075000D01*
X91565662Y-36839683D01*
X91438858Y-36642623D01*
X91558931Y-36466890D01*
X91609940Y-36215000D01*
X91609940Y-35805000D01*
X91565662Y-35569683D01*
X91438858Y-35372623D01*
X91558931Y-35196890D01*
X91609940Y-34945000D01*
X91609940Y-34535000D01*
X91565662Y-34299683D01*
X91438858Y-34102623D01*
X91558931Y-33926890D01*
X91609940Y-33675000D01*
X91609940Y-33265000D01*
X97290060Y-33265000D01*
X97290060Y-33675000D01*
X97334338Y-33910317D01*
X97461142Y-34107377D01*
X97341069Y-34283110D01*
X97290060Y-34535000D01*
X97290060Y-34945000D01*
X97334338Y-35180317D01*
X97461142Y-35377377D01*
X97341069Y-35553110D01*
X97290060Y-35805000D01*
X97290060Y-36215000D01*
X97334338Y-36450317D01*
X97461142Y-36647377D01*
X97341069Y-36823110D01*
X97290060Y-37075000D01*
X97290060Y-37485000D01*
X97334338Y-37720317D01*
X97461142Y-37917377D01*
X97341069Y-38093110D01*
X97290060Y-38345000D01*
X97290060Y-38755000D01*
X97334338Y-38990317D01*
X97461142Y-39187377D01*
X97341069Y-39363110D01*
X97290060Y-39615000D01*
X97290060Y-40025000D01*
X97334338Y-40260317D01*
X97461142Y-40457377D01*
X97341069Y-40633110D01*
X97290060Y-40885000D01*
X97290060Y-41295000D01*
X97334338Y-41530317D01*
X97473410Y-41746441D01*
X97685610Y-41891431D01*
X97937500Y-41942440D01*
X99462500Y-41942440D01*
X99697817Y-41898162D01*
X99772663Y-41850000D01*
X102175198Y-41850000D01*
X106642599Y-46317401D01*
X106889161Y-46482148D01*
X107180000Y-46540000D01*
X107641293Y-46540000D01*
X107905971Y-46936120D01*
X108436404Y-47290543D01*
X109062091Y-47415000D01*
X109737909Y-47415000D01*
X110363596Y-47290543D01*
X110894029Y-46936120D01*
X111248452Y-46405687D01*
X111372909Y-45780000D01*
X111248452Y-45154313D01*
X110894029Y-44623880D01*
X110723595Y-44510000D01*
X110894029Y-44396120D01*
X111248452Y-43865687D01*
X111372909Y-43240000D01*
X111248452Y-42614313D01*
X110894029Y-42083880D01*
X110723595Y-41970000D01*
X110894029Y-41856120D01*
X111248452Y-41325687D01*
X111372909Y-40700000D01*
X111248452Y-40074313D01*
X110894029Y-39543880D01*
X110723595Y-39430000D01*
X110894029Y-39316120D01*
X111248452Y-38785687D01*
X111372909Y-38160000D01*
X111248452Y-37534313D01*
X110894029Y-37003880D01*
X110723595Y-36890000D01*
X110894029Y-36776120D01*
X111248452Y-36245687D01*
X111372909Y-35620000D01*
X111248452Y-34994313D01*
X110894029Y-34463880D01*
X110723595Y-34350000D01*
X110894029Y-34236120D01*
X111248452Y-33705687D01*
X111372909Y-33080000D01*
X111248452Y-32454313D01*
X110894029Y-31923880D01*
X110723595Y-31810000D01*
X110894029Y-31696120D01*
X111248452Y-31165687D01*
X111372909Y-30540000D01*
X111248452Y-29914313D01*
X111010769Y-29558594D01*
X111059699Y-29538327D01*
X111238327Y-29359698D01*
X111335000Y-29126309D01*
X111335000Y-28285750D01*
X111176250Y-28127000D01*
X109527000Y-28127000D01*
X109527000Y-28147000D01*
X109273000Y-28147000D01*
X109273000Y-28127000D01*
X107623750Y-28127000D01*
X107465000Y-28285750D01*
X107465000Y-29126309D01*
X107561673Y-29359698D01*
X107740301Y-29538327D01*
X107789231Y-29558594D01*
X107641293Y-29780000D01*
X104460000Y-29780000D01*
X104169161Y-29837852D01*
X103922599Y-30002599D01*
X101215198Y-32710000D01*
X100023484Y-32710000D01*
X100097500Y-32531309D01*
X100097500Y-32461250D01*
X99938750Y-32302500D01*
X98827000Y-32302500D01*
X98827000Y-32347000D01*
X98573000Y-32347000D01*
X98573000Y-32302500D01*
X97461250Y-32302500D01*
X97302500Y-32461250D01*
X97302500Y-32531309D01*
X97399173Y-32764698D01*
X97465489Y-32831015D01*
X97341069Y-33013110D01*
X97290060Y-33265000D01*
X91609940Y-33265000D01*
X91565662Y-33029683D01*
X91438858Y-32832623D01*
X91558931Y-32656890D01*
X91609940Y-32405000D01*
X91609940Y-31995000D01*
X91586174Y-31868691D01*
X97302500Y-31868691D01*
X97302500Y-31938750D01*
X97461250Y-32097500D01*
X98573000Y-32097500D01*
X98573000Y-31518750D01*
X98827000Y-31518750D01*
X98827000Y-32097500D01*
X99938750Y-32097500D01*
X100097500Y-31938750D01*
X100097500Y-31868691D01*
X100000827Y-31635302D01*
X99822199Y-31456673D01*
X99588810Y-31360000D01*
X98985750Y-31360000D01*
X98827000Y-31518750D01*
X98573000Y-31518750D01*
X98414250Y-31360000D01*
X97811190Y-31360000D01*
X97577801Y-31456673D01*
X97399173Y-31635302D01*
X97302500Y-31868691D01*
X91586174Y-31868691D01*
X91565662Y-31759683D01*
X91426590Y-31543559D01*
X91214390Y-31398569D01*
X90962500Y-31347560D01*
X89437500Y-31347560D01*
X89202183Y-31391838D01*
X89127337Y-31440000D01*
X87314802Y-31440000D01*
X83457401Y-27582599D01*
X83210839Y-27417852D01*
X82920000Y-27360000D01*
X82858707Y-27360000D01*
X82594029Y-26963880D01*
X82459052Y-26873691D01*
X107465000Y-26873691D01*
X107465000Y-27714250D01*
X107623750Y-27873000D01*
X109273000Y-27873000D01*
X109273000Y-26523750D01*
X109527000Y-26523750D01*
X109527000Y-27873000D01*
X111176250Y-27873000D01*
X111335000Y-27714250D01*
X111335000Y-26873691D01*
X111238327Y-26640302D01*
X111059699Y-26461673D01*
X110826310Y-26365000D01*
X109685750Y-26365000D01*
X109527000Y-26523750D01*
X109273000Y-26523750D01*
X109114250Y-26365000D01*
X107973690Y-26365000D01*
X107740301Y-26461673D01*
X107561673Y-26640302D01*
X107465000Y-26873691D01*
X82459052Y-26873691D01*
X82063596Y-26609457D01*
X81437909Y-26485000D01*
X80762091Y-26485000D01*
X80136404Y-26609457D01*
X79605971Y-26963880D01*
X79251548Y-27494313D01*
X79127091Y-28120000D01*
X76127000Y-28120000D01*
X76127000Y-25127000D01*
X114873000Y-25127000D01*
X114873000Y-48873000D01*
M02*
