%TF.GenerationSoftware,KiCad,Pcbnew,(2017-03-19 revision 2637835)-master*%
%TF.CreationDate,2017-03-30T20:36:30+01:00*%
%TF.ProjectId,kicad-rtep-audio-spectrum-analyser,6B696361642D727465702D617564696F,1.0.0*%
%TF.FileFunction,Copper,L1,Top,Signal*%
%TF.FilePolarity,Positive*%
%FSLAX46Y46*%
G04 Gerber Fmt 4.6, Leading zero omitted, Abs format (unit mm)*
G04 Created by KiCad (PCBNEW (2017-03-19 revision 2637835)-master) date Thursday, 30 March 2017 20:36:30*
%MOMM*%
%LPD*%
G01*
G04 APERTURE LIST*
%ADD10C,0.203200*%
%ADD11C,0.254000*%
%TA.AperFunction,ViaPad*%
%ADD12C,1.016000*%
%TD*%
%TA.AperFunction,SMDPad,CuDef*%
%ADD13R,1.200000X1.200000*%
%TD*%
%TA.AperFunction,ComponentPad*%
%ADD14C,1.624000*%
%TD*%
%TA.AperFunction,ComponentPad*%
%ADD15O,1.727200X1.727200*%
%TD*%
%TA.AperFunction,ComponentPad*%
%ADD16R,1.727200X1.727200*%
%TD*%
%TA.AperFunction,Conductor*%
%ADD17C,0.254000*%
%TD*%
%TA.AperFunction,Conductor*%
%ADD18C,0.203200*%
%TD*%
G04 APERTURE END LIST*
D10*
D11*
X12177333Y-29000000D02*
G75*
G03X12177333Y-29000000I-677333J0D01*
G01*
X10484000Y-29000000D02*
X12516000Y-29000000D01*
X11500000Y-27984000D02*
X11500000Y-30016000D01*
X-10822667Y-29000000D02*
G75*
G03X-10822667Y-29000000I-677333J0D01*
G01*
X-12516000Y-29000000D02*
X-10484000Y-29000000D01*
X-11500000Y-27984000D02*
X-11500000Y-30016000D01*
X12177333Y29000000D02*
G75*
G03X12177333Y29000000I-677333J0D01*
G01*
X10484000Y29000000D02*
X12516000Y29000000D01*
X11500000Y30016000D02*
X11500000Y27984000D01*
X-10822667Y29000000D02*
G75*
G03X-10822667Y29000000I-677333J0D01*
G01*
X-12516000Y29000000D02*
X-10484000Y29000000D01*
X-11500000Y30016000D02*
X-11500000Y27984000D01*
D12*
%TO.N,GND*%
%TO.C,STITCH*%
X-6200000Y-8890000D03*
%TD*%
%TO.N,GND*%
%TO.C,STITCH*%
X-6200000Y-20000000D03*
%TD*%
%TO.N,GND*%
%TO.C,STITCH*%
X-6200000Y-29000000D03*
%TD*%
%TO.N,GND*%
%TO.C,STITCH*%
X0Y-8890000D03*
%TD*%
%TO.N,GND*%
%TO.C,STITCH*%
X6200000Y-8890000D03*
%TD*%
%TO.N,GND*%
%TO.C,STITCH*%
X6200000Y-29000000D03*
%TD*%
%TO.N,GND*%
%TO.C,STITCH*%
X0Y-29000000D03*
%TD*%
%TO.N,GND*%
%TO.C,STITCH*%
X6200000Y-20000000D03*
%TD*%
D13*
%TO.P,D1,C*%
%TO.N,Net-(D1-PadC)*%
X1050000Y25000000D03*
%TO.P,D1,A*%
%TO.N,+5V*%
X-1050000Y25000000D03*
%TD*%
%TO.P,D2,C*%
%TO.N,Net-(D2-PadC)*%
X1050000Y21000000D03*
%TO.P,D2,A*%
%TO.N,+5V*%
X-1050000Y21000000D03*
%TD*%
%TO.P,D3,C*%
%TO.N,Net-(D3-PadC)*%
X1050000Y17000000D03*
%TO.P,D3,A*%
%TO.N,+5V*%
X-1050000Y17000000D03*
%TD*%
%TO.P,D4,C*%
%TO.N,Net-(D4-PadC)*%
X1050000Y13000000D03*
%TO.P,D4,A*%
%TO.N,+5V*%
X-1050000Y13000000D03*
%TD*%
%TO.P,D5,C*%
%TO.N,Net-(D5-PadC)*%
X1050000Y9000000D03*
%TO.P,D5,A*%
%TO.N,+5V*%
X-1050000Y9000000D03*
%TD*%
%TO.P,D6,C*%
%TO.N,Net-(D6-PadC)*%
X1050000Y5000000D03*
%TO.P,D6,A*%
%TO.N,+5V*%
X-1050000Y5000000D03*
%TD*%
%TO.P,D7,C*%
%TO.N,Net-(D7-PadC)*%
X1050000Y1000000D03*
%TO.P,D7,A*%
%TO.N,+5V*%
X-1050000Y1000000D03*
%TD*%
%TO.P,D8,C*%
%TO.N,Net-(D8-PadC)*%
X1050000Y-3000000D03*
%TO.P,D8,A*%
%TO.N,+5V*%
X-1050000Y-3000000D03*
%TD*%
D14*
%TO.P,MK1,GND*%
%TO.N,GND*%
X0Y-16250000D03*
%TD*%
D15*
%TO.P,P1,40*%
%TO.N,Net-(P1-Pad40)*%
X12770000Y-24130000D03*
%TO.P,P1,39*%
%TO.N,GND*%
X10230000Y-24130000D03*
%TO.P,P1,38*%
%TO.N,/DATA*%
X12770000Y-21590000D03*
%TO.P,P1,37*%
%TO.N,Net-(P1-Pad37)*%
X10230000Y-21590000D03*
%TO.P,P1,36*%
%TO.N,Net-(P1-Pad36)*%
X12770000Y-19050000D03*
%TO.P,P1,35*%
%TO.N,Net-(P1-Pad35)*%
X10230000Y-19050000D03*
%TO.P,P1,34*%
%TO.N,GND*%
X12770000Y-16510000D03*
%TO.P,P1,33*%
%TO.N,Net-(P1-Pad33)*%
X10230000Y-16510000D03*
%TO.P,P1,32*%
%TO.N,Net-(P1-Pad32)*%
X12770000Y-13970000D03*
%TO.P,P1,31*%
%TO.N,/LED8*%
X10230000Y-13970000D03*
%TO.P,P1,30*%
%TO.N,GND*%
X12770000Y-11430000D03*
%TO.P,P1,29*%
%TO.N,/LED7*%
X10230000Y-11430000D03*
%TO.P,P1,28*%
%TO.N,Net-(P1-Pad28)*%
X12770000Y-8890000D03*
%TO.P,P1,27*%
%TO.N,Net-(P1-Pad27)*%
X10230000Y-8890000D03*
%TO.P,P1,26*%
%TO.N,Net-(P1-Pad26)*%
X12770000Y-6350000D03*
%TO.P,P1,25*%
%TO.N,GND*%
X10230000Y-6350000D03*
%TO.P,P1,24*%
%TO.N,Net-(P1-Pad24)*%
X12770000Y-3810000D03*
%TO.P,P1,23*%
%TO.N,/LED6*%
X10230000Y-3810000D03*
%TO.P,P1,22*%
%TO.N,Net-(P1-Pad22)*%
X12770000Y-1270000D03*
%TO.P,P1,21*%
%TO.N,/LED5*%
X10230000Y-1270000D03*
%TO.P,P1,20*%
%TO.N,GND*%
X12770000Y1270000D03*
%TO.P,P1,19*%
%TO.N,/LED4*%
X10230000Y1270000D03*
%TO.P,P1,18*%
%TO.N,Net-(P1-Pad18)*%
X12770000Y3810000D03*
%TO.P,P1,17*%
%TO.N,+3V3*%
X10230000Y3810000D03*
%TO.P,P1,16*%
%TO.N,Net-(P1-Pad16)*%
X12770000Y6350000D03*
%TO.P,P1,15*%
%TO.N,/LED3*%
X10230000Y6350000D03*
%TO.P,P1,14*%
%TO.N,GND*%
X12770000Y8890000D03*
%TO.P,P1,13*%
%TO.N,/LED2*%
X10230000Y8890000D03*
%TO.P,P1,12*%
%TO.N,Net-(P1-Pad12)*%
X12770000Y11430000D03*
%TO.P,P1,11*%
%TO.N,/LED1*%
X10230000Y11430000D03*
%TO.P,P1,10*%
%TO.N,Net-(P1-Pad10)*%
X12770000Y13970000D03*
%TO.P,P1,09*%
%TO.N,GND*%
X10230000Y13970000D03*
%TO.P,P1,08*%
%TO.N,Net-(P1-Pad08)*%
X12770000Y16510000D03*
%TO.P,P1,07*%
%TO.N,Net-(P1-Pad07)*%
X10230000Y16510000D03*
%TO.P,P1,06*%
%TO.N,GND*%
X12770000Y19050000D03*
%TO.P,P1,05*%
%TO.N,Net-(P1-Pad05)*%
X10230000Y19050000D03*
%TO.P,P1,04*%
%TO.N,+5V*%
X12770000Y21590000D03*
%TO.P,P1,03*%
%TO.N,Net-(P1-Pad03)*%
X10230000Y21590000D03*
%TO.P,P1,02*%
%TO.N,+5V*%
X12770000Y24130000D03*
D16*
%TO.P,P1,01*%
%TO.N,+3V3*%
X10230000Y24130000D03*
%TD*%
D12*
%TO.N,+3V3*%
X7750000Y19050000D03*
X7750000Y3810000D03*
%TO.N,Net-(D1-PadC)*%
X2873000Y25000000D03*
%TO.N,Net-(D2-PadC)*%
X2873000Y21000000D03*
%TO.N,Net-(D3-PadC)*%
X2873000Y17000000D03*
%TO.N,Net-(D4-PadC)*%
X2873000Y13000000D03*
%TO.N,Net-(D5-PadC)*%
X2873000Y9000000D03*
%TO.N,Net-(D6-PadC)*%
X2873000Y5000000D03*
%TO.N,Net-(D7-PadC)*%
X2873000Y1000000D03*
%TO.N,Net-(D8-PadC)*%
X2873000Y-3000000D03*
%TD*%
D17*
%TO.N,+3V3*%
X7750000Y19050000D02*
X7750000Y3810000D01*
%TO.N,Net-(D1-PadC)*%
X1050000Y25000000D02*
X2873000Y25000000D01*
%TO.N,+5V*%
X11500000Y22860000D02*
X11500000Y697990D01*
X10802010Y0D02*
X5229970Y0D01*
X5229970Y0D02*
X4229970Y-1000000D01*
X11500000Y697990D02*
X10802010Y0D01*
X4229970Y-1000000D02*
X4229970Y-5770030D01*
X-2873000Y-7000000D02*
X-2873000Y-3000000D01*
X4229970Y-5770030D02*
X3000000Y-7000000D01*
X3000000Y-7000000D02*
X-2873000Y-7000000D01*
X-2873000Y25000000D02*
X-2873000Y29000000D01*
X3000000Y29000000D02*
X-2873000Y29000000D01*
X4229970Y27770030D02*
X4229970Y23860000D01*
X4229970Y23860000D02*
X5229970Y22860000D01*
X4229970Y27770030D02*
X3000000Y29000000D01*
X11500000Y22860000D02*
X5229970Y22860000D01*
X-2873000Y-3000000D02*
X-2873000Y1000000D01*
X-1050000Y-3000000D02*
X-2873000Y-3000000D01*
X-2873000Y1000000D02*
X-2873000Y5000000D01*
X-1050000Y1000000D02*
X-2873000Y1000000D01*
X-1050000Y5000000D02*
X-2873000Y5000000D01*
X-2873000Y5000000D02*
X-2873000Y9000000D01*
X-1050000Y9000000D02*
X-2873000Y9000000D01*
X-2873000Y9000000D02*
X-2873000Y13000000D01*
X-2873000Y13000000D02*
X-2873000Y17000000D01*
X-1050000Y13000000D02*
X-2873000Y13000000D01*
X-2873000Y17000000D02*
X-2873000Y21000000D01*
X-1050000Y17000000D02*
X-2873000Y17000000D01*
X-2873000Y21000000D02*
X-2873000Y25000000D01*
X-1050000Y21000000D02*
X-2873000Y21000000D01*
X-1050000Y25000000D02*
X-2873000Y25000000D01*
X12770000Y21590000D02*
X11500000Y22860000D01*
X11500000Y22860000D02*
X12770000Y24130000D01*
%TO.N,Net-(D2-PadC)*%
X1050000Y21000000D02*
X2873000Y21000000D01*
%TO.N,Net-(D3-PadC)*%
X1050000Y17000000D02*
X2873000Y17000000D01*
%TO.N,Net-(D4-PadC)*%
X1050000Y13000000D02*
X2873000Y13000000D01*
%TO.N,Net-(D5-PadC)*%
X1050000Y9000000D02*
X2873000Y9000000D01*
%TO.N,Net-(D6-PadC)*%
X1050000Y5000000D02*
X2873000Y5000000D01*
%TO.N,Net-(D7-PadC)*%
X1050000Y1000000D02*
X2873000Y1000000D01*
%TO.N,Net-(D8-PadC)*%
X1050000Y-3000000D02*
X2873000Y-3000000D01*
%TD*%
D18*
%TO.N,GND*%
G36*
X9232304Y31820445D02*
X8727664Y31326266D01*
X8328622Y30743480D01*
X8050377Y30094285D01*
X7903527Y29403409D01*
X7893665Y28697168D01*
X8021168Y28002461D01*
X8281178Y27345750D01*
X8663792Y26752049D01*
X9154437Y26243972D01*
X9734423Y25840871D01*
X10381659Y25558101D01*
X11071493Y25406431D01*
X11777648Y25391639D01*
X12473228Y25514289D01*
X13131738Y25769708D01*
X13728096Y26148168D01*
X14239586Y26635253D01*
X14398400Y26860386D01*
X14398400Y-26853932D01*
X14304545Y-26712669D01*
X13806855Y-26211492D01*
X13221297Y-25816528D01*
X12570175Y-25542822D01*
X11878291Y-25400798D01*
X11171998Y-25395867D01*
X10478199Y-25528217D01*
X9823319Y-25792805D01*
X9232304Y-26179555D01*
X8727664Y-26673734D01*
X8328622Y-27256520D01*
X8050377Y-27905715D01*
X7903527Y-28596591D01*
X7893665Y-29302832D01*
X8021168Y-29997539D01*
X8281178Y-30654250D01*
X8663792Y-31247951D01*
X9154437Y-31756028D01*
X9359283Y-31898400D01*
X-9345283Y-31898400D01*
X-9271904Y-31851832D01*
X-8760414Y-31364747D01*
X-8353274Y-30787589D01*
X-8065992Y-30142342D01*
X-7909510Y-29453584D01*
X-7898245Y-28646845D01*
X-8035435Y-27953986D01*
X-8304589Y-27300970D01*
X-8695455Y-26712669D01*
X-9193145Y-26211492D01*
X-9778703Y-25816528D01*
X-10429825Y-25542822D01*
X-11121709Y-25400798D01*
X-11828002Y-25395867D01*
X-12521801Y-25528217D01*
X-13176681Y-25792805D01*
X-13767696Y-26179555D01*
X-14272336Y-26673734D01*
X-14398400Y-26857846D01*
X-14398400Y-24345771D01*
X9030046Y-24345771D01*
X9038813Y-24389856D01*
X9112397Y-24617252D01*
X9228930Y-24825923D01*
X9383933Y-25007850D01*
X9571450Y-25156042D01*
X9784275Y-25264804D01*
X10014229Y-25329956D01*
X10204600Y-25260037D01*
X10204600Y-24155400D01*
X10255400Y-24155400D01*
X10255400Y-25260037D01*
X10445771Y-25329956D01*
X10675725Y-25264804D01*
X10888550Y-25156042D01*
X11076067Y-25007850D01*
X11231070Y-24825923D01*
X11347603Y-24617252D01*
X11421187Y-24389856D01*
X11429954Y-24345771D01*
X11360015Y-24155400D01*
X10255400Y-24155400D01*
X10204600Y-24155400D01*
X9099985Y-24155400D01*
X9030046Y-24345771D01*
X-14398400Y-24345771D01*
X-14398400Y-24121488D01*
X11544931Y-24121488D01*
X11566496Y-24358455D01*
X11633678Y-24586720D01*
X11743918Y-24797589D01*
X11893016Y-24983030D01*
X12075293Y-25135978D01*
X12283807Y-25250610D01*
X12510615Y-25322558D01*
X12747078Y-25349081D01*
X12764101Y-25349200D01*
X12775899Y-25349200D01*
X13012710Y-25325981D01*
X13240500Y-25257207D01*
X13450594Y-25145498D01*
X13634989Y-24995109D01*
X13786662Y-24811768D01*
X13899835Y-24602459D01*
X13970197Y-24375154D01*
X13995069Y-24138512D01*
X13973504Y-23901545D01*
X13906322Y-23673280D01*
X13796082Y-23462411D01*
X13646984Y-23276970D01*
X13464707Y-23124022D01*
X13256193Y-23009390D01*
X13029385Y-22937442D01*
X12792922Y-22910919D01*
X12775899Y-22910800D01*
X12764101Y-22910800D01*
X12527290Y-22934019D01*
X12299500Y-23002793D01*
X12089406Y-23114502D01*
X11905011Y-23264891D01*
X11753338Y-23448232D01*
X11640165Y-23657541D01*
X11569803Y-23884846D01*
X11544931Y-24121488D01*
X-14398400Y-24121488D01*
X-14398400Y-23914229D01*
X9030046Y-23914229D01*
X9099985Y-24104600D01*
X10204600Y-24104600D01*
X10204600Y-22999963D01*
X10255400Y-22999963D01*
X10255400Y-24104600D01*
X11360015Y-24104600D01*
X11429954Y-23914229D01*
X11421187Y-23870144D01*
X11347603Y-23642748D01*
X11231070Y-23434077D01*
X11076067Y-23252150D01*
X10888550Y-23103958D01*
X10675725Y-22995196D01*
X10445771Y-22930044D01*
X10255400Y-22999963D01*
X10204600Y-22999963D01*
X10014229Y-22930044D01*
X9784275Y-22995196D01*
X9571450Y-23103958D01*
X9383933Y-23252150D01*
X9228930Y-23434077D01*
X9112397Y-23642748D01*
X9038813Y-23870144D01*
X9030046Y-23914229D01*
X-14398400Y-23914229D01*
X-14398400Y-21581488D01*
X9004931Y-21581488D01*
X9026496Y-21818455D01*
X9093678Y-22046720D01*
X9203918Y-22257589D01*
X9353016Y-22443030D01*
X9535293Y-22595978D01*
X9743807Y-22710610D01*
X9970615Y-22782558D01*
X10207078Y-22809081D01*
X10224101Y-22809200D01*
X10235899Y-22809200D01*
X10472710Y-22785981D01*
X10700500Y-22717207D01*
X10910594Y-22605498D01*
X11094989Y-22455109D01*
X11246662Y-22271768D01*
X11359835Y-22062459D01*
X11430197Y-21835154D01*
X11455069Y-21598512D01*
X11453520Y-21581488D01*
X11544931Y-21581488D01*
X11566496Y-21818455D01*
X11633678Y-22046720D01*
X11743918Y-22257589D01*
X11893016Y-22443030D01*
X12075293Y-22595978D01*
X12283807Y-22710610D01*
X12510615Y-22782558D01*
X12747078Y-22809081D01*
X12764101Y-22809200D01*
X12775899Y-22809200D01*
X13012710Y-22785981D01*
X13240500Y-22717207D01*
X13450594Y-22605498D01*
X13634989Y-22455109D01*
X13786662Y-22271768D01*
X13899835Y-22062459D01*
X13970197Y-21835154D01*
X13995069Y-21598512D01*
X13973504Y-21361545D01*
X13906322Y-21133280D01*
X13796082Y-20922411D01*
X13646984Y-20736970D01*
X13464707Y-20584022D01*
X13256193Y-20469390D01*
X13029385Y-20397442D01*
X12792922Y-20370919D01*
X12775899Y-20370800D01*
X12764101Y-20370800D01*
X12527290Y-20394019D01*
X12299500Y-20462793D01*
X12089406Y-20574502D01*
X11905011Y-20724891D01*
X11753338Y-20908232D01*
X11640165Y-21117541D01*
X11569803Y-21344846D01*
X11544931Y-21581488D01*
X11453520Y-21581488D01*
X11433504Y-21361545D01*
X11366322Y-21133280D01*
X11256082Y-20922411D01*
X11106984Y-20736970D01*
X10924707Y-20584022D01*
X10716193Y-20469390D01*
X10489385Y-20397442D01*
X10252922Y-20370919D01*
X10235899Y-20370800D01*
X10224101Y-20370800D01*
X9987290Y-20394019D01*
X9759500Y-20462793D01*
X9549406Y-20574502D01*
X9365011Y-20724891D01*
X9213338Y-20908232D01*
X9100165Y-21117541D01*
X9029803Y-21344846D01*
X9004931Y-21581488D01*
X-14398400Y-21581488D01*
X-14398400Y-19041488D01*
X9004931Y-19041488D01*
X9026496Y-19278455D01*
X9093678Y-19506720D01*
X9203918Y-19717589D01*
X9353016Y-19903030D01*
X9535293Y-20055978D01*
X9743807Y-20170610D01*
X9970615Y-20242558D01*
X10207078Y-20269081D01*
X10224101Y-20269200D01*
X10235899Y-20269200D01*
X10472710Y-20245981D01*
X10700500Y-20177207D01*
X10910594Y-20065498D01*
X11094989Y-19915109D01*
X11246662Y-19731768D01*
X11359835Y-19522459D01*
X11430197Y-19295154D01*
X11455069Y-19058512D01*
X11453520Y-19041488D01*
X11544931Y-19041488D01*
X11566496Y-19278455D01*
X11633678Y-19506720D01*
X11743918Y-19717589D01*
X11893016Y-19903030D01*
X12075293Y-20055978D01*
X12283807Y-20170610D01*
X12510615Y-20242558D01*
X12747078Y-20269081D01*
X12764101Y-20269200D01*
X12775899Y-20269200D01*
X13012710Y-20245981D01*
X13240500Y-20177207D01*
X13450594Y-20065498D01*
X13634989Y-19915109D01*
X13786662Y-19731768D01*
X13899835Y-19522459D01*
X13970197Y-19295154D01*
X13995069Y-19058512D01*
X13973504Y-18821545D01*
X13906322Y-18593280D01*
X13796082Y-18382411D01*
X13646984Y-18196970D01*
X13464707Y-18044022D01*
X13256193Y-17929390D01*
X13029385Y-17857442D01*
X12792922Y-17830919D01*
X12775899Y-17830800D01*
X12764101Y-17830800D01*
X12527290Y-17854019D01*
X12299500Y-17922793D01*
X12089406Y-18034502D01*
X11905011Y-18184891D01*
X11753338Y-18368232D01*
X11640165Y-18577541D01*
X11569803Y-18804846D01*
X11544931Y-19041488D01*
X11453520Y-19041488D01*
X11433504Y-18821545D01*
X11366322Y-18593280D01*
X11256082Y-18382411D01*
X11106984Y-18196970D01*
X10924707Y-18044022D01*
X10716193Y-17929390D01*
X10489385Y-17857442D01*
X10252922Y-17830919D01*
X10235899Y-17830800D01*
X10224101Y-17830800D01*
X9987290Y-17854019D01*
X9759500Y-17922793D01*
X9549406Y-18034502D01*
X9365011Y-18184891D01*
X9213338Y-18368232D01*
X9100165Y-18577541D01*
X9029803Y-18804846D01*
X9004931Y-19041488D01*
X-14398400Y-19041488D01*
X-14398400Y-17034501D01*
X-748580Y-17034501D01*
X-668908Y-17213886D01*
X-468010Y-17325863D01*
X-249126Y-17396494D01*
X-20669Y-17423067D01*
X208582Y-17404559D01*
X429817Y-17341682D01*
X634535Y-17236852D01*
X668908Y-17213886D01*
X748580Y-17034501D01*
X0Y-16285921D01*
X-748580Y-17034501D01*
X-14398400Y-17034501D01*
X-14398400Y-16229331D01*
X-1173067Y-16229331D01*
X-1154559Y-16458582D01*
X-1091682Y-16679817D01*
X-986852Y-16884535D01*
X-963886Y-16918908D01*
X-784501Y-16998580D01*
X-35921Y-16250000D01*
X35921Y-16250000D01*
X784501Y-16998580D01*
X963886Y-16918908D01*
X1075863Y-16718010D01*
X1145731Y-16501488D01*
X9004931Y-16501488D01*
X9026496Y-16738455D01*
X9093678Y-16966720D01*
X9203918Y-17177589D01*
X9353016Y-17363030D01*
X9535293Y-17515978D01*
X9743807Y-17630610D01*
X9970615Y-17702558D01*
X10207078Y-17729081D01*
X10224101Y-17729200D01*
X10235899Y-17729200D01*
X10472710Y-17705981D01*
X10700500Y-17637207D01*
X10910594Y-17525498D01*
X11094989Y-17375109D01*
X11246662Y-17191768D01*
X11359835Y-16982459D01*
X11430197Y-16755154D01*
X11433285Y-16725771D01*
X11570046Y-16725771D01*
X11578813Y-16769856D01*
X11652397Y-16997252D01*
X11768930Y-17205923D01*
X11923933Y-17387850D01*
X12111450Y-17536042D01*
X12324275Y-17644804D01*
X12554229Y-17709956D01*
X12744600Y-17640037D01*
X12744600Y-16535400D01*
X12795400Y-16535400D01*
X12795400Y-17640037D01*
X12985771Y-17709956D01*
X13215725Y-17644804D01*
X13428550Y-17536042D01*
X13616067Y-17387850D01*
X13771070Y-17205923D01*
X13887603Y-16997252D01*
X13961187Y-16769856D01*
X13969954Y-16725771D01*
X13900015Y-16535400D01*
X12795400Y-16535400D01*
X12744600Y-16535400D01*
X11639985Y-16535400D01*
X11570046Y-16725771D01*
X11433285Y-16725771D01*
X11455069Y-16518512D01*
X11434659Y-16294229D01*
X11570046Y-16294229D01*
X11639985Y-16484600D01*
X12744600Y-16484600D01*
X12744600Y-15379963D01*
X12795400Y-15379963D01*
X12795400Y-16484600D01*
X13900015Y-16484600D01*
X13969954Y-16294229D01*
X13961187Y-16250144D01*
X13887603Y-16022748D01*
X13771070Y-15814077D01*
X13616067Y-15632150D01*
X13428550Y-15483958D01*
X13215725Y-15375196D01*
X12985771Y-15310044D01*
X12795400Y-15379963D01*
X12744600Y-15379963D01*
X12554229Y-15310044D01*
X12324275Y-15375196D01*
X12111450Y-15483958D01*
X11923933Y-15632150D01*
X11768930Y-15814077D01*
X11652397Y-16022748D01*
X11578813Y-16250144D01*
X11570046Y-16294229D01*
X11434659Y-16294229D01*
X11433504Y-16281545D01*
X11366322Y-16053280D01*
X11256082Y-15842411D01*
X11106984Y-15656970D01*
X10924707Y-15504022D01*
X10716193Y-15389390D01*
X10489385Y-15317442D01*
X10252922Y-15290919D01*
X10235899Y-15290800D01*
X10224101Y-15290800D01*
X9987290Y-15314019D01*
X9759500Y-15382793D01*
X9549406Y-15494502D01*
X9365011Y-15644891D01*
X9213338Y-15828232D01*
X9100165Y-16037541D01*
X9029803Y-16264846D01*
X9004931Y-16501488D01*
X1145731Y-16501488D01*
X1146494Y-16499126D01*
X1173067Y-16270669D01*
X1154559Y-16041418D01*
X1091682Y-15820183D01*
X986852Y-15615465D01*
X963886Y-15581092D01*
X784501Y-15501420D01*
X35921Y-16250000D01*
X-35921Y-16250000D01*
X-784501Y-15501420D01*
X-963886Y-15581092D01*
X-1075863Y-15781990D01*
X-1146494Y-16000874D01*
X-1173067Y-16229331D01*
X-14398400Y-16229331D01*
X-14398400Y-15465499D01*
X-748580Y-15465499D01*
X0Y-16214079D01*
X748580Y-15465499D01*
X668908Y-15286114D01*
X468010Y-15174137D01*
X249126Y-15103506D01*
X20669Y-15076933D01*
X-208582Y-15095441D01*
X-429817Y-15158318D01*
X-634535Y-15263148D01*
X-668908Y-15286114D01*
X-748580Y-15465499D01*
X-14398400Y-15465499D01*
X-14398400Y-13961488D01*
X9004931Y-13961488D01*
X9026496Y-14198455D01*
X9093678Y-14426720D01*
X9203918Y-14637589D01*
X9353016Y-14823030D01*
X9535293Y-14975978D01*
X9743807Y-15090610D01*
X9970615Y-15162558D01*
X10207078Y-15189081D01*
X10224101Y-15189200D01*
X10235899Y-15189200D01*
X10472710Y-15165981D01*
X10700500Y-15097207D01*
X10910594Y-14985498D01*
X11094989Y-14835109D01*
X11246662Y-14651768D01*
X11359835Y-14442459D01*
X11430197Y-14215154D01*
X11455069Y-13978512D01*
X11453520Y-13961488D01*
X11544931Y-13961488D01*
X11566496Y-14198455D01*
X11633678Y-14426720D01*
X11743918Y-14637589D01*
X11893016Y-14823030D01*
X12075293Y-14975978D01*
X12283807Y-15090610D01*
X12510615Y-15162558D01*
X12747078Y-15189081D01*
X12764101Y-15189200D01*
X12775899Y-15189200D01*
X13012710Y-15165981D01*
X13240500Y-15097207D01*
X13450594Y-14985498D01*
X13634989Y-14835109D01*
X13786662Y-14651768D01*
X13899835Y-14442459D01*
X13970197Y-14215154D01*
X13995069Y-13978512D01*
X13973504Y-13741545D01*
X13906322Y-13513280D01*
X13796082Y-13302411D01*
X13646984Y-13116970D01*
X13464707Y-12964022D01*
X13256193Y-12849390D01*
X13029385Y-12777442D01*
X12792922Y-12750919D01*
X12775899Y-12750800D01*
X12764101Y-12750800D01*
X12527290Y-12774019D01*
X12299500Y-12842793D01*
X12089406Y-12954502D01*
X11905011Y-13104891D01*
X11753338Y-13288232D01*
X11640165Y-13497541D01*
X11569803Y-13724846D01*
X11544931Y-13961488D01*
X11453520Y-13961488D01*
X11433504Y-13741545D01*
X11366322Y-13513280D01*
X11256082Y-13302411D01*
X11106984Y-13116970D01*
X10924707Y-12964022D01*
X10716193Y-12849390D01*
X10489385Y-12777442D01*
X10252922Y-12750919D01*
X10235899Y-12750800D01*
X10224101Y-12750800D01*
X9987290Y-12774019D01*
X9759500Y-12842793D01*
X9549406Y-12954502D01*
X9365011Y-13104891D01*
X9213338Y-13288232D01*
X9100165Y-13497541D01*
X9029803Y-13724846D01*
X9004931Y-13961488D01*
X-14398400Y-13961488D01*
X-14398400Y-11421488D01*
X9004931Y-11421488D01*
X9026496Y-11658455D01*
X9093678Y-11886720D01*
X9203918Y-12097589D01*
X9353016Y-12283030D01*
X9535293Y-12435978D01*
X9743807Y-12550610D01*
X9970615Y-12622558D01*
X10207078Y-12649081D01*
X10224101Y-12649200D01*
X10235899Y-12649200D01*
X10472710Y-12625981D01*
X10700500Y-12557207D01*
X10910594Y-12445498D01*
X11094989Y-12295109D01*
X11246662Y-12111768D01*
X11359835Y-11902459D01*
X11430197Y-11675154D01*
X11433285Y-11645771D01*
X11570046Y-11645771D01*
X11578813Y-11689856D01*
X11652397Y-11917252D01*
X11768930Y-12125923D01*
X11923933Y-12307850D01*
X12111450Y-12456042D01*
X12324275Y-12564804D01*
X12554229Y-12629956D01*
X12744600Y-12560037D01*
X12744600Y-11455400D01*
X12795400Y-11455400D01*
X12795400Y-12560037D01*
X12985771Y-12629956D01*
X13215725Y-12564804D01*
X13428550Y-12456042D01*
X13616067Y-12307850D01*
X13771070Y-12125923D01*
X13887603Y-11917252D01*
X13961187Y-11689856D01*
X13969954Y-11645771D01*
X13900015Y-11455400D01*
X12795400Y-11455400D01*
X12744600Y-11455400D01*
X11639985Y-11455400D01*
X11570046Y-11645771D01*
X11433285Y-11645771D01*
X11455069Y-11438512D01*
X11434659Y-11214229D01*
X11570046Y-11214229D01*
X11639985Y-11404600D01*
X12744600Y-11404600D01*
X12744600Y-10299963D01*
X12795400Y-10299963D01*
X12795400Y-11404600D01*
X13900015Y-11404600D01*
X13969954Y-11214229D01*
X13961187Y-11170144D01*
X13887603Y-10942748D01*
X13771070Y-10734077D01*
X13616067Y-10552150D01*
X13428550Y-10403958D01*
X13215725Y-10295196D01*
X12985771Y-10230044D01*
X12795400Y-10299963D01*
X12744600Y-10299963D01*
X12554229Y-10230044D01*
X12324275Y-10295196D01*
X12111450Y-10403958D01*
X11923933Y-10552150D01*
X11768930Y-10734077D01*
X11652397Y-10942748D01*
X11578813Y-11170144D01*
X11570046Y-11214229D01*
X11434659Y-11214229D01*
X11433504Y-11201545D01*
X11366322Y-10973280D01*
X11256082Y-10762411D01*
X11106984Y-10576970D01*
X10924707Y-10424022D01*
X10716193Y-10309390D01*
X10489385Y-10237442D01*
X10252922Y-10210919D01*
X10235899Y-10210800D01*
X10224101Y-10210800D01*
X9987290Y-10234019D01*
X9759500Y-10302793D01*
X9549406Y-10414502D01*
X9365011Y-10564891D01*
X9213338Y-10748232D01*
X9100165Y-10957541D01*
X9029803Y-11184846D01*
X9004931Y-11421488D01*
X-14398400Y-11421488D01*
X-14398400Y-8881488D01*
X9004931Y-8881488D01*
X9026496Y-9118455D01*
X9093678Y-9346720D01*
X9203918Y-9557589D01*
X9353016Y-9743030D01*
X9535293Y-9895978D01*
X9743807Y-10010610D01*
X9970615Y-10082558D01*
X10207078Y-10109081D01*
X10224101Y-10109200D01*
X10235899Y-10109200D01*
X10472710Y-10085981D01*
X10700500Y-10017207D01*
X10910594Y-9905498D01*
X11094989Y-9755109D01*
X11246662Y-9571768D01*
X11359835Y-9362459D01*
X11430197Y-9135154D01*
X11455069Y-8898512D01*
X11453520Y-8881488D01*
X11544931Y-8881488D01*
X11566496Y-9118455D01*
X11633678Y-9346720D01*
X11743918Y-9557589D01*
X11893016Y-9743030D01*
X12075293Y-9895978D01*
X12283807Y-10010610D01*
X12510615Y-10082558D01*
X12747078Y-10109081D01*
X12764101Y-10109200D01*
X12775899Y-10109200D01*
X13012710Y-10085981D01*
X13240500Y-10017207D01*
X13450594Y-9905498D01*
X13634989Y-9755109D01*
X13786662Y-9571768D01*
X13899835Y-9362459D01*
X13970197Y-9135154D01*
X13995069Y-8898512D01*
X13973504Y-8661545D01*
X13906322Y-8433280D01*
X13796082Y-8222411D01*
X13646984Y-8036970D01*
X13464707Y-7884022D01*
X13256193Y-7769390D01*
X13029385Y-7697442D01*
X12792922Y-7670919D01*
X12775899Y-7670800D01*
X12764101Y-7670800D01*
X12527290Y-7694019D01*
X12299500Y-7762793D01*
X12089406Y-7874502D01*
X11905011Y-8024891D01*
X11753338Y-8208232D01*
X11640165Y-8417541D01*
X11569803Y-8644846D01*
X11544931Y-8881488D01*
X11453520Y-8881488D01*
X11433504Y-8661545D01*
X11366322Y-8433280D01*
X11256082Y-8222411D01*
X11106984Y-8036970D01*
X10924707Y-7884022D01*
X10716193Y-7769390D01*
X10489385Y-7697442D01*
X10252922Y-7670919D01*
X10235899Y-7670800D01*
X10224101Y-7670800D01*
X9987290Y-7694019D01*
X9759500Y-7762793D01*
X9549406Y-7874502D01*
X9365011Y-8024891D01*
X9213338Y-8208232D01*
X9100165Y-8417541D01*
X9029803Y-8644846D01*
X9004931Y-8881488D01*
X-14398400Y-8881488D01*
X-14398400Y26848552D01*
X-14336208Y26752049D01*
X-13845563Y26243972D01*
X-13265577Y25840871D01*
X-12618341Y25558101D01*
X-11928507Y25406431D01*
X-11222352Y25391639D01*
X-10526772Y25514289D01*
X-9868262Y25769708D01*
X-9271904Y26148168D01*
X-8760414Y26635253D01*
X-8353274Y27212411D01*
X-8065992Y27857658D01*
X-7909510Y28546416D01*
X-7903177Y29000000D01*
X-3355600Y29000000D01*
X-3355600Y-7000000D01*
X-3351168Y-7045204D01*
X-3347052Y-7090430D01*
X-3346574Y-7092054D01*
X-3346409Y-7093737D01*
X-3333283Y-7137213D01*
X-3320459Y-7180785D01*
X-3319675Y-7182284D01*
X-3319186Y-7183905D01*
X-3297830Y-7224069D01*
X-3276822Y-7264254D01*
X-3275764Y-7265570D01*
X-3274968Y-7267067D01*
X-3246271Y-7302252D01*
X-3217805Y-7337658D01*
X-3216505Y-7338748D01*
X-3215439Y-7340056D01*
X-3180500Y-7368960D01*
X-3145653Y-7398200D01*
X-3144170Y-7399015D01*
X-3142866Y-7400094D01*
X-3102928Y-7421688D01*
X-3063116Y-7443575D01*
X-3061502Y-7444087D01*
X-3060015Y-7444891D01*
X-3016650Y-7458315D01*
X-2973338Y-7472054D01*
X-2971656Y-7472243D01*
X-2970040Y-7472743D01*
X-2924890Y-7477488D01*
X-2879738Y-7482553D01*
X-2876486Y-7482576D01*
X-2876369Y-7482588D01*
X-2876252Y-7482577D01*
X-2873000Y-7482600D01*
X3000000Y-7482600D01*
X3044326Y-7478254D01*
X3088775Y-7474365D01*
X3091214Y-7473656D01*
X3093737Y-7473409D01*
X3136400Y-7460528D01*
X3179223Y-7448087D01*
X3181475Y-7446920D01*
X3183905Y-7446186D01*
X3223295Y-7425242D01*
X3262843Y-7404742D01*
X3264824Y-7403161D01*
X3267067Y-7401968D01*
X3301625Y-7373783D01*
X3336452Y-7345981D01*
X3339988Y-7342495D01*
X3340056Y-7342439D01*
X3340108Y-7342376D01*
X3341250Y-7341250D01*
X4116729Y-6565771D01*
X9030046Y-6565771D01*
X9038813Y-6609856D01*
X9112397Y-6837252D01*
X9228930Y-7045923D01*
X9383933Y-7227850D01*
X9571450Y-7376042D01*
X9784275Y-7484804D01*
X10014229Y-7549956D01*
X10204600Y-7480037D01*
X10204600Y-6375400D01*
X10255400Y-6375400D01*
X10255400Y-7480037D01*
X10445771Y-7549956D01*
X10675725Y-7484804D01*
X10888550Y-7376042D01*
X11076067Y-7227850D01*
X11231070Y-7045923D01*
X11347603Y-6837252D01*
X11421187Y-6609856D01*
X11429954Y-6565771D01*
X11360015Y-6375400D01*
X10255400Y-6375400D01*
X10204600Y-6375400D01*
X9099985Y-6375400D01*
X9030046Y-6565771D01*
X4116729Y-6565771D01*
X4341012Y-6341488D01*
X11544931Y-6341488D01*
X11566496Y-6578455D01*
X11633678Y-6806720D01*
X11743918Y-7017589D01*
X11893016Y-7203030D01*
X12075293Y-7355978D01*
X12283807Y-7470610D01*
X12510615Y-7542558D01*
X12747078Y-7569081D01*
X12764101Y-7569200D01*
X12775899Y-7569200D01*
X13012710Y-7545981D01*
X13240500Y-7477207D01*
X13450594Y-7365498D01*
X13634989Y-7215109D01*
X13786662Y-7031768D01*
X13899835Y-6822459D01*
X13970197Y-6595154D01*
X13995069Y-6358512D01*
X13973504Y-6121545D01*
X13906322Y-5893280D01*
X13796082Y-5682411D01*
X13646984Y-5496970D01*
X13464707Y-5344022D01*
X13256193Y-5229390D01*
X13029385Y-5157442D01*
X12792922Y-5130919D01*
X12775899Y-5130800D01*
X12764101Y-5130800D01*
X12527290Y-5154019D01*
X12299500Y-5222793D01*
X12089406Y-5334502D01*
X11905011Y-5484891D01*
X11753338Y-5668232D01*
X11640165Y-5877541D01*
X11569803Y-6104846D01*
X11544931Y-6341488D01*
X4341012Y-6341488D01*
X4548271Y-6134229D01*
X9030046Y-6134229D01*
X9099985Y-6324600D01*
X10204600Y-6324600D01*
X10204600Y-5219963D01*
X10255400Y-5219963D01*
X10255400Y-6324600D01*
X11360015Y-6324600D01*
X11429954Y-6134229D01*
X11421187Y-6090144D01*
X11347603Y-5862748D01*
X11231070Y-5654077D01*
X11076067Y-5472150D01*
X10888550Y-5323958D01*
X10675725Y-5215196D01*
X10445771Y-5150044D01*
X10255400Y-5219963D01*
X10204600Y-5219963D01*
X10014229Y-5150044D01*
X9784275Y-5215196D01*
X9571450Y-5323958D01*
X9383933Y-5472150D01*
X9228930Y-5654077D01*
X9112397Y-5862748D01*
X9038813Y-6090144D01*
X9030046Y-6134229D01*
X4548271Y-6134229D01*
X4571220Y-6111280D01*
X4599515Y-6076833D01*
X4628170Y-6042683D01*
X4629392Y-6040460D01*
X4631003Y-6038499D01*
X4652066Y-5999217D01*
X4673545Y-5960146D01*
X4674313Y-5957726D01*
X4675511Y-5955491D01*
X4688545Y-5912861D01*
X4702024Y-5870368D01*
X4702307Y-5867848D01*
X4703049Y-5865420D01*
X4707555Y-5821059D01*
X4712523Y-5776768D01*
X4712558Y-5771808D01*
X4712567Y-5771715D01*
X4712559Y-5771629D01*
X4712570Y-5770030D01*
X4712570Y-3801488D01*
X9004931Y-3801488D01*
X9026496Y-4038455D01*
X9093678Y-4266720D01*
X9203918Y-4477589D01*
X9353016Y-4663030D01*
X9535293Y-4815978D01*
X9743807Y-4930610D01*
X9970615Y-5002558D01*
X10207078Y-5029081D01*
X10224101Y-5029200D01*
X10235899Y-5029200D01*
X10472710Y-5005981D01*
X10700500Y-4937207D01*
X10910594Y-4825498D01*
X11094989Y-4675109D01*
X11246662Y-4491768D01*
X11359835Y-4282459D01*
X11430197Y-4055154D01*
X11455069Y-3818512D01*
X11453520Y-3801488D01*
X11544931Y-3801488D01*
X11566496Y-4038455D01*
X11633678Y-4266720D01*
X11743918Y-4477589D01*
X11893016Y-4663030D01*
X12075293Y-4815978D01*
X12283807Y-4930610D01*
X12510615Y-5002558D01*
X12747078Y-5029081D01*
X12764101Y-5029200D01*
X12775899Y-5029200D01*
X13012710Y-5005981D01*
X13240500Y-4937207D01*
X13450594Y-4825498D01*
X13634989Y-4675109D01*
X13786662Y-4491768D01*
X13899835Y-4282459D01*
X13970197Y-4055154D01*
X13995069Y-3818512D01*
X13973504Y-3581545D01*
X13906322Y-3353280D01*
X13796082Y-3142411D01*
X13646984Y-2956970D01*
X13464707Y-2804022D01*
X13256193Y-2689390D01*
X13029385Y-2617442D01*
X12792922Y-2590919D01*
X12775899Y-2590800D01*
X12764101Y-2590800D01*
X12527290Y-2614019D01*
X12299500Y-2682793D01*
X12089406Y-2794502D01*
X11905011Y-2944891D01*
X11753338Y-3128232D01*
X11640165Y-3337541D01*
X11569803Y-3564846D01*
X11544931Y-3801488D01*
X11453520Y-3801488D01*
X11433504Y-3581545D01*
X11366322Y-3353280D01*
X11256082Y-3142411D01*
X11106984Y-2956970D01*
X10924707Y-2804022D01*
X10716193Y-2689390D01*
X10489385Y-2617442D01*
X10252922Y-2590919D01*
X10235899Y-2590800D01*
X10224101Y-2590800D01*
X9987290Y-2614019D01*
X9759500Y-2682793D01*
X9549406Y-2794502D01*
X9365011Y-2944891D01*
X9213338Y-3128232D01*
X9100165Y-3337541D01*
X9029803Y-3564846D01*
X9004931Y-3801488D01*
X4712570Y-3801488D01*
X4712570Y-1199900D01*
X5429869Y-482600D01*
X9300724Y-482600D01*
X9213338Y-588232D01*
X9100165Y-797541D01*
X9029803Y-1024846D01*
X9004931Y-1261488D01*
X9026496Y-1498455D01*
X9093678Y-1726720D01*
X9203918Y-1937589D01*
X9353016Y-2123030D01*
X9535293Y-2275978D01*
X9743807Y-2390610D01*
X9970615Y-2462558D01*
X10207078Y-2489081D01*
X10224101Y-2489200D01*
X10235899Y-2489200D01*
X10472710Y-2465981D01*
X10700500Y-2397207D01*
X10910594Y-2285498D01*
X11094989Y-2135109D01*
X11246662Y-1951768D01*
X11359835Y-1742459D01*
X11430197Y-1515154D01*
X11455069Y-1278512D01*
X11453520Y-1261488D01*
X11544931Y-1261488D01*
X11566496Y-1498455D01*
X11633678Y-1726720D01*
X11743918Y-1937589D01*
X11893016Y-2123030D01*
X12075293Y-2275978D01*
X12283807Y-2390610D01*
X12510615Y-2462558D01*
X12747078Y-2489081D01*
X12764101Y-2489200D01*
X12775899Y-2489200D01*
X13012710Y-2465981D01*
X13240500Y-2397207D01*
X13450594Y-2285498D01*
X13634989Y-2135109D01*
X13786662Y-1951768D01*
X13899835Y-1742459D01*
X13970197Y-1515154D01*
X13995069Y-1278512D01*
X13973504Y-1041545D01*
X13906322Y-813280D01*
X13796082Y-602411D01*
X13646984Y-416970D01*
X13464707Y-264022D01*
X13256193Y-149390D01*
X13029385Y-77442D01*
X12792922Y-50919D01*
X12775899Y-50800D01*
X12764101Y-50800D01*
X12527290Y-74019D01*
X12299500Y-142793D01*
X12089406Y-254502D01*
X11905011Y-404891D01*
X11753338Y-588232D01*
X11640165Y-797541D01*
X11569803Y-1024846D01*
X11544931Y-1261488D01*
X11453520Y-1261488D01*
X11433504Y-1041545D01*
X11366322Y-813280D01*
X11256082Y-602411D01*
X11106984Y-416970D01*
X11079233Y-393685D01*
X11103635Y-373783D01*
X11138462Y-345981D01*
X11141998Y-342495D01*
X11142066Y-342439D01*
X11142118Y-342376D01*
X11143260Y-341250D01*
X11841250Y356740D01*
X11869545Y391187D01*
X11896938Y423834D01*
X11923933Y392150D01*
X12111450Y243958D01*
X12324275Y135196D01*
X12554229Y70044D01*
X12744600Y139963D01*
X12744600Y1244600D01*
X12795400Y1244600D01*
X12795400Y139963D01*
X12985771Y70044D01*
X13215725Y135196D01*
X13428550Y243958D01*
X13616067Y392150D01*
X13771070Y574077D01*
X13887603Y782748D01*
X13961187Y1010144D01*
X13969954Y1054229D01*
X13900015Y1244600D01*
X12795400Y1244600D01*
X12744600Y1244600D01*
X12724600Y1244600D01*
X12724600Y1295400D01*
X12744600Y1295400D01*
X12744600Y2400037D01*
X12795400Y2400037D01*
X12795400Y1295400D01*
X13900015Y1295400D01*
X13969954Y1485771D01*
X13961187Y1529856D01*
X13887603Y1757252D01*
X13771070Y1965923D01*
X13616067Y2147850D01*
X13428550Y2296042D01*
X13215725Y2404804D01*
X12985771Y2469956D01*
X12795400Y2400037D01*
X12744600Y2400037D01*
X12554229Y2469956D01*
X12324275Y2404804D01*
X12111450Y2296042D01*
X11982600Y2194214D01*
X11982600Y2881800D01*
X12075293Y2804022D01*
X12283807Y2689390D01*
X12510615Y2617442D01*
X12747078Y2590919D01*
X12764101Y2590800D01*
X12775899Y2590800D01*
X13012710Y2614019D01*
X13240500Y2682793D01*
X13450594Y2794502D01*
X13634989Y2944891D01*
X13786662Y3128232D01*
X13899835Y3337541D01*
X13970197Y3564846D01*
X13995069Y3801488D01*
X13973504Y4038455D01*
X13906322Y4266720D01*
X13796082Y4477589D01*
X13646984Y4663030D01*
X13464707Y4815978D01*
X13256193Y4930610D01*
X13029385Y5002558D01*
X12792922Y5029081D01*
X12775899Y5029200D01*
X12764101Y5029200D01*
X12527290Y5005981D01*
X12299500Y4937207D01*
X12089406Y4825498D01*
X11982600Y4738389D01*
X11982600Y5421800D01*
X12075293Y5344022D01*
X12283807Y5229390D01*
X12510615Y5157442D01*
X12747078Y5130919D01*
X12764101Y5130800D01*
X12775899Y5130800D01*
X13012710Y5154019D01*
X13240500Y5222793D01*
X13450594Y5334502D01*
X13634989Y5484891D01*
X13786662Y5668232D01*
X13899835Y5877541D01*
X13970197Y6104846D01*
X13995069Y6341488D01*
X13973504Y6578455D01*
X13906322Y6806720D01*
X13796082Y7017589D01*
X13646984Y7203030D01*
X13464707Y7355978D01*
X13256193Y7470610D01*
X13029385Y7542558D01*
X12792922Y7569081D01*
X12775899Y7569200D01*
X12764101Y7569200D01*
X12527290Y7545981D01*
X12299500Y7477207D01*
X12089406Y7365498D01*
X11982600Y7278389D01*
X11982600Y7965786D01*
X12111450Y7863958D01*
X12324275Y7755196D01*
X12554229Y7690044D01*
X12744600Y7759963D01*
X12744600Y8864600D01*
X12795400Y8864600D01*
X12795400Y7759963D01*
X12985771Y7690044D01*
X13215725Y7755196D01*
X13428550Y7863958D01*
X13616067Y8012150D01*
X13771070Y8194077D01*
X13887603Y8402748D01*
X13961187Y8630144D01*
X13969954Y8674229D01*
X13900015Y8864600D01*
X12795400Y8864600D01*
X12744600Y8864600D01*
X12724600Y8864600D01*
X12724600Y8915400D01*
X12744600Y8915400D01*
X12744600Y10020037D01*
X12795400Y10020037D01*
X12795400Y8915400D01*
X13900015Y8915400D01*
X13969954Y9105771D01*
X13961187Y9149856D01*
X13887603Y9377252D01*
X13771070Y9585923D01*
X13616067Y9767850D01*
X13428550Y9916042D01*
X13215725Y10024804D01*
X12985771Y10089956D01*
X12795400Y10020037D01*
X12744600Y10020037D01*
X12554229Y10089956D01*
X12324275Y10024804D01*
X12111450Y9916042D01*
X11982600Y9814214D01*
X11982600Y10501800D01*
X12075293Y10424022D01*
X12283807Y10309390D01*
X12510615Y10237442D01*
X12747078Y10210919D01*
X12764101Y10210800D01*
X12775899Y10210800D01*
X13012710Y10234019D01*
X13240500Y10302793D01*
X13450594Y10414502D01*
X13634989Y10564891D01*
X13786662Y10748232D01*
X13899835Y10957541D01*
X13970197Y11184846D01*
X13995069Y11421488D01*
X13973504Y11658455D01*
X13906322Y11886720D01*
X13796082Y12097589D01*
X13646984Y12283030D01*
X13464707Y12435978D01*
X13256193Y12550610D01*
X13029385Y12622558D01*
X12792922Y12649081D01*
X12775899Y12649200D01*
X12764101Y12649200D01*
X12527290Y12625981D01*
X12299500Y12557207D01*
X12089406Y12445498D01*
X11982600Y12358389D01*
X11982600Y13041800D01*
X12075293Y12964022D01*
X12283807Y12849390D01*
X12510615Y12777442D01*
X12747078Y12750919D01*
X12764101Y12750800D01*
X12775899Y12750800D01*
X13012710Y12774019D01*
X13240500Y12842793D01*
X13450594Y12954502D01*
X13634989Y13104891D01*
X13786662Y13288232D01*
X13899835Y13497541D01*
X13970197Y13724846D01*
X13995069Y13961488D01*
X13973504Y14198455D01*
X13906322Y14426720D01*
X13796082Y14637589D01*
X13646984Y14823030D01*
X13464707Y14975978D01*
X13256193Y15090610D01*
X13029385Y15162558D01*
X12792922Y15189081D01*
X12775899Y15189200D01*
X12764101Y15189200D01*
X12527290Y15165981D01*
X12299500Y15097207D01*
X12089406Y14985498D01*
X11982600Y14898389D01*
X11982600Y15581800D01*
X12075293Y15504022D01*
X12283807Y15389390D01*
X12510615Y15317442D01*
X12747078Y15290919D01*
X12764101Y15290800D01*
X12775899Y15290800D01*
X13012710Y15314019D01*
X13240500Y15382793D01*
X13450594Y15494502D01*
X13634989Y15644891D01*
X13786662Y15828232D01*
X13899835Y16037541D01*
X13970197Y16264846D01*
X13995069Y16501488D01*
X13973504Y16738455D01*
X13906322Y16966720D01*
X13796082Y17177589D01*
X13646984Y17363030D01*
X13464707Y17515978D01*
X13256193Y17630610D01*
X13029385Y17702558D01*
X12792922Y17729081D01*
X12775899Y17729200D01*
X12764101Y17729200D01*
X12527290Y17705981D01*
X12299500Y17637207D01*
X12089406Y17525498D01*
X11982600Y17438389D01*
X11982600Y18125786D01*
X12111450Y18023958D01*
X12324275Y17915196D01*
X12554229Y17850044D01*
X12744600Y17919963D01*
X12744600Y19024600D01*
X12795400Y19024600D01*
X12795400Y17919963D01*
X12985771Y17850044D01*
X13215725Y17915196D01*
X13428550Y18023958D01*
X13616067Y18172150D01*
X13771070Y18354077D01*
X13887603Y18562748D01*
X13961187Y18790144D01*
X13969954Y18834229D01*
X13900015Y19024600D01*
X12795400Y19024600D01*
X12744600Y19024600D01*
X12724600Y19024600D01*
X12724600Y19075400D01*
X12744600Y19075400D01*
X12744600Y20180037D01*
X12795400Y20180037D01*
X12795400Y19075400D01*
X13900015Y19075400D01*
X13969954Y19265771D01*
X13961187Y19309856D01*
X13887603Y19537252D01*
X13771070Y19745923D01*
X13616067Y19927850D01*
X13428550Y20076042D01*
X13215725Y20184804D01*
X12985771Y20249956D01*
X12795400Y20180037D01*
X12744600Y20180037D01*
X12554229Y20249956D01*
X12324275Y20184804D01*
X12111450Y20076042D01*
X11982600Y19974214D01*
X11982600Y20661800D01*
X12075293Y20584022D01*
X12283807Y20469390D01*
X12510615Y20397442D01*
X12747078Y20370919D01*
X12764101Y20370800D01*
X12775899Y20370800D01*
X13012710Y20394019D01*
X13240500Y20462793D01*
X13450594Y20574502D01*
X13634989Y20724891D01*
X13786662Y20908232D01*
X13899835Y21117541D01*
X13970197Y21344846D01*
X13995069Y21581488D01*
X13973504Y21818455D01*
X13906322Y22046720D01*
X13796082Y22257589D01*
X13646984Y22443030D01*
X13464707Y22595978D01*
X13256193Y22710610D01*
X13029385Y22782558D01*
X12792922Y22809081D01*
X12775899Y22809200D01*
X12764101Y22809200D01*
X12527290Y22785981D01*
X12319312Y22723188D01*
X12182500Y22860000D01*
X12320310Y22997810D01*
X12510615Y22937442D01*
X12747078Y22910919D01*
X12764101Y22910800D01*
X12775899Y22910800D01*
X13012710Y22934019D01*
X13240500Y23002793D01*
X13450594Y23114502D01*
X13634989Y23264891D01*
X13786662Y23448232D01*
X13899835Y23657541D01*
X13970197Y23884846D01*
X13995069Y24121488D01*
X13973504Y24358455D01*
X13906322Y24586720D01*
X13796082Y24797589D01*
X13646984Y24983030D01*
X13464707Y25135978D01*
X13256193Y25250610D01*
X13029385Y25322558D01*
X12792922Y25349081D01*
X12775899Y25349200D01*
X12764101Y25349200D01*
X12527290Y25325981D01*
X12299500Y25257207D01*
X12089406Y25145498D01*
X11905011Y24995109D01*
X11753338Y24811768D01*
X11640165Y24602459D01*
X11569803Y24375154D01*
X11544931Y24138512D01*
X11566496Y23901545D01*
X11633019Y23675519D01*
X11450920Y23493420D01*
X11450920Y24993600D01*
X11444054Y25063310D01*
X11423721Y25130340D01*
X11390701Y25192116D01*
X11346263Y25246263D01*
X11292116Y25290701D01*
X11230340Y25323721D01*
X11163310Y25344054D01*
X11093600Y25350920D01*
X9366400Y25350920D01*
X9296690Y25344054D01*
X9229660Y25323721D01*
X9167884Y25290701D01*
X9113737Y25246263D01*
X9069299Y25192116D01*
X9036279Y25130340D01*
X9015946Y25063310D01*
X9009080Y24993600D01*
X9009080Y23342600D01*
X5429869Y23342600D01*
X4712570Y24059900D01*
X4712570Y27770030D01*
X4708224Y27814356D01*
X4704335Y27858805D01*
X4703626Y27861244D01*
X4703379Y27863767D01*
X4690498Y27906430D01*
X4678057Y27949253D01*
X4676890Y27951505D01*
X4676156Y27953935D01*
X4655212Y27993325D01*
X4634712Y28032873D01*
X4633131Y28034854D01*
X4631938Y28037097D01*
X4603753Y28071655D01*
X4575951Y28106482D01*
X4572465Y28110018D01*
X4572409Y28110086D01*
X4572346Y28110138D01*
X4571220Y28111280D01*
X3341250Y29341250D01*
X3306803Y29369545D01*
X3272653Y29398200D01*
X3270430Y29399422D01*
X3268469Y29401033D01*
X3229152Y29422115D01*
X3190116Y29443575D01*
X3187700Y29444341D01*
X3185461Y29445542D01*
X3142798Y29458585D01*
X3100338Y29472054D01*
X3097817Y29472337D01*
X3095389Y29473079D01*
X3051034Y29477584D01*
X3006738Y29482553D01*
X3001778Y29482588D01*
X3001685Y29482597D01*
X3001599Y29482589D01*
X3000000Y29482600D01*
X-2873000Y29482600D01*
X-2918204Y29478168D01*
X-2963430Y29474052D01*
X-2965054Y29473574D01*
X-2966737Y29473409D01*
X-3010213Y29460283D01*
X-3053785Y29447459D01*
X-3055284Y29446675D01*
X-3056905Y29446186D01*
X-3097069Y29424830D01*
X-3137254Y29403822D01*
X-3138570Y29402764D01*
X-3140067Y29401968D01*
X-3175252Y29373271D01*
X-3210658Y29344805D01*
X-3211748Y29343505D01*
X-3213056Y29342439D01*
X-3241960Y29307500D01*
X-3271200Y29272653D01*
X-3272015Y29271170D01*
X-3273094Y29269866D01*
X-3294688Y29229928D01*
X-3316575Y29190116D01*
X-3317087Y29188502D01*
X-3317891Y29187015D01*
X-3331315Y29143650D01*
X-3345054Y29100338D01*
X-3345243Y29098656D01*
X-3345743Y29097040D01*
X-3350488Y29051890D01*
X-3355553Y29006738D01*
X-3355576Y29003486D01*
X-3355588Y29003369D01*
X-3355577Y29003252D01*
X-3355600Y29000000D01*
X-7903177Y29000000D01*
X-7898245Y29353155D01*
X-8035435Y30046014D01*
X-8304589Y30699030D01*
X-8695455Y31287331D01*
X-9193145Y31788508D01*
X-9356067Y31898400D01*
X9351432Y31898400D01*
X9232304Y31820445D01*
X9232304Y31820445D01*
G37*
X9232304Y31820445D02*
X8727664Y31326266D01*
X8328622Y30743480D01*
X8050377Y30094285D01*
X7903527Y29403409D01*
X7893665Y28697168D01*
X8021168Y28002461D01*
X8281178Y27345750D01*
X8663792Y26752049D01*
X9154437Y26243972D01*
X9734423Y25840871D01*
X10381659Y25558101D01*
X11071493Y25406431D01*
X11777648Y25391639D01*
X12473228Y25514289D01*
X13131738Y25769708D01*
X13728096Y26148168D01*
X14239586Y26635253D01*
X14398400Y26860386D01*
X14398400Y-26853932D01*
X14304545Y-26712669D01*
X13806855Y-26211492D01*
X13221297Y-25816528D01*
X12570175Y-25542822D01*
X11878291Y-25400798D01*
X11171998Y-25395867D01*
X10478199Y-25528217D01*
X9823319Y-25792805D01*
X9232304Y-26179555D01*
X8727664Y-26673734D01*
X8328622Y-27256520D01*
X8050377Y-27905715D01*
X7903527Y-28596591D01*
X7893665Y-29302832D01*
X8021168Y-29997539D01*
X8281178Y-30654250D01*
X8663792Y-31247951D01*
X9154437Y-31756028D01*
X9359283Y-31898400D01*
X-9345283Y-31898400D01*
X-9271904Y-31851832D01*
X-8760414Y-31364747D01*
X-8353274Y-30787589D01*
X-8065992Y-30142342D01*
X-7909510Y-29453584D01*
X-7898245Y-28646845D01*
X-8035435Y-27953986D01*
X-8304589Y-27300970D01*
X-8695455Y-26712669D01*
X-9193145Y-26211492D01*
X-9778703Y-25816528D01*
X-10429825Y-25542822D01*
X-11121709Y-25400798D01*
X-11828002Y-25395867D01*
X-12521801Y-25528217D01*
X-13176681Y-25792805D01*
X-13767696Y-26179555D01*
X-14272336Y-26673734D01*
X-14398400Y-26857846D01*
X-14398400Y-24345771D01*
X9030046Y-24345771D01*
X9038813Y-24389856D01*
X9112397Y-24617252D01*
X9228930Y-24825923D01*
X9383933Y-25007850D01*
X9571450Y-25156042D01*
X9784275Y-25264804D01*
X10014229Y-25329956D01*
X10204600Y-25260037D01*
X10204600Y-24155400D01*
X10255400Y-24155400D01*
X10255400Y-25260037D01*
X10445771Y-25329956D01*
X10675725Y-25264804D01*
X10888550Y-25156042D01*
X11076067Y-25007850D01*
X11231070Y-24825923D01*
X11347603Y-24617252D01*
X11421187Y-24389856D01*
X11429954Y-24345771D01*
X11360015Y-24155400D01*
X10255400Y-24155400D01*
X10204600Y-24155400D01*
X9099985Y-24155400D01*
X9030046Y-24345771D01*
X-14398400Y-24345771D01*
X-14398400Y-24121488D01*
X11544931Y-24121488D01*
X11566496Y-24358455D01*
X11633678Y-24586720D01*
X11743918Y-24797589D01*
X11893016Y-24983030D01*
X12075293Y-25135978D01*
X12283807Y-25250610D01*
X12510615Y-25322558D01*
X12747078Y-25349081D01*
X12764101Y-25349200D01*
X12775899Y-25349200D01*
X13012710Y-25325981D01*
X13240500Y-25257207D01*
X13450594Y-25145498D01*
X13634989Y-24995109D01*
X13786662Y-24811768D01*
X13899835Y-24602459D01*
X13970197Y-24375154D01*
X13995069Y-24138512D01*
X13973504Y-23901545D01*
X13906322Y-23673280D01*
X13796082Y-23462411D01*
X13646984Y-23276970D01*
X13464707Y-23124022D01*
X13256193Y-23009390D01*
X13029385Y-22937442D01*
X12792922Y-22910919D01*
X12775899Y-22910800D01*
X12764101Y-22910800D01*
X12527290Y-22934019D01*
X12299500Y-23002793D01*
X12089406Y-23114502D01*
X11905011Y-23264891D01*
X11753338Y-23448232D01*
X11640165Y-23657541D01*
X11569803Y-23884846D01*
X11544931Y-24121488D01*
X-14398400Y-24121488D01*
X-14398400Y-23914229D01*
X9030046Y-23914229D01*
X9099985Y-24104600D01*
X10204600Y-24104600D01*
X10204600Y-22999963D01*
X10255400Y-22999963D01*
X10255400Y-24104600D01*
X11360015Y-24104600D01*
X11429954Y-23914229D01*
X11421187Y-23870144D01*
X11347603Y-23642748D01*
X11231070Y-23434077D01*
X11076067Y-23252150D01*
X10888550Y-23103958D01*
X10675725Y-22995196D01*
X10445771Y-22930044D01*
X10255400Y-22999963D01*
X10204600Y-22999963D01*
X10014229Y-22930044D01*
X9784275Y-22995196D01*
X9571450Y-23103958D01*
X9383933Y-23252150D01*
X9228930Y-23434077D01*
X9112397Y-23642748D01*
X9038813Y-23870144D01*
X9030046Y-23914229D01*
X-14398400Y-23914229D01*
X-14398400Y-21581488D01*
X9004931Y-21581488D01*
X9026496Y-21818455D01*
X9093678Y-22046720D01*
X9203918Y-22257589D01*
X9353016Y-22443030D01*
X9535293Y-22595978D01*
X9743807Y-22710610D01*
X9970615Y-22782558D01*
X10207078Y-22809081D01*
X10224101Y-22809200D01*
X10235899Y-22809200D01*
X10472710Y-22785981D01*
X10700500Y-22717207D01*
X10910594Y-22605498D01*
X11094989Y-22455109D01*
X11246662Y-22271768D01*
X11359835Y-22062459D01*
X11430197Y-21835154D01*
X11455069Y-21598512D01*
X11453520Y-21581488D01*
X11544931Y-21581488D01*
X11566496Y-21818455D01*
X11633678Y-22046720D01*
X11743918Y-22257589D01*
X11893016Y-22443030D01*
X12075293Y-22595978D01*
X12283807Y-22710610D01*
X12510615Y-22782558D01*
X12747078Y-22809081D01*
X12764101Y-22809200D01*
X12775899Y-22809200D01*
X13012710Y-22785981D01*
X13240500Y-22717207D01*
X13450594Y-22605498D01*
X13634989Y-22455109D01*
X13786662Y-22271768D01*
X13899835Y-22062459D01*
X13970197Y-21835154D01*
X13995069Y-21598512D01*
X13973504Y-21361545D01*
X13906322Y-21133280D01*
X13796082Y-20922411D01*
X13646984Y-20736970D01*
X13464707Y-20584022D01*
X13256193Y-20469390D01*
X13029385Y-20397442D01*
X12792922Y-20370919D01*
X12775899Y-20370800D01*
X12764101Y-20370800D01*
X12527290Y-20394019D01*
X12299500Y-20462793D01*
X12089406Y-20574502D01*
X11905011Y-20724891D01*
X11753338Y-20908232D01*
X11640165Y-21117541D01*
X11569803Y-21344846D01*
X11544931Y-21581488D01*
X11453520Y-21581488D01*
X11433504Y-21361545D01*
X11366322Y-21133280D01*
X11256082Y-20922411D01*
X11106984Y-20736970D01*
X10924707Y-20584022D01*
X10716193Y-20469390D01*
X10489385Y-20397442D01*
X10252922Y-20370919D01*
X10235899Y-20370800D01*
X10224101Y-20370800D01*
X9987290Y-20394019D01*
X9759500Y-20462793D01*
X9549406Y-20574502D01*
X9365011Y-20724891D01*
X9213338Y-20908232D01*
X9100165Y-21117541D01*
X9029803Y-21344846D01*
X9004931Y-21581488D01*
X-14398400Y-21581488D01*
X-14398400Y-19041488D01*
X9004931Y-19041488D01*
X9026496Y-19278455D01*
X9093678Y-19506720D01*
X9203918Y-19717589D01*
X9353016Y-19903030D01*
X9535293Y-20055978D01*
X9743807Y-20170610D01*
X9970615Y-20242558D01*
X10207078Y-20269081D01*
X10224101Y-20269200D01*
X10235899Y-20269200D01*
X10472710Y-20245981D01*
X10700500Y-20177207D01*
X10910594Y-20065498D01*
X11094989Y-19915109D01*
X11246662Y-19731768D01*
X11359835Y-19522459D01*
X11430197Y-19295154D01*
X11455069Y-19058512D01*
X11453520Y-19041488D01*
X11544931Y-19041488D01*
X11566496Y-19278455D01*
X11633678Y-19506720D01*
X11743918Y-19717589D01*
X11893016Y-19903030D01*
X12075293Y-20055978D01*
X12283807Y-20170610D01*
X12510615Y-20242558D01*
X12747078Y-20269081D01*
X12764101Y-20269200D01*
X12775899Y-20269200D01*
X13012710Y-20245981D01*
X13240500Y-20177207D01*
X13450594Y-20065498D01*
X13634989Y-19915109D01*
X13786662Y-19731768D01*
X13899835Y-19522459D01*
X13970197Y-19295154D01*
X13995069Y-19058512D01*
X13973504Y-18821545D01*
X13906322Y-18593280D01*
X13796082Y-18382411D01*
X13646984Y-18196970D01*
X13464707Y-18044022D01*
X13256193Y-17929390D01*
X13029385Y-17857442D01*
X12792922Y-17830919D01*
X12775899Y-17830800D01*
X12764101Y-17830800D01*
X12527290Y-17854019D01*
X12299500Y-17922793D01*
X12089406Y-18034502D01*
X11905011Y-18184891D01*
X11753338Y-18368232D01*
X11640165Y-18577541D01*
X11569803Y-18804846D01*
X11544931Y-19041488D01*
X11453520Y-19041488D01*
X11433504Y-18821545D01*
X11366322Y-18593280D01*
X11256082Y-18382411D01*
X11106984Y-18196970D01*
X10924707Y-18044022D01*
X10716193Y-17929390D01*
X10489385Y-17857442D01*
X10252922Y-17830919D01*
X10235899Y-17830800D01*
X10224101Y-17830800D01*
X9987290Y-17854019D01*
X9759500Y-17922793D01*
X9549406Y-18034502D01*
X9365011Y-18184891D01*
X9213338Y-18368232D01*
X9100165Y-18577541D01*
X9029803Y-18804846D01*
X9004931Y-19041488D01*
X-14398400Y-19041488D01*
X-14398400Y-17034501D01*
X-748580Y-17034501D01*
X-668908Y-17213886D01*
X-468010Y-17325863D01*
X-249126Y-17396494D01*
X-20669Y-17423067D01*
X208582Y-17404559D01*
X429817Y-17341682D01*
X634535Y-17236852D01*
X668908Y-17213886D01*
X748580Y-17034501D01*
X0Y-16285921D01*
X-748580Y-17034501D01*
X-14398400Y-17034501D01*
X-14398400Y-16229331D01*
X-1173067Y-16229331D01*
X-1154559Y-16458582D01*
X-1091682Y-16679817D01*
X-986852Y-16884535D01*
X-963886Y-16918908D01*
X-784501Y-16998580D01*
X-35921Y-16250000D01*
X35921Y-16250000D01*
X784501Y-16998580D01*
X963886Y-16918908D01*
X1075863Y-16718010D01*
X1145731Y-16501488D01*
X9004931Y-16501488D01*
X9026496Y-16738455D01*
X9093678Y-16966720D01*
X9203918Y-17177589D01*
X9353016Y-17363030D01*
X9535293Y-17515978D01*
X9743807Y-17630610D01*
X9970615Y-17702558D01*
X10207078Y-17729081D01*
X10224101Y-17729200D01*
X10235899Y-17729200D01*
X10472710Y-17705981D01*
X10700500Y-17637207D01*
X10910594Y-17525498D01*
X11094989Y-17375109D01*
X11246662Y-17191768D01*
X11359835Y-16982459D01*
X11430197Y-16755154D01*
X11433285Y-16725771D01*
X11570046Y-16725771D01*
X11578813Y-16769856D01*
X11652397Y-16997252D01*
X11768930Y-17205923D01*
X11923933Y-17387850D01*
X12111450Y-17536042D01*
X12324275Y-17644804D01*
X12554229Y-17709956D01*
X12744600Y-17640037D01*
X12744600Y-16535400D01*
X12795400Y-16535400D01*
X12795400Y-17640037D01*
X12985771Y-17709956D01*
X13215725Y-17644804D01*
X13428550Y-17536042D01*
X13616067Y-17387850D01*
X13771070Y-17205923D01*
X13887603Y-16997252D01*
X13961187Y-16769856D01*
X13969954Y-16725771D01*
X13900015Y-16535400D01*
X12795400Y-16535400D01*
X12744600Y-16535400D01*
X11639985Y-16535400D01*
X11570046Y-16725771D01*
X11433285Y-16725771D01*
X11455069Y-16518512D01*
X11434659Y-16294229D01*
X11570046Y-16294229D01*
X11639985Y-16484600D01*
X12744600Y-16484600D01*
X12744600Y-15379963D01*
X12795400Y-15379963D01*
X12795400Y-16484600D01*
X13900015Y-16484600D01*
X13969954Y-16294229D01*
X13961187Y-16250144D01*
X13887603Y-16022748D01*
X13771070Y-15814077D01*
X13616067Y-15632150D01*
X13428550Y-15483958D01*
X13215725Y-15375196D01*
X12985771Y-15310044D01*
X12795400Y-15379963D01*
X12744600Y-15379963D01*
X12554229Y-15310044D01*
X12324275Y-15375196D01*
X12111450Y-15483958D01*
X11923933Y-15632150D01*
X11768930Y-15814077D01*
X11652397Y-16022748D01*
X11578813Y-16250144D01*
X11570046Y-16294229D01*
X11434659Y-16294229D01*
X11433504Y-16281545D01*
X11366322Y-16053280D01*
X11256082Y-15842411D01*
X11106984Y-15656970D01*
X10924707Y-15504022D01*
X10716193Y-15389390D01*
X10489385Y-15317442D01*
X10252922Y-15290919D01*
X10235899Y-15290800D01*
X10224101Y-15290800D01*
X9987290Y-15314019D01*
X9759500Y-15382793D01*
X9549406Y-15494502D01*
X9365011Y-15644891D01*
X9213338Y-15828232D01*
X9100165Y-16037541D01*
X9029803Y-16264846D01*
X9004931Y-16501488D01*
X1145731Y-16501488D01*
X1146494Y-16499126D01*
X1173067Y-16270669D01*
X1154559Y-16041418D01*
X1091682Y-15820183D01*
X986852Y-15615465D01*
X963886Y-15581092D01*
X784501Y-15501420D01*
X35921Y-16250000D01*
X-35921Y-16250000D01*
X-784501Y-15501420D01*
X-963886Y-15581092D01*
X-1075863Y-15781990D01*
X-1146494Y-16000874D01*
X-1173067Y-16229331D01*
X-14398400Y-16229331D01*
X-14398400Y-15465499D01*
X-748580Y-15465499D01*
X0Y-16214079D01*
X748580Y-15465499D01*
X668908Y-15286114D01*
X468010Y-15174137D01*
X249126Y-15103506D01*
X20669Y-15076933D01*
X-208582Y-15095441D01*
X-429817Y-15158318D01*
X-634535Y-15263148D01*
X-668908Y-15286114D01*
X-748580Y-15465499D01*
X-14398400Y-15465499D01*
X-14398400Y-13961488D01*
X9004931Y-13961488D01*
X9026496Y-14198455D01*
X9093678Y-14426720D01*
X9203918Y-14637589D01*
X9353016Y-14823030D01*
X9535293Y-14975978D01*
X9743807Y-15090610D01*
X9970615Y-15162558D01*
X10207078Y-15189081D01*
X10224101Y-15189200D01*
X10235899Y-15189200D01*
X10472710Y-15165981D01*
X10700500Y-15097207D01*
X10910594Y-14985498D01*
X11094989Y-14835109D01*
X11246662Y-14651768D01*
X11359835Y-14442459D01*
X11430197Y-14215154D01*
X11455069Y-13978512D01*
X11453520Y-13961488D01*
X11544931Y-13961488D01*
X11566496Y-14198455D01*
X11633678Y-14426720D01*
X11743918Y-14637589D01*
X11893016Y-14823030D01*
X12075293Y-14975978D01*
X12283807Y-15090610D01*
X12510615Y-15162558D01*
X12747078Y-15189081D01*
X12764101Y-15189200D01*
X12775899Y-15189200D01*
X13012710Y-15165981D01*
X13240500Y-15097207D01*
X13450594Y-14985498D01*
X13634989Y-14835109D01*
X13786662Y-14651768D01*
X13899835Y-14442459D01*
X13970197Y-14215154D01*
X13995069Y-13978512D01*
X13973504Y-13741545D01*
X13906322Y-13513280D01*
X13796082Y-13302411D01*
X13646984Y-13116970D01*
X13464707Y-12964022D01*
X13256193Y-12849390D01*
X13029385Y-12777442D01*
X12792922Y-12750919D01*
X12775899Y-12750800D01*
X12764101Y-12750800D01*
X12527290Y-12774019D01*
X12299500Y-12842793D01*
X12089406Y-12954502D01*
X11905011Y-13104891D01*
X11753338Y-13288232D01*
X11640165Y-13497541D01*
X11569803Y-13724846D01*
X11544931Y-13961488D01*
X11453520Y-13961488D01*
X11433504Y-13741545D01*
X11366322Y-13513280D01*
X11256082Y-13302411D01*
X11106984Y-13116970D01*
X10924707Y-12964022D01*
X10716193Y-12849390D01*
X10489385Y-12777442D01*
X10252922Y-12750919D01*
X10235899Y-12750800D01*
X10224101Y-12750800D01*
X9987290Y-12774019D01*
X9759500Y-12842793D01*
X9549406Y-12954502D01*
X9365011Y-13104891D01*
X9213338Y-13288232D01*
X9100165Y-13497541D01*
X9029803Y-13724846D01*
X9004931Y-13961488D01*
X-14398400Y-13961488D01*
X-14398400Y-11421488D01*
X9004931Y-11421488D01*
X9026496Y-11658455D01*
X9093678Y-11886720D01*
X9203918Y-12097589D01*
X9353016Y-12283030D01*
X9535293Y-12435978D01*
X9743807Y-12550610D01*
X9970615Y-12622558D01*
X10207078Y-12649081D01*
X10224101Y-12649200D01*
X10235899Y-12649200D01*
X10472710Y-12625981D01*
X10700500Y-12557207D01*
X10910594Y-12445498D01*
X11094989Y-12295109D01*
X11246662Y-12111768D01*
X11359835Y-11902459D01*
X11430197Y-11675154D01*
X11433285Y-11645771D01*
X11570046Y-11645771D01*
X11578813Y-11689856D01*
X11652397Y-11917252D01*
X11768930Y-12125923D01*
X11923933Y-12307850D01*
X12111450Y-12456042D01*
X12324275Y-12564804D01*
X12554229Y-12629956D01*
X12744600Y-12560037D01*
X12744600Y-11455400D01*
X12795400Y-11455400D01*
X12795400Y-12560037D01*
X12985771Y-12629956D01*
X13215725Y-12564804D01*
X13428550Y-12456042D01*
X13616067Y-12307850D01*
X13771070Y-12125923D01*
X13887603Y-11917252D01*
X13961187Y-11689856D01*
X13969954Y-11645771D01*
X13900015Y-11455400D01*
X12795400Y-11455400D01*
X12744600Y-11455400D01*
X11639985Y-11455400D01*
X11570046Y-11645771D01*
X11433285Y-11645771D01*
X11455069Y-11438512D01*
X11434659Y-11214229D01*
X11570046Y-11214229D01*
X11639985Y-11404600D01*
X12744600Y-11404600D01*
X12744600Y-10299963D01*
X12795400Y-10299963D01*
X12795400Y-11404600D01*
X13900015Y-11404600D01*
X13969954Y-11214229D01*
X13961187Y-11170144D01*
X13887603Y-10942748D01*
X13771070Y-10734077D01*
X13616067Y-10552150D01*
X13428550Y-10403958D01*
X13215725Y-10295196D01*
X12985771Y-10230044D01*
X12795400Y-10299963D01*
X12744600Y-10299963D01*
X12554229Y-10230044D01*
X12324275Y-10295196D01*
X12111450Y-10403958D01*
X11923933Y-10552150D01*
X11768930Y-10734077D01*
X11652397Y-10942748D01*
X11578813Y-11170144D01*
X11570046Y-11214229D01*
X11434659Y-11214229D01*
X11433504Y-11201545D01*
X11366322Y-10973280D01*
X11256082Y-10762411D01*
X11106984Y-10576970D01*
X10924707Y-10424022D01*
X10716193Y-10309390D01*
X10489385Y-10237442D01*
X10252922Y-10210919D01*
X10235899Y-10210800D01*
X10224101Y-10210800D01*
X9987290Y-10234019D01*
X9759500Y-10302793D01*
X9549406Y-10414502D01*
X9365011Y-10564891D01*
X9213338Y-10748232D01*
X9100165Y-10957541D01*
X9029803Y-11184846D01*
X9004931Y-11421488D01*
X-14398400Y-11421488D01*
X-14398400Y-8881488D01*
X9004931Y-8881488D01*
X9026496Y-9118455D01*
X9093678Y-9346720D01*
X9203918Y-9557589D01*
X9353016Y-9743030D01*
X9535293Y-9895978D01*
X9743807Y-10010610D01*
X9970615Y-10082558D01*
X10207078Y-10109081D01*
X10224101Y-10109200D01*
X10235899Y-10109200D01*
X10472710Y-10085981D01*
X10700500Y-10017207D01*
X10910594Y-9905498D01*
X11094989Y-9755109D01*
X11246662Y-9571768D01*
X11359835Y-9362459D01*
X11430197Y-9135154D01*
X11455069Y-8898512D01*
X11453520Y-8881488D01*
X11544931Y-8881488D01*
X11566496Y-9118455D01*
X11633678Y-9346720D01*
X11743918Y-9557589D01*
X11893016Y-9743030D01*
X12075293Y-9895978D01*
X12283807Y-10010610D01*
X12510615Y-10082558D01*
X12747078Y-10109081D01*
X12764101Y-10109200D01*
X12775899Y-10109200D01*
X13012710Y-10085981D01*
X13240500Y-10017207D01*
X13450594Y-9905498D01*
X13634989Y-9755109D01*
X13786662Y-9571768D01*
X13899835Y-9362459D01*
X13970197Y-9135154D01*
X13995069Y-8898512D01*
X13973504Y-8661545D01*
X13906322Y-8433280D01*
X13796082Y-8222411D01*
X13646984Y-8036970D01*
X13464707Y-7884022D01*
X13256193Y-7769390D01*
X13029385Y-7697442D01*
X12792922Y-7670919D01*
X12775899Y-7670800D01*
X12764101Y-7670800D01*
X12527290Y-7694019D01*
X12299500Y-7762793D01*
X12089406Y-7874502D01*
X11905011Y-8024891D01*
X11753338Y-8208232D01*
X11640165Y-8417541D01*
X11569803Y-8644846D01*
X11544931Y-8881488D01*
X11453520Y-8881488D01*
X11433504Y-8661545D01*
X11366322Y-8433280D01*
X11256082Y-8222411D01*
X11106984Y-8036970D01*
X10924707Y-7884022D01*
X10716193Y-7769390D01*
X10489385Y-7697442D01*
X10252922Y-7670919D01*
X10235899Y-7670800D01*
X10224101Y-7670800D01*
X9987290Y-7694019D01*
X9759500Y-7762793D01*
X9549406Y-7874502D01*
X9365011Y-8024891D01*
X9213338Y-8208232D01*
X9100165Y-8417541D01*
X9029803Y-8644846D01*
X9004931Y-8881488D01*
X-14398400Y-8881488D01*
X-14398400Y26848552D01*
X-14336208Y26752049D01*
X-13845563Y26243972D01*
X-13265577Y25840871D01*
X-12618341Y25558101D01*
X-11928507Y25406431D01*
X-11222352Y25391639D01*
X-10526772Y25514289D01*
X-9868262Y25769708D01*
X-9271904Y26148168D01*
X-8760414Y26635253D01*
X-8353274Y27212411D01*
X-8065992Y27857658D01*
X-7909510Y28546416D01*
X-7903177Y29000000D01*
X-3355600Y29000000D01*
X-3355600Y-7000000D01*
X-3351168Y-7045204D01*
X-3347052Y-7090430D01*
X-3346574Y-7092054D01*
X-3346409Y-7093737D01*
X-3333283Y-7137213D01*
X-3320459Y-7180785D01*
X-3319675Y-7182284D01*
X-3319186Y-7183905D01*
X-3297830Y-7224069D01*
X-3276822Y-7264254D01*
X-3275764Y-7265570D01*
X-3274968Y-7267067D01*
X-3246271Y-7302252D01*
X-3217805Y-7337658D01*
X-3216505Y-7338748D01*
X-3215439Y-7340056D01*
X-3180500Y-7368960D01*
X-3145653Y-7398200D01*
X-3144170Y-7399015D01*
X-3142866Y-7400094D01*
X-3102928Y-7421688D01*
X-3063116Y-7443575D01*
X-3061502Y-7444087D01*
X-3060015Y-7444891D01*
X-3016650Y-7458315D01*
X-2973338Y-7472054D01*
X-2971656Y-7472243D01*
X-2970040Y-7472743D01*
X-2924890Y-7477488D01*
X-2879738Y-7482553D01*
X-2876486Y-7482576D01*
X-2876369Y-7482588D01*
X-2876252Y-7482577D01*
X-2873000Y-7482600D01*
X3000000Y-7482600D01*
X3044326Y-7478254D01*
X3088775Y-7474365D01*
X3091214Y-7473656D01*
X3093737Y-7473409D01*
X3136400Y-7460528D01*
X3179223Y-7448087D01*
X3181475Y-7446920D01*
X3183905Y-7446186D01*
X3223295Y-7425242D01*
X3262843Y-7404742D01*
X3264824Y-7403161D01*
X3267067Y-7401968D01*
X3301625Y-7373783D01*
X3336452Y-7345981D01*
X3339988Y-7342495D01*
X3340056Y-7342439D01*
X3340108Y-7342376D01*
X3341250Y-7341250D01*
X4116729Y-6565771D01*
X9030046Y-6565771D01*
X9038813Y-6609856D01*
X9112397Y-6837252D01*
X9228930Y-7045923D01*
X9383933Y-7227850D01*
X9571450Y-7376042D01*
X9784275Y-7484804D01*
X10014229Y-7549956D01*
X10204600Y-7480037D01*
X10204600Y-6375400D01*
X10255400Y-6375400D01*
X10255400Y-7480037D01*
X10445771Y-7549956D01*
X10675725Y-7484804D01*
X10888550Y-7376042D01*
X11076067Y-7227850D01*
X11231070Y-7045923D01*
X11347603Y-6837252D01*
X11421187Y-6609856D01*
X11429954Y-6565771D01*
X11360015Y-6375400D01*
X10255400Y-6375400D01*
X10204600Y-6375400D01*
X9099985Y-6375400D01*
X9030046Y-6565771D01*
X4116729Y-6565771D01*
X4341012Y-6341488D01*
X11544931Y-6341488D01*
X11566496Y-6578455D01*
X11633678Y-6806720D01*
X11743918Y-7017589D01*
X11893016Y-7203030D01*
X12075293Y-7355978D01*
X12283807Y-7470610D01*
X12510615Y-7542558D01*
X12747078Y-7569081D01*
X12764101Y-7569200D01*
X12775899Y-7569200D01*
X13012710Y-7545981D01*
X13240500Y-7477207D01*
X13450594Y-7365498D01*
X13634989Y-7215109D01*
X13786662Y-7031768D01*
X13899835Y-6822459D01*
X13970197Y-6595154D01*
X13995069Y-6358512D01*
X13973504Y-6121545D01*
X13906322Y-5893280D01*
X13796082Y-5682411D01*
X13646984Y-5496970D01*
X13464707Y-5344022D01*
X13256193Y-5229390D01*
X13029385Y-5157442D01*
X12792922Y-5130919D01*
X12775899Y-5130800D01*
X12764101Y-5130800D01*
X12527290Y-5154019D01*
X12299500Y-5222793D01*
X12089406Y-5334502D01*
X11905011Y-5484891D01*
X11753338Y-5668232D01*
X11640165Y-5877541D01*
X11569803Y-6104846D01*
X11544931Y-6341488D01*
X4341012Y-6341488D01*
X4548271Y-6134229D01*
X9030046Y-6134229D01*
X9099985Y-6324600D01*
X10204600Y-6324600D01*
X10204600Y-5219963D01*
X10255400Y-5219963D01*
X10255400Y-6324600D01*
X11360015Y-6324600D01*
X11429954Y-6134229D01*
X11421187Y-6090144D01*
X11347603Y-5862748D01*
X11231070Y-5654077D01*
X11076067Y-5472150D01*
X10888550Y-5323958D01*
X10675725Y-5215196D01*
X10445771Y-5150044D01*
X10255400Y-5219963D01*
X10204600Y-5219963D01*
X10014229Y-5150044D01*
X9784275Y-5215196D01*
X9571450Y-5323958D01*
X9383933Y-5472150D01*
X9228930Y-5654077D01*
X9112397Y-5862748D01*
X9038813Y-6090144D01*
X9030046Y-6134229D01*
X4548271Y-6134229D01*
X4571220Y-6111280D01*
X4599515Y-6076833D01*
X4628170Y-6042683D01*
X4629392Y-6040460D01*
X4631003Y-6038499D01*
X4652066Y-5999217D01*
X4673545Y-5960146D01*
X4674313Y-5957726D01*
X4675511Y-5955491D01*
X4688545Y-5912861D01*
X4702024Y-5870368D01*
X4702307Y-5867848D01*
X4703049Y-5865420D01*
X4707555Y-5821059D01*
X4712523Y-5776768D01*
X4712558Y-5771808D01*
X4712567Y-5771715D01*
X4712559Y-5771629D01*
X4712570Y-5770030D01*
X4712570Y-3801488D01*
X9004931Y-3801488D01*
X9026496Y-4038455D01*
X9093678Y-4266720D01*
X9203918Y-4477589D01*
X9353016Y-4663030D01*
X9535293Y-4815978D01*
X9743807Y-4930610D01*
X9970615Y-5002558D01*
X10207078Y-5029081D01*
X10224101Y-5029200D01*
X10235899Y-5029200D01*
X10472710Y-5005981D01*
X10700500Y-4937207D01*
X10910594Y-4825498D01*
X11094989Y-4675109D01*
X11246662Y-4491768D01*
X11359835Y-4282459D01*
X11430197Y-4055154D01*
X11455069Y-3818512D01*
X11453520Y-3801488D01*
X11544931Y-3801488D01*
X11566496Y-4038455D01*
X11633678Y-4266720D01*
X11743918Y-4477589D01*
X11893016Y-4663030D01*
X12075293Y-4815978D01*
X12283807Y-4930610D01*
X12510615Y-5002558D01*
X12747078Y-5029081D01*
X12764101Y-5029200D01*
X12775899Y-5029200D01*
X13012710Y-5005981D01*
X13240500Y-4937207D01*
X13450594Y-4825498D01*
X13634989Y-4675109D01*
X13786662Y-4491768D01*
X13899835Y-4282459D01*
X13970197Y-4055154D01*
X13995069Y-3818512D01*
X13973504Y-3581545D01*
X13906322Y-3353280D01*
X13796082Y-3142411D01*
X13646984Y-2956970D01*
X13464707Y-2804022D01*
X13256193Y-2689390D01*
X13029385Y-2617442D01*
X12792922Y-2590919D01*
X12775899Y-2590800D01*
X12764101Y-2590800D01*
X12527290Y-2614019D01*
X12299500Y-2682793D01*
X12089406Y-2794502D01*
X11905011Y-2944891D01*
X11753338Y-3128232D01*
X11640165Y-3337541D01*
X11569803Y-3564846D01*
X11544931Y-3801488D01*
X11453520Y-3801488D01*
X11433504Y-3581545D01*
X11366322Y-3353280D01*
X11256082Y-3142411D01*
X11106984Y-2956970D01*
X10924707Y-2804022D01*
X10716193Y-2689390D01*
X10489385Y-2617442D01*
X10252922Y-2590919D01*
X10235899Y-2590800D01*
X10224101Y-2590800D01*
X9987290Y-2614019D01*
X9759500Y-2682793D01*
X9549406Y-2794502D01*
X9365011Y-2944891D01*
X9213338Y-3128232D01*
X9100165Y-3337541D01*
X9029803Y-3564846D01*
X9004931Y-3801488D01*
X4712570Y-3801488D01*
X4712570Y-1199900D01*
X5429869Y-482600D01*
X9300724Y-482600D01*
X9213338Y-588232D01*
X9100165Y-797541D01*
X9029803Y-1024846D01*
X9004931Y-1261488D01*
X9026496Y-1498455D01*
X9093678Y-1726720D01*
X9203918Y-1937589D01*
X9353016Y-2123030D01*
X9535293Y-2275978D01*
X9743807Y-2390610D01*
X9970615Y-2462558D01*
X10207078Y-2489081D01*
X10224101Y-2489200D01*
X10235899Y-2489200D01*
X10472710Y-2465981D01*
X10700500Y-2397207D01*
X10910594Y-2285498D01*
X11094989Y-2135109D01*
X11246662Y-1951768D01*
X11359835Y-1742459D01*
X11430197Y-1515154D01*
X11455069Y-1278512D01*
X11453520Y-1261488D01*
X11544931Y-1261488D01*
X11566496Y-1498455D01*
X11633678Y-1726720D01*
X11743918Y-1937589D01*
X11893016Y-2123030D01*
X12075293Y-2275978D01*
X12283807Y-2390610D01*
X12510615Y-2462558D01*
X12747078Y-2489081D01*
X12764101Y-2489200D01*
X12775899Y-2489200D01*
X13012710Y-2465981D01*
X13240500Y-2397207D01*
X13450594Y-2285498D01*
X13634989Y-2135109D01*
X13786662Y-1951768D01*
X13899835Y-1742459D01*
X13970197Y-1515154D01*
X13995069Y-1278512D01*
X13973504Y-1041545D01*
X13906322Y-813280D01*
X13796082Y-602411D01*
X13646984Y-416970D01*
X13464707Y-264022D01*
X13256193Y-149390D01*
X13029385Y-77442D01*
X12792922Y-50919D01*
X12775899Y-50800D01*
X12764101Y-50800D01*
X12527290Y-74019D01*
X12299500Y-142793D01*
X12089406Y-254502D01*
X11905011Y-404891D01*
X11753338Y-588232D01*
X11640165Y-797541D01*
X11569803Y-1024846D01*
X11544931Y-1261488D01*
X11453520Y-1261488D01*
X11433504Y-1041545D01*
X11366322Y-813280D01*
X11256082Y-602411D01*
X11106984Y-416970D01*
X11079233Y-393685D01*
X11103635Y-373783D01*
X11138462Y-345981D01*
X11141998Y-342495D01*
X11142066Y-342439D01*
X11142118Y-342376D01*
X11143260Y-341250D01*
X11841250Y356740D01*
X11869545Y391187D01*
X11896938Y423834D01*
X11923933Y392150D01*
X12111450Y243958D01*
X12324275Y135196D01*
X12554229Y70044D01*
X12744600Y139963D01*
X12744600Y1244600D01*
X12795400Y1244600D01*
X12795400Y139963D01*
X12985771Y70044D01*
X13215725Y135196D01*
X13428550Y243958D01*
X13616067Y392150D01*
X13771070Y574077D01*
X13887603Y782748D01*
X13961187Y1010144D01*
X13969954Y1054229D01*
X13900015Y1244600D01*
X12795400Y1244600D01*
X12744600Y1244600D01*
X12724600Y1244600D01*
X12724600Y1295400D01*
X12744600Y1295400D01*
X12744600Y2400037D01*
X12795400Y2400037D01*
X12795400Y1295400D01*
X13900015Y1295400D01*
X13969954Y1485771D01*
X13961187Y1529856D01*
X13887603Y1757252D01*
X13771070Y1965923D01*
X13616067Y2147850D01*
X13428550Y2296042D01*
X13215725Y2404804D01*
X12985771Y2469956D01*
X12795400Y2400037D01*
X12744600Y2400037D01*
X12554229Y2469956D01*
X12324275Y2404804D01*
X12111450Y2296042D01*
X11982600Y2194214D01*
X11982600Y2881800D01*
X12075293Y2804022D01*
X12283807Y2689390D01*
X12510615Y2617442D01*
X12747078Y2590919D01*
X12764101Y2590800D01*
X12775899Y2590800D01*
X13012710Y2614019D01*
X13240500Y2682793D01*
X13450594Y2794502D01*
X13634989Y2944891D01*
X13786662Y3128232D01*
X13899835Y3337541D01*
X13970197Y3564846D01*
X13995069Y3801488D01*
X13973504Y4038455D01*
X13906322Y4266720D01*
X13796082Y4477589D01*
X13646984Y4663030D01*
X13464707Y4815978D01*
X13256193Y4930610D01*
X13029385Y5002558D01*
X12792922Y5029081D01*
X12775899Y5029200D01*
X12764101Y5029200D01*
X12527290Y5005981D01*
X12299500Y4937207D01*
X12089406Y4825498D01*
X11982600Y4738389D01*
X11982600Y5421800D01*
X12075293Y5344022D01*
X12283807Y5229390D01*
X12510615Y5157442D01*
X12747078Y5130919D01*
X12764101Y5130800D01*
X12775899Y5130800D01*
X13012710Y5154019D01*
X13240500Y5222793D01*
X13450594Y5334502D01*
X13634989Y5484891D01*
X13786662Y5668232D01*
X13899835Y5877541D01*
X13970197Y6104846D01*
X13995069Y6341488D01*
X13973504Y6578455D01*
X13906322Y6806720D01*
X13796082Y7017589D01*
X13646984Y7203030D01*
X13464707Y7355978D01*
X13256193Y7470610D01*
X13029385Y7542558D01*
X12792922Y7569081D01*
X12775899Y7569200D01*
X12764101Y7569200D01*
X12527290Y7545981D01*
X12299500Y7477207D01*
X12089406Y7365498D01*
X11982600Y7278389D01*
X11982600Y7965786D01*
X12111450Y7863958D01*
X12324275Y7755196D01*
X12554229Y7690044D01*
X12744600Y7759963D01*
X12744600Y8864600D01*
X12795400Y8864600D01*
X12795400Y7759963D01*
X12985771Y7690044D01*
X13215725Y7755196D01*
X13428550Y7863958D01*
X13616067Y8012150D01*
X13771070Y8194077D01*
X13887603Y8402748D01*
X13961187Y8630144D01*
X13969954Y8674229D01*
X13900015Y8864600D01*
X12795400Y8864600D01*
X12744600Y8864600D01*
X12724600Y8864600D01*
X12724600Y8915400D01*
X12744600Y8915400D01*
X12744600Y10020037D01*
X12795400Y10020037D01*
X12795400Y8915400D01*
X13900015Y8915400D01*
X13969954Y9105771D01*
X13961187Y9149856D01*
X13887603Y9377252D01*
X13771070Y9585923D01*
X13616067Y9767850D01*
X13428550Y9916042D01*
X13215725Y10024804D01*
X12985771Y10089956D01*
X12795400Y10020037D01*
X12744600Y10020037D01*
X12554229Y10089956D01*
X12324275Y10024804D01*
X12111450Y9916042D01*
X11982600Y9814214D01*
X11982600Y10501800D01*
X12075293Y10424022D01*
X12283807Y10309390D01*
X12510615Y10237442D01*
X12747078Y10210919D01*
X12764101Y10210800D01*
X12775899Y10210800D01*
X13012710Y10234019D01*
X13240500Y10302793D01*
X13450594Y10414502D01*
X13634989Y10564891D01*
X13786662Y10748232D01*
X13899835Y10957541D01*
X13970197Y11184846D01*
X13995069Y11421488D01*
X13973504Y11658455D01*
X13906322Y11886720D01*
X13796082Y12097589D01*
X13646984Y12283030D01*
X13464707Y12435978D01*
X13256193Y12550610D01*
X13029385Y12622558D01*
X12792922Y12649081D01*
X12775899Y12649200D01*
X12764101Y12649200D01*
X12527290Y12625981D01*
X12299500Y12557207D01*
X12089406Y12445498D01*
X11982600Y12358389D01*
X11982600Y13041800D01*
X12075293Y12964022D01*
X12283807Y12849390D01*
X12510615Y12777442D01*
X12747078Y12750919D01*
X12764101Y12750800D01*
X12775899Y12750800D01*
X13012710Y12774019D01*
X13240500Y12842793D01*
X13450594Y12954502D01*
X13634989Y13104891D01*
X13786662Y13288232D01*
X13899835Y13497541D01*
X13970197Y13724846D01*
X13995069Y13961488D01*
X13973504Y14198455D01*
X13906322Y14426720D01*
X13796082Y14637589D01*
X13646984Y14823030D01*
X13464707Y14975978D01*
X13256193Y15090610D01*
X13029385Y15162558D01*
X12792922Y15189081D01*
X12775899Y15189200D01*
X12764101Y15189200D01*
X12527290Y15165981D01*
X12299500Y15097207D01*
X12089406Y14985498D01*
X11982600Y14898389D01*
X11982600Y15581800D01*
X12075293Y15504022D01*
X12283807Y15389390D01*
X12510615Y15317442D01*
X12747078Y15290919D01*
X12764101Y15290800D01*
X12775899Y15290800D01*
X13012710Y15314019D01*
X13240500Y15382793D01*
X13450594Y15494502D01*
X13634989Y15644891D01*
X13786662Y15828232D01*
X13899835Y16037541D01*
X13970197Y16264846D01*
X13995069Y16501488D01*
X13973504Y16738455D01*
X13906322Y16966720D01*
X13796082Y17177589D01*
X13646984Y17363030D01*
X13464707Y17515978D01*
X13256193Y17630610D01*
X13029385Y17702558D01*
X12792922Y17729081D01*
X12775899Y17729200D01*
X12764101Y17729200D01*
X12527290Y17705981D01*
X12299500Y17637207D01*
X12089406Y17525498D01*
X11982600Y17438389D01*
X11982600Y18125786D01*
X12111450Y18023958D01*
X12324275Y17915196D01*
X12554229Y17850044D01*
X12744600Y17919963D01*
X12744600Y19024600D01*
X12795400Y19024600D01*
X12795400Y17919963D01*
X12985771Y17850044D01*
X13215725Y17915196D01*
X13428550Y18023958D01*
X13616067Y18172150D01*
X13771070Y18354077D01*
X13887603Y18562748D01*
X13961187Y18790144D01*
X13969954Y18834229D01*
X13900015Y19024600D01*
X12795400Y19024600D01*
X12744600Y19024600D01*
X12724600Y19024600D01*
X12724600Y19075400D01*
X12744600Y19075400D01*
X12744600Y20180037D01*
X12795400Y20180037D01*
X12795400Y19075400D01*
X13900015Y19075400D01*
X13969954Y19265771D01*
X13961187Y19309856D01*
X13887603Y19537252D01*
X13771070Y19745923D01*
X13616067Y19927850D01*
X13428550Y20076042D01*
X13215725Y20184804D01*
X12985771Y20249956D01*
X12795400Y20180037D01*
X12744600Y20180037D01*
X12554229Y20249956D01*
X12324275Y20184804D01*
X12111450Y20076042D01*
X11982600Y19974214D01*
X11982600Y20661800D01*
X12075293Y20584022D01*
X12283807Y20469390D01*
X12510615Y20397442D01*
X12747078Y20370919D01*
X12764101Y20370800D01*
X12775899Y20370800D01*
X13012710Y20394019D01*
X13240500Y20462793D01*
X13450594Y20574502D01*
X13634989Y20724891D01*
X13786662Y20908232D01*
X13899835Y21117541D01*
X13970197Y21344846D01*
X13995069Y21581488D01*
X13973504Y21818455D01*
X13906322Y22046720D01*
X13796082Y22257589D01*
X13646984Y22443030D01*
X13464707Y22595978D01*
X13256193Y22710610D01*
X13029385Y22782558D01*
X12792922Y22809081D01*
X12775899Y22809200D01*
X12764101Y22809200D01*
X12527290Y22785981D01*
X12319312Y22723188D01*
X12182500Y22860000D01*
X12320310Y22997810D01*
X12510615Y22937442D01*
X12747078Y22910919D01*
X12764101Y22910800D01*
X12775899Y22910800D01*
X13012710Y22934019D01*
X13240500Y23002793D01*
X13450594Y23114502D01*
X13634989Y23264891D01*
X13786662Y23448232D01*
X13899835Y23657541D01*
X13970197Y23884846D01*
X13995069Y24121488D01*
X13973504Y24358455D01*
X13906322Y24586720D01*
X13796082Y24797589D01*
X13646984Y24983030D01*
X13464707Y25135978D01*
X13256193Y25250610D01*
X13029385Y25322558D01*
X12792922Y25349081D01*
X12775899Y25349200D01*
X12764101Y25349200D01*
X12527290Y25325981D01*
X12299500Y25257207D01*
X12089406Y25145498D01*
X11905011Y24995109D01*
X11753338Y24811768D01*
X11640165Y24602459D01*
X11569803Y24375154D01*
X11544931Y24138512D01*
X11566496Y23901545D01*
X11633019Y23675519D01*
X11450920Y23493420D01*
X11450920Y24993600D01*
X11444054Y25063310D01*
X11423721Y25130340D01*
X11390701Y25192116D01*
X11346263Y25246263D01*
X11292116Y25290701D01*
X11230340Y25323721D01*
X11163310Y25344054D01*
X11093600Y25350920D01*
X9366400Y25350920D01*
X9296690Y25344054D01*
X9229660Y25323721D01*
X9167884Y25290701D01*
X9113737Y25246263D01*
X9069299Y25192116D01*
X9036279Y25130340D01*
X9015946Y25063310D01*
X9009080Y24993600D01*
X9009080Y23342600D01*
X5429869Y23342600D01*
X4712570Y24059900D01*
X4712570Y27770030D01*
X4708224Y27814356D01*
X4704335Y27858805D01*
X4703626Y27861244D01*
X4703379Y27863767D01*
X4690498Y27906430D01*
X4678057Y27949253D01*
X4676890Y27951505D01*
X4676156Y27953935D01*
X4655212Y27993325D01*
X4634712Y28032873D01*
X4633131Y28034854D01*
X4631938Y28037097D01*
X4603753Y28071655D01*
X4575951Y28106482D01*
X4572465Y28110018D01*
X4572409Y28110086D01*
X4572346Y28110138D01*
X4571220Y28111280D01*
X3341250Y29341250D01*
X3306803Y29369545D01*
X3272653Y29398200D01*
X3270430Y29399422D01*
X3268469Y29401033D01*
X3229152Y29422115D01*
X3190116Y29443575D01*
X3187700Y29444341D01*
X3185461Y29445542D01*
X3142798Y29458585D01*
X3100338Y29472054D01*
X3097817Y29472337D01*
X3095389Y29473079D01*
X3051034Y29477584D01*
X3006738Y29482553D01*
X3001778Y29482588D01*
X3001685Y29482597D01*
X3001599Y29482589D01*
X3000000Y29482600D01*
X-2873000Y29482600D01*
X-2918204Y29478168D01*
X-2963430Y29474052D01*
X-2965054Y29473574D01*
X-2966737Y29473409D01*
X-3010213Y29460283D01*
X-3053785Y29447459D01*
X-3055284Y29446675D01*
X-3056905Y29446186D01*
X-3097069Y29424830D01*
X-3137254Y29403822D01*
X-3138570Y29402764D01*
X-3140067Y29401968D01*
X-3175252Y29373271D01*
X-3210658Y29344805D01*
X-3211748Y29343505D01*
X-3213056Y29342439D01*
X-3241960Y29307500D01*
X-3271200Y29272653D01*
X-3272015Y29271170D01*
X-3273094Y29269866D01*
X-3294688Y29229928D01*
X-3316575Y29190116D01*
X-3317087Y29188502D01*
X-3317891Y29187015D01*
X-3331315Y29143650D01*
X-3345054Y29100338D01*
X-3345243Y29098656D01*
X-3345743Y29097040D01*
X-3350488Y29051890D01*
X-3355553Y29006738D01*
X-3355576Y29003486D01*
X-3355588Y29003369D01*
X-3355577Y29003252D01*
X-3355600Y29000000D01*
X-7903177Y29000000D01*
X-7898245Y29353155D01*
X-8035435Y30046014D01*
X-8304589Y30699030D01*
X-8695455Y31287331D01*
X-9193145Y31788508D01*
X-9356067Y31898400D01*
X9351432Y31898400D01*
X9232304Y31820445D01*
G36*
X3747370Y27570130D02*
X3747370Y23860000D01*
X3751716Y23815674D01*
X3755605Y23771225D01*
X3756314Y23768786D01*
X3756561Y23766263D01*
X3769442Y23723600D01*
X3781883Y23680777D01*
X3783050Y23678525D01*
X3783784Y23676095D01*
X3804728Y23636705D01*
X3825228Y23597157D01*
X3826809Y23595176D01*
X3828002Y23592933D01*
X3856187Y23558375D01*
X3883989Y23523548D01*
X3887475Y23520012D01*
X3887531Y23519944D01*
X3887594Y23519892D01*
X3888720Y23518750D01*
X4888721Y22518750D01*
X4923121Y22490494D01*
X4957317Y22461800D01*
X4959543Y22460576D01*
X4961502Y22458967D01*
X5000779Y22437907D01*
X5039854Y22416425D01*
X5042272Y22415658D01*
X5044510Y22414458D01*
X5087158Y22401419D01*
X5129632Y22387946D01*
X5132153Y22387663D01*
X5134581Y22386921D01*
X5178936Y22382416D01*
X5223232Y22377447D01*
X5228192Y22377412D01*
X5228285Y22377403D01*
X5228371Y22377411D01*
X5229970Y22377400D01*
X9300724Y22377400D01*
X9213338Y22271768D01*
X9100165Y22062459D01*
X9029803Y21835154D01*
X9004931Y21598512D01*
X9026496Y21361545D01*
X9093678Y21133280D01*
X9203918Y20922411D01*
X9353016Y20736970D01*
X9535293Y20584022D01*
X9743807Y20469390D01*
X9970615Y20397442D01*
X10207078Y20370919D01*
X10224101Y20370800D01*
X10235899Y20370800D01*
X10472710Y20394019D01*
X10700500Y20462793D01*
X10910594Y20574502D01*
X11017400Y20661611D01*
X11017400Y19978200D01*
X10924707Y20055978D01*
X10716193Y20170610D01*
X10489385Y20242558D01*
X10252922Y20269081D01*
X10235899Y20269200D01*
X10224101Y20269200D01*
X9987290Y20245981D01*
X9759500Y20177207D01*
X9549406Y20065498D01*
X9365011Y19915109D01*
X9213338Y19731768D01*
X9100165Y19522459D01*
X9029803Y19295154D01*
X9004931Y19058512D01*
X9026496Y18821545D01*
X9093678Y18593280D01*
X9203918Y18382411D01*
X9353016Y18196970D01*
X9535293Y18044022D01*
X9743807Y17929390D01*
X9970615Y17857442D01*
X10207078Y17830919D01*
X10224101Y17830800D01*
X10235899Y17830800D01*
X10472710Y17854019D01*
X10700500Y17922793D01*
X10910594Y18034502D01*
X11017400Y18121611D01*
X11017400Y17438200D01*
X10924707Y17515978D01*
X10716193Y17630610D01*
X10489385Y17702558D01*
X10252922Y17729081D01*
X10235899Y17729200D01*
X10224101Y17729200D01*
X9987290Y17705981D01*
X9759500Y17637207D01*
X9549406Y17525498D01*
X9365011Y17375109D01*
X9213338Y17191768D01*
X9100165Y16982459D01*
X9029803Y16755154D01*
X9004931Y16518512D01*
X9026496Y16281545D01*
X9093678Y16053280D01*
X9203918Y15842411D01*
X9353016Y15656970D01*
X9535293Y15504022D01*
X9743807Y15389390D01*
X9970615Y15317442D01*
X10207078Y15290919D01*
X10224101Y15290800D01*
X10235899Y15290800D01*
X10472710Y15314019D01*
X10700500Y15382793D01*
X10910594Y15494502D01*
X11017400Y15581611D01*
X11017400Y14894214D01*
X10888550Y14996042D01*
X10675725Y15104804D01*
X10445771Y15169956D01*
X10255400Y15100037D01*
X10255400Y13995400D01*
X10275400Y13995400D01*
X10275400Y13944600D01*
X10255400Y13944600D01*
X10255400Y12839963D01*
X10445771Y12770044D01*
X10675725Y12835196D01*
X10888550Y12943958D01*
X11017400Y13045786D01*
X11017400Y12358200D01*
X10924707Y12435978D01*
X10716193Y12550610D01*
X10489385Y12622558D01*
X10252922Y12649081D01*
X10235899Y12649200D01*
X10224101Y12649200D01*
X9987290Y12625981D01*
X9759500Y12557207D01*
X9549406Y12445498D01*
X9365011Y12295109D01*
X9213338Y12111768D01*
X9100165Y11902459D01*
X9029803Y11675154D01*
X9004931Y11438512D01*
X9026496Y11201545D01*
X9093678Y10973280D01*
X9203918Y10762411D01*
X9353016Y10576970D01*
X9535293Y10424022D01*
X9743807Y10309390D01*
X9970615Y10237442D01*
X10207078Y10210919D01*
X10224101Y10210800D01*
X10235899Y10210800D01*
X10472710Y10234019D01*
X10700500Y10302793D01*
X10910594Y10414502D01*
X11017400Y10501611D01*
X11017400Y9818200D01*
X10924707Y9895978D01*
X10716193Y10010610D01*
X10489385Y10082558D01*
X10252922Y10109081D01*
X10235899Y10109200D01*
X10224101Y10109200D01*
X9987290Y10085981D01*
X9759500Y10017207D01*
X9549406Y9905498D01*
X9365011Y9755109D01*
X9213338Y9571768D01*
X9100165Y9362459D01*
X9029803Y9135154D01*
X9004931Y8898512D01*
X9026496Y8661545D01*
X9093678Y8433280D01*
X9203918Y8222411D01*
X9353016Y8036970D01*
X9535293Y7884022D01*
X9743807Y7769390D01*
X9970615Y7697442D01*
X10207078Y7670919D01*
X10224101Y7670800D01*
X10235899Y7670800D01*
X10472710Y7694019D01*
X10700500Y7762793D01*
X10910594Y7874502D01*
X11017400Y7961611D01*
X11017400Y7278200D01*
X10924707Y7355978D01*
X10716193Y7470610D01*
X10489385Y7542558D01*
X10252922Y7569081D01*
X10235899Y7569200D01*
X10224101Y7569200D01*
X9987290Y7545981D01*
X9759500Y7477207D01*
X9549406Y7365498D01*
X9365011Y7215109D01*
X9213338Y7031768D01*
X9100165Y6822459D01*
X9029803Y6595154D01*
X9004931Y6358512D01*
X9026496Y6121545D01*
X9093678Y5893280D01*
X9203918Y5682411D01*
X9353016Y5496970D01*
X9535293Y5344022D01*
X9743807Y5229390D01*
X9970615Y5157442D01*
X10207078Y5130919D01*
X10224101Y5130800D01*
X10235899Y5130800D01*
X10472710Y5154019D01*
X10700500Y5222793D01*
X10910594Y5334502D01*
X11017400Y5421611D01*
X11017400Y4738200D01*
X10924707Y4815978D01*
X10716193Y4930610D01*
X10489385Y5002558D01*
X10252922Y5029081D01*
X10235899Y5029200D01*
X10224101Y5029200D01*
X9987290Y5005981D01*
X9759500Y4937207D01*
X9549406Y4825498D01*
X9365011Y4675109D01*
X9213338Y4491768D01*
X9100165Y4282459D01*
X9029803Y4055154D01*
X9004931Y3818512D01*
X9026496Y3581545D01*
X9093678Y3353280D01*
X9203918Y3142411D01*
X9353016Y2956970D01*
X9535293Y2804022D01*
X9743807Y2689390D01*
X9970615Y2617442D01*
X10207078Y2590919D01*
X10224101Y2590800D01*
X10235899Y2590800D01*
X10472710Y2614019D01*
X10700500Y2682793D01*
X10910594Y2794502D01*
X11017400Y2881611D01*
X11017400Y2198200D01*
X10924707Y2275978D01*
X10716193Y2390610D01*
X10489385Y2462558D01*
X10252922Y2489081D01*
X10235899Y2489200D01*
X10224101Y2489200D01*
X9987290Y2465981D01*
X9759500Y2397207D01*
X9549406Y2285498D01*
X9365011Y2135109D01*
X9213338Y1951768D01*
X9100165Y1742459D01*
X9029803Y1515154D01*
X9004931Y1278512D01*
X9026496Y1041545D01*
X9093678Y813280D01*
X9203918Y602411D01*
X9300248Y482600D01*
X5229970Y482600D01*
X5185689Y478258D01*
X5141195Y474365D01*
X5138756Y473656D01*
X5136233Y473409D01*
X5093603Y460538D01*
X5050748Y448088D01*
X5048493Y446919D01*
X5046065Y446186D01*
X5006732Y425272D01*
X4967127Y404743D01*
X4965142Y403159D01*
X4962903Y401968D01*
X4928373Y373805D01*
X4893518Y345981D01*
X4889987Y342498D01*
X4889914Y342439D01*
X4889858Y342372D01*
X4888721Y341250D01*
X3888720Y-658750D01*
X3860425Y-693197D01*
X3831770Y-727347D01*
X3830548Y-729570D01*
X3828937Y-731531D01*
X3807855Y-770848D01*
X3786395Y-809884D01*
X3785629Y-812300D01*
X3784428Y-814539D01*
X3771385Y-857202D01*
X3757916Y-899662D01*
X3757633Y-902183D01*
X3756891Y-904611D01*
X3752386Y-948966D01*
X3747417Y-993262D01*
X3747382Y-998222D01*
X3747373Y-998315D01*
X3747381Y-998401D01*
X3747370Y-1000000D01*
X3747370Y-5570130D01*
X2800100Y-6517400D01*
X-2390400Y-6517400D01*
X-2390400Y-3482600D01*
X-2007320Y-3482600D01*
X-2007320Y-3600000D01*
X-2000454Y-3669710D01*
X-1980121Y-3736740D01*
X-1947101Y-3798516D01*
X-1902663Y-3852663D01*
X-1848516Y-3897101D01*
X-1786740Y-3930121D01*
X-1719710Y-3950454D01*
X-1650000Y-3957320D01*
X-450000Y-3957320D01*
X-380290Y-3950454D01*
X-313260Y-3930121D01*
X-251484Y-3897101D01*
X-197337Y-3852663D01*
X-152899Y-3798516D01*
X-119879Y-3736740D01*
X-99546Y-3669710D01*
X-92680Y-3600000D01*
X-92680Y-2400000D01*
X92680Y-2400000D01*
X92680Y-3600000D01*
X99546Y-3669710D01*
X119879Y-3736740D01*
X152899Y-3798516D01*
X197337Y-3852663D01*
X251484Y-3897101D01*
X313260Y-3930121D01*
X380290Y-3950454D01*
X450000Y-3957320D01*
X1650000Y-3957320D01*
X1719710Y-3950454D01*
X1786740Y-3930121D01*
X1848516Y-3897101D01*
X1902663Y-3852663D01*
X1947101Y-3798516D01*
X1980121Y-3736740D01*
X2000454Y-3669710D01*
X2007320Y-3600000D01*
X2007320Y-3482600D01*
X2156567Y-3482600D01*
X2192927Y-3539019D01*
X2310575Y-3660847D01*
X2449646Y-3757503D01*
X2604842Y-3825307D01*
X2770252Y-3861675D01*
X2939575Y-3865221D01*
X3106363Y-3835812D01*
X3264262Y-3774567D01*
X3407258Y-3683819D01*
X3529904Y-3567025D01*
X3627529Y-3428632D01*
X3696415Y-3273914D01*
X3733936Y-3108762D01*
X3736637Y-2915320D01*
X3703742Y-2749184D01*
X3639203Y-2592602D01*
X3545481Y-2451538D01*
X3426143Y-2331365D01*
X3285737Y-2236659D01*
X3129609Y-2171029D01*
X2963708Y-2136975D01*
X2794351Y-2135792D01*
X2627990Y-2167527D01*
X2470961Y-2230971D01*
X2329246Y-2323707D01*
X2208243Y-2442202D01*
X2156754Y-2517400D01*
X2007320Y-2517400D01*
X2007320Y-2400000D01*
X2000454Y-2330290D01*
X1980121Y-2263260D01*
X1947101Y-2201484D01*
X1902663Y-2147337D01*
X1848516Y-2102899D01*
X1786740Y-2069879D01*
X1719710Y-2049546D01*
X1650000Y-2042680D01*
X450000Y-2042680D01*
X380290Y-2049546D01*
X313260Y-2069879D01*
X251484Y-2102899D01*
X197337Y-2147337D01*
X152899Y-2201484D01*
X119879Y-2263260D01*
X99546Y-2330290D01*
X92680Y-2400000D01*
X-92680Y-2400000D01*
X-99546Y-2330290D01*
X-119879Y-2263260D01*
X-152899Y-2201484D01*
X-197337Y-2147337D01*
X-251484Y-2102899D01*
X-313260Y-2069879D01*
X-380290Y-2049546D01*
X-450000Y-2042680D01*
X-1650000Y-2042680D01*
X-1719710Y-2049546D01*
X-1786740Y-2069879D01*
X-1848516Y-2102899D01*
X-1902663Y-2147337D01*
X-1947101Y-2201484D01*
X-1980121Y-2263260D01*
X-2000454Y-2330290D01*
X-2007320Y-2400000D01*
X-2007320Y-2517400D01*
X-2390400Y-2517400D01*
X-2390400Y517400D01*
X-2007320Y517400D01*
X-2007320Y400000D01*
X-2000454Y330290D01*
X-1980121Y263260D01*
X-1947101Y201484D01*
X-1902663Y147337D01*
X-1848516Y102899D01*
X-1786740Y69879D01*
X-1719710Y49546D01*
X-1650000Y42680D01*
X-450000Y42680D01*
X-380290Y49546D01*
X-313260Y69879D01*
X-251484Y102899D01*
X-197337Y147337D01*
X-152899Y201484D01*
X-119879Y263260D01*
X-99546Y330290D01*
X-92680Y400000D01*
X-92680Y1600000D01*
X92680Y1600000D01*
X92680Y400000D01*
X99546Y330290D01*
X119879Y263260D01*
X152899Y201484D01*
X197337Y147337D01*
X251484Y102899D01*
X313260Y69879D01*
X380290Y49546D01*
X450000Y42680D01*
X1650000Y42680D01*
X1719710Y49546D01*
X1786740Y69879D01*
X1848516Y102899D01*
X1902663Y147337D01*
X1947101Y201484D01*
X1980121Y263260D01*
X2000454Y330290D01*
X2007320Y400000D01*
X2007320Y517400D01*
X2156567Y517400D01*
X2192927Y460981D01*
X2310575Y339153D01*
X2449646Y242497D01*
X2604842Y174693D01*
X2770252Y138325D01*
X2939575Y134779D01*
X3106363Y164188D01*
X3264262Y225433D01*
X3407258Y316181D01*
X3529904Y432975D01*
X3627529Y571368D01*
X3696415Y726086D01*
X3733936Y891238D01*
X3736637Y1084680D01*
X3703742Y1250816D01*
X3639203Y1407398D01*
X3545481Y1548462D01*
X3426143Y1668635D01*
X3285737Y1763341D01*
X3129609Y1828971D01*
X2963708Y1863025D01*
X2794351Y1864208D01*
X2627990Y1832473D01*
X2470961Y1769029D01*
X2329246Y1676293D01*
X2208243Y1557798D01*
X2156754Y1482600D01*
X2007320Y1482600D01*
X2007320Y1600000D01*
X2000454Y1669710D01*
X1980121Y1736740D01*
X1947101Y1798516D01*
X1902663Y1852663D01*
X1848516Y1897101D01*
X1786740Y1930121D01*
X1719710Y1950454D01*
X1650000Y1957320D01*
X450000Y1957320D01*
X380290Y1950454D01*
X313260Y1930121D01*
X251484Y1897101D01*
X197337Y1852663D01*
X152899Y1798516D01*
X119879Y1736740D01*
X99546Y1669710D01*
X92680Y1600000D01*
X-92680Y1600000D01*
X-99546Y1669710D01*
X-119879Y1736740D01*
X-152899Y1798516D01*
X-197337Y1852663D01*
X-251484Y1897101D01*
X-313260Y1930121D01*
X-380290Y1950454D01*
X-450000Y1957320D01*
X-1650000Y1957320D01*
X-1719710Y1950454D01*
X-1786740Y1930121D01*
X-1848516Y1897101D01*
X-1902663Y1852663D01*
X-1947101Y1798516D01*
X-1980121Y1736740D01*
X-2000454Y1669710D01*
X-2007320Y1600000D01*
X-2007320Y1482600D01*
X-2390400Y1482600D01*
X-2390400Y4517400D01*
X-2007320Y4517400D01*
X-2007320Y4400000D01*
X-2000454Y4330290D01*
X-1980121Y4263260D01*
X-1947101Y4201484D01*
X-1902663Y4147337D01*
X-1848516Y4102899D01*
X-1786740Y4069879D01*
X-1719710Y4049546D01*
X-1650000Y4042680D01*
X-450000Y4042680D01*
X-380290Y4049546D01*
X-313260Y4069879D01*
X-251484Y4102899D01*
X-197337Y4147337D01*
X-152899Y4201484D01*
X-119879Y4263260D01*
X-99546Y4330290D01*
X-92680Y4400000D01*
X-92680Y5600000D01*
X92680Y5600000D01*
X92680Y4400000D01*
X99546Y4330290D01*
X119879Y4263260D01*
X152899Y4201484D01*
X197337Y4147337D01*
X251484Y4102899D01*
X313260Y4069879D01*
X380290Y4049546D01*
X450000Y4042680D01*
X1650000Y4042680D01*
X1719710Y4049546D01*
X1786740Y4069879D01*
X1848516Y4102899D01*
X1902663Y4147337D01*
X1947101Y4201484D01*
X1980121Y4263260D01*
X2000454Y4330290D01*
X2007320Y4400000D01*
X2007320Y4517400D01*
X2156567Y4517400D01*
X2192927Y4460981D01*
X2310575Y4339153D01*
X2449646Y4242497D01*
X2604842Y4174693D01*
X2770252Y4138325D01*
X2939575Y4134779D01*
X3106363Y4164188D01*
X3264262Y4225433D01*
X3407258Y4316181D01*
X3529904Y4432975D01*
X3627529Y4571368D01*
X3696415Y4726086D01*
X3733936Y4891238D01*
X3736637Y5084680D01*
X3703742Y5250816D01*
X3639203Y5407398D01*
X3545481Y5548462D01*
X3426143Y5668635D01*
X3285737Y5763341D01*
X3129609Y5828971D01*
X2963708Y5863025D01*
X2794351Y5864208D01*
X2627990Y5832473D01*
X2470961Y5769029D01*
X2329246Y5676293D01*
X2208243Y5557798D01*
X2156754Y5482600D01*
X2007320Y5482600D01*
X2007320Y5600000D01*
X2000454Y5669710D01*
X1980121Y5736740D01*
X1947101Y5798516D01*
X1902663Y5852663D01*
X1848516Y5897101D01*
X1786740Y5930121D01*
X1719710Y5950454D01*
X1650000Y5957320D01*
X450000Y5957320D01*
X380290Y5950454D01*
X313260Y5930121D01*
X251484Y5897101D01*
X197337Y5852663D01*
X152899Y5798516D01*
X119879Y5736740D01*
X99546Y5669710D01*
X92680Y5600000D01*
X-92680Y5600000D01*
X-99546Y5669710D01*
X-119879Y5736740D01*
X-152899Y5798516D01*
X-197337Y5852663D01*
X-251484Y5897101D01*
X-313260Y5930121D01*
X-380290Y5950454D01*
X-450000Y5957320D01*
X-1650000Y5957320D01*
X-1719710Y5950454D01*
X-1786740Y5930121D01*
X-1848516Y5897101D01*
X-1902663Y5852663D01*
X-1947101Y5798516D01*
X-1980121Y5736740D01*
X-2000454Y5669710D01*
X-2007320Y5600000D01*
X-2007320Y5482600D01*
X-2390400Y5482600D01*
X-2390400Y8517400D01*
X-2007320Y8517400D01*
X-2007320Y8400000D01*
X-2000454Y8330290D01*
X-1980121Y8263260D01*
X-1947101Y8201484D01*
X-1902663Y8147337D01*
X-1848516Y8102899D01*
X-1786740Y8069879D01*
X-1719710Y8049546D01*
X-1650000Y8042680D01*
X-450000Y8042680D01*
X-380290Y8049546D01*
X-313260Y8069879D01*
X-251484Y8102899D01*
X-197337Y8147337D01*
X-152899Y8201484D01*
X-119879Y8263260D01*
X-99546Y8330290D01*
X-92680Y8400000D01*
X-92680Y9600000D01*
X92680Y9600000D01*
X92680Y8400000D01*
X99546Y8330290D01*
X119879Y8263260D01*
X152899Y8201484D01*
X197337Y8147337D01*
X251484Y8102899D01*
X313260Y8069879D01*
X380290Y8049546D01*
X450000Y8042680D01*
X1650000Y8042680D01*
X1719710Y8049546D01*
X1786740Y8069879D01*
X1848516Y8102899D01*
X1902663Y8147337D01*
X1947101Y8201484D01*
X1980121Y8263260D01*
X2000454Y8330290D01*
X2007320Y8400000D01*
X2007320Y8517400D01*
X2156567Y8517400D01*
X2192927Y8460981D01*
X2310575Y8339153D01*
X2449646Y8242497D01*
X2604842Y8174693D01*
X2770252Y8138325D01*
X2939575Y8134779D01*
X3106363Y8164188D01*
X3264262Y8225433D01*
X3407258Y8316181D01*
X3529904Y8432975D01*
X3627529Y8571368D01*
X3696415Y8726086D01*
X3733936Y8891238D01*
X3736637Y9084680D01*
X3703742Y9250816D01*
X3639203Y9407398D01*
X3545481Y9548462D01*
X3426143Y9668635D01*
X3285737Y9763341D01*
X3129609Y9828971D01*
X2963708Y9863025D01*
X2794351Y9864208D01*
X2627990Y9832473D01*
X2470961Y9769029D01*
X2329246Y9676293D01*
X2208243Y9557798D01*
X2156754Y9482600D01*
X2007320Y9482600D01*
X2007320Y9600000D01*
X2000454Y9669710D01*
X1980121Y9736740D01*
X1947101Y9798516D01*
X1902663Y9852663D01*
X1848516Y9897101D01*
X1786740Y9930121D01*
X1719710Y9950454D01*
X1650000Y9957320D01*
X450000Y9957320D01*
X380290Y9950454D01*
X313260Y9930121D01*
X251484Y9897101D01*
X197337Y9852663D01*
X152899Y9798516D01*
X119879Y9736740D01*
X99546Y9669710D01*
X92680Y9600000D01*
X-92680Y9600000D01*
X-99546Y9669710D01*
X-119879Y9736740D01*
X-152899Y9798516D01*
X-197337Y9852663D01*
X-251484Y9897101D01*
X-313260Y9930121D01*
X-380290Y9950454D01*
X-450000Y9957320D01*
X-1650000Y9957320D01*
X-1719710Y9950454D01*
X-1786740Y9930121D01*
X-1848516Y9897101D01*
X-1902663Y9852663D01*
X-1947101Y9798516D01*
X-1980121Y9736740D01*
X-2000454Y9669710D01*
X-2007320Y9600000D01*
X-2007320Y9482600D01*
X-2390400Y9482600D01*
X-2390400Y12517400D01*
X-2007320Y12517400D01*
X-2007320Y12400000D01*
X-2000454Y12330290D01*
X-1980121Y12263260D01*
X-1947101Y12201484D01*
X-1902663Y12147337D01*
X-1848516Y12102899D01*
X-1786740Y12069879D01*
X-1719710Y12049546D01*
X-1650000Y12042680D01*
X-450000Y12042680D01*
X-380290Y12049546D01*
X-313260Y12069879D01*
X-251484Y12102899D01*
X-197337Y12147337D01*
X-152899Y12201484D01*
X-119879Y12263260D01*
X-99546Y12330290D01*
X-92680Y12400000D01*
X-92680Y13600000D01*
X92680Y13600000D01*
X92680Y12400000D01*
X99546Y12330290D01*
X119879Y12263260D01*
X152899Y12201484D01*
X197337Y12147337D01*
X251484Y12102899D01*
X313260Y12069879D01*
X380290Y12049546D01*
X450000Y12042680D01*
X1650000Y12042680D01*
X1719710Y12049546D01*
X1786740Y12069879D01*
X1848516Y12102899D01*
X1902663Y12147337D01*
X1947101Y12201484D01*
X1980121Y12263260D01*
X2000454Y12330290D01*
X2007320Y12400000D01*
X2007320Y12517400D01*
X2156567Y12517400D01*
X2192927Y12460981D01*
X2310575Y12339153D01*
X2449646Y12242497D01*
X2604842Y12174693D01*
X2770252Y12138325D01*
X2939575Y12134779D01*
X3106363Y12164188D01*
X3264262Y12225433D01*
X3407258Y12316181D01*
X3529904Y12432975D01*
X3627529Y12571368D01*
X3696415Y12726086D01*
X3733936Y12891238D01*
X3736637Y13084680D01*
X3703742Y13250816D01*
X3639203Y13407398D01*
X3545481Y13548462D01*
X3426143Y13668635D01*
X3285737Y13763341D01*
X3129609Y13828971D01*
X2963708Y13863025D01*
X2794351Y13864208D01*
X2627990Y13832473D01*
X2470961Y13769029D01*
X2329246Y13676293D01*
X2208243Y13557798D01*
X2156754Y13482600D01*
X2007320Y13482600D01*
X2007320Y13600000D01*
X2000454Y13669710D01*
X1980121Y13736740D01*
X1947101Y13798516D01*
X1902663Y13852663D01*
X1848516Y13897101D01*
X1786740Y13930121D01*
X1719710Y13950454D01*
X1650000Y13957320D01*
X450000Y13957320D01*
X380290Y13950454D01*
X313260Y13930121D01*
X251484Y13897101D01*
X197337Y13852663D01*
X152899Y13798516D01*
X119879Y13736740D01*
X99546Y13669710D01*
X92680Y13600000D01*
X-92680Y13600000D01*
X-99546Y13669710D01*
X-119879Y13736740D01*
X-152899Y13798516D01*
X-197337Y13852663D01*
X-251484Y13897101D01*
X-313260Y13930121D01*
X-380290Y13950454D01*
X-450000Y13957320D01*
X-1650000Y13957320D01*
X-1719710Y13950454D01*
X-1786740Y13930121D01*
X-1848516Y13897101D01*
X-1902663Y13852663D01*
X-1947101Y13798516D01*
X-1980121Y13736740D01*
X-2000454Y13669710D01*
X-2007320Y13600000D01*
X-2007320Y13482600D01*
X-2390400Y13482600D01*
X-2390400Y16517400D01*
X-2007320Y16517400D01*
X-2007320Y16400000D01*
X-2000454Y16330290D01*
X-1980121Y16263260D01*
X-1947101Y16201484D01*
X-1902663Y16147337D01*
X-1848516Y16102899D01*
X-1786740Y16069879D01*
X-1719710Y16049546D01*
X-1650000Y16042680D01*
X-450000Y16042680D01*
X-380290Y16049546D01*
X-313260Y16069879D01*
X-251484Y16102899D01*
X-197337Y16147337D01*
X-152899Y16201484D01*
X-119879Y16263260D01*
X-99546Y16330290D01*
X-92680Y16400000D01*
X-92680Y17600000D01*
X92680Y17600000D01*
X92680Y16400000D01*
X99546Y16330290D01*
X119879Y16263260D01*
X152899Y16201484D01*
X197337Y16147337D01*
X251484Y16102899D01*
X313260Y16069879D01*
X380290Y16049546D01*
X450000Y16042680D01*
X1650000Y16042680D01*
X1719710Y16049546D01*
X1786740Y16069879D01*
X1848516Y16102899D01*
X1902663Y16147337D01*
X1947101Y16201484D01*
X1980121Y16263260D01*
X2000454Y16330290D01*
X2007320Y16400000D01*
X2007320Y16517400D01*
X2156567Y16517400D01*
X2192927Y16460981D01*
X2310575Y16339153D01*
X2449646Y16242497D01*
X2604842Y16174693D01*
X2770252Y16138325D01*
X2939575Y16134779D01*
X3106363Y16164188D01*
X3264262Y16225433D01*
X3407258Y16316181D01*
X3529904Y16432975D01*
X3627529Y16571368D01*
X3696415Y16726086D01*
X3733936Y16891238D01*
X3736637Y17084680D01*
X3703742Y17250816D01*
X3639203Y17407398D01*
X3545481Y17548462D01*
X3426143Y17668635D01*
X3285737Y17763341D01*
X3129609Y17828971D01*
X2963708Y17863025D01*
X2794351Y17864208D01*
X2627990Y17832473D01*
X2470961Y17769029D01*
X2329246Y17676293D01*
X2208243Y17557798D01*
X2156754Y17482600D01*
X2007320Y17482600D01*
X2007320Y17600000D01*
X2000454Y17669710D01*
X1980121Y17736740D01*
X1947101Y17798516D01*
X1902663Y17852663D01*
X1848516Y17897101D01*
X1786740Y17930121D01*
X1719710Y17950454D01*
X1650000Y17957320D01*
X450000Y17957320D01*
X380290Y17950454D01*
X313260Y17930121D01*
X251484Y17897101D01*
X197337Y17852663D01*
X152899Y17798516D01*
X119879Y17736740D01*
X99546Y17669710D01*
X92680Y17600000D01*
X-92680Y17600000D01*
X-99546Y17669710D01*
X-119879Y17736740D01*
X-152899Y17798516D01*
X-197337Y17852663D01*
X-251484Y17897101D01*
X-313260Y17930121D01*
X-380290Y17950454D01*
X-450000Y17957320D01*
X-1650000Y17957320D01*
X-1719710Y17950454D01*
X-1786740Y17930121D01*
X-1848516Y17897101D01*
X-1902663Y17852663D01*
X-1947101Y17798516D01*
X-1980121Y17736740D01*
X-2000454Y17669710D01*
X-2007320Y17600000D01*
X-2007320Y17482600D01*
X-2390400Y17482600D01*
X-2390400Y18977386D01*
X6885264Y18977386D01*
X6915837Y18810808D01*
X6978183Y18653340D01*
X7069927Y18510981D01*
X7187575Y18389153D01*
X7267400Y18333674D01*
X7267400Y4526311D01*
X7206246Y4486293D01*
X7085243Y4367798D01*
X6989559Y4228056D01*
X6922841Y4072390D01*
X6887629Y3906730D01*
X6885264Y3737386D01*
X6915837Y3570808D01*
X6978183Y3413340D01*
X7069927Y3270981D01*
X7187575Y3149153D01*
X7326646Y3052497D01*
X7481842Y2984693D01*
X7647252Y2948325D01*
X7816575Y2944779D01*
X7983363Y2974188D01*
X8141262Y3035433D01*
X8284258Y3126181D01*
X8406904Y3242975D01*
X8504529Y3381368D01*
X8573415Y3536086D01*
X8610936Y3701238D01*
X8613637Y3894680D01*
X8580742Y4060816D01*
X8516203Y4217398D01*
X8422481Y4358462D01*
X8303143Y4478635D01*
X8232600Y4526217D01*
X8232600Y13754229D01*
X9030046Y13754229D01*
X9038813Y13710144D01*
X9112397Y13482748D01*
X9228930Y13274077D01*
X9383933Y13092150D01*
X9571450Y12943958D01*
X9784275Y12835196D01*
X10014229Y12770044D01*
X10204600Y12839963D01*
X10204600Y13944600D01*
X9099985Y13944600D01*
X9030046Y13754229D01*
X8232600Y13754229D01*
X8232600Y14185771D01*
X9030046Y14185771D01*
X9099985Y13995400D01*
X10204600Y13995400D01*
X10204600Y15100037D01*
X10014229Y15169956D01*
X9784275Y15104804D01*
X9571450Y14996042D01*
X9383933Y14847850D01*
X9228930Y14665923D01*
X9112397Y14457252D01*
X9038813Y14229856D01*
X9030046Y14185771D01*
X8232600Y14185771D01*
X8232600Y18333398D01*
X8284258Y18366181D01*
X8406904Y18482975D01*
X8504529Y18621368D01*
X8573415Y18776086D01*
X8610936Y18941238D01*
X8613637Y19134680D01*
X8580742Y19300816D01*
X8516203Y19457398D01*
X8422481Y19598462D01*
X8303143Y19718635D01*
X8162737Y19813341D01*
X8006609Y19878971D01*
X7840708Y19913025D01*
X7671351Y19914208D01*
X7504990Y19882473D01*
X7347961Y19819029D01*
X7206246Y19726293D01*
X7085243Y19607798D01*
X6989559Y19468056D01*
X6922841Y19312390D01*
X6887629Y19146730D01*
X6885264Y18977386D01*
X-2390400Y18977386D01*
X-2390400Y20517400D01*
X-2007320Y20517400D01*
X-2007320Y20400000D01*
X-2000454Y20330290D01*
X-1980121Y20263260D01*
X-1947101Y20201484D01*
X-1902663Y20147337D01*
X-1848516Y20102899D01*
X-1786740Y20069879D01*
X-1719710Y20049546D01*
X-1650000Y20042680D01*
X-450000Y20042680D01*
X-380290Y20049546D01*
X-313260Y20069879D01*
X-251484Y20102899D01*
X-197337Y20147337D01*
X-152899Y20201484D01*
X-119879Y20263260D01*
X-99546Y20330290D01*
X-92680Y20400000D01*
X-92680Y21600000D01*
X92680Y21600000D01*
X92680Y20400000D01*
X99546Y20330290D01*
X119879Y20263260D01*
X152899Y20201484D01*
X197337Y20147337D01*
X251484Y20102899D01*
X313260Y20069879D01*
X380290Y20049546D01*
X450000Y20042680D01*
X1650000Y20042680D01*
X1719710Y20049546D01*
X1786740Y20069879D01*
X1848516Y20102899D01*
X1902663Y20147337D01*
X1947101Y20201484D01*
X1980121Y20263260D01*
X2000454Y20330290D01*
X2007320Y20400000D01*
X2007320Y20517400D01*
X2156567Y20517400D01*
X2192927Y20460981D01*
X2310575Y20339153D01*
X2449646Y20242497D01*
X2604842Y20174693D01*
X2770252Y20138325D01*
X2939575Y20134779D01*
X3106363Y20164188D01*
X3264262Y20225433D01*
X3407258Y20316181D01*
X3529904Y20432975D01*
X3627529Y20571368D01*
X3696415Y20726086D01*
X3733936Y20891238D01*
X3736637Y21084680D01*
X3703742Y21250816D01*
X3639203Y21407398D01*
X3545481Y21548462D01*
X3426143Y21668635D01*
X3285737Y21763341D01*
X3129609Y21828971D01*
X2963708Y21863025D01*
X2794351Y21864208D01*
X2627990Y21832473D01*
X2470961Y21769029D01*
X2329246Y21676293D01*
X2208243Y21557798D01*
X2156754Y21482600D01*
X2007320Y21482600D01*
X2007320Y21600000D01*
X2000454Y21669710D01*
X1980121Y21736740D01*
X1947101Y21798516D01*
X1902663Y21852663D01*
X1848516Y21897101D01*
X1786740Y21930121D01*
X1719710Y21950454D01*
X1650000Y21957320D01*
X450000Y21957320D01*
X380290Y21950454D01*
X313260Y21930121D01*
X251484Y21897101D01*
X197337Y21852663D01*
X152899Y21798516D01*
X119879Y21736740D01*
X99546Y21669710D01*
X92680Y21600000D01*
X-92680Y21600000D01*
X-99546Y21669710D01*
X-119879Y21736740D01*
X-152899Y21798516D01*
X-197337Y21852663D01*
X-251484Y21897101D01*
X-313260Y21930121D01*
X-380290Y21950454D01*
X-450000Y21957320D01*
X-1650000Y21957320D01*
X-1719710Y21950454D01*
X-1786740Y21930121D01*
X-1848516Y21897101D01*
X-1902663Y21852663D01*
X-1947101Y21798516D01*
X-1980121Y21736740D01*
X-2000454Y21669710D01*
X-2007320Y21600000D01*
X-2007320Y21482600D01*
X-2390400Y21482600D01*
X-2390400Y24517400D01*
X-2007320Y24517400D01*
X-2007320Y24400000D01*
X-2000454Y24330290D01*
X-1980121Y24263260D01*
X-1947101Y24201484D01*
X-1902663Y24147337D01*
X-1848516Y24102899D01*
X-1786740Y24069879D01*
X-1719710Y24049546D01*
X-1650000Y24042680D01*
X-450000Y24042680D01*
X-380290Y24049546D01*
X-313260Y24069879D01*
X-251484Y24102899D01*
X-197337Y24147337D01*
X-152899Y24201484D01*
X-119879Y24263260D01*
X-99546Y24330290D01*
X-92680Y24400000D01*
X-92680Y25600000D01*
X92680Y25600000D01*
X92680Y24400000D01*
X99546Y24330290D01*
X119879Y24263260D01*
X152899Y24201484D01*
X197337Y24147337D01*
X251484Y24102899D01*
X313260Y24069879D01*
X380290Y24049546D01*
X450000Y24042680D01*
X1650000Y24042680D01*
X1719710Y24049546D01*
X1786740Y24069879D01*
X1848516Y24102899D01*
X1902663Y24147337D01*
X1947101Y24201484D01*
X1980121Y24263260D01*
X2000454Y24330290D01*
X2007320Y24400000D01*
X2007320Y24517400D01*
X2156567Y24517400D01*
X2192927Y24460981D01*
X2310575Y24339153D01*
X2449646Y24242497D01*
X2604842Y24174693D01*
X2770252Y24138325D01*
X2939575Y24134779D01*
X3106363Y24164188D01*
X3264262Y24225433D01*
X3407258Y24316181D01*
X3529904Y24432975D01*
X3627529Y24571368D01*
X3696415Y24726086D01*
X3733936Y24891238D01*
X3736637Y25084680D01*
X3703742Y25250816D01*
X3639203Y25407398D01*
X3545481Y25548462D01*
X3426143Y25668635D01*
X3285737Y25763341D01*
X3129609Y25828971D01*
X2963708Y25863025D01*
X2794351Y25864208D01*
X2627990Y25832473D01*
X2470961Y25769029D01*
X2329246Y25676293D01*
X2208243Y25557798D01*
X2156754Y25482600D01*
X2007320Y25482600D01*
X2007320Y25600000D01*
X2000454Y25669710D01*
X1980121Y25736740D01*
X1947101Y25798516D01*
X1902663Y25852663D01*
X1848516Y25897101D01*
X1786740Y25930121D01*
X1719710Y25950454D01*
X1650000Y25957320D01*
X450000Y25957320D01*
X380290Y25950454D01*
X313260Y25930121D01*
X251484Y25897101D01*
X197337Y25852663D01*
X152899Y25798516D01*
X119879Y25736740D01*
X99546Y25669710D01*
X92680Y25600000D01*
X-92680Y25600000D01*
X-99546Y25669710D01*
X-119879Y25736740D01*
X-152899Y25798516D01*
X-197337Y25852663D01*
X-251484Y25897101D01*
X-313260Y25930121D01*
X-380290Y25950454D01*
X-450000Y25957320D01*
X-1650000Y25957320D01*
X-1719710Y25950454D01*
X-1786740Y25930121D01*
X-1848516Y25897101D01*
X-1902663Y25852663D01*
X-1947101Y25798516D01*
X-1980121Y25736740D01*
X-2000454Y25669710D01*
X-2007320Y25600000D01*
X-2007320Y25482600D01*
X-2390400Y25482600D01*
X-2390400Y28517400D01*
X2800100Y28517400D01*
X3747370Y27570130D01*
X3747370Y27570130D01*
G37*
X3747370Y27570130D02*
X3747370Y23860000D01*
X3751716Y23815674D01*
X3755605Y23771225D01*
X3756314Y23768786D01*
X3756561Y23766263D01*
X3769442Y23723600D01*
X3781883Y23680777D01*
X3783050Y23678525D01*
X3783784Y23676095D01*
X3804728Y23636705D01*
X3825228Y23597157D01*
X3826809Y23595176D01*
X3828002Y23592933D01*
X3856187Y23558375D01*
X3883989Y23523548D01*
X3887475Y23520012D01*
X3887531Y23519944D01*
X3887594Y23519892D01*
X3888720Y23518750D01*
X4888721Y22518750D01*
X4923121Y22490494D01*
X4957317Y22461800D01*
X4959543Y22460576D01*
X4961502Y22458967D01*
X5000779Y22437907D01*
X5039854Y22416425D01*
X5042272Y22415658D01*
X5044510Y22414458D01*
X5087158Y22401419D01*
X5129632Y22387946D01*
X5132153Y22387663D01*
X5134581Y22386921D01*
X5178936Y22382416D01*
X5223232Y22377447D01*
X5228192Y22377412D01*
X5228285Y22377403D01*
X5228371Y22377411D01*
X5229970Y22377400D01*
X9300724Y22377400D01*
X9213338Y22271768D01*
X9100165Y22062459D01*
X9029803Y21835154D01*
X9004931Y21598512D01*
X9026496Y21361545D01*
X9093678Y21133280D01*
X9203918Y20922411D01*
X9353016Y20736970D01*
X9535293Y20584022D01*
X9743807Y20469390D01*
X9970615Y20397442D01*
X10207078Y20370919D01*
X10224101Y20370800D01*
X10235899Y20370800D01*
X10472710Y20394019D01*
X10700500Y20462793D01*
X10910594Y20574502D01*
X11017400Y20661611D01*
X11017400Y19978200D01*
X10924707Y20055978D01*
X10716193Y20170610D01*
X10489385Y20242558D01*
X10252922Y20269081D01*
X10235899Y20269200D01*
X10224101Y20269200D01*
X9987290Y20245981D01*
X9759500Y20177207D01*
X9549406Y20065498D01*
X9365011Y19915109D01*
X9213338Y19731768D01*
X9100165Y19522459D01*
X9029803Y19295154D01*
X9004931Y19058512D01*
X9026496Y18821545D01*
X9093678Y18593280D01*
X9203918Y18382411D01*
X9353016Y18196970D01*
X9535293Y18044022D01*
X9743807Y17929390D01*
X9970615Y17857442D01*
X10207078Y17830919D01*
X10224101Y17830800D01*
X10235899Y17830800D01*
X10472710Y17854019D01*
X10700500Y17922793D01*
X10910594Y18034502D01*
X11017400Y18121611D01*
X11017400Y17438200D01*
X10924707Y17515978D01*
X10716193Y17630610D01*
X10489385Y17702558D01*
X10252922Y17729081D01*
X10235899Y17729200D01*
X10224101Y17729200D01*
X9987290Y17705981D01*
X9759500Y17637207D01*
X9549406Y17525498D01*
X9365011Y17375109D01*
X9213338Y17191768D01*
X9100165Y16982459D01*
X9029803Y16755154D01*
X9004931Y16518512D01*
X9026496Y16281545D01*
X9093678Y16053280D01*
X9203918Y15842411D01*
X9353016Y15656970D01*
X9535293Y15504022D01*
X9743807Y15389390D01*
X9970615Y15317442D01*
X10207078Y15290919D01*
X10224101Y15290800D01*
X10235899Y15290800D01*
X10472710Y15314019D01*
X10700500Y15382793D01*
X10910594Y15494502D01*
X11017400Y15581611D01*
X11017400Y14894214D01*
X10888550Y14996042D01*
X10675725Y15104804D01*
X10445771Y15169956D01*
X10255400Y15100037D01*
X10255400Y13995400D01*
X10275400Y13995400D01*
X10275400Y13944600D01*
X10255400Y13944600D01*
X10255400Y12839963D01*
X10445771Y12770044D01*
X10675725Y12835196D01*
X10888550Y12943958D01*
X11017400Y13045786D01*
X11017400Y12358200D01*
X10924707Y12435978D01*
X10716193Y12550610D01*
X10489385Y12622558D01*
X10252922Y12649081D01*
X10235899Y12649200D01*
X10224101Y12649200D01*
X9987290Y12625981D01*
X9759500Y12557207D01*
X9549406Y12445498D01*
X9365011Y12295109D01*
X9213338Y12111768D01*
X9100165Y11902459D01*
X9029803Y11675154D01*
X9004931Y11438512D01*
X9026496Y11201545D01*
X9093678Y10973280D01*
X9203918Y10762411D01*
X9353016Y10576970D01*
X9535293Y10424022D01*
X9743807Y10309390D01*
X9970615Y10237442D01*
X10207078Y10210919D01*
X10224101Y10210800D01*
X10235899Y10210800D01*
X10472710Y10234019D01*
X10700500Y10302793D01*
X10910594Y10414502D01*
X11017400Y10501611D01*
X11017400Y9818200D01*
X10924707Y9895978D01*
X10716193Y10010610D01*
X10489385Y10082558D01*
X10252922Y10109081D01*
X10235899Y10109200D01*
X10224101Y10109200D01*
X9987290Y10085981D01*
X9759500Y10017207D01*
X9549406Y9905498D01*
X9365011Y9755109D01*
X9213338Y9571768D01*
X9100165Y9362459D01*
X9029803Y9135154D01*
X9004931Y8898512D01*
X9026496Y8661545D01*
X9093678Y8433280D01*
X9203918Y8222411D01*
X9353016Y8036970D01*
X9535293Y7884022D01*
X9743807Y7769390D01*
X9970615Y7697442D01*
X10207078Y7670919D01*
X10224101Y7670800D01*
X10235899Y7670800D01*
X10472710Y7694019D01*
X10700500Y7762793D01*
X10910594Y7874502D01*
X11017400Y7961611D01*
X11017400Y7278200D01*
X10924707Y7355978D01*
X10716193Y7470610D01*
X10489385Y7542558D01*
X10252922Y7569081D01*
X10235899Y7569200D01*
X10224101Y7569200D01*
X9987290Y7545981D01*
X9759500Y7477207D01*
X9549406Y7365498D01*
X9365011Y7215109D01*
X9213338Y7031768D01*
X9100165Y6822459D01*
X9029803Y6595154D01*
X9004931Y6358512D01*
X9026496Y6121545D01*
X9093678Y5893280D01*
X9203918Y5682411D01*
X9353016Y5496970D01*
X9535293Y5344022D01*
X9743807Y5229390D01*
X9970615Y5157442D01*
X10207078Y5130919D01*
X10224101Y5130800D01*
X10235899Y5130800D01*
X10472710Y5154019D01*
X10700500Y5222793D01*
X10910594Y5334502D01*
X11017400Y5421611D01*
X11017400Y4738200D01*
X10924707Y4815978D01*
X10716193Y4930610D01*
X10489385Y5002558D01*
X10252922Y5029081D01*
X10235899Y5029200D01*
X10224101Y5029200D01*
X9987290Y5005981D01*
X9759500Y4937207D01*
X9549406Y4825498D01*
X9365011Y4675109D01*
X9213338Y4491768D01*
X9100165Y4282459D01*
X9029803Y4055154D01*
X9004931Y3818512D01*
X9026496Y3581545D01*
X9093678Y3353280D01*
X9203918Y3142411D01*
X9353016Y2956970D01*
X9535293Y2804022D01*
X9743807Y2689390D01*
X9970615Y2617442D01*
X10207078Y2590919D01*
X10224101Y2590800D01*
X10235899Y2590800D01*
X10472710Y2614019D01*
X10700500Y2682793D01*
X10910594Y2794502D01*
X11017400Y2881611D01*
X11017400Y2198200D01*
X10924707Y2275978D01*
X10716193Y2390610D01*
X10489385Y2462558D01*
X10252922Y2489081D01*
X10235899Y2489200D01*
X10224101Y2489200D01*
X9987290Y2465981D01*
X9759500Y2397207D01*
X9549406Y2285498D01*
X9365011Y2135109D01*
X9213338Y1951768D01*
X9100165Y1742459D01*
X9029803Y1515154D01*
X9004931Y1278512D01*
X9026496Y1041545D01*
X9093678Y813280D01*
X9203918Y602411D01*
X9300248Y482600D01*
X5229970Y482600D01*
X5185689Y478258D01*
X5141195Y474365D01*
X5138756Y473656D01*
X5136233Y473409D01*
X5093603Y460538D01*
X5050748Y448088D01*
X5048493Y446919D01*
X5046065Y446186D01*
X5006732Y425272D01*
X4967127Y404743D01*
X4965142Y403159D01*
X4962903Y401968D01*
X4928373Y373805D01*
X4893518Y345981D01*
X4889987Y342498D01*
X4889914Y342439D01*
X4889858Y342372D01*
X4888721Y341250D01*
X3888720Y-658750D01*
X3860425Y-693197D01*
X3831770Y-727347D01*
X3830548Y-729570D01*
X3828937Y-731531D01*
X3807855Y-770848D01*
X3786395Y-809884D01*
X3785629Y-812300D01*
X3784428Y-814539D01*
X3771385Y-857202D01*
X3757916Y-899662D01*
X3757633Y-902183D01*
X3756891Y-904611D01*
X3752386Y-948966D01*
X3747417Y-993262D01*
X3747382Y-998222D01*
X3747373Y-998315D01*
X3747381Y-998401D01*
X3747370Y-1000000D01*
X3747370Y-5570130D01*
X2800100Y-6517400D01*
X-2390400Y-6517400D01*
X-2390400Y-3482600D01*
X-2007320Y-3482600D01*
X-2007320Y-3600000D01*
X-2000454Y-3669710D01*
X-1980121Y-3736740D01*
X-1947101Y-3798516D01*
X-1902663Y-3852663D01*
X-1848516Y-3897101D01*
X-1786740Y-3930121D01*
X-1719710Y-3950454D01*
X-1650000Y-3957320D01*
X-450000Y-3957320D01*
X-380290Y-3950454D01*
X-313260Y-3930121D01*
X-251484Y-3897101D01*
X-197337Y-3852663D01*
X-152899Y-3798516D01*
X-119879Y-3736740D01*
X-99546Y-3669710D01*
X-92680Y-3600000D01*
X-92680Y-2400000D01*
X92680Y-2400000D01*
X92680Y-3600000D01*
X99546Y-3669710D01*
X119879Y-3736740D01*
X152899Y-3798516D01*
X197337Y-3852663D01*
X251484Y-3897101D01*
X313260Y-3930121D01*
X380290Y-3950454D01*
X450000Y-3957320D01*
X1650000Y-3957320D01*
X1719710Y-3950454D01*
X1786740Y-3930121D01*
X1848516Y-3897101D01*
X1902663Y-3852663D01*
X1947101Y-3798516D01*
X1980121Y-3736740D01*
X2000454Y-3669710D01*
X2007320Y-3600000D01*
X2007320Y-3482600D01*
X2156567Y-3482600D01*
X2192927Y-3539019D01*
X2310575Y-3660847D01*
X2449646Y-3757503D01*
X2604842Y-3825307D01*
X2770252Y-3861675D01*
X2939575Y-3865221D01*
X3106363Y-3835812D01*
X3264262Y-3774567D01*
X3407258Y-3683819D01*
X3529904Y-3567025D01*
X3627529Y-3428632D01*
X3696415Y-3273914D01*
X3733936Y-3108762D01*
X3736637Y-2915320D01*
X3703742Y-2749184D01*
X3639203Y-2592602D01*
X3545481Y-2451538D01*
X3426143Y-2331365D01*
X3285737Y-2236659D01*
X3129609Y-2171029D01*
X2963708Y-2136975D01*
X2794351Y-2135792D01*
X2627990Y-2167527D01*
X2470961Y-2230971D01*
X2329246Y-2323707D01*
X2208243Y-2442202D01*
X2156754Y-2517400D01*
X2007320Y-2517400D01*
X2007320Y-2400000D01*
X2000454Y-2330290D01*
X1980121Y-2263260D01*
X1947101Y-2201484D01*
X1902663Y-2147337D01*
X1848516Y-2102899D01*
X1786740Y-2069879D01*
X1719710Y-2049546D01*
X1650000Y-2042680D01*
X450000Y-2042680D01*
X380290Y-2049546D01*
X313260Y-2069879D01*
X251484Y-2102899D01*
X197337Y-2147337D01*
X152899Y-2201484D01*
X119879Y-2263260D01*
X99546Y-2330290D01*
X92680Y-2400000D01*
X-92680Y-2400000D01*
X-99546Y-2330290D01*
X-119879Y-2263260D01*
X-152899Y-2201484D01*
X-197337Y-2147337D01*
X-251484Y-2102899D01*
X-313260Y-2069879D01*
X-380290Y-2049546D01*
X-450000Y-2042680D01*
X-1650000Y-2042680D01*
X-1719710Y-2049546D01*
X-1786740Y-2069879D01*
X-1848516Y-2102899D01*
X-1902663Y-2147337D01*
X-1947101Y-2201484D01*
X-1980121Y-2263260D01*
X-2000454Y-2330290D01*
X-2007320Y-2400000D01*
X-2007320Y-2517400D01*
X-2390400Y-2517400D01*
X-2390400Y517400D01*
X-2007320Y517400D01*
X-2007320Y400000D01*
X-2000454Y330290D01*
X-1980121Y263260D01*
X-1947101Y201484D01*
X-1902663Y147337D01*
X-1848516Y102899D01*
X-1786740Y69879D01*
X-1719710Y49546D01*
X-1650000Y42680D01*
X-450000Y42680D01*
X-380290Y49546D01*
X-313260Y69879D01*
X-251484Y102899D01*
X-197337Y147337D01*
X-152899Y201484D01*
X-119879Y263260D01*
X-99546Y330290D01*
X-92680Y400000D01*
X-92680Y1600000D01*
X92680Y1600000D01*
X92680Y400000D01*
X99546Y330290D01*
X119879Y263260D01*
X152899Y201484D01*
X197337Y147337D01*
X251484Y102899D01*
X313260Y69879D01*
X380290Y49546D01*
X450000Y42680D01*
X1650000Y42680D01*
X1719710Y49546D01*
X1786740Y69879D01*
X1848516Y102899D01*
X1902663Y147337D01*
X1947101Y201484D01*
X1980121Y263260D01*
X2000454Y330290D01*
X2007320Y400000D01*
X2007320Y517400D01*
X2156567Y517400D01*
X2192927Y460981D01*
X2310575Y339153D01*
X2449646Y242497D01*
X2604842Y174693D01*
X2770252Y138325D01*
X2939575Y134779D01*
X3106363Y164188D01*
X3264262Y225433D01*
X3407258Y316181D01*
X3529904Y432975D01*
X3627529Y571368D01*
X3696415Y726086D01*
X3733936Y891238D01*
X3736637Y1084680D01*
X3703742Y1250816D01*
X3639203Y1407398D01*
X3545481Y1548462D01*
X3426143Y1668635D01*
X3285737Y1763341D01*
X3129609Y1828971D01*
X2963708Y1863025D01*
X2794351Y1864208D01*
X2627990Y1832473D01*
X2470961Y1769029D01*
X2329246Y1676293D01*
X2208243Y1557798D01*
X2156754Y1482600D01*
X2007320Y1482600D01*
X2007320Y1600000D01*
X2000454Y1669710D01*
X1980121Y1736740D01*
X1947101Y1798516D01*
X1902663Y1852663D01*
X1848516Y1897101D01*
X1786740Y1930121D01*
X1719710Y1950454D01*
X1650000Y1957320D01*
X450000Y1957320D01*
X380290Y1950454D01*
X313260Y1930121D01*
X251484Y1897101D01*
X197337Y1852663D01*
X152899Y1798516D01*
X119879Y1736740D01*
X99546Y1669710D01*
X92680Y1600000D01*
X-92680Y1600000D01*
X-99546Y1669710D01*
X-119879Y1736740D01*
X-152899Y1798516D01*
X-197337Y1852663D01*
X-251484Y1897101D01*
X-313260Y1930121D01*
X-380290Y1950454D01*
X-450000Y1957320D01*
X-1650000Y1957320D01*
X-1719710Y1950454D01*
X-1786740Y1930121D01*
X-1848516Y1897101D01*
X-1902663Y1852663D01*
X-1947101Y1798516D01*
X-1980121Y1736740D01*
X-2000454Y1669710D01*
X-2007320Y1600000D01*
X-2007320Y1482600D01*
X-2390400Y1482600D01*
X-2390400Y4517400D01*
X-2007320Y4517400D01*
X-2007320Y4400000D01*
X-2000454Y4330290D01*
X-1980121Y4263260D01*
X-1947101Y4201484D01*
X-1902663Y4147337D01*
X-1848516Y4102899D01*
X-1786740Y4069879D01*
X-1719710Y4049546D01*
X-1650000Y4042680D01*
X-450000Y4042680D01*
X-380290Y4049546D01*
X-313260Y4069879D01*
X-251484Y4102899D01*
X-197337Y4147337D01*
X-152899Y4201484D01*
X-119879Y4263260D01*
X-99546Y4330290D01*
X-92680Y4400000D01*
X-92680Y5600000D01*
X92680Y5600000D01*
X92680Y4400000D01*
X99546Y4330290D01*
X119879Y4263260D01*
X152899Y4201484D01*
X197337Y4147337D01*
X251484Y4102899D01*
X313260Y4069879D01*
X380290Y4049546D01*
X450000Y4042680D01*
X1650000Y4042680D01*
X1719710Y4049546D01*
X1786740Y4069879D01*
X1848516Y4102899D01*
X1902663Y4147337D01*
X1947101Y4201484D01*
X1980121Y4263260D01*
X2000454Y4330290D01*
X2007320Y4400000D01*
X2007320Y4517400D01*
X2156567Y4517400D01*
X2192927Y4460981D01*
X2310575Y4339153D01*
X2449646Y4242497D01*
X2604842Y4174693D01*
X2770252Y4138325D01*
X2939575Y4134779D01*
X3106363Y4164188D01*
X3264262Y4225433D01*
X3407258Y4316181D01*
X3529904Y4432975D01*
X3627529Y4571368D01*
X3696415Y4726086D01*
X3733936Y4891238D01*
X3736637Y5084680D01*
X3703742Y5250816D01*
X3639203Y5407398D01*
X3545481Y5548462D01*
X3426143Y5668635D01*
X3285737Y5763341D01*
X3129609Y5828971D01*
X2963708Y5863025D01*
X2794351Y5864208D01*
X2627990Y5832473D01*
X2470961Y5769029D01*
X2329246Y5676293D01*
X2208243Y5557798D01*
X2156754Y5482600D01*
X2007320Y5482600D01*
X2007320Y5600000D01*
X2000454Y5669710D01*
X1980121Y5736740D01*
X1947101Y5798516D01*
X1902663Y5852663D01*
X1848516Y5897101D01*
X1786740Y5930121D01*
X1719710Y5950454D01*
X1650000Y5957320D01*
X450000Y5957320D01*
X380290Y5950454D01*
X313260Y5930121D01*
X251484Y5897101D01*
X197337Y5852663D01*
X152899Y5798516D01*
X119879Y5736740D01*
X99546Y5669710D01*
X92680Y5600000D01*
X-92680Y5600000D01*
X-99546Y5669710D01*
X-119879Y5736740D01*
X-152899Y5798516D01*
X-197337Y5852663D01*
X-251484Y5897101D01*
X-313260Y5930121D01*
X-380290Y5950454D01*
X-450000Y5957320D01*
X-1650000Y5957320D01*
X-1719710Y5950454D01*
X-1786740Y5930121D01*
X-1848516Y5897101D01*
X-1902663Y5852663D01*
X-1947101Y5798516D01*
X-1980121Y5736740D01*
X-2000454Y5669710D01*
X-2007320Y5600000D01*
X-2007320Y5482600D01*
X-2390400Y5482600D01*
X-2390400Y8517400D01*
X-2007320Y8517400D01*
X-2007320Y8400000D01*
X-2000454Y8330290D01*
X-1980121Y8263260D01*
X-1947101Y8201484D01*
X-1902663Y8147337D01*
X-1848516Y8102899D01*
X-1786740Y8069879D01*
X-1719710Y8049546D01*
X-1650000Y8042680D01*
X-450000Y8042680D01*
X-380290Y8049546D01*
X-313260Y8069879D01*
X-251484Y8102899D01*
X-197337Y8147337D01*
X-152899Y8201484D01*
X-119879Y8263260D01*
X-99546Y8330290D01*
X-92680Y8400000D01*
X-92680Y9600000D01*
X92680Y9600000D01*
X92680Y8400000D01*
X99546Y8330290D01*
X119879Y8263260D01*
X152899Y8201484D01*
X197337Y8147337D01*
X251484Y8102899D01*
X313260Y8069879D01*
X380290Y8049546D01*
X450000Y8042680D01*
X1650000Y8042680D01*
X1719710Y8049546D01*
X1786740Y8069879D01*
X1848516Y8102899D01*
X1902663Y8147337D01*
X1947101Y8201484D01*
X1980121Y8263260D01*
X2000454Y8330290D01*
X2007320Y8400000D01*
X2007320Y8517400D01*
X2156567Y8517400D01*
X2192927Y8460981D01*
X2310575Y8339153D01*
X2449646Y8242497D01*
X2604842Y8174693D01*
X2770252Y8138325D01*
X2939575Y8134779D01*
X3106363Y8164188D01*
X3264262Y8225433D01*
X3407258Y8316181D01*
X3529904Y8432975D01*
X3627529Y8571368D01*
X3696415Y8726086D01*
X3733936Y8891238D01*
X3736637Y9084680D01*
X3703742Y9250816D01*
X3639203Y9407398D01*
X3545481Y9548462D01*
X3426143Y9668635D01*
X3285737Y9763341D01*
X3129609Y9828971D01*
X2963708Y9863025D01*
X2794351Y9864208D01*
X2627990Y9832473D01*
X2470961Y9769029D01*
X2329246Y9676293D01*
X2208243Y9557798D01*
X2156754Y9482600D01*
X2007320Y9482600D01*
X2007320Y9600000D01*
X2000454Y9669710D01*
X1980121Y9736740D01*
X1947101Y9798516D01*
X1902663Y9852663D01*
X1848516Y9897101D01*
X1786740Y9930121D01*
X1719710Y9950454D01*
X1650000Y9957320D01*
X450000Y9957320D01*
X380290Y9950454D01*
X313260Y9930121D01*
X251484Y9897101D01*
X197337Y9852663D01*
X152899Y9798516D01*
X119879Y9736740D01*
X99546Y9669710D01*
X92680Y9600000D01*
X-92680Y9600000D01*
X-99546Y9669710D01*
X-119879Y9736740D01*
X-152899Y9798516D01*
X-197337Y9852663D01*
X-251484Y9897101D01*
X-313260Y9930121D01*
X-380290Y9950454D01*
X-450000Y9957320D01*
X-1650000Y9957320D01*
X-1719710Y9950454D01*
X-1786740Y9930121D01*
X-1848516Y9897101D01*
X-1902663Y9852663D01*
X-1947101Y9798516D01*
X-1980121Y9736740D01*
X-2000454Y9669710D01*
X-2007320Y9600000D01*
X-2007320Y9482600D01*
X-2390400Y9482600D01*
X-2390400Y12517400D01*
X-2007320Y12517400D01*
X-2007320Y12400000D01*
X-2000454Y12330290D01*
X-1980121Y12263260D01*
X-1947101Y12201484D01*
X-1902663Y12147337D01*
X-1848516Y12102899D01*
X-1786740Y12069879D01*
X-1719710Y12049546D01*
X-1650000Y12042680D01*
X-450000Y12042680D01*
X-380290Y12049546D01*
X-313260Y12069879D01*
X-251484Y12102899D01*
X-197337Y12147337D01*
X-152899Y12201484D01*
X-119879Y12263260D01*
X-99546Y12330290D01*
X-92680Y12400000D01*
X-92680Y13600000D01*
X92680Y13600000D01*
X92680Y12400000D01*
X99546Y12330290D01*
X119879Y12263260D01*
X152899Y12201484D01*
X197337Y12147337D01*
X251484Y12102899D01*
X313260Y12069879D01*
X380290Y12049546D01*
X450000Y12042680D01*
X1650000Y12042680D01*
X1719710Y12049546D01*
X1786740Y12069879D01*
X1848516Y12102899D01*
X1902663Y12147337D01*
X1947101Y12201484D01*
X1980121Y12263260D01*
X2000454Y12330290D01*
X2007320Y12400000D01*
X2007320Y12517400D01*
X2156567Y12517400D01*
X2192927Y12460981D01*
X2310575Y12339153D01*
X2449646Y12242497D01*
X2604842Y12174693D01*
X2770252Y12138325D01*
X2939575Y12134779D01*
X3106363Y12164188D01*
X3264262Y12225433D01*
X3407258Y12316181D01*
X3529904Y12432975D01*
X3627529Y12571368D01*
X3696415Y12726086D01*
X3733936Y12891238D01*
X3736637Y13084680D01*
X3703742Y13250816D01*
X3639203Y13407398D01*
X3545481Y13548462D01*
X3426143Y13668635D01*
X3285737Y13763341D01*
X3129609Y13828971D01*
X2963708Y13863025D01*
X2794351Y13864208D01*
X2627990Y13832473D01*
X2470961Y13769029D01*
X2329246Y13676293D01*
X2208243Y13557798D01*
X2156754Y13482600D01*
X2007320Y13482600D01*
X2007320Y13600000D01*
X2000454Y13669710D01*
X1980121Y13736740D01*
X1947101Y13798516D01*
X1902663Y13852663D01*
X1848516Y13897101D01*
X1786740Y13930121D01*
X1719710Y13950454D01*
X1650000Y13957320D01*
X450000Y13957320D01*
X380290Y13950454D01*
X313260Y13930121D01*
X251484Y13897101D01*
X197337Y13852663D01*
X152899Y13798516D01*
X119879Y13736740D01*
X99546Y13669710D01*
X92680Y13600000D01*
X-92680Y13600000D01*
X-99546Y13669710D01*
X-119879Y13736740D01*
X-152899Y13798516D01*
X-197337Y13852663D01*
X-251484Y13897101D01*
X-313260Y13930121D01*
X-380290Y13950454D01*
X-450000Y13957320D01*
X-1650000Y13957320D01*
X-1719710Y13950454D01*
X-1786740Y13930121D01*
X-1848516Y13897101D01*
X-1902663Y13852663D01*
X-1947101Y13798516D01*
X-1980121Y13736740D01*
X-2000454Y13669710D01*
X-2007320Y13600000D01*
X-2007320Y13482600D01*
X-2390400Y13482600D01*
X-2390400Y16517400D01*
X-2007320Y16517400D01*
X-2007320Y16400000D01*
X-2000454Y16330290D01*
X-1980121Y16263260D01*
X-1947101Y16201484D01*
X-1902663Y16147337D01*
X-1848516Y16102899D01*
X-1786740Y16069879D01*
X-1719710Y16049546D01*
X-1650000Y16042680D01*
X-450000Y16042680D01*
X-380290Y16049546D01*
X-313260Y16069879D01*
X-251484Y16102899D01*
X-197337Y16147337D01*
X-152899Y16201484D01*
X-119879Y16263260D01*
X-99546Y16330290D01*
X-92680Y16400000D01*
X-92680Y17600000D01*
X92680Y17600000D01*
X92680Y16400000D01*
X99546Y16330290D01*
X119879Y16263260D01*
X152899Y16201484D01*
X197337Y16147337D01*
X251484Y16102899D01*
X313260Y16069879D01*
X380290Y16049546D01*
X450000Y16042680D01*
X1650000Y16042680D01*
X1719710Y16049546D01*
X1786740Y16069879D01*
X1848516Y16102899D01*
X1902663Y16147337D01*
X1947101Y16201484D01*
X1980121Y16263260D01*
X2000454Y16330290D01*
X2007320Y16400000D01*
X2007320Y16517400D01*
X2156567Y16517400D01*
X2192927Y16460981D01*
X2310575Y16339153D01*
X2449646Y16242497D01*
X2604842Y16174693D01*
X2770252Y16138325D01*
X2939575Y16134779D01*
X3106363Y16164188D01*
X3264262Y16225433D01*
X3407258Y16316181D01*
X3529904Y16432975D01*
X3627529Y16571368D01*
X3696415Y16726086D01*
X3733936Y16891238D01*
X3736637Y17084680D01*
X3703742Y17250816D01*
X3639203Y17407398D01*
X3545481Y17548462D01*
X3426143Y17668635D01*
X3285737Y17763341D01*
X3129609Y17828971D01*
X2963708Y17863025D01*
X2794351Y17864208D01*
X2627990Y17832473D01*
X2470961Y17769029D01*
X2329246Y17676293D01*
X2208243Y17557798D01*
X2156754Y17482600D01*
X2007320Y17482600D01*
X2007320Y17600000D01*
X2000454Y17669710D01*
X1980121Y17736740D01*
X1947101Y17798516D01*
X1902663Y17852663D01*
X1848516Y17897101D01*
X1786740Y17930121D01*
X1719710Y17950454D01*
X1650000Y17957320D01*
X450000Y17957320D01*
X380290Y17950454D01*
X313260Y17930121D01*
X251484Y17897101D01*
X197337Y17852663D01*
X152899Y17798516D01*
X119879Y17736740D01*
X99546Y17669710D01*
X92680Y17600000D01*
X-92680Y17600000D01*
X-99546Y17669710D01*
X-119879Y17736740D01*
X-152899Y17798516D01*
X-197337Y17852663D01*
X-251484Y17897101D01*
X-313260Y17930121D01*
X-380290Y17950454D01*
X-450000Y17957320D01*
X-1650000Y17957320D01*
X-1719710Y17950454D01*
X-1786740Y17930121D01*
X-1848516Y17897101D01*
X-1902663Y17852663D01*
X-1947101Y17798516D01*
X-1980121Y17736740D01*
X-2000454Y17669710D01*
X-2007320Y17600000D01*
X-2007320Y17482600D01*
X-2390400Y17482600D01*
X-2390400Y18977386D01*
X6885264Y18977386D01*
X6915837Y18810808D01*
X6978183Y18653340D01*
X7069927Y18510981D01*
X7187575Y18389153D01*
X7267400Y18333674D01*
X7267400Y4526311D01*
X7206246Y4486293D01*
X7085243Y4367798D01*
X6989559Y4228056D01*
X6922841Y4072390D01*
X6887629Y3906730D01*
X6885264Y3737386D01*
X6915837Y3570808D01*
X6978183Y3413340D01*
X7069927Y3270981D01*
X7187575Y3149153D01*
X7326646Y3052497D01*
X7481842Y2984693D01*
X7647252Y2948325D01*
X7816575Y2944779D01*
X7983363Y2974188D01*
X8141262Y3035433D01*
X8284258Y3126181D01*
X8406904Y3242975D01*
X8504529Y3381368D01*
X8573415Y3536086D01*
X8610936Y3701238D01*
X8613637Y3894680D01*
X8580742Y4060816D01*
X8516203Y4217398D01*
X8422481Y4358462D01*
X8303143Y4478635D01*
X8232600Y4526217D01*
X8232600Y13754229D01*
X9030046Y13754229D01*
X9038813Y13710144D01*
X9112397Y13482748D01*
X9228930Y13274077D01*
X9383933Y13092150D01*
X9571450Y12943958D01*
X9784275Y12835196D01*
X10014229Y12770044D01*
X10204600Y12839963D01*
X10204600Y13944600D01*
X9099985Y13944600D01*
X9030046Y13754229D01*
X8232600Y13754229D01*
X8232600Y14185771D01*
X9030046Y14185771D01*
X9099985Y13995400D01*
X10204600Y13995400D01*
X10204600Y15100037D01*
X10014229Y15169956D01*
X9784275Y15104804D01*
X9571450Y14996042D01*
X9383933Y14847850D01*
X9228930Y14665923D01*
X9112397Y14457252D01*
X9038813Y14229856D01*
X9030046Y14185771D01*
X8232600Y14185771D01*
X8232600Y18333398D01*
X8284258Y18366181D01*
X8406904Y18482975D01*
X8504529Y18621368D01*
X8573415Y18776086D01*
X8610936Y18941238D01*
X8613637Y19134680D01*
X8580742Y19300816D01*
X8516203Y19457398D01*
X8422481Y19598462D01*
X8303143Y19718635D01*
X8162737Y19813341D01*
X8006609Y19878971D01*
X7840708Y19913025D01*
X7671351Y19914208D01*
X7504990Y19882473D01*
X7347961Y19819029D01*
X7206246Y19726293D01*
X7085243Y19607798D01*
X6989559Y19468056D01*
X6922841Y19312390D01*
X6887629Y19146730D01*
X6885264Y18977386D01*
X-2390400Y18977386D01*
X-2390400Y20517400D01*
X-2007320Y20517400D01*
X-2007320Y20400000D01*
X-2000454Y20330290D01*
X-1980121Y20263260D01*
X-1947101Y20201484D01*
X-1902663Y20147337D01*
X-1848516Y20102899D01*
X-1786740Y20069879D01*
X-1719710Y20049546D01*
X-1650000Y20042680D01*
X-450000Y20042680D01*
X-380290Y20049546D01*
X-313260Y20069879D01*
X-251484Y20102899D01*
X-197337Y20147337D01*
X-152899Y20201484D01*
X-119879Y20263260D01*
X-99546Y20330290D01*
X-92680Y20400000D01*
X-92680Y21600000D01*
X92680Y21600000D01*
X92680Y20400000D01*
X99546Y20330290D01*
X119879Y20263260D01*
X152899Y20201484D01*
X197337Y20147337D01*
X251484Y20102899D01*
X313260Y20069879D01*
X380290Y20049546D01*
X450000Y20042680D01*
X1650000Y20042680D01*
X1719710Y20049546D01*
X1786740Y20069879D01*
X1848516Y20102899D01*
X1902663Y20147337D01*
X1947101Y20201484D01*
X1980121Y20263260D01*
X2000454Y20330290D01*
X2007320Y20400000D01*
X2007320Y20517400D01*
X2156567Y20517400D01*
X2192927Y20460981D01*
X2310575Y20339153D01*
X2449646Y20242497D01*
X2604842Y20174693D01*
X2770252Y20138325D01*
X2939575Y20134779D01*
X3106363Y20164188D01*
X3264262Y20225433D01*
X3407258Y20316181D01*
X3529904Y20432975D01*
X3627529Y20571368D01*
X3696415Y20726086D01*
X3733936Y20891238D01*
X3736637Y21084680D01*
X3703742Y21250816D01*
X3639203Y21407398D01*
X3545481Y21548462D01*
X3426143Y21668635D01*
X3285737Y21763341D01*
X3129609Y21828971D01*
X2963708Y21863025D01*
X2794351Y21864208D01*
X2627990Y21832473D01*
X2470961Y21769029D01*
X2329246Y21676293D01*
X2208243Y21557798D01*
X2156754Y21482600D01*
X2007320Y21482600D01*
X2007320Y21600000D01*
X2000454Y21669710D01*
X1980121Y21736740D01*
X1947101Y21798516D01*
X1902663Y21852663D01*
X1848516Y21897101D01*
X1786740Y21930121D01*
X1719710Y21950454D01*
X1650000Y21957320D01*
X450000Y21957320D01*
X380290Y21950454D01*
X313260Y21930121D01*
X251484Y21897101D01*
X197337Y21852663D01*
X152899Y21798516D01*
X119879Y21736740D01*
X99546Y21669710D01*
X92680Y21600000D01*
X-92680Y21600000D01*
X-99546Y21669710D01*
X-119879Y21736740D01*
X-152899Y21798516D01*
X-197337Y21852663D01*
X-251484Y21897101D01*
X-313260Y21930121D01*
X-380290Y21950454D01*
X-450000Y21957320D01*
X-1650000Y21957320D01*
X-1719710Y21950454D01*
X-1786740Y21930121D01*
X-1848516Y21897101D01*
X-1902663Y21852663D01*
X-1947101Y21798516D01*
X-1980121Y21736740D01*
X-2000454Y21669710D01*
X-2007320Y21600000D01*
X-2007320Y21482600D01*
X-2390400Y21482600D01*
X-2390400Y24517400D01*
X-2007320Y24517400D01*
X-2007320Y24400000D01*
X-2000454Y24330290D01*
X-1980121Y24263260D01*
X-1947101Y24201484D01*
X-1902663Y24147337D01*
X-1848516Y24102899D01*
X-1786740Y24069879D01*
X-1719710Y24049546D01*
X-1650000Y24042680D01*
X-450000Y24042680D01*
X-380290Y24049546D01*
X-313260Y24069879D01*
X-251484Y24102899D01*
X-197337Y24147337D01*
X-152899Y24201484D01*
X-119879Y24263260D01*
X-99546Y24330290D01*
X-92680Y24400000D01*
X-92680Y25600000D01*
X92680Y25600000D01*
X92680Y24400000D01*
X99546Y24330290D01*
X119879Y24263260D01*
X152899Y24201484D01*
X197337Y24147337D01*
X251484Y24102899D01*
X313260Y24069879D01*
X380290Y24049546D01*
X450000Y24042680D01*
X1650000Y24042680D01*
X1719710Y24049546D01*
X1786740Y24069879D01*
X1848516Y24102899D01*
X1902663Y24147337D01*
X1947101Y24201484D01*
X1980121Y24263260D01*
X2000454Y24330290D01*
X2007320Y24400000D01*
X2007320Y24517400D01*
X2156567Y24517400D01*
X2192927Y24460981D01*
X2310575Y24339153D01*
X2449646Y24242497D01*
X2604842Y24174693D01*
X2770252Y24138325D01*
X2939575Y24134779D01*
X3106363Y24164188D01*
X3264262Y24225433D01*
X3407258Y24316181D01*
X3529904Y24432975D01*
X3627529Y24571368D01*
X3696415Y24726086D01*
X3733936Y24891238D01*
X3736637Y25084680D01*
X3703742Y25250816D01*
X3639203Y25407398D01*
X3545481Y25548462D01*
X3426143Y25668635D01*
X3285737Y25763341D01*
X3129609Y25828971D01*
X2963708Y25863025D01*
X2794351Y25864208D01*
X2627990Y25832473D01*
X2470961Y25769029D01*
X2329246Y25676293D01*
X2208243Y25557798D01*
X2156754Y25482600D01*
X2007320Y25482600D01*
X2007320Y25600000D01*
X2000454Y25669710D01*
X1980121Y25736740D01*
X1947101Y25798516D01*
X1902663Y25852663D01*
X1848516Y25897101D01*
X1786740Y25930121D01*
X1719710Y25950454D01*
X1650000Y25957320D01*
X450000Y25957320D01*
X380290Y25950454D01*
X313260Y25930121D01*
X251484Y25897101D01*
X197337Y25852663D01*
X152899Y25798516D01*
X119879Y25736740D01*
X99546Y25669710D01*
X92680Y25600000D01*
X-92680Y25600000D01*
X-99546Y25669710D01*
X-119879Y25736740D01*
X-152899Y25798516D01*
X-197337Y25852663D01*
X-251484Y25897101D01*
X-313260Y25930121D01*
X-380290Y25950454D01*
X-450000Y25957320D01*
X-1650000Y25957320D01*
X-1719710Y25950454D01*
X-1786740Y25930121D01*
X-1848516Y25897101D01*
X-1902663Y25852663D01*
X-1947101Y25798516D01*
X-1980121Y25736740D01*
X-2000454Y25669710D01*
X-2007320Y25600000D01*
X-2007320Y25482600D01*
X-2390400Y25482600D01*
X-2390400Y28517400D01*
X2800100Y28517400D01*
X3747370Y27570130D01*
%TD*%
M02*
