M48
;DRILL file {KiCad (2017-03-19 revision 2637835)-master} date Thursday, 30 March 2017 20:36:37
;FORMAT={-:-/ absolute / inch / decimal}
FMAT,2
INCH,TZ
T1C0.020
T2C0.040
T3C0.040
T4C0.108
%
G90
G05
M72
T1
X-0.2441Y-0.35
X-0.2441Y-0.7874
X-0.2441Y-1.1417
X0.Y-0.35
X0.Y-1.1417
X0.1131Y0.9843
X0.1131Y0.8268
X0.1131Y0.6693
X0.1131Y0.5118
X0.1131Y0.3543
X0.1131Y0.1969
X0.1131Y0.0394
X0.1131Y-0.1181
X0.2441Y-0.35
X0.2441Y-0.7874
X0.2441Y-1.1417
X0.3051Y0.75
X0.3051Y0.15
T2
X0.4028Y0.95
X0.4028Y0.85
X0.4028Y0.75
X0.4028Y0.65
X0.4028Y0.55
X0.4028Y0.45
X0.4028Y0.35
X0.4028Y0.25
X0.4028Y0.15
X0.4028Y0.05
X0.4028Y-0.05
X0.4028Y-0.15
X0.4028Y-0.25
X0.4028Y-0.35
X0.4028Y-0.45
X0.4028Y-0.55
X0.4028Y-0.65
X0.4028Y-0.75
X0.4028Y-0.85
X0.4028Y-0.95
X0.5028Y0.95
X0.5028Y0.85
X0.5028Y0.75
X0.5028Y0.65
X0.5028Y0.55
X0.5028Y0.45
X0.5028Y0.35
X0.5028Y0.25
X0.5028Y0.15
X0.5028Y0.05
X0.5028Y-0.05
X0.5028Y-0.15
X0.5028Y-0.25
X0.5028Y-0.35
X0.5028Y-0.45
X0.5028Y-0.55
X0.5028Y-0.65
X0.5028Y-0.75
X0.5028Y-0.85
X0.5028Y-0.95
T3
X0.Y-0.6398
T4
X-0.4528Y1.1417
X-0.4528Y-1.1417
X0.4528Y1.1417
X0.4528Y-1.1417
T0
M30
