%TF.GenerationSoftware,KiCad,Pcbnew,(2017-03-19 revision 2637835)-master*%
%TF.CreationDate,2017-03-30T20:36:30+01:00*%
%TF.ProjectId,kicad-rtep-audio-spectrum-analyser,6B696361642D727465702D617564696F,1.0.0*%
%TF.FileFunction,Soldermask,Top*%
%TF.FilePolarity,Negative*%
%FSLAX46Y46*%
G04 Gerber Fmt 4.6, Leading zero omitted, Abs format (unit mm)*
G04 Created by KiCad (PCBNEW (2017-03-19 revision 2637835)-master) date Thursday, 30 March 2017 20:36:30*
%MOMM*%
%LPD*%
G01*
G04 APERTURE LIST*
%ADD10C,0.203200*%
%ADD11C,0.200000*%
%ADD12C,0.101600*%
%ADD13C,0.010000*%
%ADD14C,1.016000*%
%ADD15R,1.200000X1.200000*%
%ADD16C,1.624000*%
%ADD17C,6.000000*%
%ADD18O,1.727200X1.727200*%
%ADD19R,1.727200X1.727200*%
G04 APERTURE END LIST*
D10*
D11*
X1373000Y-3000000D02*
X2873000Y-3000000D01*
X1373000Y1000000D02*
X2873000Y1000000D01*
X1373000Y5000000D02*
X2873000Y5000000D01*
X1373000Y9000000D02*
X2873000Y9000000D01*
X1373000Y13000000D02*
X2873000Y13000000D01*
X1373000Y17000000D02*
X2873000Y17000000D01*
X1373000Y21000000D02*
X2873000Y21000000D01*
X1373000Y25000000D02*
X2873000Y25000000D01*
X2873000Y0D02*
X2873000Y-2000000D01*
X2873000Y4000000D02*
X2873000Y2000000D01*
X2873000Y8000000D02*
X2873000Y6000000D01*
X2873000Y12000000D02*
X2873000Y10000000D01*
X2873000Y16000000D02*
X2873000Y14000000D01*
X2873000Y20000000D02*
X2873000Y18000000D01*
X2873000Y24000000D02*
X2873000Y22000000D01*
X-2873000Y-3000000D02*
X-1373000Y-3000000D01*
X-2873000Y1000000D02*
X-1373000Y1000000D01*
X-2873000Y5000000D02*
X-1373000Y5000000D01*
X-2873000Y9000000D02*
X-1373000Y9000000D01*
X-2873000Y13000000D02*
X-1373000Y13000000D01*
X-2873000Y17000000D02*
X-1373000Y17000000D01*
X-2873000Y21000000D02*
X-1373000Y21000000D01*
X-2873000Y25000000D02*
X-1373000Y25000000D01*
X-2873000Y25000000D02*
X-2873000Y-3000000D01*
%TO.C,D1*%
D12*
X-468691Y26212739D02*
X-468691Y26847739D01*
X-317500Y26847739D01*
X-226786Y26817500D01*
X-166310Y26757024D01*
X-136072Y26696548D01*
X-105834Y26575596D01*
X-105834Y26484881D01*
X-136072Y26363929D01*
X-166310Y26303453D01*
X-226786Y26242977D01*
X-317500Y26212739D01*
X-468691Y26212739D01*
X498928Y26212739D02*
X136071Y26212739D01*
X317500Y26212739D02*
X317500Y26847739D01*
X257023Y26757024D01*
X196547Y26696548D01*
X136071Y26666310D01*
X856476Y26463715D02*
X1243523Y26463715D01*
X-1243524Y26463715D02*
X-856477Y26463715D01*
X-1050000Y26270191D02*
X-1050000Y26657239D01*
%TO.C,D2*%
X-468691Y22212739D02*
X-468691Y22847739D01*
X-317500Y22847739D01*
X-226786Y22817500D01*
X-166310Y22757024D01*
X-136072Y22696548D01*
X-105834Y22575596D01*
X-105834Y22484881D01*
X-136072Y22363929D01*
X-166310Y22303453D01*
X-226786Y22242977D01*
X-317500Y22212739D01*
X-468691Y22212739D01*
X136071Y22787262D02*
X166309Y22817500D01*
X226785Y22847739D01*
X377976Y22847739D01*
X438452Y22817500D01*
X468690Y22787262D01*
X498928Y22726786D01*
X498928Y22666310D01*
X468690Y22575596D01*
X105833Y22212739D01*
X498928Y22212739D01*
X856476Y22463715D02*
X1243523Y22463715D01*
X-1243524Y22463715D02*
X-856477Y22463715D01*
X-1050000Y22270191D02*
X-1050000Y22657239D01*
%TO.C,D3*%
X-468691Y18212739D02*
X-468691Y18847739D01*
X-317500Y18847739D01*
X-226786Y18817500D01*
X-166310Y18757024D01*
X-136072Y18696548D01*
X-105834Y18575596D01*
X-105834Y18484881D01*
X-136072Y18363929D01*
X-166310Y18303453D01*
X-226786Y18242977D01*
X-317500Y18212739D01*
X-468691Y18212739D01*
X105833Y18847739D02*
X498928Y18847739D01*
X287261Y18605834D01*
X377976Y18605834D01*
X438452Y18575596D01*
X468690Y18545358D01*
X498928Y18484881D01*
X498928Y18333691D01*
X468690Y18273215D01*
X438452Y18242977D01*
X377976Y18212739D01*
X196547Y18212739D01*
X136071Y18242977D01*
X105833Y18273215D01*
X856476Y18463715D02*
X1243523Y18463715D01*
X-1243524Y18463715D02*
X-856477Y18463715D01*
X-1050000Y18270191D02*
X-1050000Y18657239D01*
%TO.C,D4*%
X-468691Y14212739D02*
X-468691Y14847739D01*
X-317500Y14847739D01*
X-226786Y14817500D01*
X-166310Y14757024D01*
X-136072Y14696548D01*
X-105834Y14575596D01*
X-105834Y14484881D01*
X-136072Y14363929D01*
X-166310Y14303453D01*
X-226786Y14242977D01*
X-317500Y14212739D01*
X-468691Y14212739D01*
X438452Y14636072D02*
X438452Y14212739D01*
X287261Y14877977D02*
X136071Y14424405D01*
X529166Y14424405D01*
X856476Y14463715D02*
X1243523Y14463715D01*
X-1243524Y14463715D02*
X-856477Y14463715D01*
X-1050000Y14270191D02*
X-1050000Y14657239D01*
%TO.C,D5*%
X-468691Y10212739D02*
X-468691Y10847739D01*
X-317500Y10847739D01*
X-226786Y10817500D01*
X-166310Y10757024D01*
X-136072Y10696548D01*
X-105834Y10575596D01*
X-105834Y10484881D01*
X-136072Y10363929D01*
X-166310Y10303453D01*
X-226786Y10242977D01*
X-317500Y10212739D01*
X-468691Y10212739D01*
X468690Y10847739D02*
X166309Y10847739D01*
X136071Y10545358D01*
X166309Y10575596D01*
X226785Y10605834D01*
X377976Y10605834D01*
X438452Y10575596D01*
X468690Y10545358D01*
X498928Y10484881D01*
X498928Y10333691D01*
X468690Y10273215D01*
X438452Y10242977D01*
X377976Y10212739D01*
X226785Y10212739D01*
X166309Y10242977D01*
X136071Y10273215D01*
X856476Y10463715D02*
X1243523Y10463715D01*
X-1243524Y10463715D02*
X-856477Y10463715D01*
X-1050000Y10270191D02*
X-1050000Y10657239D01*
%TO.C,D6*%
X-468691Y6212739D02*
X-468691Y6847739D01*
X-317500Y6847739D01*
X-226786Y6817500D01*
X-166310Y6757024D01*
X-136072Y6696548D01*
X-105834Y6575596D01*
X-105834Y6484881D01*
X-136072Y6363929D01*
X-166310Y6303453D01*
X-226786Y6242977D01*
X-317500Y6212739D01*
X-468691Y6212739D01*
X438452Y6847739D02*
X317500Y6847739D01*
X257023Y6817500D01*
X226785Y6787262D01*
X166309Y6696548D01*
X136071Y6575596D01*
X136071Y6333691D01*
X166309Y6273215D01*
X196547Y6242977D01*
X257023Y6212739D01*
X377976Y6212739D01*
X438452Y6242977D01*
X468690Y6273215D01*
X498928Y6333691D01*
X498928Y6484881D01*
X468690Y6545358D01*
X438452Y6575596D01*
X377976Y6605834D01*
X257023Y6605834D01*
X196547Y6575596D01*
X166309Y6545358D01*
X136071Y6484881D01*
X856476Y6463715D02*
X1243523Y6463715D01*
X-1243524Y6463715D02*
X-856477Y6463715D01*
X-1050000Y6270191D02*
X-1050000Y6657239D01*
%TO.C,D7*%
X-468691Y2212739D02*
X-468691Y2847739D01*
X-317500Y2847739D01*
X-226786Y2817500D01*
X-166310Y2757024D01*
X-136072Y2696548D01*
X-105834Y2575596D01*
X-105834Y2484881D01*
X-136072Y2363929D01*
X-166310Y2303453D01*
X-226786Y2242977D01*
X-317500Y2212739D01*
X-468691Y2212739D01*
X105833Y2847739D02*
X529166Y2847739D01*
X257023Y2212739D01*
X856476Y2463715D02*
X1243523Y2463715D01*
X-1243524Y2463715D02*
X-856477Y2463715D01*
X-1050000Y2270191D02*
X-1050000Y2657239D01*
%TO.C,D8*%
X-468691Y-1787261D02*
X-468691Y-1152261D01*
X-317500Y-1152261D01*
X-226786Y-1182500D01*
X-166310Y-1242976D01*
X-136072Y-1303452D01*
X-105834Y-1424404D01*
X-105834Y-1515119D01*
X-136072Y-1636071D01*
X-166310Y-1696547D01*
X-226786Y-1757023D01*
X-317500Y-1787261D01*
X-468691Y-1787261D01*
X257023Y-1424404D02*
X196547Y-1394166D01*
X166309Y-1363928D01*
X136071Y-1303452D01*
X136071Y-1273214D01*
X166309Y-1212738D01*
X196547Y-1182500D01*
X257023Y-1152261D01*
X377976Y-1152261D01*
X438452Y-1182500D01*
X468690Y-1212738D01*
X498928Y-1273214D01*
X498928Y-1303452D01*
X468690Y-1363928D01*
X438452Y-1394166D01*
X377976Y-1424404D01*
X257023Y-1424404D01*
X196547Y-1454642D01*
X166309Y-1484880D01*
X136071Y-1545357D01*
X136071Y-1666309D01*
X166309Y-1726785D01*
X196547Y-1757023D01*
X257023Y-1787261D01*
X377976Y-1787261D01*
X438452Y-1757023D01*
X468690Y-1726785D01*
X498928Y-1666309D01*
X498928Y-1545357D01*
X468690Y-1484880D01*
X438452Y-1454642D01*
X377976Y-1424404D01*
X856476Y-1536285D02*
X1243523Y-1536285D01*
X-1243524Y-1536285D02*
X-856477Y-1536285D01*
X-1050000Y-1729809D02*
X-1050000Y-1342761D01*
D13*
%TO.C,G\002A\002A\002A*%
G36*
X-11222909Y-2493818D02*
X-11222909Y-2286000D01*
X-9652727Y-2286000D01*
X-9652727Y-2493818D01*
X-11222909Y-2493818D01*
X-11222909Y-2493818D01*
G37*
X-11222909Y-2493818D02*
X-11222909Y-2286000D01*
X-9652727Y-2286000D01*
X-9652727Y-2493818D01*
X-11222909Y-2493818D01*
G36*
X-11222909Y-2008909D02*
X-11222909Y-1801091D01*
X-9652727Y-1801091D01*
X-9652727Y-2008909D01*
X-11222909Y-2008909D01*
X-11222909Y-2008909D01*
G37*
X-11222909Y-2008909D02*
X-11222909Y-1801091D01*
X-9652727Y-1801091D01*
X-9652727Y-2008909D01*
X-11222909Y-2008909D01*
G36*
X-9659111Y-1587097D02*
X-9677581Y-1615251D01*
X-9681591Y-1615733D01*
X-9710336Y-1610714D01*
X-9778644Y-1596759D01*
X-9881016Y-1575052D01*
X-10011954Y-1546777D01*
X-10165961Y-1513118D01*
X-10337540Y-1475261D01*
X-10460909Y-1447843D01*
X-11211363Y-1280585D01*
X-11218368Y-1184876D01*
X-11218568Y-1119967D01*
X-11203940Y-1087064D01*
X-11183732Y-1076475D01*
X-11152419Y-1068727D01*
X-11083436Y-1052732D01*
X-10983230Y-1029924D01*
X-10858250Y-1001735D01*
X-10714942Y-969598D01*
X-10559756Y-934945D01*
X-10399138Y-899209D01*
X-10239537Y-863822D01*
X-10087399Y-830217D01*
X-9949174Y-799826D01*
X-9831309Y-774082D01*
X-9740252Y-754418D01*
X-9682450Y-742265D01*
X-9664349Y-738909D01*
X-9657344Y-759535D01*
X-9653205Y-811583D01*
X-9652727Y-840315D01*
X-9656436Y-905838D01*
X-9671769Y-939370D01*
X-9704681Y-954707D01*
X-9741975Y-963230D01*
X-9817048Y-979762D01*
X-9922512Y-1002699D01*
X-10050977Y-1030435D01*
X-10195053Y-1061366D01*
X-10252063Y-1073561D01*
X-10396720Y-1104710D01*
X-10525358Y-1132862D01*
X-10631397Y-1156539D01*
X-10708256Y-1174264D01*
X-10749356Y-1184561D01*
X-10754402Y-1186342D01*
X-10734749Y-1192654D01*
X-10675844Y-1206745D01*
X-10583709Y-1227293D01*
X-10464370Y-1252975D01*
X-10323848Y-1282469D01*
X-10207021Y-1306532D01*
X-9652727Y-1419809D01*
X-9652727Y-1518086D01*
X-9659111Y-1587097D01*
X-9659111Y-1587097D01*
G37*
X-9659111Y-1587097D02*
X-9677581Y-1615251D01*
X-9681591Y-1615733D01*
X-9710336Y-1610714D01*
X-9778644Y-1596759D01*
X-9881016Y-1575052D01*
X-10011954Y-1546777D01*
X-10165961Y-1513118D01*
X-10337540Y-1475261D01*
X-10460909Y-1447843D01*
X-11211363Y-1280585D01*
X-11218368Y-1184876D01*
X-11218568Y-1119967D01*
X-11203940Y-1087064D01*
X-11183732Y-1076475D01*
X-11152419Y-1068727D01*
X-11083436Y-1052732D01*
X-10983230Y-1029924D01*
X-10858250Y-1001735D01*
X-10714942Y-969598D01*
X-10559756Y-934945D01*
X-10399138Y-899209D01*
X-10239537Y-863822D01*
X-10087399Y-830217D01*
X-9949174Y-799826D01*
X-9831309Y-774082D01*
X-9740252Y-754418D01*
X-9682450Y-742265D01*
X-9664349Y-738909D01*
X-9657344Y-759535D01*
X-9653205Y-811583D01*
X-9652727Y-840315D01*
X-9656436Y-905838D01*
X-9671769Y-939370D01*
X-9704681Y-954707D01*
X-9741975Y-963230D01*
X-9817048Y-979762D01*
X-9922512Y-1002699D01*
X-10050977Y-1030435D01*
X-10195053Y-1061366D01*
X-10252063Y-1073561D01*
X-10396720Y-1104710D01*
X-10525358Y-1132862D01*
X-10631397Y-1156539D01*
X-10708256Y-1174264D01*
X-10749356Y-1184561D01*
X-10754402Y-1186342D01*
X-10734749Y-1192654D01*
X-10675844Y-1206745D01*
X-10583709Y-1227293D01*
X-10464370Y-1252975D01*
X-10323848Y-1282469D01*
X-10207021Y-1306532D01*
X-9652727Y-1419809D01*
X-9652727Y-1518086D01*
X-9659111Y-1587097D01*
G36*
X-9664272Y-9523D02*
X-9912193Y-116061D01*
X-10010686Y-158956D01*
X-10092863Y-195821D01*
X-10149826Y-222589D01*
X-10172456Y-234941D01*
X-10157042Y-247261D01*
X-10106035Y-271946D01*
X-10027219Y-305520D01*
X-9928383Y-344509D01*
X-9918762Y-348169D01*
X-9652727Y-449054D01*
X-9652727Y-547800D01*
X-9657115Y-607959D01*
X-9668156Y-642944D01*
X-9673782Y-646546D01*
X-9701107Y-637859D01*
X-9763253Y-613829D01*
X-9852680Y-577504D01*
X-9961846Y-531930D01*
X-10045272Y-496455D01*
X-10163841Y-446232D01*
X-10268046Y-403149D01*
X-10350306Y-370257D01*
X-10403041Y-350607D01*
X-10418269Y-346364D01*
X-10445882Y-355057D01*
X-10508609Y-379185D01*
X-10599188Y-415816D01*
X-10710360Y-462021D01*
X-10818818Y-508000D01*
X-10941265Y-560063D01*
X-11048652Y-605155D01*
X-11133942Y-640367D01*
X-11190098Y-662791D01*
X-11209857Y-669637D01*
X-11217730Y-649015D01*
X-11222377Y-596990D01*
X-11222909Y-568453D01*
X-11222909Y-467270D01*
X-10951591Y-350680D01*
X-10850525Y-305598D01*
X-10767898Y-265575D01*
X-10711401Y-234575D01*
X-10688723Y-216562D01*
X-10688733Y-215181D01*
X-10712511Y-200209D01*
X-10770937Y-173503D01*
X-10855167Y-138872D01*
X-10954278Y-100891D01*
X-11211363Y-5508D01*
X-11218401Y101155D01*
X-11220971Y164012D01*
X-11219496Y202331D01*
X-11217281Y207818D01*
X-11194326Y199614D01*
X-11135341Y176785D01*
X-11047113Y142007D01*
X-10936432Y97958D01*
X-10810084Y47313D01*
X-10806381Y45823D01*
X-10403639Y-116172D01*
X-10207137Y-31702D01*
X-10090076Y18584D01*
X-9961169Y73905D01*
X-9845590Y123458D01*
X-9830430Y129953D01*
X-9650224Y207137D01*
X-9664272Y-9523D01*
X-9664272Y-9523D01*
G37*
X-9664272Y-9523D02*
X-9912193Y-116061D01*
X-10010686Y-158956D01*
X-10092863Y-195821D01*
X-10149826Y-222589D01*
X-10172456Y-234941D01*
X-10157042Y-247261D01*
X-10106035Y-271946D01*
X-10027219Y-305520D01*
X-9928383Y-344509D01*
X-9918762Y-348169D01*
X-9652727Y-449054D01*
X-9652727Y-547800D01*
X-9657115Y-607959D01*
X-9668156Y-642944D01*
X-9673782Y-646546D01*
X-9701107Y-637859D01*
X-9763253Y-613829D01*
X-9852680Y-577504D01*
X-9961846Y-531930D01*
X-10045272Y-496455D01*
X-10163841Y-446232D01*
X-10268046Y-403149D01*
X-10350306Y-370257D01*
X-10403041Y-350607D01*
X-10418269Y-346364D01*
X-10445882Y-355057D01*
X-10508609Y-379185D01*
X-10599188Y-415816D01*
X-10710360Y-462021D01*
X-10818818Y-508000D01*
X-10941265Y-560063D01*
X-11048652Y-605155D01*
X-11133942Y-640367D01*
X-11190098Y-662791D01*
X-11209857Y-669637D01*
X-11217730Y-649015D01*
X-11222377Y-596990D01*
X-11222909Y-568453D01*
X-11222909Y-467270D01*
X-10951591Y-350680D01*
X-10850525Y-305598D01*
X-10767898Y-265575D01*
X-10711401Y-234575D01*
X-10688723Y-216562D01*
X-10688733Y-215181D01*
X-10712511Y-200209D01*
X-10770937Y-173503D01*
X-10855167Y-138872D01*
X-10954278Y-100891D01*
X-11211363Y-5508D01*
X-11218401Y101155D01*
X-11220971Y164012D01*
X-11219496Y202331D01*
X-11217281Y207818D01*
X-11194326Y199614D01*
X-11135341Y176785D01*
X-11047113Y142007D01*
X-10936432Y97958D01*
X-10810084Y47313D01*
X-10806381Y45823D01*
X-10403639Y-116172D01*
X-10207137Y-31702D01*
X-10090076Y18584D01*
X-9961169Y73905D01*
X-9845590Y123458D01*
X-9830430Y129953D01*
X-9650224Y207137D01*
X-9664272Y-9523D01*
G36*
X-10212681Y1017285D02*
X-10406575Y975435D01*
X-10559766Y942363D01*
X-10676656Y916930D01*
X-10761646Y897993D01*
X-10819138Y884413D01*
X-10853532Y875046D01*
X-10869231Y868753D01*
X-10870636Y864392D01*
X-10862148Y860822D01*
X-10848168Y856902D01*
X-10840581Y854485D01*
X-10806335Y845433D01*
X-10733580Y828238D01*
X-10628970Y804404D01*
X-10499161Y775432D01*
X-10350807Y742825D01*
X-10224227Y715343D01*
X-9652727Y591933D01*
X-9652727Y369454D01*
X-10039500Y369384D01*
X-10208296Y368310D01*
X-10402133Y365415D01*
X-10599921Y361107D01*
X-10780572Y355793D01*
X-10824591Y354204D01*
X-11222909Y339094D01*
X-11222909Y531091D01*
X-10687969Y531091D01*
X-10537361Y531680D01*
X-10404384Y533333D01*
X-10295232Y535879D01*
X-10216099Y539146D01*
X-10173180Y542963D01*
X-10167424Y545485D01*
X-10193145Y554591D01*
X-10257367Y572233D01*
X-10353544Y596762D01*
X-10475133Y626531D01*
X-10615590Y659892D01*
X-10696591Y678731D01*
X-11211363Y797582D01*
X-11211363Y933548D01*
X-10698764Y1050570D01*
X-10550984Y1084846D01*
X-10418429Y1116620D01*
X-10307702Y1144224D01*
X-10225405Y1165991D01*
X-10178142Y1180255D01*
X-10169598Y1184159D01*
X-10186790Y1188840D01*
X-10244003Y1193008D01*
X-10335077Y1196467D01*
X-10453851Y1199020D01*
X-10594166Y1200469D01*
X-10687969Y1200727D01*
X-11222909Y1200727D01*
X-11222909Y1392772D01*
X-10768923Y1377568D01*
X-10598801Y1372506D01*
X-10416453Y1368158D01*
X-10237579Y1364828D01*
X-10077880Y1362820D01*
X-9983832Y1362363D01*
X-9652727Y1362363D01*
X-9652727Y1138305D01*
X-10212681Y1017285D01*
X-10212681Y1017285D01*
G37*
X-10212681Y1017285D02*
X-10406575Y975435D01*
X-10559766Y942363D01*
X-10676656Y916930D01*
X-10761646Y897993D01*
X-10819138Y884413D01*
X-10853532Y875046D01*
X-10869231Y868753D01*
X-10870636Y864392D01*
X-10862148Y860822D01*
X-10848168Y856902D01*
X-10840581Y854485D01*
X-10806335Y845433D01*
X-10733580Y828238D01*
X-10628970Y804404D01*
X-10499161Y775432D01*
X-10350807Y742825D01*
X-10224227Y715343D01*
X-9652727Y591933D01*
X-9652727Y369454D01*
X-10039500Y369384D01*
X-10208296Y368310D01*
X-10402133Y365415D01*
X-10599921Y361107D01*
X-10780572Y355793D01*
X-10824591Y354204D01*
X-11222909Y339094D01*
X-11222909Y531091D01*
X-10687969Y531091D01*
X-10537361Y531680D01*
X-10404384Y533333D01*
X-10295232Y535879D01*
X-10216099Y539146D01*
X-10173180Y542963D01*
X-10167424Y545485D01*
X-10193145Y554591D01*
X-10257367Y572233D01*
X-10353544Y596762D01*
X-10475133Y626531D01*
X-10615590Y659892D01*
X-10696591Y678731D01*
X-11211363Y797582D01*
X-11211363Y933548D01*
X-10698764Y1050570D01*
X-10550984Y1084846D01*
X-10418429Y1116620D01*
X-10307702Y1144224D01*
X-10225405Y1165991D01*
X-10178142Y1180255D01*
X-10169598Y1184159D01*
X-10186790Y1188840D01*
X-10244003Y1193008D01*
X-10335077Y1196467D01*
X-10453851Y1199020D01*
X-10594166Y1200469D01*
X-10687969Y1200727D01*
X-11222909Y1200727D01*
X-11222909Y1392772D01*
X-10768923Y1377568D01*
X-10598801Y1372506D01*
X-10416453Y1368158D01*
X-10237579Y1364828D01*
X-10077880Y1362820D01*
X-9983832Y1362363D01*
X-9652727Y1362363D01*
X-9652727Y1138305D01*
X-10212681Y1017285D01*
G36*
X-10212681Y2287285D02*
X-10406575Y2245435D01*
X-10559766Y2212363D01*
X-10676656Y2186930D01*
X-10761646Y2167993D01*
X-10819138Y2154413D01*
X-10853532Y2145046D01*
X-10869231Y2138753D01*
X-10870636Y2134392D01*
X-10862148Y2130822D01*
X-10848168Y2126902D01*
X-10840581Y2124485D01*
X-10806335Y2115433D01*
X-10733580Y2098238D01*
X-10628970Y2074404D01*
X-10499161Y2045432D01*
X-10350807Y2012825D01*
X-10224227Y1985343D01*
X-9652727Y1861933D01*
X-9652727Y1639454D01*
X-10039500Y1639384D01*
X-10208296Y1638310D01*
X-10402133Y1635415D01*
X-10599921Y1631107D01*
X-10780572Y1625793D01*
X-10824591Y1624204D01*
X-11222909Y1609094D01*
X-11222909Y1801091D01*
X-10687969Y1801091D01*
X-10537361Y1801680D01*
X-10404384Y1803333D01*
X-10295232Y1805879D01*
X-10216099Y1809146D01*
X-10173180Y1812963D01*
X-10167424Y1815485D01*
X-10193145Y1824591D01*
X-10257367Y1842233D01*
X-10353544Y1866762D01*
X-10475133Y1896531D01*
X-10615590Y1929892D01*
X-10696591Y1948731D01*
X-11211363Y2067582D01*
X-11211363Y2203548D01*
X-10698764Y2320570D01*
X-10550984Y2354846D01*
X-10418429Y2386620D01*
X-10307702Y2414224D01*
X-10225405Y2435991D01*
X-10178142Y2450255D01*
X-10169598Y2454159D01*
X-10186790Y2458840D01*
X-10244003Y2463008D01*
X-10335077Y2466467D01*
X-10453851Y2469020D01*
X-10594166Y2470469D01*
X-10687969Y2470727D01*
X-11222909Y2470727D01*
X-11222909Y2662772D01*
X-10768923Y2647568D01*
X-10598801Y2642506D01*
X-10416453Y2638158D01*
X-10237579Y2634828D01*
X-10077880Y2632820D01*
X-9983832Y2632363D01*
X-9652727Y2632363D01*
X-9652727Y2408305D01*
X-10212681Y2287285D01*
X-10212681Y2287285D01*
G37*
X-10212681Y2287285D02*
X-10406575Y2245435D01*
X-10559766Y2212363D01*
X-10676656Y2186930D01*
X-10761646Y2167993D01*
X-10819138Y2154413D01*
X-10853532Y2145046D01*
X-10869231Y2138753D01*
X-10870636Y2134392D01*
X-10862148Y2130822D01*
X-10848168Y2126902D01*
X-10840581Y2124485D01*
X-10806335Y2115433D01*
X-10733580Y2098238D01*
X-10628970Y2074404D01*
X-10499161Y2045432D01*
X-10350807Y2012825D01*
X-10224227Y1985343D01*
X-9652727Y1861933D01*
X-9652727Y1639454D01*
X-10039500Y1639384D01*
X-10208296Y1638310D01*
X-10402133Y1635415D01*
X-10599921Y1631107D01*
X-10780572Y1625793D01*
X-10824591Y1624204D01*
X-11222909Y1609094D01*
X-11222909Y1801091D01*
X-10687969Y1801091D01*
X-10537361Y1801680D01*
X-10404384Y1803333D01*
X-10295232Y1805879D01*
X-10216099Y1809146D01*
X-10173180Y1812963D01*
X-10167424Y1815485D01*
X-10193145Y1824591D01*
X-10257367Y1842233D01*
X-10353544Y1866762D01*
X-10475133Y1896531D01*
X-10615590Y1929892D01*
X-10696591Y1948731D01*
X-11211363Y2067582D01*
X-11211363Y2203548D01*
X-10698764Y2320570D01*
X-10550984Y2354846D01*
X-10418429Y2386620D01*
X-10307702Y2414224D01*
X-10225405Y2435991D01*
X-10178142Y2450255D01*
X-10169598Y2454159D01*
X-10186790Y2458840D01*
X-10244003Y2463008D01*
X-10335077Y2466467D01*
X-10453851Y2469020D01*
X-10594166Y2470469D01*
X-10687969Y2470727D01*
X-11222909Y2470727D01*
X-11222909Y2662772D01*
X-10768923Y2647568D01*
X-10598801Y2642506D01*
X-10416453Y2638158D01*
X-10237579Y2634828D01*
X-10077880Y2632820D01*
X-9983832Y2632363D01*
X-9652727Y2632363D01*
X-9652727Y2408305D01*
X-10212681Y2287285D01*
G36*
X-11654485Y16291189D02*
X-11750075Y16344739D01*
X-11812147Y16382725D01*
X-11847904Y16411369D01*
X-11864547Y16436895D01*
X-11869279Y16465526D01*
X-11869454Y16476946D01*
X-11869454Y16530601D01*
X-11748227Y16494131D01*
X-11667908Y16470258D01*
X-11597083Y16449690D01*
X-11569272Y16441875D01*
X-11533343Y16425741D01*
X-11514467Y16393754D01*
X-11505583Y16332126D01*
X-11504395Y16315195D01*
X-11497244Y16204302D01*
X-11654485Y16291189D01*
X-11654485Y16291189D01*
G37*
X-11654485Y16291189D02*
X-11750075Y16344739D01*
X-11812147Y16382725D01*
X-11847904Y16411369D01*
X-11864547Y16436895D01*
X-11869279Y16465526D01*
X-11869454Y16476946D01*
X-11869454Y16530601D01*
X-11748227Y16494131D01*
X-11667908Y16470258D01*
X-11597083Y16449690D01*
X-11569272Y16441875D01*
X-11533343Y16425741D01*
X-11514467Y16393754D01*
X-11505583Y16332126D01*
X-11504395Y16315195D01*
X-11497244Y16204302D01*
X-11654485Y16291189D01*
G36*
X-12540870Y-6431548D02*
X-12598597Y-6489275D01*
X-12677413Y-6407957D01*
X-12756230Y-6326639D01*
X-12843588Y-6411942D01*
X-12930946Y-6497244D01*
X-12989412Y-6442318D01*
X-13047879Y-6387391D01*
X-12961980Y-6299423D01*
X-12876082Y-6211455D01*
X-12961980Y-6123487D01*
X-13047879Y-6035518D01*
X-12989412Y-5980592D01*
X-12930946Y-5925665D01*
X-12756230Y-6096271D01*
X-12677413Y-6014952D01*
X-12598597Y-5933634D01*
X-12540870Y-5991362D01*
X-12483142Y-6049089D01*
X-12561828Y-6130272D01*
X-12640513Y-6211455D01*
X-12561828Y-6292638D01*
X-12483142Y-6373821D01*
X-12540870Y-6431548D01*
X-12540870Y-6431548D01*
G37*
X-12540870Y-6431548D02*
X-12598597Y-6489275D01*
X-12677413Y-6407957D01*
X-12756230Y-6326639D01*
X-12843588Y-6411942D01*
X-12930946Y-6497244D01*
X-12989412Y-6442318D01*
X-13047879Y-6387391D01*
X-12961980Y-6299423D01*
X-12876082Y-6211455D01*
X-12961980Y-6123487D01*
X-13047879Y-6035518D01*
X-12989412Y-5980592D01*
X-12930946Y-5925665D01*
X-12756230Y-6096271D01*
X-12677413Y-6014952D01*
X-12598597Y-5933634D01*
X-12540870Y-5991362D01*
X-12483142Y-6049089D01*
X-12561828Y-6130272D01*
X-12640513Y-6211455D01*
X-12561828Y-6292638D01*
X-12483142Y-6373821D01*
X-12540870Y-6431548D01*
G36*
X-12540870Y7861725D02*
X-12598597Y7803998D01*
X-12677413Y7885316D01*
X-12756230Y7966634D01*
X-12843588Y7881331D01*
X-12930946Y7796029D01*
X-12989412Y7850955D01*
X-13047879Y7905882D01*
X-12961980Y7993850D01*
X-12876082Y8081818D01*
X-12961980Y8169786D01*
X-13047879Y8257754D01*
X-12989412Y8312681D01*
X-12930946Y8367607D01*
X-12843588Y8282305D01*
X-12756230Y8197002D01*
X-12677413Y8278320D01*
X-12598597Y8359638D01*
X-12540870Y8301911D01*
X-12483142Y8244184D01*
X-12561828Y8163001D01*
X-12640513Y8081818D01*
X-12561828Y8000635D01*
X-12483142Y7919452D01*
X-12540870Y7861725D01*
X-12540870Y7861725D01*
G37*
X-12540870Y7861725D02*
X-12598597Y7803998D01*
X-12677413Y7885316D01*
X-12756230Y7966634D01*
X-12843588Y7881331D01*
X-12930946Y7796029D01*
X-12989412Y7850955D01*
X-13047879Y7905882D01*
X-12961980Y7993850D01*
X-12876082Y8081818D01*
X-12961980Y8169786D01*
X-13047879Y8257754D01*
X-12989412Y8312681D01*
X-12930946Y8367607D01*
X-12843588Y8282305D01*
X-12756230Y8197002D01*
X-12677413Y8278320D01*
X-12598597Y8359638D01*
X-12540870Y8301911D01*
X-12483142Y8244184D01*
X-12561828Y8163001D01*
X-12640513Y8081818D01*
X-12561828Y8000635D01*
X-12483142Y7919452D01*
X-12540870Y7861725D01*
G36*
X-12429409Y-19845494D02*
X-12566926Y-19904970D01*
X-12690449Y-19959408D01*
X-12793520Y-20005878D01*
X-12869680Y-20041452D01*
X-12912471Y-20063199D01*
X-12918936Y-20067503D01*
X-12904575Y-20074919D01*
X-12847174Y-20080930D01*
X-12749857Y-20085392D01*
X-12615749Y-20088160D01*
X-12451345Y-20089091D01*
X-11961818Y-20089091D01*
X-11961818Y-20273818D01*
X-13532000Y-20273818D01*
X-13531710Y-20123728D01*
X-13033434Y-19915909D01*
X-12891901Y-19856356D01*
X-12765057Y-19801982D01*
X-12658994Y-19755483D01*
X-12579806Y-19719552D01*
X-12533585Y-19696882D01*
X-12524216Y-19690773D01*
X-12542940Y-19685760D01*
X-12601450Y-19681316D01*
X-12693351Y-19677664D01*
X-12812249Y-19675026D01*
X-12951749Y-19673624D01*
X-13022637Y-19673455D01*
X-13532000Y-19673455D01*
X-13532000Y-19488728D01*
X-11961818Y-19488728D01*
X-11961818Y-19645073D01*
X-12429409Y-19845494D01*
X-12429409Y-19845494D01*
G37*
X-12429409Y-19845494D02*
X-12566926Y-19904970D01*
X-12690449Y-19959408D01*
X-12793520Y-20005878D01*
X-12869680Y-20041452D01*
X-12912471Y-20063199D01*
X-12918936Y-20067503D01*
X-12904575Y-20074919D01*
X-12847174Y-20080930D01*
X-12749857Y-20085392D01*
X-12615749Y-20088160D01*
X-12451345Y-20089091D01*
X-11961818Y-20089091D01*
X-11961818Y-20273818D01*
X-13532000Y-20273818D01*
X-13531710Y-20123728D01*
X-13033434Y-19915909D01*
X-12891901Y-19856356D01*
X-12765057Y-19801982D01*
X-12658994Y-19755483D01*
X-12579806Y-19719552D01*
X-12533585Y-19696882D01*
X-12524216Y-19690773D01*
X-12542940Y-19685760D01*
X-12601450Y-19681316D01*
X-12693351Y-19677664D01*
X-12812249Y-19675026D01*
X-12951749Y-19673624D01*
X-13022637Y-19673455D01*
X-13532000Y-19673455D01*
X-13532000Y-19488728D01*
X-11961818Y-19488728D01*
X-11961818Y-19645073D01*
X-12429409Y-19845494D01*
G36*
X-12058099Y-19154294D02*
X-12108142Y-19195633D01*
X-12161109Y-19227279D01*
X-12223634Y-19250326D01*
X-12302354Y-19265865D01*
X-12403904Y-19274988D01*
X-12534919Y-19278786D01*
X-12702034Y-19278351D01*
X-12802965Y-19276857D01*
X-12975023Y-19273233D01*
X-13107908Y-19268061D01*
X-13208629Y-19259794D01*
X-13284195Y-19246882D01*
X-13341615Y-19227779D01*
X-13387897Y-19200937D01*
X-13430052Y-19164808D01*
X-13462727Y-19131166D01*
X-13492247Y-19094101D01*
X-13510334Y-19052009D01*
X-13520253Y-18991935D01*
X-13525274Y-18900925D01*
X-13525896Y-18880745D01*
X-13526012Y-18785988D01*
X-13521429Y-18704416D01*
X-13513091Y-18650805D01*
X-13510760Y-18644026D01*
X-13464883Y-18579334D01*
X-13390492Y-18515988D01*
X-13303871Y-18466545D01*
X-13259964Y-18450653D01*
X-13202688Y-18441772D01*
X-13109021Y-18435027D01*
X-12988704Y-18430412D01*
X-12851479Y-18427917D01*
X-12749774Y-18427650D01*
X-12749774Y-18669000D01*
X-12919723Y-18669098D01*
X-13049506Y-18669772D01*
X-13145137Y-18671590D01*
X-13212630Y-18675120D01*
X-13258001Y-18680933D01*
X-13287264Y-18689596D01*
X-13306434Y-18701679D01*
X-13321526Y-18717750D01*
X-13326222Y-18723513D01*
X-13358137Y-18786463D01*
X-13370363Y-18853728D01*
X-13356639Y-18925410D01*
X-13326222Y-18983942D01*
X-13311177Y-19001338D01*
X-13293883Y-19014573D01*
X-13268325Y-19024216D01*
X-13228488Y-19030835D01*
X-13168357Y-19034999D01*
X-13081917Y-19037278D01*
X-12963154Y-19038239D01*
X-12806052Y-19038452D01*
X-12749774Y-19038455D01*
X-12565633Y-19038153D01*
X-12422507Y-19036211D01*
X-12315229Y-19031077D01*
X-12238631Y-19021199D01*
X-12187547Y-19005023D01*
X-12156808Y-18980998D01*
X-12141249Y-18947570D01*
X-12135702Y-18903186D01*
X-12135000Y-18853728D01*
X-12136005Y-18798397D01*
X-12142467Y-18755391D01*
X-12159552Y-18723156D01*
X-12192427Y-18700139D01*
X-12246260Y-18684790D01*
X-12326217Y-18675553D01*
X-12437466Y-18670878D01*
X-12585174Y-18669211D01*
X-12749774Y-18669000D01*
X-12749774Y-18427650D01*
X-12707085Y-18427537D01*
X-12565265Y-18429263D01*
X-12435759Y-18433088D01*
X-12328309Y-18439004D01*
X-12252655Y-18447004D01*
X-12230956Y-18451453D01*
X-12158416Y-18483067D01*
X-12082040Y-18533073D01*
X-12057774Y-18553459D01*
X-11973363Y-18630815D01*
X-11973363Y-19076640D01*
X-12058099Y-19154294D01*
X-12058099Y-19154294D01*
G37*
X-12058099Y-19154294D02*
X-12108142Y-19195633D01*
X-12161109Y-19227279D01*
X-12223634Y-19250326D01*
X-12302354Y-19265865D01*
X-12403904Y-19274988D01*
X-12534919Y-19278786D01*
X-12702034Y-19278351D01*
X-12802965Y-19276857D01*
X-12975023Y-19273233D01*
X-13107908Y-19268061D01*
X-13208629Y-19259794D01*
X-13284195Y-19246882D01*
X-13341615Y-19227779D01*
X-13387897Y-19200937D01*
X-13430052Y-19164808D01*
X-13462727Y-19131166D01*
X-13492247Y-19094101D01*
X-13510334Y-19052009D01*
X-13520253Y-18991935D01*
X-13525274Y-18900925D01*
X-13525896Y-18880745D01*
X-13526012Y-18785988D01*
X-13521429Y-18704416D01*
X-13513091Y-18650805D01*
X-13510760Y-18644026D01*
X-13464883Y-18579334D01*
X-13390492Y-18515988D01*
X-13303871Y-18466545D01*
X-13259964Y-18450653D01*
X-13202688Y-18441772D01*
X-13109021Y-18435027D01*
X-12988704Y-18430412D01*
X-12851479Y-18427917D01*
X-12749774Y-18427650D01*
X-12749774Y-18669000D01*
X-12919723Y-18669098D01*
X-13049506Y-18669772D01*
X-13145137Y-18671590D01*
X-13212630Y-18675120D01*
X-13258001Y-18680933D01*
X-13287264Y-18689596D01*
X-13306434Y-18701679D01*
X-13321526Y-18717750D01*
X-13326222Y-18723513D01*
X-13358137Y-18786463D01*
X-13370363Y-18853728D01*
X-13356639Y-18925410D01*
X-13326222Y-18983942D01*
X-13311177Y-19001338D01*
X-13293883Y-19014573D01*
X-13268325Y-19024216D01*
X-13228488Y-19030835D01*
X-13168357Y-19034999D01*
X-13081917Y-19037278D01*
X-12963154Y-19038239D01*
X-12806052Y-19038452D01*
X-12749774Y-19038455D01*
X-12565633Y-19038153D01*
X-12422507Y-19036211D01*
X-12315229Y-19031077D01*
X-12238631Y-19021199D01*
X-12187547Y-19005023D01*
X-12156808Y-18980998D01*
X-12141249Y-18947570D01*
X-12135702Y-18903186D01*
X-12135000Y-18853728D01*
X-12136005Y-18798397D01*
X-12142467Y-18755391D01*
X-12159552Y-18723156D01*
X-12192427Y-18700139D01*
X-12246260Y-18684790D01*
X-12326217Y-18675553D01*
X-12437466Y-18670878D01*
X-12585174Y-18669211D01*
X-12749774Y-18669000D01*
X-12749774Y-18427650D01*
X-12707085Y-18427537D01*
X-12565265Y-18429263D01*
X-12435759Y-18433088D01*
X-12328309Y-18439004D01*
X-12252655Y-18447004D01*
X-12230956Y-18451453D01*
X-12158416Y-18483067D01*
X-12082040Y-18533073D01*
X-12057774Y-18553459D01*
X-11973363Y-18630815D01*
X-11973363Y-19076640D01*
X-12058099Y-19154294D01*
G36*
X-11981800Y-18034681D02*
X-12018088Y-18124088D01*
X-12081465Y-18189103D01*
X-12163122Y-18233249D01*
X-12261774Y-18263145D01*
X-12332198Y-18256646D01*
X-12374633Y-18213722D01*
X-12378026Y-18205679D01*
X-12397695Y-18137249D01*
X-12388294Y-18097407D01*
X-12345520Y-18075762D01*
X-12322069Y-18070600D01*
X-12222254Y-18035869D01*
X-12156032Y-17979473D01*
X-12126780Y-17908108D01*
X-12137874Y-17828471D01*
X-12171312Y-17771569D01*
X-12223689Y-17725575D01*
X-12293178Y-17710869D01*
X-12303504Y-17710728D01*
X-12338572Y-17713303D01*
X-12372150Y-17724354D01*
X-12410690Y-17748866D01*
X-12460644Y-17791825D01*
X-12528462Y-17858218D01*
X-12620598Y-17953030D01*
X-12630874Y-17963720D01*
X-12745865Y-18080239D01*
X-12839264Y-18165636D01*
X-12918762Y-18224499D01*
X-12992052Y-18261415D01*
X-13066823Y-18280973D01*
X-13150767Y-18287761D01*
X-13174496Y-18288000D01*
X-13310641Y-18272981D01*
X-13413060Y-18227001D01*
X-13483093Y-18148674D01*
X-13522082Y-18036612D01*
X-13531827Y-17918546D01*
X-13525256Y-17807819D01*
X-13503601Y-17727186D01*
X-13486637Y-17694341D01*
X-13417782Y-17619799D01*
X-13316030Y-17558980D01*
X-13194234Y-17519333D01*
X-13179701Y-17516500D01*
X-13121441Y-17509496D01*
X-13090827Y-17521297D01*
X-13070884Y-17558801D01*
X-13070019Y-17561063D01*
X-13048147Y-17643139D01*
X-13056129Y-17693750D01*
X-13092805Y-17710728D01*
X-13168248Y-17723811D01*
X-13247464Y-17757041D01*
X-13312902Y-17801383D01*
X-13344137Y-17840067D01*
X-13368238Y-17931588D01*
X-13351364Y-18004255D01*
X-13296114Y-18054515D01*
X-13205089Y-18078811D01*
X-13168318Y-18080523D01*
X-13125550Y-18079797D01*
X-13090305Y-18074025D01*
X-13055679Y-18058274D01*
X-13014766Y-18027610D01*
X-12960660Y-17977100D01*
X-12886455Y-17901811D01*
X-12816181Y-17828943D01*
X-12726869Y-17738111D01*
X-12644266Y-17657698D01*
X-12575612Y-17594492D01*
X-12528146Y-17555281D01*
X-12516000Y-17547461D01*
X-12440732Y-17524786D01*
X-12343257Y-17515952D01*
X-12241908Y-17520563D01*
X-12155018Y-17538222D01*
X-12115570Y-17556118D01*
X-12036019Y-17624303D01*
X-11987868Y-17708585D01*
X-11967187Y-17818350D01*
X-11966763Y-17911312D01*
X-11981800Y-18034681D01*
X-11981800Y-18034681D01*
G37*
X-11981800Y-18034681D02*
X-12018088Y-18124088D01*
X-12081465Y-18189103D01*
X-12163122Y-18233249D01*
X-12261774Y-18263145D01*
X-12332198Y-18256646D01*
X-12374633Y-18213722D01*
X-12378026Y-18205679D01*
X-12397695Y-18137249D01*
X-12388294Y-18097407D01*
X-12345520Y-18075762D01*
X-12322069Y-18070600D01*
X-12222254Y-18035869D01*
X-12156032Y-17979473D01*
X-12126780Y-17908108D01*
X-12137874Y-17828471D01*
X-12171312Y-17771569D01*
X-12223689Y-17725575D01*
X-12293178Y-17710869D01*
X-12303504Y-17710728D01*
X-12338572Y-17713303D01*
X-12372150Y-17724354D01*
X-12410690Y-17748866D01*
X-12460644Y-17791825D01*
X-12528462Y-17858218D01*
X-12620598Y-17953030D01*
X-12630874Y-17963720D01*
X-12745865Y-18080239D01*
X-12839264Y-18165636D01*
X-12918762Y-18224499D01*
X-12992052Y-18261415D01*
X-13066823Y-18280973D01*
X-13150767Y-18287761D01*
X-13174496Y-18288000D01*
X-13310641Y-18272981D01*
X-13413060Y-18227001D01*
X-13483093Y-18148674D01*
X-13522082Y-18036612D01*
X-13531827Y-17918546D01*
X-13525256Y-17807819D01*
X-13503601Y-17727186D01*
X-13486637Y-17694341D01*
X-13417782Y-17619799D01*
X-13316030Y-17558980D01*
X-13194234Y-17519333D01*
X-13179701Y-17516500D01*
X-13121441Y-17509496D01*
X-13090827Y-17521297D01*
X-13070884Y-17558801D01*
X-13070019Y-17561063D01*
X-13048147Y-17643139D01*
X-13056129Y-17693750D01*
X-13092805Y-17710728D01*
X-13168248Y-17723811D01*
X-13247464Y-17757041D01*
X-13312902Y-17801383D01*
X-13344137Y-17840067D01*
X-13368238Y-17931588D01*
X-13351364Y-18004255D01*
X-13296114Y-18054515D01*
X-13205089Y-18078811D01*
X-13168318Y-18080523D01*
X-13125550Y-18079797D01*
X-13090305Y-18074025D01*
X-13055679Y-18058274D01*
X-13014766Y-18027610D01*
X-12960660Y-17977100D01*
X-12886455Y-17901811D01*
X-12816181Y-17828943D01*
X-12726869Y-17738111D01*
X-12644266Y-17657698D01*
X-12575612Y-17594492D01*
X-12528146Y-17555281D01*
X-12516000Y-17547461D01*
X-12440732Y-17524786D01*
X-12343257Y-17515952D01*
X-12241908Y-17520563D01*
X-12155018Y-17538222D01*
X-12115570Y-17556118D01*
X-12036019Y-17624303D01*
X-11987868Y-17708585D01*
X-11967187Y-17818350D01*
X-11966763Y-17911312D01*
X-11981800Y-18034681D01*
G36*
X-12429409Y-16889857D02*
X-12566926Y-16949334D01*
X-12690449Y-17003772D01*
X-12793520Y-17050242D01*
X-12869680Y-17085815D01*
X-12912471Y-17107563D01*
X-12918936Y-17111866D01*
X-12904575Y-17119283D01*
X-12847174Y-17125294D01*
X-12749857Y-17129756D01*
X-12615749Y-17132524D01*
X-12451345Y-17133455D01*
X-11961818Y-17133455D01*
X-11961818Y-17318182D01*
X-13532000Y-17318182D01*
X-13531855Y-17243137D01*
X-13531710Y-17168091D01*
X-13033434Y-16960273D01*
X-12891901Y-16900719D01*
X-12765057Y-16846346D01*
X-12658994Y-16799847D01*
X-12579806Y-16763915D01*
X-12533585Y-16741246D01*
X-12524216Y-16735137D01*
X-12542940Y-16730123D01*
X-12601450Y-16725680D01*
X-12693351Y-16722028D01*
X-12812249Y-16719389D01*
X-12951749Y-16717987D01*
X-13022637Y-16717818D01*
X-13532000Y-16717818D01*
X-13532000Y-16533091D01*
X-11961818Y-16533091D01*
X-11961818Y-16689437D01*
X-12429409Y-16889857D01*
X-12429409Y-16889857D01*
G37*
X-12429409Y-16889857D02*
X-12566926Y-16949334D01*
X-12690449Y-17003772D01*
X-12793520Y-17050242D01*
X-12869680Y-17085815D01*
X-12912471Y-17107563D01*
X-12918936Y-17111866D01*
X-12904575Y-17119283D01*
X-12847174Y-17125294D01*
X-12749857Y-17129756D01*
X-12615749Y-17132524D01*
X-12451345Y-17133455D01*
X-11961818Y-17133455D01*
X-11961818Y-17318182D01*
X-13532000Y-17318182D01*
X-13531855Y-17243137D01*
X-13531710Y-17168091D01*
X-13033434Y-16960273D01*
X-12891901Y-16900719D01*
X-12765057Y-16846346D01*
X-12658994Y-16799847D01*
X-12579806Y-16763915D01*
X-12533585Y-16741246D01*
X-12524216Y-16735137D01*
X-12542940Y-16730123D01*
X-12601450Y-16725680D01*
X-12693351Y-16722028D01*
X-12812249Y-16719389D01*
X-12951749Y-16717987D01*
X-13022637Y-16717818D01*
X-13532000Y-16717818D01*
X-13532000Y-16533091D01*
X-11961818Y-16533091D01*
X-11961818Y-16689437D01*
X-12429409Y-16889857D01*
G36*
X-13532000Y-16302182D02*
X-13532000Y-16094364D01*
X-11961818Y-16094364D01*
X-11961818Y-16302182D01*
X-13532000Y-16302182D01*
X-13532000Y-16302182D01*
G37*
X-13532000Y-16302182D02*
X-13532000Y-16094364D01*
X-11961818Y-16094364D01*
X-11961818Y-16302182D01*
X-13532000Y-16302182D01*
G36*
X-11966018Y-15326591D02*
X-11973998Y-15475941D01*
X-11988691Y-15587074D01*
X-12013379Y-15667824D01*
X-12051338Y-15726027D01*
X-12105849Y-15769520D01*
X-12163720Y-15799051D01*
X-12267877Y-15829625D01*
X-12378754Y-15836842D01*
X-12485472Y-15822898D01*
X-12577152Y-15789986D01*
X-12642916Y-15740302D01*
X-12667487Y-15697420D01*
X-12679475Y-15670494D01*
X-12694947Y-15676129D01*
X-12723084Y-15718156D01*
X-12725093Y-15721455D01*
X-12791268Y-15797975D01*
X-12882814Y-15846553D01*
X-13005963Y-15869837D01*
X-13081727Y-15872821D01*
X-13227981Y-15862067D01*
X-13339659Y-15826793D01*
X-13423078Y-15763933D01*
X-13480045Y-15679608D01*
X-13503575Y-15626718D01*
X-13518839Y-15572109D01*
X-13527528Y-15503945D01*
X-13531334Y-15410393D01*
X-13532000Y-15315926D01*
X-13532000Y-15055273D01*
X-12793091Y-15055273D01*
X-12793091Y-15286182D01*
X-13370363Y-15286182D01*
X-13370363Y-15391609D01*
X-13364518Y-15468051D01*
X-13349883Y-15532464D01*
X-13343501Y-15547473D01*
X-13305532Y-15601848D01*
X-13255071Y-15634699D01*
X-13180665Y-15650798D01*
X-13085723Y-15654902D01*
X-12998870Y-15653442D01*
X-12942792Y-15645028D01*
X-12902145Y-15625110D01*
X-12861586Y-15589138D01*
X-12860587Y-15588140D01*
X-12818077Y-15537358D01*
X-12798149Y-15483686D01*
X-12793093Y-15406025D01*
X-12793091Y-15403413D01*
X-12793091Y-15286182D01*
X-12793091Y-15055273D01*
X-12608363Y-15055273D01*
X-12608363Y-15286182D01*
X-12608363Y-15402686D01*
X-12602819Y-15483948D01*
X-12581989Y-15539143D01*
X-12551686Y-15575868D01*
X-12506829Y-15611035D01*
X-12452475Y-15628062D01*
X-12370638Y-15632545D01*
X-12369516Y-15632546D01*
X-12267127Y-15624070D01*
X-12199549Y-15593697D01*
X-12158592Y-15534007D01*
X-12136064Y-15437580D01*
X-12133705Y-15418955D01*
X-12118133Y-15286182D01*
X-12608363Y-15286182D01*
X-12608363Y-15055273D01*
X-11956954Y-15055273D01*
X-11966018Y-15326591D01*
X-11966018Y-15326591D01*
G37*
X-11966018Y-15326591D02*
X-11973998Y-15475941D01*
X-11988691Y-15587074D01*
X-12013379Y-15667824D01*
X-12051338Y-15726027D01*
X-12105849Y-15769520D01*
X-12163720Y-15799051D01*
X-12267877Y-15829625D01*
X-12378754Y-15836842D01*
X-12485472Y-15822898D01*
X-12577152Y-15789986D01*
X-12642916Y-15740302D01*
X-12667487Y-15697420D01*
X-12679475Y-15670494D01*
X-12694947Y-15676129D01*
X-12723084Y-15718156D01*
X-12725093Y-15721455D01*
X-12791268Y-15797975D01*
X-12882814Y-15846553D01*
X-13005963Y-15869837D01*
X-13081727Y-15872821D01*
X-13227981Y-15862067D01*
X-13339659Y-15826793D01*
X-13423078Y-15763933D01*
X-13480045Y-15679608D01*
X-13503575Y-15626718D01*
X-13518839Y-15572109D01*
X-13527528Y-15503945D01*
X-13531334Y-15410393D01*
X-13532000Y-15315926D01*
X-13532000Y-15055273D01*
X-12793091Y-15055273D01*
X-12793091Y-15286182D01*
X-13370363Y-15286182D01*
X-13370363Y-15391609D01*
X-13364518Y-15468051D01*
X-13349883Y-15532464D01*
X-13343501Y-15547473D01*
X-13305532Y-15601848D01*
X-13255071Y-15634699D01*
X-13180665Y-15650798D01*
X-13085723Y-15654902D01*
X-12998870Y-15653442D01*
X-12942792Y-15645028D01*
X-12902145Y-15625110D01*
X-12861586Y-15589138D01*
X-12860587Y-15588140D01*
X-12818077Y-15537358D01*
X-12798149Y-15483686D01*
X-12793093Y-15406025D01*
X-12793091Y-15403413D01*
X-12793091Y-15286182D01*
X-12793091Y-15055273D01*
X-12608363Y-15055273D01*
X-12608363Y-15286182D01*
X-12608363Y-15402686D01*
X-12602819Y-15483948D01*
X-12581989Y-15539143D01*
X-12551686Y-15575868D01*
X-12506829Y-15611035D01*
X-12452475Y-15628062D01*
X-12370638Y-15632545D01*
X-12369516Y-15632546D01*
X-12267127Y-15624070D01*
X-12199549Y-15593697D01*
X-12158592Y-15534007D01*
X-12136064Y-15437580D01*
X-12133705Y-15418955D01*
X-12118133Y-15286182D01*
X-12608363Y-15286182D01*
X-12608363Y-15055273D01*
X-11956954Y-15055273D01*
X-11966018Y-15326591D01*
G36*
X-12058099Y-14720839D02*
X-12108142Y-14762178D01*
X-12161109Y-14793825D01*
X-12223634Y-14816872D01*
X-12302354Y-14832411D01*
X-12403904Y-14841533D01*
X-12534919Y-14845331D01*
X-12702034Y-14844896D01*
X-12802965Y-14843403D01*
X-12975023Y-14839779D01*
X-13107908Y-14834607D01*
X-13208629Y-14826339D01*
X-13284195Y-14813428D01*
X-13341615Y-14794325D01*
X-13387897Y-14767482D01*
X-13430052Y-14731353D01*
X-13462727Y-14697711D01*
X-13492247Y-14660646D01*
X-13510334Y-14618554D01*
X-13520253Y-14558481D01*
X-13525274Y-14467471D01*
X-13525896Y-14447290D01*
X-13526012Y-14352534D01*
X-13521429Y-14270962D01*
X-13513091Y-14217350D01*
X-13510760Y-14210571D01*
X-13464883Y-14145880D01*
X-13390492Y-14082534D01*
X-13303871Y-14033090D01*
X-13259964Y-14017198D01*
X-13202688Y-14008317D01*
X-13109021Y-14001573D01*
X-12988704Y-13996957D01*
X-12851479Y-13994463D01*
X-12749774Y-13994196D01*
X-12749774Y-14235546D01*
X-12919723Y-14235644D01*
X-13049506Y-14236317D01*
X-13145137Y-14238135D01*
X-13212630Y-14241666D01*
X-13258001Y-14247478D01*
X-13287264Y-14256142D01*
X-13306434Y-14268224D01*
X-13321526Y-14284295D01*
X-13326222Y-14290058D01*
X-13358137Y-14353008D01*
X-13370363Y-14420273D01*
X-13356639Y-14491955D01*
X-13326222Y-14550488D01*
X-13311177Y-14567884D01*
X-13293883Y-14581119D01*
X-13268325Y-14590761D01*
X-13228488Y-14597380D01*
X-13168357Y-14601545D01*
X-13081917Y-14603823D01*
X-12963154Y-14604784D01*
X-12806052Y-14604997D01*
X-12749774Y-14605000D01*
X-12565633Y-14604698D01*
X-12422507Y-14602756D01*
X-12315229Y-14597623D01*
X-12238631Y-14587744D01*
X-12187547Y-14571569D01*
X-12156808Y-14547543D01*
X-12141249Y-14514115D01*
X-12135702Y-14469732D01*
X-12135000Y-14420273D01*
X-12136005Y-14364942D01*
X-12142467Y-14321936D01*
X-12159552Y-14289701D01*
X-12192427Y-14266685D01*
X-12246260Y-14251335D01*
X-12326217Y-14242099D01*
X-12437466Y-14237424D01*
X-12585174Y-14235757D01*
X-12749774Y-14235546D01*
X-12749774Y-13994196D01*
X-12707085Y-13994083D01*
X-12565265Y-13995809D01*
X-12435759Y-13999634D01*
X-12328309Y-14005550D01*
X-12252655Y-14013549D01*
X-12230956Y-14017998D01*
X-12158416Y-14049612D01*
X-12082040Y-14099618D01*
X-12057774Y-14120004D01*
X-11973363Y-14197361D01*
X-11973363Y-14643185D01*
X-12058099Y-14720839D01*
X-12058099Y-14720839D01*
G37*
X-12058099Y-14720839D02*
X-12108142Y-14762178D01*
X-12161109Y-14793825D01*
X-12223634Y-14816872D01*
X-12302354Y-14832411D01*
X-12403904Y-14841533D01*
X-12534919Y-14845331D01*
X-12702034Y-14844896D01*
X-12802965Y-14843403D01*
X-12975023Y-14839779D01*
X-13107908Y-14834607D01*
X-13208629Y-14826339D01*
X-13284195Y-14813428D01*
X-13341615Y-14794325D01*
X-13387897Y-14767482D01*
X-13430052Y-14731353D01*
X-13462727Y-14697711D01*
X-13492247Y-14660646D01*
X-13510334Y-14618554D01*
X-13520253Y-14558481D01*
X-13525274Y-14467471D01*
X-13525896Y-14447290D01*
X-13526012Y-14352534D01*
X-13521429Y-14270962D01*
X-13513091Y-14217350D01*
X-13510760Y-14210571D01*
X-13464883Y-14145880D01*
X-13390492Y-14082534D01*
X-13303871Y-14033090D01*
X-13259964Y-14017198D01*
X-13202688Y-14008317D01*
X-13109021Y-14001573D01*
X-12988704Y-13996957D01*
X-12851479Y-13994463D01*
X-12749774Y-13994196D01*
X-12749774Y-14235546D01*
X-12919723Y-14235644D01*
X-13049506Y-14236317D01*
X-13145137Y-14238135D01*
X-13212630Y-14241666D01*
X-13258001Y-14247478D01*
X-13287264Y-14256142D01*
X-13306434Y-14268224D01*
X-13321526Y-14284295D01*
X-13326222Y-14290058D01*
X-13358137Y-14353008D01*
X-13370363Y-14420273D01*
X-13356639Y-14491955D01*
X-13326222Y-14550488D01*
X-13311177Y-14567884D01*
X-13293883Y-14581119D01*
X-13268325Y-14590761D01*
X-13228488Y-14597380D01*
X-13168357Y-14601545D01*
X-13081917Y-14603823D01*
X-12963154Y-14604784D01*
X-12806052Y-14604997D01*
X-12749774Y-14605000D01*
X-12565633Y-14604698D01*
X-12422507Y-14602756D01*
X-12315229Y-14597623D01*
X-12238631Y-14587744D01*
X-12187547Y-14571569D01*
X-12156808Y-14547543D01*
X-12141249Y-14514115D01*
X-12135702Y-14469732D01*
X-12135000Y-14420273D01*
X-12136005Y-14364942D01*
X-12142467Y-14321936D01*
X-12159552Y-14289701D01*
X-12192427Y-14266685D01*
X-12246260Y-14251335D01*
X-12326217Y-14242099D01*
X-12437466Y-14237424D01*
X-12585174Y-14235757D01*
X-12749774Y-14235546D01*
X-12749774Y-13994196D01*
X-12707085Y-13994083D01*
X-12565265Y-13995809D01*
X-12435759Y-13999634D01*
X-12328309Y-14005550D01*
X-12252655Y-14013549D01*
X-12230956Y-14017998D01*
X-12158416Y-14049612D01*
X-12082040Y-14099618D01*
X-12057774Y-14120004D01*
X-11973363Y-14197361D01*
X-11973363Y-14643185D01*
X-12058099Y-14720839D01*
G36*
X-11966019Y-13284858D02*
X-11975196Y-13431013D01*
X-11992094Y-13540478D01*
X-12020009Y-13622532D01*
X-12062237Y-13686455D01*
X-12122076Y-13741527D01*
X-12130513Y-13747919D01*
X-12174780Y-13774024D01*
X-12229066Y-13788783D01*
X-12307120Y-13794893D01*
X-12372968Y-13795525D01*
X-12497362Y-13789487D01*
X-12588490Y-13769735D01*
X-12658263Y-13732138D01*
X-12714962Y-13676904D01*
X-12763833Y-13619067D01*
X-13107507Y-13715391D01*
X-13229580Y-13749614D01*
X-13338201Y-13780084D01*
X-13424524Y-13804318D01*
X-13479702Y-13819831D01*
X-13492937Y-13823568D01*
X-13517734Y-13825278D01*
X-13528629Y-13804953D01*
X-13529170Y-13752459D01*
X-13527573Y-13724658D01*
X-13520454Y-13613894D01*
X-13220272Y-13530259D01*
X-13103433Y-13497841D01*
X-12997644Y-13468735D01*
X-12913455Y-13445828D01*
X-12861419Y-13432005D01*
X-12856591Y-13430782D01*
X-12812800Y-13412512D01*
X-12795444Y-13376805D01*
X-12793091Y-13334560D01*
X-12793091Y-13254182D01*
X-13532000Y-13254182D01*
X-13532000Y-13023273D01*
X-12631454Y-13023273D01*
X-12631454Y-13254182D01*
X-12631454Y-13359141D01*
X-12623526Y-13440400D01*
X-12594873Y-13498294D01*
X-12574776Y-13520777D01*
X-12533224Y-13554212D01*
X-12483855Y-13571405D01*
X-12410090Y-13577209D01*
X-12381062Y-13577455D01*
X-12271449Y-13569277D01*
X-12198322Y-13540756D01*
X-12154276Y-13485909D01*
X-12131903Y-13398757D01*
X-12129086Y-13373941D01*
X-12117578Y-13254182D01*
X-12631454Y-13254182D01*
X-12631454Y-13023273D01*
X-11956006Y-13023273D01*
X-11966019Y-13284858D01*
X-11966019Y-13284858D01*
G37*
X-11966019Y-13284858D02*
X-11975196Y-13431013D01*
X-11992094Y-13540478D01*
X-12020009Y-13622532D01*
X-12062237Y-13686455D01*
X-12122076Y-13741527D01*
X-12130513Y-13747919D01*
X-12174780Y-13774024D01*
X-12229066Y-13788783D01*
X-12307120Y-13794893D01*
X-12372968Y-13795525D01*
X-12497362Y-13789487D01*
X-12588490Y-13769735D01*
X-12658263Y-13732138D01*
X-12714962Y-13676904D01*
X-12763833Y-13619067D01*
X-13107507Y-13715391D01*
X-13229580Y-13749614D01*
X-13338201Y-13780084D01*
X-13424524Y-13804318D01*
X-13479702Y-13819831D01*
X-13492937Y-13823568D01*
X-13517734Y-13825278D01*
X-13528629Y-13804953D01*
X-13529170Y-13752459D01*
X-13527573Y-13724658D01*
X-13520454Y-13613894D01*
X-13220272Y-13530259D01*
X-13103433Y-13497841D01*
X-12997644Y-13468735D01*
X-12913455Y-13445828D01*
X-12861419Y-13432005D01*
X-12856591Y-13430782D01*
X-12812800Y-13412512D01*
X-12795444Y-13376805D01*
X-12793091Y-13334560D01*
X-12793091Y-13254182D01*
X-13532000Y-13254182D01*
X-13532000Y-13023273D01*
X-12631454Y-13023273D01*
X-12631454Y-13254182D01*
X-12631454Y-13359141D01*
X-12623526Y-13440400D01*
X-12594873Y-13498294D01*
X-12574776Y-13520777D01*
X-12533224Y-13554212D01*
X-12483855Y-13571405D01*
X-12410090Y-13577209D01*
X-12381062Y-13577455D01*
X-12271449Y-13569277D01*
X-12198322Y-13540756D01*
X-12154276Y-13485909D01*
X-12131903Y-13398757D01*
X-12129086Y-13373941D01*
X-12117578Y-13254182D01*
X-12631454Y-13254182D01*
X-12631454Y-13023273D01*
X-11956006Y-13023273D01*
X-11966019Y-13284858D01*
G36*
X-12429409Y-12364039D02*
X-12566926Y-12423516D01*
X-12690449Y-12477953D01*
X-12793520Y-12524424D01*
X-12869680Y-12559997D01*
X-12912471Y-12581745D01*
X-12918936Y-12586048D01*
X-12904575Y-12593464D01*
X-12847174Y-12599476D01*
X-12749857Y-12603937D01*
X-12615749Y-12606706D01*
X-12451345Y-12607637D01*
X-11961818Y-12607637D01*
X-11961818Y-12792364D01*
X-13532000Y-12792364D01*
X-13531855Y-12717318D01*
X-13531710Y-12642273D01*
X-13033434Y-12434455D01*
X-12891859Y-12374858D01*
X-12764940Y-12320384D01*
X-12658780Y-12273736D01*
X-12579481Y-12237619D01*
X-12533145Y-12214739D01*
X-12523711Y-12208501D01*
X-12542260Y-12203342D01*
X-12600570Y-12198996D01*
X-12692225Y-12195663D01*
X-12810807Y-12193546D01*
X-12949901Y-12192845D01*
X-13016359Y-12193039D01*
X-13520454Y-12195712D01*
X-13527555Y-12101492D01*
X-13534655Y-12007273D01*
X-11961818Y-12007273D01*
X-11961818Y-12163619D01*
X-12429409Y-12364039D01*
X-12429409Y-12364039D01*
G37*
X-12429409Y-12364039D02*
X-12566926Y-12423516D01*
X-12690449Y-12477953D01*
X-12793520Y-12524424D01*
X-12869680Y-12559997D01*
X-12912471Y-12581745D01*
X-12918936Y-12586048D01*
X-12904575Y-12593464D01*
X-12847174Y-12599476D01*
X-12749857Y-12603937D01*
X-12615749Y-12606706D01*
X-12451345Y-12607637D01*
X-11961818Y-12607637D01*
X-11961818Y-12792364D01*
X-13532000Y-12792364D01*
X-13531855Y-12717318D01*
X-13531710Y-12642273D01*
X-13033434Y-12434455D01*
X-12891859Y-12374858D01*
X-12764940Y-12320384D01*
X-12658780Y-12273736D01*
X-12579481Y-12237619D01*
X-12533145Y-12214739D01*
X-12523711Y-12208501D01*
X-12542260Y-12203342D01*
X-12600570Y-12198996D01*
X-12692225Y-12195663D01*
X-12810807Y-12193546D01*
X-12949901Y-12192845D01*
X-13016359Y-12193039D01*
X-13520454Y-12195712D01*
X-13527555Y-12101492D01*
X-13534655Y-12007273D01*
X-11961818Y-12007273D01*
X-11961818Y-12163619D01*
X-12429409Y-12364039D01*
G36*
X-11967203Y-11488023D02*
X-11985960Y-11523335D01*
X-12002227Y-11531771D01*
X-12039349Y-11541067D01*
X-12113710Y-11557934D01*
X-12218674Y-11580978D01*
X-12347602Y-11608808D01*
X-12493857Y-11640031D01*
X-12650802Y-11673253D01*
X-12811799Y-11707082D01*
X-12970211Y-11740127D01*
X-13119400Y-11770993D01*
X-13252728Y-11798289D01*
X-13363560Y-11820621D01*
X-13445256Y-11836598D01*
X-13491180Y-11844826D01*
X-13498147Y-11845637D01*
X-13521001Y-11830638D01*
X-13531026Y-11780840D01*
X-13532000Y-11745278D01*
X-13532000Y-11644919D01*
X-13151000Y-11580091D01*
X-13144030Y-11432103D01*
X-13144068Y-11337747D01*
X-13154278Y-11280913D01*
X-13163906Y-11267523D01*
X-13198645Y-11255744D01*
X-13265382Y-11240060D01*
X-13350478Y-11223633D01*
X-13361376Y-11221744D01*
X-13532000Y-11192558D01*
X-13532000Y-11091916D01*
X-13526800Y-11023599D01*
X-13509747Y-10993851D01*
X-13498721Y-10991273D01*
X-13469799Y-10995897D01*
X-13402353Y-11008843D01*
X-13303009Y-11028718D01*
X-13178394Y-11054133D01*
X-13035134Y-11083696D01*
X-12955312Y-11100309D01*
X-12955312Y-11298832D01*
X-12970832Y-11312593D01*
X-12976855Y-11353469D01*
X-12977818Y-11420518D01*
X-12976529Y-11493855D01*
X-12969708Y-11531063D01*
X-12952924Y-11542182D01*
X-12925863Y-11538234D01*
X-12883245Y-11529294D01*
X-12806361Y-11514161D01*
X-12706363Y-11495000D01*
X-12601459Y-11475287D01*
X-12497036Y-11455213D01*
X-12412297Y-11437711D01*
X-12355735Y-11424623D01*
X-12335844Y-11417790D01*
X-12335914Y-11417689D01*
X-12359987Y-11411083D01*
X-12420309Y-11398246D01*
X-12507664Y-11381054D01*
X-12608363Y-11362204D01*
X-12718621Y-11341854D01*
X-12816244Y-11323530D01*
X-12889861Y-11309387D01*
X-12925863Y-11302085D01*
X-12955312Y-11298832D01*
X-12955312Y-11100309D01*
X-12879853Y-11116015D01*
X-12719179Y-11149701D01*
X-12559736Y-11183361D01*
X-12408150Y-11215604D01*
X-12271048Y-11245041D01*
X-12155056Y-11270278D01*
X-12066798Y-11289926D01*
X-12012901Y-11302594D01*
X-12002227Y-11305461D01*
X-11975047Y-11326969D01*
X-11963210Y-11376971D01*
X-11961818Y-11418455D01*
X-11967203Y-11488023D01*
X-11967203Y-11488023D01*
G37*
X-11967203Y-11488023D02*
X-11985960Y-11523335D01*
X-12002227Y-11531771D01*
X-12039349Y-11541067D01*
X-12113710Y-11557934D01*
X-12218674Y-11580978D01*
X-12347602Y-11608808D01*
X-12493857Y-11640031D01*
X-12650802Y-11673253D01*
X-12811799Y-11707082D01*
X-12970211Y-11740127D01*
X-13119400Y-11770993D01*
X-13252728Y-11798289D01*
X-13363560Y-11820621D01*
X-13445256Y-11836598D01*
X-13491180Y-11844826D01*
X-13498147Y-11845637D01*
X-13521001Y-11830638D01*
X-13531026Y-11780840D01*
X-13532000Y-11745278D01*
X-13532000Y-11644919D01*
X-13151000Y-11580091D01*
X-13144030Y-11432103D01*
X-13144068Y-11337747D01*
X-13154278Y-11280913D01*
X-13163906Y-11267523D01*
X-13198645Y-11255744D01*
X-13265382Y-11240060D01*
X-13350478Y-11223633D01*
X-13361376Y-11221744D01*
X-13532000Y-11192558D01*
X-13532000Y-11091916D01*
X-13526800Y-11023599D01*
X-13509747Y-10993851D01*
X-13498721Y-10991273D01*
X-13469799Y-10995897D01*
X-13402353Y-11008843D01*
X-13303009Y-11028718D01*
X-13178394Y-11054133D01*
X-13035134Y-11083696D01*
X-12955312Y-11100309D01*
X-12955312Y-11298832D01*
X-12970832Y-11312593D01*
X-12976855Y-11353469D01*
X-12977818Y-11420518D01*
X-12976529Y-11493855D01*
X-12969708Y-11531063D01*
X-12952924Y-11542182D01*
X-12925863Y-11538234D01*
X-12883245Y-11529294D01*
X-12806361Y-11514161D01*
X-12706363Y-11495000D01*
X-12601459Y-11475287D01*
X-12497036Y-11455213D01*
X-12412297Y-11437711D01*
X-12355735Y-11424623D01*
X-12335844Y-11417790D01*
X-12335914Y-11417689D01*
X-12359987Y-11411083D01*
X-12420309Y-11398246D01*
X-12507664Y-11381054D01*
X-12608363Y-11362204D01*
X-12718621Y-11341854D01*
X-12816244Y-11323530D01*
X-12889861Y-11309387D01*
X-12925863Y-11302085D01*
X-12955312Y-11298832D01*
X-12955312Y-11100309D01*
X-12879853Y-11116015D01*
X-12719179Y-11149701D01*
X-12559736Y-11183361D01*
X-12408150Y-11215604D01*
X-12271048Y-11245041D01*
X-12155056Y-11270278D01*
X-12066798Y-11289926D01*
X-12012901Y-11302594D01*
X-12002227Y-11305461D01*
X-11975047Y-11326969D01*
X-11963210Y-11376971D01*
X-11961818Y-11418455D01*
X-11967203Y-11488023D01*
G36*
X-12123454Y-10968182D02*
X-12123454Y-10691091D01*
X-13532000Y-10691091D01*
X-13532000Y-10460182D01*
X-12123454Y-10460182D01*
X-12123454Y-10183091D01*
X-11961818Y-10183091D01*
X-11961818Y-10968182D01*
X-12123454Y-10968182D01*
X-12123454Y-10968182D01*
G37*
X-12123454Y-10968182D02*
X-12123454Y-10691091D01*
X-13532000Y-10691091D01*
X-13532000Y-10460182D01*
X-12123454Y-10460182D01*
X-12123454Y-10183091D01*
X-11961818Y-10183091D01*
X-11961818Y-10968182D01*
X-12123454Y-10968182D01*
G36*
X-11981800Y-9883590D02*
X-12018088Y-9972997D01*
X-12081465Y-10038012D01*
X-12163122Y-10082158D01*
X-12261774Y-10112054D01*
X-12332198Y-10105555D01*
X-12374633Y-10062631D01*
X-12378026Y-10054588D01*
X-12397695Y-9986158D01*
X-12388294Y-9946316D01*
X-12345520Y-9924671D01*
X-12322069Y-9919509D01*
X-12222254Y-9884778D01*
X-12156032Y-9828382D01*
X-12126780Y-9757018D01*
X-12137874Y-9677380D01*
X-12171312Y-9620478D01*
X-12223689Y-9574484D01*
X-12293178Y-9559778D01*
X-12303504Y-9559637D01*
X-12338572Y-9562212D01*
X-12372150Y-9573263D01*
X-12410690Y-9597775D01*
X-12460644Y-9640735D01*
X-12528462Y-9707127D01*
X-12620598Y-9801939D01*
X-12630874Y-9812629D01*
X-12746655Y-9929828D01*
X-12840961Y-10015798D01*
X-12921428Y-10075163D01*
X-12995695Y-10112544D01*
X-13071399Y-10132563D01*
X-13156176Y-10139841D01*
X-13172080Y-10140145D01*
X-13307486Y-10125620D01*
X-13410697Y-10078147D01*
X-13482115Y-9997311D01*
X-13522140Y-9882696D01*
X-13531827Y-9767455D01*
X-13525256Y-9656728D01*
X-13503601Y-9576095D01*
X-13486637Y-9543250D01*
X-13417782Y-9468708D01*
X-13316030Y-9407889D01*
X-13194234Y-9368242D01*
X-13179701Y-9365409D01*
X-13121441Y-9358405D01*
X-13090827Y-9370206D01*
X-13070884Y-9407710D01*
X-13070019Y-9409972D01*
X-13048147Y-9492048D01*
X-13056129Y-9542660D01*
X-13092805Y-9559637D01*
X-13168248Y-9572720D01*
X-13247464Y-9605950D01*
X-13312902Y-9650292D01*
X-13344137Y-9688976D01*
X-13368238Y-9780497D01*
X-13351364Y-9853165D01*
X-13296114Y-9903424D01*
X-13205089Y-9927720D01*
X-13168318Y-9929433D01*
X-13125550Y-9928706D01*
X-13090305Y-9922934D01*
X-13055679Y-9907183D01*
X-13014766Y-9876519D01*
X-12960660Y-9826009D01*
X-12886455Y-9750720D01*
X-12816181Y-9677852D01*
X-12726869Y-9587020D01*
X-12644266Y-9506607D01*
X-12575612Y-9443401D01*
X-12528146Y-9404190D01*
X-12516000Y-9396370D01*
X-12440732Y-9373695D01*
X-12343257Y-9364861D01*
X-12241908Y-9369472D01*
X-12155018Y-9387131D01*
X-12115570Y-9405028D01*
X-12036019Y-9473212D01*
X-11987868Y-9557494D01*
X-11967187Y-9667259D01*
X-11966763Y-9760221D01*
X-11981800Y-9883590D01*
X-11981800Y-9883590D01*
G37*
X-11981800Y-9883590D02*
X-12018088Y-9972997D01*
X-12081465Y-10038012D01*
X-12163122Y-10082158D01*
X-12261774Y-10112054D01*
X-12332198Y-10105555D01*
X-12374633Y-10062631D01*
X-12378026Y-10054588D01*
X-12397695Y-9986158D01*
X-12388294Y-9946316D01*
X-12345520Y-9924671D01*
X-12322069Y-9919509D01*
X-12222254Y-9884778D01*
X-12156032Y-9828382D01*
X-12126780Y-9757018D01*
X-12137874Y-9677380D01*
X-12171312Y-9620478D01*
X-12223689Y-9574484D01*
X-12293178Y-9559778D01*
X-12303504Y-9559637D01*
X-12338572Y-9562212D01*
X-12372150Y-9573263D01*
X-12410690Y-9597775D01*
X-12460644Y-9640735D01*
X-12528462Y-9707127D01*
X-12620598Y-9801939D01*
X-12630874Y-9812629D01*
X-12746655Y-9929828D01*
X-12840961Y-10015798D01*
X-12921428Y-10075163D01*
X-12995695Y-10112544D01*
X-13071399Y-10132563D01*
X-13156176Y-10139841D01*
X-13172080Y-10140145D01*
X-13307486Y-10125620D01*
X-13410697Y-10078147D01*
X-13482115Y-9997311D01*
X-13522140Y-9882696D01*
X-13531827Y-9767455D01*
X-13525256Y-9656728D01*
X-13503601Y-9576095D01*
X-13486637Y-9543250D01*
X-13417782Y-9468708D01*
X-13316030Y-9407889D01*
X-13194234Y-9368242D01*
X-13179701Y-9365409D01*
X-13121441Y-9358405D01*
X-13090827Y-9370206D01*
X-13070884Y-9407710D01*
X-13070019Y-9409972D01*
X-13048147Y-9492048D01*
X-13056129Y-9542660D01*
X-13092805Y-9559637D01*
X-13168248Y-9572720D01*
X-13247464Y-9605950D01*
X-13312902Y-9650292D01*
X-13344137Y-9688976D01*
X-13368238Y-9780497D01*
X-13351364Y-9853165D01*
X-13296114Y-9903424D01*
X-13205089Y-9927720D01*
X-13168318Y-9929433D01*
X-13125550Y-9928706D01*
X-13090305Y-9922934D01*
X-13055679Y-9907183D01*
X-13014766Y-9876519D01*
X-12960660Y-9826009D01*
X-12886455Y-9750720D01*
X-12816181Y-9677852D01*
X-12726869Y-9587020D01*
X-12644266Y-9506607D01*
X-12575612Y-9443401D01*
X-12528146Y-9404190D01*
X-12516000Y-9396370D01*
X-12440732Y-9373695D01*
X-12343257Y-9364861D01*
X-12241908Y-9369472D01*
X-12155018Y-9387131D01*
X-12115570Y-9405028D01*
X-12036019Y-9473212D01*
X-11987868Y-9557494D01*
X-11967187Y-9667259D01*
X-11966763Y-9760221D01*
X-11981800Y-9883590D01*
G36*
X-13532000Y-9144000D02*
X-13532000Y-8936182D01*
X-11961818Y-8936182D01*
X-11961818Y-9144000D01*
X-13532000Y-9144000D01*
X-13532000Y-9144000D01*
G37*
X-13532000Y-9144000D02*
X-13532000Y-8936182D01*
X-11961818Y-8936182D01*
X-11961818Y-9144000D01*
X-13532000Y-9144000D01*
G36*
X-11966019Y-8181767D02*
X-11975196Y-8327922D01*
X-11992094Y-8437387D01*
X-12020009Y-8519441D01*
X-12062237Y-8583364D01*
X-12122076Y-8638436D01*
X-12130513Y-8644828D01*
X-12174780Y-8670934D01*
X-12229066Y-8685692D01*
X-12307120Y-8691803D01*
X-12372968Y-8692434D01*
X-12497362Y-8686396D01*
X-12588490Y-8666644D01*
X-12658263Y-8629047D01*
X-12714962Y-8573813D01*
X-12763833Y-8515976D01*
X-13107507Y-8612300D01*
X-13229580Y-8646523D01*
X-13338201Y-8676993D01*
X-13424524Y-8701227D01*
X-13479702Y-8716740D01*
X-13492937Y-8720477D01*
X-13517734Y-8722187D01*
X-13528629Y-8701862D01*
X-13529170Y-8649368D01*
X-13527573Y-8621567D01*
X-13520454Y-8510803D01*
X-13220272Y-8427169D01*
X-13103433Y-8394750D01*
X-12997644Y-8365644D01*
X-12913455Y-8342737D01*
X-12861419Y-8328914D01*
X-12856591Y-8327691D01*
X-12812800Y-8309421D01*
X-12795444Y-8273714D01*
X-12793091Y-8231469D01*
X-12793091Y-8151091D01*
X-13532000Y-8151091D01*
X-13532000Y-7920182D01*
X-12631454Y-7920182D01*
X-12631454Y-8151091D01*
X-12631454Y-8256050D01*
X-12623526Y-8337309D01*
X-12594873Y-8395203D01*
X-12574776Y-8417686D01*
X-12533224Y-8451121D01*
X-12483855Y-8468314D01*
X-12410090Y-8474118D01*
X-12381062Y-8474364D01*
X-12271449Y-8466186D01*
X-12198322Y-8437665D01*
X-12154276Y-8382819D01*
X-12131903Y-8295666D01*
X-12129086Y-8270851D01*
X-12117578Y-8151091D01*
X-12631454Y-8151091D01*
X-12631454Y-7920182D01*
X-11956006Y-7920182D01*
X-11966019Y-8181767D01*
X-11966019Y-8181767D01*
G37*
X-11966019Y-8181767D02*
X-11975196Y-8327922D01*
X-11992094Y-8437387D01*
X-12020009Y-8519441D01*
X-12062237Y-8583364D01*
X-12122076Y-8638436D01*
X-12130513Y-8644828D01*
X-12174780Y-8670934D01*
X-12229066Y-8685692D01*
X-12307120Y-8691803D01*
X-12372968Y-8692434D01*
X-12497362Y-8686396D01*
X-12588490Y-8666644D01*
X-12658263Y-8629047D01*
X-12714962Y-8573813D01*
X-12763833Y-8515976D01*
X-13107507Y-8612300D01*
X-13229580Y-8646523D01*
X-13338201Y-8676993D01*
X-13424524Y-8701227D01*
X-13479702Y-8716740D01*
X-13492937Y-8720477D01*
X-13517734Y-8722187D01*
X-13528629Y-8701862D01*
X-13529170Y-8649368D01*
X-13527573Y-8621567D01*
X-13520454Y-8510803D01*
X-13220272Y-8427169D01*
X-13103433Y-8394750D01*
X-12997644Y-8365644D01*
X-12913455Y-8342737D01*
X-12861419Y-8328914D01*
X-12856591Y-8327691D01*
X-12812800Y-8309421D01*
X-12795444Y-8273714D01*
X-12793091Y-8231469D01*
X-12793091Y-8151091D01*
X-13532000Y-8151091D01*
X-13532000Y-7920182D01*
X-12631454Y-7920182D01*
X-12631454Y-8151091D01*
X-12631454Y-8256050D01*
X-12623526Y-8337309D01*
X-12594873Y-8395203D01*
X-12574776Y-8417686D01*
X-12533224Y-8451121D01*
X-12483855Y-8468314D01*
X-12410090Y-8474118D01*
X-12381062Y-8474364D01*
X-12271449Y-8466186D01*
X-12198322Y-8437665D01*
X-12154276Y-8382819D01*
X-12131903Y-8295666D01*
X-12129086Y-8270851D01*
X-12117578Y-8151091D01*
X-12631454Y-8151091D01*
X-12631454Y-7920182D01*
X-11956006Y-7920182D01*
X-11966019Y-8181767D01*
G36*
X-12123454Y-7804728D02*
X-12123454Y-7527637D01*
X-13532000Y-7527637D01*
X-13532000Y-7296728D01*
X-12123454Y-7296728D01*
X-12123454Y-7019637D01*
X-11961818Y-7019637D01*
X-11961818Y-7804728D01*
X-12123454Y-7804728D01*
X-12123454Y-7804728D01*
G37*
X-12123454Y-7804728D02*
X-12123454Y-7527637D01*
X-13532000Y-7527637D01*
X-13532000Y-7296728D01*
X-12123454Y-7296728D01*
X-12123454Y-7019637D01*
X-11961818Y-7019637D01*
X-11961818Y-7804728D01*
X-12123454Y-7804728D01*
G36*
X-12429409Y-4859494D02*
X-12566926Y-4918970D01*
X-12690449Y-4973408D01*
X-12793520Y-5019878D01*
X-12869680Y-5055452D01*
X-12912471Y-5077199D01*
X-12918936Y-5081503D01*
X-12904575Y-5088919D01*
X-12847174Y-5094930D01*
X-12749857Y-5099392D01*
X-12615749Y-5102160D01*
X-12451345Y-5103091D01*
X-11961818Y-5103091D01*
X-11961818Y-5287818D01*
X-13532000Y-5287818D01*
X-13531710Y-5137728D01*
X-13033434Y-4929909D01*
X-12891859Y-4870313D01*
X-12764940Y-4815838D01*
X-12658780Y-4769190D01*
X-12579481Y-4733073D01*
X-12533145Y-4710194D01*
X-12523711Y-4703956D01*
X-12542260Y-4698797D01*
X-12600570Y-4694450D01*
X-12692225Y-4691118D01*
X-12810807Y-4689000D01*
X-12949901Y-4688299D01*
X-13016359Y-4688493D01*
X-13520454Y-4691167D01*
X-13527555Y-4596947D01*
X-13534655Y-4502728D01*
X-11961818Y-4502728D01*
X-11961818Y-4659073D01*
X-12429409Y-4859494D01*
X-12429409Y-4859494D01*
G37*
X-12429409Y-4859494D02*
X-12566926Y-4918970D01*
X-12690449Y-4973408D01*
X-12793520Y-5019878D01*
X-12869680Y-5055452D01*
X-12912471Y-5077199D01*
X-12918936Y-5081503D01*
X-12904575Y-5088919D01*
X-12847174Y-5094930D01*
X-12749857Y-5099392D01*
X-12615749Y-5102160D01*
X-12451345Y-5103091D01*
X-11961818Y-5103091D01*
X-11961818Y-5287818D01*
X-13532000Y-5287818D01*
X-13531710Y-5137728D01*
X-13033434Y-4929909D01*
X-12891859Y-4870313D01*
X-12764940Y-4815838D01*
X-12658780Y-4769190D01*
X-12579481Y-4733073D01*
X-12533145Y-4710194D01*
X-12523711Y-4703956D01*
X-12542260Y-4698797D01*
X-12600570Y-4694450D01*
X-12692225Y-4691118D01*
X-12810807Y-4689000D01*
X-12949901Y-4688299D01*
X-13016359Y-4688493D01*
X-13520454Y-4691167D01*
X-13527555Y-4596947D01*
X-13534655Y-4502728D01*
X-11961818Y-4502728D01*
X-11961818Y-4659073D01*
X-12429409Y-4859494D01*
G36*
X-12058099Y-4191385D02*
X-12108142Y-4232724D01*
X-12161109Y-4264370D01*
X-12223634Y-4287417D01*
X-12302354Y-4302956D01*
X-12403904Y-4312079D01*
X-12534919Y-4315877D01*
X-12702034Y-4315442D01*
X-12802965Y-4313948D01*
X-12975023Y-4310324D01*
X-13107908Y-4305152D01*
X-13208629Y-4296885D01*
X-13284195Y-4283973D01*
X-13341615Y-4264870D01*
X-13387897Y-4238028D01*
X-13430052Y-4201899D01*
X-13462727Y-4168257D01*
X-13492247Y-4131192D01*
X-13510334Y-4089100D01*
X-13520253Y-4029026D01*
X-13525274Y-3938016D01*
X-13525896Y-3917836D01*
X-13526012Y-3823079D01*
X-13521429Y-3741507D01*
X-13513091Y-3687896D01*
X-13510760Y-3681117D01*
X-13464883Y-3616425D01*
X-13390492Y-3553079D01*
X-13303871Y-3503636D01*
X-13259964Y-3487744D01*
X-13202688Y-3478863D01*
X-13109021Y-3472118D01*
X-12988704Y-3467502D01*
X-12851479Y-3465008D01*
X-12749774Y-3464741D01*
X-12749774Y-3706091D01*
X-12919723Y-3706189D01*
X-13049506Y-3706863D01*
X-13145137Y-3708681D01*
X-13212630Y-3712211D01*
X-13258001Y-3718024D01*
X-13287264Y-3726687D01*
X-13306434Y-3738770D01*
X-13321526Y-3754841D01*
X-13326222Y-3760604D01*
X-13358137Y-3823554D01*
X-13370363Y-3890818D01*
X-13356639Y-3962501D01*
X-13326222Y-4021033D01*
X-13311177Y-4038429D01*
X-13293883Y-4051664D01*
X-13268325Y-4061307D01*
X-13228488Y-4067926D01*
X-13168357Y-4072090D01*
X-13081917Y-4074369D01*
X-12963154Y-4075330D01*
X-12806052Y-4075543D01*
X-12749774Y-4075546D01*
X-12565633Y-4075243D01*
X-12422507Y-4073302D01*
X-12315229Y-4068168D01*
X-12238631Y-4058290D01*
X-12187547Y-4042114D01*
X-12156808Y-4018089D01*
X-12141249Y-3984661D01*
X-12135702Y-3940277D01*
X-12135000Y-3890818D01*
X-12136005Y-3835488D01*
X-12142467Y-3792481D01*
X-12159552Y-3760246D01*
X-12192427Y-3737230D01*
X-12246260Y-3721880D01*
X-12326217Y-3712644D01*
X-12437466Y-3707969D01*
X-12585174Y-3706302D01*
X-12749774Y-3706091D01*
X-12749774Y-3464741D01*
X-12707085Y-3464628D01*
X-12565265Y-3466354D01*
X-12435759Y-3470179D01*
X-12328309Y-3476095D01*
X-12252655Y-3484095D01*
X-12230956Y-3488544D01*
X-12158416Y-3520157D01*
X-12082040Y-3570164D01*
X-12057774Y-3590550D01*
X-11973363Y-3667906D01*
X-11973363Y-4113731D01*
X-12058099Y-4191385D01*
X-12058099Y-4191385D01*
G37*
X-12058099Y-4191385D02*
X-12108142Y-4232724D01*
X-12161109Y-4264370D01*
X-12223634Y-4287417D01*
X-12302354Y-4302956D01*
X-12403904Y-4312079D01*
X-12534919Y-4315877D01*
X-12702034Y-4315442D01*
X-12802965Y-4313948D01*
X-12975023Y-4310324D01*
X-13107908Y-4305152D01*
X-13208629Y-4296885D01*
X-13284195Y-4283973D01*
X-13341615Y-4264870D01*
X-13387897Y-4238028D01*
X-13430052Y-4201899D01*
X-13462727Y-4168257D01*
X-13492247Y-4131192D01*
X-13510334Y-4089100D01*
X-13520253Y-4029026D01*
X-13525274Y-3938016D01*
X-13525896Y-3917836D01*
X-13526012Y-3823079D01*
X-13521429Y-3741507D01*
X-13513091Y-3687896D01*
X-13510760Y-3681117D01*
X-13464883Y-3616425D01*
X-13390492Y-3553079D01*
X-13303871Y-3503636D01*
X-13259964Y-3487744D01*
X-13202688Y-3478863D01*
X-13109021Y-3472118D01*
X-12988704Y-3467502D01*
X-12851479Y-3465008D01*
X-12749774Y-3464741D01*
X-12749774Y-3706091D01*
X-12919723Y-3706189D01*
X-13049506Y-3706863D01*
X-13145137Y-3708681D01*
X-13212630Y-3712211D01*
X-13258001Y-3718024D01*
X-13287264Y-3726687D01*
X-13306434Y-3738770D01*
X-13321526Y-3754841D01*
X-13326222Y-3760604D01*
X-13358137Y-3823554D01*
X-13370363Y-3890818D01*
X-13356639Y-3962501D01*
X-13326222Y-4021033D01*
X-13311177Y-4038429D01*
X-13293883Y-4051664D01*
X-13268325Y-4061307D01*
X-13228488Y-4067926D01*
X-13168357Y-4072090D01*
X-13081917Y-4074369D01*
X-12963154Y-4075330D01*
X-12806052Y-4075543D01*
X-12749774Y-4075546D01*
X-12565633Y-4075243D01*
X-12422507Y-4073302D01*
X-12315229Y-4068168D01*
X-12238631Y-4058290D01*
X-12187547Y-4042114D01*
X-12156808Y-4018089D01*
X-12141249Y-3984661D01*
X-12135702Y-3940277D01*
X-12135000Y-3890818D01*
X-12136005Y-3835488D01*
X-12142467Y-3792481D01*
X-12159552Y-3760246D01*
X-12192427Y-3737230D01*
X-12246260Y-3721880D01*
X-12326217Y-3712644D01*
X-12437466Y-3707969D01*
X-12585174Y-3706302D01*
X-12749774Y-3706091D01*
X-12749774Y-3464741D01*
X-12707085Y-3464628D01*
X-12565265Y-3466354D01*
X-12435759Y-3470179D01*
X-12328309Y-3476095D01*
X-12252655Y-3484095D01*
X-12230956Y-3488544D01*
X-12158416Y-3520157D01*
X-12082040Y-3570164D01*
X-12057774Y-3590550D01*
X-11973363Y-3667906D01*
X-11973363Y-4113731D01*
X-12058099Y-4191385D01*
G36*
X-12123454Y-3371273D02*
X-12123454Y-3094182D01*
X-13532000Y-3094182D01*
X-13532000Y-2863273D01*
X-12123454Y-2863273D01*
X-12123454Y-2586182D01*
X-11961818Y-2586182D01*
X-11961818Y-3371273D01*
X-12123454Y-3371273D01*
X-12123454Y-3371273D01*
G37*
X-12123454Y-3371273D02*
X-12123454Y-3094182D01*
X-13532000Y-3094182D01*
X-13532000Y-2863273D01*
X-12123454Y-2863273D01*
X-12123454Y-2586182D01*
X-11961818Y-2586182D01*
X-11961818Y-3371273D01*
X-12123454Y-3371273D01*
G36*
X-13370363Y-2216728D02*
X-13370363Y-2609273D01*
X-13532000Y-2609273D01*
X-13532000Y-1985818D01*
X-11961818Y-1985818D01*
X-11961818Y-2216728D01*
X-13370363Y-2216728D01*
X-13370363Y-2216728D01*
G37*
X-13370363Y-2216728D02*
X-13370363Y-2609273D01*
X-13532000Y-2609273D01*
X-13532000Y-1985818D01*
X-11961818Y-1985818D01*
X-11961818Y-2216728D01*
X-13370363Y-2216728D01*
G36*
X-13532000Y-1731818D02*
X-13532000Y-1524000D01*
X-11961818Y-1524000D01*
X-11961818Y-1731818D01*
X-13532000Y-1731818D01*
X-13532000Y-1731818D01*
G37*
X-13532000Y-1731818D02*
X-13532000Y-1524000D01*
X-11961818Y-1524000D01*
X-11961818Y-1731818D01*
X-13532000Y-1731818D01*
G36*
X-12521772Y-599078D02*
X-12715666Y-640929D01*
X-12868857Y-674000D01*
X-12985747Y-699434D01*
X-13070737Y-718370D01*
X-13128229Y-731951D01*
X-13162623Y-741317D01*
X-13178322Y-747610D01*
X-13179727Y-751971D01*
X-13171239Y-755541D01*
X-13157259Y-759461D01*
X-13149672Y-761879D01*
X-13115426Y-770931D01*
X-13042671Y-788125D01*
X-12938061Y-811960D01*
X-12808252Y-840932D01*
X-12659898Y-873539D01*
X-12533318Y-901021D01*
X-11961818Y-1024430D01*
X-11961818Y-1246909D01*
X-12348591Y-1246980D01*
X-12517387Y-1248054D01*
X-12711224Y-1250949D01*
X-12909012Y-1255257D01*
X-13089663Y-1260571D01*
X-13133681Y-1262160D01*
X-13532000Y-1277269D01*
X-13532000Y-1085273D01*
X-12997060Y-1085273D01*
X-12846452Y-1084684D01*
X-12713475Y-1083031D01*
X-12604323Y-1080485D01*
X-12525190Y-1077218D01*
X-12482271Y-1073401D01*
X-12476515Y-1070879D01*
X-12502236Y-1061772D01*
X-12566457Y-1044131D01*
X-12662635Y-1019601D01*
X-12784224Y-989833D01*
X-12924681Y-956472D01*
X-13005682Y-937633D01*
X-13520454Y-818781D01*
X-13520454Y-682816D01*
X-13007855Y-565794D01*
X-12860075Y-531517D01*
X-12727520Y-499744D01*
X-12616792Y-472140D01*
X-12534496Y-450372D01*
X-12487233Y-436108D01*
X-12478689Y-432204D01*
X-12495881Y-427524D01*
X-12553094Y-423355D01*
X-12644168Y-419897D01*
X-12762942Y-417344D01*
X-12903257Y-415895D01*
X-12997060Y-415637D01*
X-13532000Y-415637D01*
X-13532000Y-223591D01*
X-13078014Y-238796D01*
X-12907892Y-243858D01*
X-12725544Y-248206D01*
X-12546670Y-251536D01*
X-12386970Y-253544D01*
X-12292923Y-254000D01*
X-11961818Y-254000D01*
X-11961818Y-478058D01*
X-12521772Y-599078D01*
X-12521772Y-599078D01*
G37*
X-12521772Y-599078D02*
X-12715666Y-640929D01*
X-12868857Y-674000D01*
X-12985747Y-699434D01*
X-13070737Y-718370D01*
X-13128229Y-731951D01*
X-13162623Y-741317D01*
X-13178322Y-747610D01*
X-13179727Y-751971D01*
X-13171239Y-755541D01*
X-13157259Y-759461D01*
X-13149672Y-761879D01*
X-13115426Y-770931D01*
X-13042671Y-788125D01*
X-12938061Y-811960D01*
X-12808252Y-840932D01*
X-12659898Y-873539D01*
X-12533318Y-901021D01*
X-11961818Y-1024430D01*
X-11961818Y-1246909D01*
X-12348591Y-1246980D01*
X-12517387Y-1248054D01*
X-12711224Y-1250949D01*
X-12909012Y-1255257D01*
X-13089663Y-1260571D01*
X-13133681Y-1262160D01*
X-13532000Y-1277269D01*
X-13532000Y-1085273D01*
X-12997060Y-1085273D01*
X-12846452Y-1084684D01*
X-12713475Y-1083031D01*
X-12604323Y-1080485D01*
X-12525190Y-1077218D01*
X-12482271Y-1073401D01*
X-12476515Y-1070879D01*
X-12502236Y-1061772D01*
X-12566457Y-1044131D01*
X-12662635Y-1019601D01*
X-12784224Y-989833D01*
X-12924681Y-956472D01*
X-13005682Y-937633D01*
X-13520454Y-818781D01*
X-13520454Y-682816D01*
X-13007855Y-565794D01*
X-12860075Y-531517D01*
X-12727520Y-499744D01*
X-12616792Y-472140D01*
X-12534496Y-450372D01*
X-12487233Y-436108D01*
X-12478689Y-432204D01*
X-12495881Y-427524D01*
X-12553094Y-423355D01*
X-12644168Y-419897D01*
X-12762942Y-417344D01*
X-12903257Y-415895D01*
X-12997060Y-415637D01*
X-13532000Y-415637D01*
X-13532000Y-223591D01*
X-13078014Y-238796D01*
X-12907892Y-243858D01*
X-12725544Y-248206D01*
X-12546670Y-251536D01*
X-12386970Y-253544D01*
X-12292923Y-254000D01*
X-11961818Y-254000D01*
X-11961818Y-478058D01*
X-12521772Y-599078D01*
G36*
X-11967203Y288341D02*
X-11985960Y253029D01*
X-12002227Y244593D01*
X-12039349Y235296D01*
X-12113710Y218430D01*
X-12218674Y195385D01*
X-12347602Y167555D01*
X-12493857Y136333D01*
X-12650802Y103111D01*
X-12811799Y69281D01*
X-12970211Y36237D01*
X-13119400Y5371D01*
X-13252728Y-21925D01*
X-13363560Y-44258D01*
X-13445256Y-60234D01*
X-13491180Y-68462D01*
X-13498147Y-69273D01*
X-13521001Y-54274D01*
X-13531026Y-4477D01*
X-13532000Y31086D01*
X-13532000Y131445D01*
X-13341500Y163859D01*
X-13151000Y196272D01*
X-13144030Y344261D01*
X-13144068Y438616D01*
X-13154278Y495451D01*
X-13163906Y508841D01*
X-13198645Y520619D01*
X-13265382Y536303D01*
X-13350478Y552731D01*
X-13361376Y554619D01*
X-13532000Y583805D01*
X-13532000Y684448D01*
X-13526800Y752765D01*
X-13509747Y782512D01*
X-13498721Y785091D01*
X-13469799Y780466D01*
X-13402353Y767521D01*
X-13303009Y747645D01*
X-13178394Y722231D01*
X-13035134Y692668D01*
X-12955312Y676054D01*
X-12955312Y477532D01*
X-12970832Y463770D01*
X-12976855Y422895D01*
X-12977818Y355846D01*
X-12976529Y282509D01*
X-12969708Y245300D01*
X-12952924Y234181D01*
X-12925863Y238129D01*
X-12883245Y247069D01*
X-12806361Y262202D01*
X-12706363Y281364D01*
X-12601459Y301077D01*
X-12497036Y321150D01*
X-12412297Y338652D01*
X-12355735Y351741D01*
X-12335844Y358573D01*
X-12335914Y358674D01*
X-12359987Y365281D01*
X-12420309Y378118D01*
X-12507664Y395309D01*
X-12608363Y414160D01*
X-12718621Y434510D01*
X-12816244Y452833D01*
X-12889861Y466977D01*
X-12925863Y474279D01*
X-12955312Y477532D01*
X-12955312Y676054D01*
X-12879853Y660348D01*
X-12719179Y626663D01*
X-12559736Y593003D01*
X-12408150Y560759D01*
X-12271048Y531323D01*
X-12155056Y506085D01*
X-12066798Y486437D01*
X-12012901Y473770D01*
X-12002227Y470903D01*
X-11975047Y449395D01*
X-11963210Y399392D01*
X-11961818Y357909D01*
X-11967203Y288341D01*
X-11967203Y288341D01*
G37*
X-11967203Y288341D02*
X-11985960Y253029D01*
X-12002227Y244593D01*
X-12039349Y235296D01*
X-12113710Y218430D01*
X-12218674Y195385D01*
X-12347602Y167555D01*
X-12493857Y136333D01*
X-12650802Y103111D01*
X-12811799Y69281D01*
X-12970211Y36237D01*
X-13119400Y5371D01*
X-13252728Y-21925D01*
X-13363560Y-44258D01*
X-13445256Y-60234D01*
X-13491180Y-68462D01*
X-13498147Y-69273D01*
X-13521001Y-54274D01*
X-13531026Y-4477D01*
X-13532000Y31086D01*
X-13532000Y131445D01*
X-13341500Y163859D01*
X-13151000Y196272D01*
X-13144030Y344261D01*
X-13144068Y438616D01*
X-13154278Y495451D01*
X-13163906Y508841D01*
X-13198645Y520619D01*
X-13265382Y536303D01*
X-13350478Y552731D01*
X-13361376Y554619D01*
X-13532000Y583805D01*
X-13532000Y684448D01*
X-13526800Y752765D01*
X-13509747Y782512D01*
X-13498721Y785091D01*
X-13469799Y780466D01*
X-13402353Y767521D01*
X-13303009Y747645D01*
X-13178394Y722231D01*
X-13035134Y692668D01*
X-12955312Y676054D01*
X-12955312Y477532D01*
X-12970832Y463770D01*
X-12976855Y422895D01*
X-12977818Y355846D01*
X-12976529Y282509D01*
X-12969708Y245300D01*
X-12952924Y234181D01*
X-12925863Y238129D01*
X-12883245Y247069D01*
X-12806361Y262202D01*
X-12706363Y281364D01*
X-12601459Y301077D01*
X-12497036Y321150D01*
X-12412297Y338652D01*
X-12355735Y351741D01*
X-12335844Y358573D01*
X-12335914Y358674D01*
X-12359987Y365281D01*
X-12420309Y378118D01*
X-12507664Y395309D01*
X-12608363Y414160D01*
X-12718621Y434510D01*
X-12816244Y452833D01*
X-12889861Y466977D01*
X-12925863Y474279D01*
X-12955312Y477532D01*
X-12955312Y676054D01*
X-12879853Y660348D01*
X-12719179Y626663D01*
X-12559736Y593003D01*
X-12408150Y560759D01*
X-12271048Y531323D01*
X-12155056Y506085D01*
X-12066798Y486437D01*
X-12012901Y473770D01*
X-12002227Y470903D01*
X-11975047Y449395D01*
X-11963210Y399392D01*
X-11961818Y357909D01*
X-11967203Y288341D01*
G36*
X-12631454Y1547091D02*
X-12631454Y1154545D01*
X-11961818Y1154545D01*
X-11961818Y946727D01*
X-13532000Y946727D01*
X-13532000Y1154545D01*
X-12793091Y1154545D01*
X-12793091Y1547091D01*
X-13532000Y1547091D01*
X-13532000Y1778000D01*
X-11961818Y1778000D01*
X-11961818Y1547091D01*
X-12631454Y1547091D01*
X-12631454Y1547091D01*
G37*
X-12631454Y1547091D02*
X-12631454Y1154545D01*
X-11961818Y1154545D01*
X-11961818Y946727D01*
X-13532000Y946727D01*
X-13532000Y1154545D01*
X-12793091Y1154545D01*
X-12793091Y1547091D01*
X-13532000Y1547091D01*
X-13532000Y1778000D01*
X-11961818Y1778000D01*
X-11961818Y1547091D01*
X-12631454Y1547091D01*
G36*
X-11966019Y2509323D02*
X-11975196Y2363169D01*
X-11992094Y2253704D01*
X-12020009Y2171650D01*
X-12062237Y2107727D01*
X-12122076Y2052655D01*
X-12130513Y2046263D01*
X-12174780Y2020157D01*
X-12229066Y2005399D01*
X-12307120Y1999288D01*
X-12372968Y1998656D01*
X-12497362Y2004695D01*
X-12588490Y2024447D01*
X-12658263Y2062044D01*
X-12714962Y2117278D01*
X-12763833Y2175115D01*
X-13107507Y2078791D01*
X-13229580Y2044568D01*
X-13338201Y2014097D01*
X-13424524Y1989864D01*
X-13479702Y1974351D01*
X-13492937Y1970614D01*
X-13517734Y1968904D01*
X-13528629Y1989229D01*
X-13529170Y2041723D01*
X-13527573Y2069524D01*
X-13520454Y2180287D01*
X-13220272Y2263922D01*
X-13103433Y2296341D01*
X-12997644Y2325446D01*
X-12913455Y2348354D01*
X-12861419Y2362177D01*
X-12856591Y2363400D01*
X-12812800Y2381670D01*
X-12795444Y2417377D01*
X-12793091Y2459622D01*
X-12793091Y2540000D01*
X-13532000Y2540000D01*
X-13532000Y2770909D01*
X-12631454Y2770909D01*
X-12631454Y2540000D01*
X-12631454Y2435041D01*
X-12623526Y2353782D01*
X-12594873Y2295888D01*
X-12574776Y2273405D01*
X-12533224Y2239970D01*
X-12483855Y2222777D01*
X-12410090Y2216973D01*
X-12381062Y2216727D01*
X-12271449Y2224905D01*
X-12198322Y2253426D01*
X-12154276Y2308272D01*
X-12131903Y2395425D01*
X-12129086Y2420240D01*
X-12117578Y2540000D01*
X-12631454Y2540000D01*
X-12631454Y2770909D01*
X-11956006Y2770909D01*
X-11966019Y2509323D01*
X-11966019Y2509323D01*
G37*
X-11966019Y2509323D02*
X-11975196Y2363169D01*
X-11992094Y2253704D01*
X-12020009Y2171650D01*
X-12062237Y2107727D01*
X-12122076Y2052655D01*
X-12130513Y2046263D01*
X-12174780Y2020157D01*
X-12229066Y2005399D01*
X-12307120Y1999288D01*
X-12372968Y1998656D01*
X-12497362Y2004695D01*
X-12588490Y2024447D01*
X-12658263Y2062044D01*
X-12714962Y2117278D01*
X-12763833Y2175115D01*
X-13107507Y2078791D01*
X-13229580Y2044568D01*
X-13338201Y2014097D01*
X-13424524Y1989864D01*
X-13479702Y1974351D01*
X-13492937Y1970614D01*
X-13517734Y1968904D01*
X-13528629Y1989229D01*
X-13529170Y2041723D01*
X-13527573Y2069524D01*
X-13520454Y2180287D01*
X-13220272Y2263922D01*
X-13103433Y2296341D01*
X-12997644Y2325446D01*
X-12913455Y2348354D01*
X-12861419Y2362177D01*
X-12856591Y2363400D01*
X-12812800Y2381670D01*
X-12795444Y2417377D01*
X-12793091Y2459622D01*
X-12793091Y2540000D01*
X-13532000Y2540000D01*
X-13532000Y2770909D01*
X-12631454Y2770909D01*
X-12631454Y2540000D01*
X-12631454Y2435041D01*
X-12623526Y2353782D01*
X-12594873Y2295888D01*
X-12574776Y2273405D01*
X-12533224Y2239970D01*
X-12483855Y2222777D01*
X-12410090Y2216973D01*
X-12381062Y2216727D01*
X-12271449Y2224905D01*
X-12198322Y2253426D01*
X-12154276Y2308272D01*
X-12131903Y2395425D01*
X-12129086Y2420240D01*
X-12117578Y2540000D01*
X-12631454Y2540000D01*
X-12631454Y2770909D01*
X-11956006Y2770909D01*
X-11966019Y2509323D01*
G36*
X-12123454Y2941819D02*
X-12123454Y3326603D01*
X-12643000Y3313545D01*
X-12645584Y3165597D01*
X-12648169Y3017648D01*
X-12720631Y3015506D01*
X-12793094Y3013363D01*
X-12793092Y3169227D01*
X-12793091Y3325091D01*
X-13370363Y3325091D01*
X-13370363Y2932545D01*
X-13532000Y2932545D01*
X-13532000Y3556000D01*
X-11961818Y3556000D01*
X-11961818Y2960689D01*
X-12123454Y2941819D01*
X-12123454Y2941819D01*
G37*
X-12123454Y2941819D02*
X-12123454Y3326603D01*
X-12643000Y3313545D01*
X-12645584Y3165597D01*
X-12648169Y3017648D01*
X-12720631Y3015506D01*
X-12793094Y3013363D01*
X-12793092Y3169227D01*
X-12793091Y3325091D01*
X-13370363Y3325091D01*
X-13370363Y2932545D01*
X-13532000Y2932545D01*
X-13532000Y3556000D01*
X-11961818Y3556000D01*
X-11961818Y2960689D01*
X-12123454Y2941819D01*
G36*
X-11981800Y3994046D02*
X-12018088Y3904640D01*
X-12081465Y3839624D01*
X-12163122Y3795478D01*
X-12261774Y3765582D01*
X-12332198Y3772081D01*
X-12374633Y3815005D01*
X-12378026Y3823048D01*
X-12397695Y3891478D01*
X-12388294Y3931320D01*
X-12345520Y3952965D01*
X-12322069Y3958128D01*
X-12222254Y3992858D01*
X-12156032Y4049254D01*
X-12126780Y4120619D01*
X-12137874Y4200256D01*
X-12171312Y4257158D01*
X-12223689Y4303153D01*
X-12293178Y4317858D01*
X-12303504Y4318000D01*
X-12338572Y4315424D01*
X-12372150Y4304373D01*
X-12410690Y4279861D01*
X-12460644Y4236902D01*
X-12528462Y4170509D01*
X-12620598Y4075698D01*
X-12630874Y4065007D01*
X-12745865Y3948488D01*
X-12839264Y3863091D01*
X-12918762Y3804228D01*
X-12992052Y3767312D01*
X-13066823Y3747754D01*
X-13150767Y3740966D01*
X-13174496Y3740727D01*
X-13310641Y3755746D01*
X-13413060Y3801726D01*
X-13483093Y3880054D01*
X-13522082Y3992115D01*
X-13531827Y4110182D01*
X-13525256Y4220908D01*
X-13503601Y4301541D01*
X-13486637Y4334387D01*
X-13417782Y4408929D01*
X-13316030Y4469747D01*
X-13194234Y4509394D01*
X-13179701Y4512227D01*
X-13121441Y4519232D01*
X-13090827Y4507430D01*
X-13070884Y4469926D01*
X-13070019Y4467664D01*
X-13048147Y4385589D01*
X-13056129Y4334977D01*
X-13092805Y4318000D01*
X-13168248Y4304916D01*
X-13247464Y4271687D01*
X-13312902Y4227344D01*
X-13344137Y4188661D01*
X-13368238Y4097140D01*
X-13351364Y4024472D01*
X-13296114Y3974212D01*
X-13205089Y3949916D01*
X-13168318Y3948204D01*
X-13125550Y3948930D01*
X-13090305Y3954702D01*
X-13055679Y3970453D01*
X-13014766Y4001117D01*
X-12960660Y4051627D01*
X-12886455Y4126917D01*
X-12816181Y4199784D01*
X-12726869Y4290616D01*
X-12644266Y4371029D01*
X-12575612Y4434235D01*
X-12528146Y4473446D01*
X-12516000Y4481267D01*
X-12440732Y4503941D01*
X-12343257Y4512775D01*
X-12241908Y4508164D01*
X-12155018Y4490505D01*
X-12115570Y4472609D01*
X-12036019Y4404424D01*
X-11987868Y4320142D01*
X-11967187Y4210377D01*
X-11966763Y4117416D01*
X-11981800Y3994046D01*
X-11981800Y3994046D01*
G37*
X-11981800Y3994046D02*
X-12018088Y3904640D01*
X-12081465Y3839624D01*
X-12163122Y3795478D01*
X-12261774Y3765582D01*
X-12332198Y3772081D01*
X-12374633Y3815005D01*
X-12378026Y3823048D01*
X-12397695Y3891478D01*
X-12388294Y3931320D01*
X-12345520Y3952965D01*
X-12322069Y3958128D01*
X-12222254Y3992858D01*
X-12156032Y4049254D01*
X-12126780Y4120619D01*
X-12137874Y4200256D01*
X-12171312Y4257158D01*
X-12223689Y4303153D01*
X-12293178Y4317858D01*
X-12303504Y4318000D01*
X-12338572Y4315424D01*
X-12372150Y4304373D01*
X-12410690Y4279861D01*
X-12460644Y4236902D01*
X-12528462Y4170509D01*
X-12620598Y4075698D01*
X-12630874Y4065007D01*
X-12745865Y3948488D01*
X-12839264Y3863091D01*
X-12918762Y3804228D01*
X-12992052Y3767312D01*
X-13066823Y3747754D01*
X-13150767Y3740966D01*
X-13174496Y3740727D01*
X-13310641Y3755746D01*
X-13413060Y3801726D01*
X-13483093Y3880054D01*
X-13522082Y3992115D01*
X-13531827Y4110182D01*
X-13525256Y4220908D01*
X-13503601Y4301541D01*
X-13486637Y4334387D01*
X-13417782Y4408929D01*
X-13316030Y4469747D01*
X-13194234Y4509394D01*
X-13179701Y4512227D01*
X-13121441Y4519232D01*
X-13090827Y4507430D01*
X-13070884Y4469926D01*
X-13070019Y4467664D01*
X-13048147Y4385589D01*
X-13056129Y4334977D01*
X-13092805Y4318000D01*
X-13168248Y4304916D01*
X-13247464Y4271687D01*
X-13312902Y4227344D01*
X-13344137Y4188661D01*
X-13368238Y4097140D01*
X-13351364Y4024472D01*
X-13296114Y3974212D01*
X-13205089Y3949916D01*
X-13168318Y3948204D01*
X-13125550Y3948930D01*
X-13090305Y3954702D01*
X-13055679Y3970453D01*
X-13014766Y4001117D01*
X-12960660Y4051627D01*
X-12886455Y4126917D01*
X-12816181Y4199784D01*
X-12726869Y4290616D01*
X-12644266Y4371029D01*
X-12575612Y4434235D01*
X-12528146Y4473446D01*
X-12516000Y4481267D01*
X-12440732Y4503941D01*
X-12343257Y4512775D01*
X-12241908Y4508164D01*
X-12155018Y4490505D01*
X-12115570Y4472609D01*
X-12036019Y4404424D01*
X-11987868Y4320142D01*
X-11967187Y4210377D01*
X-11966763Y4117416D01*
X-11981800Y3994046D01*
G36*
X-11967203Y4998886D02*
X-11985960Y4963574D01*
X-12002227Y4955138D01*
X-12039349Y4945842D01*
X-12113710Y4928975D01*
X-12218674Y4905931D01*
X-12347602Y4878101D01*
X-12493857Y4846878D01*
X-12650802Y4813656D01*
X-12811799Y4779827D01*
X-12970211Y4746782D01*
X-13119400Y4715916D01*
X-13252728Y4688620D01*
X-13363560Y4666288D01*
X-13445256Y4650311D01*
X-13491180Y4642083D01*
X-13498147Y4641272D01*
X-13521001Y4656271D01*
X-13531026Y4706069D01*
X-13532000Y4741631D01*
X-13532000Y4841990D01*
X-13151000Y4906818D01*
X-13144030Y5054806D01*
X-13144068Y5149162D01*
X-13154278Y5205997D01*
X-13163906Y5219387D01*
X-13198645Y5231165D01*
X-13265382Y5246849D01*
X-13350478Y5263276D01*
X-13361376Y5265165D01*
X-13532000Y5294351D01*
X-13532000Y5394993D01*
X-13526800Y5463310D01*
X-13509747Y5493058D01*
X-13498721Y5495636D01*
X-13469799Y5491012D01*
X-13402353Y5478066D01*
X-13303009Y5458191D01*
X-13178394Y5432776D01*
X-13035134Y5403213D01*
X-12955312Y5386600D01*
X-12955312Y5188077D01*
X-12970832Y5174316D01*
X-12976855Y5133441D01*
X-12977818Y5066391D01*
X-12976529Y4993054D01*
X-12969708Y4955846D01*
X-12952924Y4944727D01*
X-12925863Y4948675D01*
X-12883245Y4957615D01*
X-12806361Y4972748D01*
X-12706363Y4991909D01*
X-12601459Y5011622D01*
X-12497036Y5031696D01*
X-12412297Y5049198D01*
X-12355735Y5062286D01*
X-12335844Y5069119D01*
X-12335914Y5069220D01*
X-12359987Y5075826D01*
X-12420309Y5088663D01*
X-12507664Y5105855D01*
X-12608363Y5124705D01*
X-12718621Y5145055D01*
X-12816244Y5163379D01*
X-12889861Y5177522D01*
X-12925863Y5184824D01*
X-12955312Y5188077D01*
X-12955312Y5386600D01*
X-12879853Y5370894D01*
X-12719179Y5337208D01*
X-12559736Y5303548D01*
X-12408150Y5271305D01*
X-12271048Y5241868D01*
X-12155056Y5216631D01*
X-12066798Y5196983D01*
X-12012901Y5184315D01*
X-12002227Y5181448D01*
X-11975047Y5159940D01*
X-11963210Y5109938D01*
X-11961818Y5068454D01*
X-11967203Y4998886D01*
X-11967203Y4998886D01*
G37*
X-11967203Y4998886D02*
X-11985960Y4963574D01*
X-12002227Y4955138D01*
X-12039349Y4945842D01*
X-12113710Y4928975D01*
X-12218674Y4905931D01*
X-12347602Y4878101D01*
X-12493857Y4846878D01*
X-12650802Y4813656D01*
X-12811799Y4779827D01*
X-12970211Y4746782D01*
X-13119400Y4715916D01*
X-13252728Y4688620D01*
X-13363560Y4666288D01*
X-13445256Y4650311D01*
X-13491180Y4642083D01*
X-13498147Y4641272D01*
X-13521001Y4656271D01*
X-13531026Y4706069D01*
X-13532000Y4741631D01*
X-13532000Y4841990D01*
X-13151000Y4906818D01*
X-13144030Y5054806D01*
X-13144068Y5149162D01*
X-13154278Y5205997D01*
X-13163906Y5219387D01*
X-13198645Y5231165D01*
X-13265382Y5246849D01*
X-13350478Y5263276D01*
X-13361376Y5265165D01*
X-13532000Y5294351D01*
X-13532000Y5394993D01*
X-13526800Y5463310D01*
X-13509747Y5493058D01*
X-13498721Y5495636D01*
X-13469799Y5491012D01*
X-13402353Y5478066D01*
X-13303009Y5458191D01*
X-13178394Y5432776D01*
X-13035134Y5403213D01*
X-12955312Y5386600D01*
X-12955312Y5188077D01*
X-12970832Y5174316D01*
X-12976855Y5133441D01*
X-12977818Y5066391D01*
X-12976529Y4993054D01*
X-12969708Y4955846D01*
X-12952924Y4944727D01*
X-12925863Y4948675D01*
X-12883245Y4957615D01*
X-12806361Y4972748D01*
X-12706363Y4991909D01*
X-12601459Y5011622D01*
X-12497036Y5031696D01*
X-12412297Y5049198D01*
X-12355735Y5062286D01*
X-12335844Y5069119D01*
X-12335914Y5069220D01*
X-12359987Y5075826D01*
X-12420309Y5088663D01*
X-12507664Y5105855D01*
X-12608363Y5124705D01*
X-12718621Y5145055D01*
X-12816244Y5163379D01*
X-12889861Y5177522D01*
X-12925863Y5184824D01*
X-12955312Y5188077D01*
X-12955312Y5386600D01*
X-12879853Y5370894D01*
X-12719179Y5337208D01*
X-12559736Y5303548D01*
X-12408150Y5271305D01*
X-12271048Y5241868D01*
X-12155056Y5216631D01*
X-12066798Y5196983D01*
X-12012901Y5184315D01*
X-12002227Y5181448D01*
X-11975047Y5159940D01*
X-11963210Y5109938D01*
X-11961818Y5068454D01*
X-11967203Y4998886D01*
G36*
X-11966019Y6157687D02*
X-11975196Y6011533D01*
X-11992094Y5902068D01*
X-12020009Y5820014D01*
X-12062237Y5756090D01*
X-12122076Y5701019D01*
X-12130513Y5694626D01*
X-12174780Y5668521D01*
X-12229066Y5653763D01*
X-12307120Y5647652D01*
X-12372968Y5647020D01*
X-12497362Y5653059D01*
X-12588490Y5672811D01*
X-12658263Y5710407D01*
X-12714962Y5765642D01*
X-12763833Y5823478D01*
X-13107507Y5727155D01*
X-13229580Y5692931D01*
X-13338201Y5662461D01*
X-13424524Y5638228D01*
X-13479702Y5622714D01*
X-13492937Y5618977D01*
X-13517734Y5617268D01*
X-13528629Y5637593D01*
X-13529170Y5690086D01*
X-13527573Y5717888D01*
X-13520454Y5828651D01*
X-13220272Y5912286D01*
X-13103433Y5944704D01*
X-12997644Y5973810D01*
X-12913455Y5996717D01*
X-12861419Y6010540D01*
X-12856591Y6011764D01*
X-12812800Y6030034D01*
X-12795444Y6065740D01*
X-12793091Y6107985D01*
X-12793091Y6188363D01*
X-13532000Y6188363D01*
X-13532000Y6419272D01*
X-12631454Y6419272D01*
X-12631454Y6188363D01*
X-12631454Y6083405D01*
X-12623526Y6002146D01*
X-12594873Y5944252D01*
X-12574776Y5921768D01*
X-12533224Y5888334D01*
X-12483855Y5871140D01*
X-12410090Y5865336D01*
X-12381062Y5865091D01*
X-12271449Y5873269D01*
X-12198322Y5901790D01*
X-12154276Y5956636D01*
X-12131903Y6043789D01*
X-12129086Y6068604D01*
X-12117578Y6188363D01*
X-12631454Y6188363D01*
X-12631454Y6419272D01*
X-11956006Y6419272D01*
X-11966019Y6157687D01*
X-11966019Y6157687D01*
G37*
X-11966019Y6157687D02*
X-11975196Y6011533D01*
X-11992094Y5902068D01*
X-12020009Y5820014D01*
X-12062237Y5756090D01*
X-12122076Y5701019D01*
X-12130513Y5694626D01*
X-12174780Y5668521D01*
X-12229066Y5653763D01*
X-12307120Y5647652D01*
X-12372968Y5647020D01*
X-12497362Y5653059D01*
X-12588490Y5672811D01*
X-12658263Y5710407D01*
X-12714962Y5765642D01*
X-12763833Y5823478D01*
X-13107507Y5727155D01*
X-13229580Y5692931D01*
X-13338201Y5662461D01*
X-13424524Y5638228D01*
X-13479702Y5622714D01*
X-13492937Y5618977D01*
X-13517734Y5617268D01*
X-13528629Y5637593D01*
X-13529170Y5690086D01*
X-13527573Y5717888D01*
X-13520454Y5828651D01*
X-13220272Y5912286D01*
X-13103433Y5944704D01*
X-12997644Y5973810D01*
X-12913455Y5996717D01*
X-12861419Y6010540D01*
X-12856591Y6011764D01*
X-12812800Y6030034D01*
X-12795444Y6065740D01*
X-12793091Y6107985D01*
X-12793091Y6188363D01*
X-13532000Y6188363D01*
X-13532000Y6419272D01*
X-12631454Y6419272D01*
X-12631454Y6188363D01*
X-12631454Y6083405D01*
X-12623526Y6002146D01*
X-12594873Y5944252D01*
X-12574776Y5921768D01*
X-12533224Y5888334D01*
X-12483855Y5871140D01*
X-12410090Y5865336D01*
X-12381062Y5865091D01*
X-12271449Y5873269D01*
X-12198322Y5901790D01*
X-12154276Y5956636D01*
X-12131903Y6043789D01*
X-12129086Y6068604D01*
X-12117578Y6188363D01*
X-12631454Y6188363D01*
X-12631454Y6419272D01*
X-11956006Y6419272D01*
X-11966019Y6157687D01*
G36*
X-12123454Y6557818D02*
X-12123454Y6927272D01*
X-12631454Y6927272D01*
X-12631454Y6627091D01*
X-12793091Y6627091D01*
X-12793091Y6927272D01*
X-13532000Y6927272D01*
X-13532000Y7158182D01*
X-11961818Y7158182D01*
X-11961818Y6557818D01*
X-12123454Y6557818D01*
X-12123454Y6557818D01*
G37*
X-12123454Y6557818D02*
X-12123454Y6927272D01*
X-12631454Y6927272D01*
X-12631454Y6627091D01*
X-12793091Y6627091D01*
X-12793091Y6927272D01*
X-13532000Y6927272D01*
X-13532000Y7158182D01*
X-11961818Y7158182D01*
X-11961818Y6557818D01*
X-12123454Y6557818D01*
G36*
X-11966019Y9528960D02*
X-11975196Y9382805D01*
X-11992094Y9273341D01*
X-12020009Y9191286D01*
X-12062237Y9127363D01*
X-12122076Y9072291D01*
X-12130513Y9065899D01*
X-12174780Y9039794D01*
X-12229066Y9025035D01*
X-12307120Y9018925D01*
X-12372968Y9018293D01*
X-12497362Y9024332D01*
X-12588490Y9044084D01*
X-12658263Y9081680D01*
X-12714962Y9136914D01*
X-12763833Y9194751D01*
X-13107507Y9098427D01*
X-13229580Y9064204D01*
X-13338201Y9033734D01*
X-13424524Y9009500D01*
X-13479702Y8993987D01*
X-13492937Y8990250D01*
X-13517734Y8988540D01*
X-13528629Y9008865D01*
X-13529170Y9061359D01*
X-13527573Y9089160D01*
X-13520454Y9199924D01*
X-13220272Y9283559D01*
X-13103433Y9315977D01*
X-12997644Y9345083D01*
X-12913455Y9367990D01*
X-12861419Y9381813D01*
X-12856591Y9383037D01*
X-12812800Y9401307D01*
X-12795444Y9437013D01*
X-12793091Y9479258D01*
X-12793091Y9559636D01*
X-13532000Y9559636D01*
X-13532000Y9790545D01*
X-12631454Y9790545D01*
X-12631454Y9559636D01*
X-12631454Y9454677D01*
X-12623526Y9373418D01*
X-12594873Y9315524D01*
X-12574776Y9293041D01*
X-12533224Y9259607D01*
X-12483855Y9242413D01*
X-12410090Y9236609D01*
X-12381062Y9236363D01*
X-12271449Y9244541D01*
X-12198322Y9273063D01*
X-12154276Y9327909D01*
X-12131903Y9415061D01*
X-12129086Y9439877D01*
X-12117578Y9559636D01*
X-12631454Y9559636D01*
X-12631454Y9790545D01*
X-11956006Y9790545D01*
X-11966019Y9528960D01*
X-11966019Y9528960D01*
G37*
X-11966019Y9528960D02*
X-11975196Y9382805D01*
X-11992094Y9273341D01*
X-12020009Y9191286D01*
X-12062237Y9127363D01*
X-12122076Y9072291D01*
X-12130513Y9065899D01*
X-12174780Y9039794D01*
X-12229066Y9025035D01*
X-12307120Y9018925D01*
X-12372968Y9018293D01*
X-12497362Y9024332D01*
X-12588490Y9044084D01*
X-12658263Y9081680D01*
X-12714962Y9136914D01*
X-12763833Y9194751D01*
X-13107507Y9098427D01*
X-13229580Y9064204D01*
X-13338201Y9033734D01*
X-13424524Y9009500D01*
X-13479702Y8993987D01*
X-13492937Y8990250D01*
X-13517734Y8988540D01*
X-13528629Y9008865D01*
X-13529170Y9061359D01*
X-13527573Y9089160D01*
X-13520454Y9199924D01*
X-13220272Y9283559D01*
X-13103433Y9315977D01*
X-12997644Y9345083D01*
X-12913455Y9367990D01*
X-12861419Y9381813D01*
X-12856591Y9383037D01*
X-12812800Y9401307D01*
X-12795444Y9437013D01*
X-12793091Y9479258D01*
X-12793091Y9559636D01*
X-13532000Y9559636D01*
X-13532000Y9790545D01*
X-12631454Y9790545D01*
X-12631454Y9559636D01*
X-12631454Y9454677D01*
X-12623526Y9373418D01*
X-12594873Y9315524D01*
X-12574776Y9293041D01*
X-12533224Y9259607D01*
X-12483855Y9242413D01*
X-12410090Y9236609D01*
X-12381062Y9236363D01*
X-12271449Y9244541D01*
X-12198322Y9273063D01*
X-12154276Y9327909D01*
X-12131903Y9415061D01*
X-12129086Y9439877D01*
X-12117578Y9559636D01*
X-12631454Y9559636D01*
X-12631454Y9790545D01*
X-11956006Y9790545D01*
X-11966019Y9528960D01*
G36*
X-12058099Y10101888D02*
X-12108142Y10060549D01*
X-12161109Y10028902D01*
X-12223634Y10005855D01*
X-12302354Y9990317D01*
X-12403904Y9981194D01*
X-12534919Y9977396D01*
X-12702034Y9977831D01*
X-12802965Y9979325D01*
X-12975023Y9982948D01*
X-13107908Y9988120D01*
X-13208629Y9996388D01*
X-13284195Y10009300D01*
X-13341615Y10028403D01*
X-13387897Y10055245D01*
X-13430052Y10091374D01*
X-13462727Y10125016D01*
X-13492247Y10162081D01*
X-13510334Y10204173D01*
X-13520253Y10264247D01*
X-13525274Y10355256D01*
X-13525896Y10375437D01*
X-13526012Y10470194D01*
X-13521429Y10551766D01*
X-13513091Y10605377D01*
X-13510760Y10612156D01*
X-13464883Y10676848D01*
X-13390492Y10740194D01*
X-13303871Y10789637D01*
X-13259964Y10805529D01*
X-13202688Y10814410D01*
X-13109021Y10821155D01*
X-12988704Y10825770D01*
X-12851479Y10828264D01*
X-12749774Y10828531D01*
X-12749774Y10587182D01*
X-12919723Y10587083D01*
X-13049506Y10586410D01*
X-13145137Y10584592D01*
X-13212630Y10581061D01*
X-13258001Y10575249D01*
X-13287264Y10566586D01*
X-13306434Y10554503D01*
X-13321526Y10538432D01*
X-13326222Y10532669D01*
X-13358137Y10469719D01*
X-13370363Y10402454D01*
X-13356639Y10330772D01*
X-13326222Y10272240D01*
X-13311177Y10254844D01*
X-13293883Y10241609D01*
X-13268325Y10231966D01*
X-13228488Y10225347D01*
X-13168357Y10221182D01*
X-13081917Y10218904D01*
X-12963154Y10217943D01*
X-12806052Y10217730D01*
X-12749774Y10217727D01*
X-12565633Y10218029D01*
X-12422507Y10219971D01*
X-12315229Y10225105D01*
X-12238631Y10234983D01*
X-12187547Y10251159D01*
X-12156808Y10275184D01*
X-12141249Y10308612D01*
X-12135702Y10352995D01*
X-12135000Y10402454D01*
X-12136005Y10457785D01*
X-12142467Y10500791D01*
X-12159552Y10533026D01*
X-12192427Y10556042D01*
X-12246260Y10571392D01*
X-12326217Y10580628D01*
X-12437466Y10585304D01*
X-12585174Y10586970D01*
X-12749774Y10587182D01*
X-12749774Y10828531D01*
X-12707085Y10828644D01*
X-12565265Y10826918D01*
X-12435759Y10823094D01*
X-12328309Y10817177D01*
X-12252655Y10809178D01*
X-12230956Y10804729D01*
X-12158416Y10773115D01*
X-12082040Y10723109D01*
X-12057774Y10702723D01*
X-11973363Y10625367D01*
X-11973363Y10179542D01*
X-12058099Y10101888D01*
X-12058099Y10101888D01*
G37*
X-12058099Y10101888D02*
X-12108142Y10060549D01*
X-12161109Y10028902D01*
X-12223634Y10005855D01*
X-12302354Y9990317D01*
X-12403904Y9981194D01*
X-12534919Y9977396D01*
X-12702034Y9977831D01*
X-12802965Y9979325D01*
X-12975023Y9982948D01*
X-13107908Y9988120D01*
X-13208629Y9996388D01*
X-13284195Y10009300D01*
X-13341615Y10028403D01*
X-13387897Y10055245D01*
X-13430052Y10091374D01*
X-13462727Y10125016D01*
X-13492247Y10162081D01*
X-13510334Y10204173D01*
X-13520253Y10264247D01*
X-13525274Y10355256D01*
X-13525896Y10375437D01*
X-13526012Y10470194D01*
X-13521429Y10551766D01*
X-13513091Y10605377D01*
X-13510760Y10612156D01*
X-13464883Y10676848D01*
X-13390492Y10740194D01*
X-13303871Y10789637D01*
X-13259964Y10805529D01*
X-13202688Y10814410D01*
X-13109021Y10821155D01*
X-12988704Y10825770D01*
X-12851479Y10828264D01*
X-12749774Y10828531D01*
X-12749774Y10587182D01*
X-12919723Y10587083D01*
X-13049506Y10586410D01*
X-13145137Y10584592D01*
X-13212630Y10581061D01*
X-13258001Y10575249D01*
X-13287264Y10566586D01*
X-13306434Y10554503D01*
X-13321526Y10538432D01*
X-13326222Y10532669D01*
X-13358137Y10469719D01*
X-13370363Y10402454D01*
X-13356639Y10330772D01*
X-13326222Y10272240D01*
X-13311177Y10254844D01*
X-13293883Y10241609D01*
X-13268325Y10231966D01*
X-13228488Y10225347D01*
X-13168357Y10221182D01*
X-13081917Y10218904D01*
X-12963154Y10217943D01*
X-12806052Y10217730D01*
X-12749774Y10217727D01*
X-12565633Y10218029D01*
X-12422507Y10219971D01*
X-12315229Y10225105D01*
X-12238631Y10234983D01*
X-12187547Y10251159D01*
X-12156808Y10275184D01*
X-12141249Y10308612D01*
X-12135702Y10352995D01*
X-12135000Y10402454D01*
X-12136005Y10457785D01*
X-12142467Y10500791D01*
X-12159552Y10533026D01*
X-12192427Y10556042D01*
X-12246260Y10571392D01*
X-12326217Y10580628D01*
X-12437466Y10585304D01*
X-12585174Y10586970D01*
X-12749774Y10587182D01*
X-12749774Y10828531D01*
X-12707085Y10828644D01*
X-12565265Y10826918D01*
X-12435759Y10823094D01*
X-12328309Y10817177D01*
X-12252655Y10809178D01*
X-12230956Y10804729D01*
X-12158416Y10773115D01*
X-12082040Y10723109D01*
X-12057774Y10702723D01*
X-11973363Y10625367D01*
X-11973363Y10179542D01*
X-12058099Y10101888D01*
G36*
X-12429409Y11465779D02*
X-12566926Y11406302D01*
X-12690449Y11351865D01*
X-12793520Y11305395D01*
X-12869680Y11269821D01*
X-12912471Y11248073D01*
X-12918936Y11243770D01*
X-12904575Y11236354D01*
X-12847174Y11230343D01*
X-12749857Y11225881D01*
X-12615749Y11223112D01*
X-12451345Y11222182D01*
X-11961818Y11222182D01*
X-11961818Y11037454D01*
X-13532000Y11037454D01*
X-13531855Y11112500D01*
X-13531710Y11187545D01*
X-13033434Y11395363D01*
X-12891859Y11454960D01*
X-12764940Y11509434D01*
X-12658780Y11556083D01*
X-12579481Y11592199D01*
X-12533145Y11615079D01*
X-12523711Y11621317D01*
X-12542260Y11626476D01*
X-12600570Y11630822D01*
X-12692225Y11634155D01*
X-12810807Y11636273D01*
X-12949901Y11636974D01*
X-13016359Y11636779D01*
X-13520454Y11634106D01*
X-13527555Y11728326D01*
X-13534655Y11822545D01*
X-11961818Y11822545D01*
X-11961818Y11666199D01*
X-12429409Y11465779D01*
X-12429409Y11465779D01*
G37*
X-12429409Y11465779D02*
X-12566926Y11406302D01*
X-12690449Y11351865D01*
X-12793520Y11305395D01*
X-12869680Y11269821D01*
X-12912471Y11248073D01*
X-12918936Y11243770D01*
X-12904575Y11236354D01*
X-12847174Y11230343D01*
X-12749857Y11225881D01*
X-12615749Y11223112D01*
X-12451345Y11222182D01*
X-11961818Y11222182D01*
X-11961818Y11037454D01*
X-13532000Y11037454D01*
X-13531855Y11112500D01*
X-13531710Y11187545D01*
X-13033434Y11395363D01*
X-12891859Y11454960D01*
X-12764940Y11509434D01*
X-12658780Y11556083D01*
X-12579481Y11592199D01*
X-12533145Y11615079D01*
X-12523711Y11621317D01*
X-12542260Y11626476D01*
X-12600570Y11630822D01*
X-12692225Y11634155D01*
X-12810807Y11636273D01*
X-12949901Y11636974D01*
X-13016359Y11636779D01*
X-13520454Y11634106D01*
X-13527555Y11728326D01*
X-13534655Y11822545D01*
X-11961818Y11822545D01*
X-11961818Y11666199D01*
X-12429409Y11465779D01*
G36*
X-12429409Y12481779D02*
X-12566926Y12422302D01*
X-12690449Y12367865D01*
X-12793520Y12321395D01*
X-12869680Y12285821D01*
X-12912471Y12264073D01*
X-12918936Y12259770D01*
X-12904575Y12252354D01*
X-12847174Y12246343D01*
X-12749857Y12241881D01*
X-12615749Y12239112D01*
X-12451345Y12238182D01*
X-11961818Y12238182D01*
X-11961818Y12053454D01*
X-13532000Y12053454D01*
X-13531855Y12128500D01*
X-13531710Y12203545D01*
X-13033434Y12411363D01*
X-12891901Y12470917D01*
X-12765057Y12525290D01*
X-12658994Y12571790D01*
X-12579806Y12607721D01*
X-12533585Y12630391D01*
X-12524216Y12636500D01*
X-12542940Y12641513D01*
X-12601450Y12645957D01*
X-12693351Y12649609D01*
X-12812249Y12652247D01*
X-12951749Y12653649D01*
X-13022637Y12653818D01*
X-13532000Y12653818D01*
X-13532000Y12838545D01*
X-11961818Y12838545D01*
X-11961818Y12682199D01*
X-12429409Y12481779D01*
X-12429409Y12481779D01*
G37*
X-12429409Y12481779D02*
X-12566926Y12422302D01*
X-12690449Y12367865D01*
X-12793520Y12321395D01*
X-12869680Y12285821D01*
X-12912471Y12264073D01*
X-12918936Y12259770D01*
X-12904575Y12252354D01*
X-12847174Y12246343D01*
X-12749857Y12241881D01*
X-12615749Y12239112D01*
X-12451345Y12238182D01*
X-11961818Y12238182D01*
X-11961818Y12053454D01*
X-13532000Y12053454D01*
X-13531855Y12128500D01*
X-13531710Y12203545D01*
X-13033434Y12411363D01*
X-12891901Y12470917D01*
X-12765057Y12525290D01*
X-12658994Y12571790D01*
X-12579806Y12607721D01*
X-12533585Y12630391D01*
X-12524216Y12636500D01*
X-12542940Y12641513D01*
X-12601450Y12645957D01*
X-12693351Y12649609D01*
X-12812249Y12652247D01*
X-12951749Y12653649D01*
X-13022637Y12653818D01*
X-13532000Y12653818D01*
X-13532000Y12838545D01*
X-11961818Y12838545D01*
X-11961818Y12682199D01*
X-12429409Y12481779D01*
G36*
X-12058099Y13172979D02*
X-12108142Y13131640D01*
X-12161109Y13099993D01*
X-12223634Y13076946D01*
X-12302354Y13061408D01*
X-12403904Y13052285D01*
X-12534919Y13048487D01*
X-12702034Y13048922D01*
X-12802965Y13050416D01*
X-12975023Y13054039D01*
X-13107908Y13059211D01*
X-13208629Y13067479D01*
X-13284195Y13080391D01*
X-13341615Y13099494D01*
X-13387897Y13126336D01*
X-13430052Y13162465D01*
X-13462727Y13196107D01*
X-13492247Y13233172D01*
X-13510334Y13275264D01*
X-13520253Y13335337D01*
X-13525274Y13426347D01*
X-13525896Y13446528D01*
X-13526012Y13541285D01*
X-13521429Y13622857D01*
X-13513091Y13676468D01*
X-13510760Y13683247D01*
X-13464883Y13747938D01*
X-13390492Y13811284D01*
X-13303871Y13860728D01*
X-13259964Y13876620D01*
X-13202688Y13885501D01*
X-13109021Y13892246D01*
X-12988704Y13896861D01*
X-12851479Y13899355D01*
X-12749774Y13899622D01*
X-12749774Y13658272D01*
X-12919723Y13658174D01*
X-13049506Y13657501D01*
X-13145137Y13655683D01*
X-13212630Y13652152D01*
X-13258001Y13646340D01*
X-13287264Y13637677D01*
X-13306434Y13625594D01*
X-13321526Y13609523D01*
X-13326222Y13603760D01*
X-13358137Y13540810D01*
X-13370363Y13473545D01*
X-13356639Y13401863D01*
X-13326222Y13343331D01*
X-13311177Y13325934D01*
X-13293883Y13312699D01*
X-13268325Y13303057D01*
X-13228488Y13296438D01*
X-13168357Y13292273D01*
X-13081917Y13289995D01*
X-12963154Y13289034D01*
X-12806052Y13288821D01*
X-12749774Y13288818D01*
X-12565633Y13289120D01*
X-12422507Y13291062D01*
X-12315229Y13296195D01*
X-12238631Y13306074D01*
X-12187547Y13322250D01*
X-12156808Y13346275D01*
X-12141249Y13379703D01*
X-12135702Y13424086D01*
X-12135000Y13473545D01*
X-12136005Y13528876D01*
X-12142467Y13571882D01*
X-12159552Y13604117D01*
X-12192427Y13627133D01*
X-12246260Y13642483D01*
X-12326217Y13651719D01*
X-12437466Y13656395D01*
X-12585174Y13658061D01*
X-12749774Y13658272D01*
X-12749774Y13899622D01*
X-12707085Y13899735D01*
X-12565265Y13898009D01*
X-12435759Y13894184D01*
X-12328309Y13888268D01*
X-12252655Y13880269D01*
X-12230956Y13875820D01*
X-12158416Y13844206D01*
X-12082040Y13794200D01*
X-12057774Y13773814D01*
X-11973363Y13696457D01*
X-11973363Y13250633D01*
X-12058099Y13172979D01*
X-12058099Y13172979D01*
G37*
X-12058099Y13172979D02*
X-12108142Y13131640D01*
X-12161109Y13099993D01*
X-12223634Y13076946D01*
X-12302354Y13061408D01*
X-12403904Y13052285D01*
X-12534919Y13048487D01*
X-12702034Y13048922D01*
X-12802965Y13050416D01*
X-12975023Y13054039D01*
X-13107908Y13059211D01*
X-13208629Y13067479D01*
X-13284195Y13080391D01*
X-13341615Y13099494D01*
X-13387897Y13126336D01*
X-13430052Y13162465D01*
X-13462727Y13196107D01*
X-13492247Y13233172D01*
X-13510334Y13275264D01*
X-13520253Y13335337D01*
X-13525274Y13426347D01*
X-13525896Y13446528D01*
X-13526012Y13541285D01*
X-13521429Y13622857D01*
X-13513091Y13676468D01*
X-13510760Y13683247D01*
X-13464883Y13747938D01*
X-13390492Y13811284D01*
X-13303871Y13860728D01*
X-13259964Y13876620D01*
X-13202688Y13885501D01*
X-13109021Y13892246D01*
X-12988704Y13896861D01*
X-12851479Y13899355D01*
X-12749774Y13899622D01*
X-12749774Y13658272D01*
X-12919723Y13658174D01*
X-13049506Y13657501D01*
X-13145137Y13655683D01*
X-13212630Y13652152D01*
X-13258001Y13646340D01*
X-13287264Y13637677D01*
X-13306434Y13625594D01*
X-13321526Y13609523D01*
X-13326222Y13603760D01*
X-13358137Y13540810D01*
X-13370363Y13473545D01*
X-13356639Y13401863D01*
X-13326222Y13343331D01*
X-13311177Y13325934D01*
X-13293883Y13312699D01*
X-13268325Y13303057D01*
X-13228488Y13296438D01*
X-13168357Y13292273D01*
X-13081917Y13289995D01*
X-12963154Y13289034D01*
X-12806052Y13288821D01*
X-12749774Y13288818D01*
X-12565633Y13289120D01*
X-12422507Y13291062D01*
X-12315229Y13296195D01*
X-12238631Y13306074D01*
X-12187547Y13322250D01*
X-12156808Y13346275D01*
X-12141249Y13379703D01*
X-12135702Y13424086D01*
X-12135000Y13473545D01*
X-12136005Y13528876D01*
X-12142467Y13571882D01*
X-12159552Y13604117D01*
X-12192427Y13627133D01*
X-12246260Y13642483D01*
X-12326217Y13651719D01*
X-12437466Y13656395D01*
X-12585174Y13658061D01*
X-12749774Y13658272D01*
X-12749774Y13899622D01*
X-12707085Y13899735D01*
X-12565265Y13898009D01*
X-12435759Y13894184D01*
X-12328309Y13888268D01*
X-12252655Y13880269D01*
X-12230956Y13875820D01*
X-12158416Y13844206D01*
X-12082040Y13794200D01*
X-12057774Y13773814D01*
X-11973363Y13696457D01*
X-11973363Y13250633D01*
X-12058099Y13172979D01*
G36*
X-11975851Y14335987D02*
X-12019385Y14227784D01*
X-12094575Y14151393D01*
X-12203573Y14104814D01*
X-12348533Y14086049D01*
X-12384744Y14085454D01*
X-12539091Y14085454D01*
X-12539091Y14293272D01*
X-12387950Y14293272D01*
X-12300772Y14295811D01*
X-12244456Y14306185D01*
X-12203830Y14328532D01*
X-12180132Y14349950D01*
X-12132090Y14426236D01*
X-12126937Y14509216D01*
X-12164623Y14588580D01*
X-12181358Y14607276D01*
X-12239263Y14665180D01*
X-12760710Y14658181D01*
X-12928778Y14655804D01*
X-13056760Y14653335D01*
X-13150747Y14650113D01*
X-13216830Y14645474D01*
X-13261101Y14638756D01*
X-13289652Y14629296D01*
X-13308575Y14616433D01*
X-13323960Y14599502D01*
X-13326260Y14596669D01*
X-13365274Y14515762D01*
X-13362048Y14430560D01*
X-13317219Y14353572D01*
X-13313686Y14349950D01*
X-13275176Y14318210D01*
X-13230284Y14300982D01*
X-13163838Y14294127D01*
X-13105867Y14293272D01*
X-12954727Y14293272D01*
X-12954727Y14085454D01*
X-13084821Y14085454D01*
X-13239964Y14098284D01*
X-13361241Y14137910D01*
X-13453558Y14206038D01*
X-13463836Y14217245D01*
X-13499799Y14262438D01*
X-13520121Y14305350D01*
X-13529004Y14361368D01*
X-13530649Y14445876D01*
X-13530536Y14461485D01*
X-13527171Y14551431D01*
X-13519739Y14628272D01*
X-13509835Y14675634D01*
X-13509628Y14676156D01*
X-13459663Y14747200D01*
X-13376452Y14810848D01*
X-13272908Y14858214D01*
X-13226313Y14871147D01*
X-13145644Y14882173D01*
X-13022956Y14889115D01*
X-12862243Y14891839D01*
X-12667500Y14890207D01*
X-12666091Y14890181D01*
X-12512014Y14887028D01*
X-12396527Y14883453D01*
X-12312039Y14878552D01*
X-12250960Y14871423D01*
X-12205701Y14861160D01*
X-12168670Y14846861D01*
X-12132279Y14827621D01*
X-12130063Y14826354D01*
X-12045253Y14761134D01*
X-11991888Y14676613D01*
X-11965926Y14564419D01*
X-11961818Y14478000D01*
X-11975851Y14335987D01*
X-11975851Y14335987D01*
G37*
X-11975851Y14335987D02*
X-12019385Y14227784D01*
X-12094575Y14151393D01*
X-12203573Y14104814D01*
X-12348533Y14086049D01*
X-12384744Y14085454D01*
X-12539091Y14085454D01*
X-12539091Y14293272D01*
X-12387950Y14293272D01*
X-12300772Y14295811D01*
X-12244456Y14306185D01*
X-12203830Y14328532D01*
X-12180132Y14349950D01*
X-12132090Y14426236D01*
X-12126937Y14509216D01*
X-12164623Y14588580D01*
X-12181358Y14607276D01*
X-12239263Y14665180D01*
X-12760710Y14658181D01*
X-12928778Y14655804D01*
X-13056760Y14653335D01*
X-13150747Y14650113D01*
X-13216830Y14645474D01*
X-13261101Y14638756D01*
X-13289652Y14629296D01*
X-13308575Y14616433D01*
X-13323960Y14599502D01*
X-13326260Y14596669D01*
X-13365274Y14515762D01*
X-13362048Y14430560D01*
X-13317219Y14353572D01*
X-13313686Y14349950D01*
X-13275176Y14318210D01*
X-13230284Y14300982D01*
X-13163838Y14294127D01*
X-13105867Y14293272D01*
X-12954727Y14293272D01*
X-12954727Y14085454D01*
X-13084821Y14085454D01*
X-13239964Y14098284D01*
X-13361241Y14137910D01*
X-13453558Y14206038D01*
X-13463836Y14217245D01*
X-13499799Y14262438D01*
X-13520121Y14305350D01*
X-13529004Y14361368D01*
X-13530649Y14445876D01*
X-13530536Y14461485D01*
X-13527171Y14551431D01*
X-13519739Y14628272D01*
X-13509835Y14675634D01*
X-13509628Y14676156D01*
X-13459663Y14747200D01*
X-13376452Y14810848D01*
X-13272908Y14858214D01*
X-13226313Y14871147D01*
X-13145644Y14882173D01*
X-13022956Y14889115D01*
X-12862243Y14891839D01*
X-12667500Y14890207D01*
X-12666091Y14890181D01*
X-12512014Y14887028D01*
X-12396527Y14883453D01*
X-12312039Y14878552D01*
X-12250960Y14871423D01*
X-12205701Y14861160D01*
X-12168670Y14846861D01*
X-12132279Y14827621D01*
X-12130063Y14826354D01*
X-12045253Y14761134D01*
X-11991888Y14676613D01*
X-11965926Y14564419D01*
X-11961818Y14478000D01*
X-11975851Y14335987D01*
G36*
X-12429409Y15529779D02*
X-12566926Y15470302D01*
X-12690449Y15415865D01*
X-12793520Y15369395D01*
X-12869680Y15333821D01*
X-12912471Y15312073D01*
X-12918936Y15307770D01*
X-12904575Y15300354D01*
X-12847174Y15294343D01*
X-12749857Y15289881D01*
X-12615749Y15287112D01*
X-12451345Y15286182D01*
X-11961818Y15286182D01*
X-11961818Y15101454D01*
X-13532000Y15101454D01*
X-13531855Y15176500D01*
X-13531710Y15251545D01*
X-13033434Y15459363D01*
X-12891859Y15518960D01*
X-12764940Y15573434D01*
X-12658780Y15620083D01*
X-12579481Y15656199D01*
X-12533145Y15679079D01*
X-12523711Y15685317D01*
X-12542260Y15690476D01*
X-12600570Y15694822D01*
X-12692225Y15698155D01*
X-12810807Y15700273D01*
X-12949901Y15700974D01*
X-13016359Y15700779D01*
X-13520454Y15698106D01*
X-13527555Y15792326D01*
X-13534655Y15886545D01*
X-11961818Y15886545D01*
X-11961818Y15730199D01*
X-12429409Y15529779D01*
X-12429409Y15529779D01*
G37*
X-12429409Y15529779D02*
X-12566926Y15470302D01*
X-12690449Y15415865D01*
X-12793520Y15369395D01*
X-12869680Y15333821D01*
X-12912471Y15312073D01*
X-12918936Y15307770D01*
X-12904575Y15300354D01*
X-12847174Y15294343D01*
X-12749857Y15289881D01*
X-12615749Y15287112D01*
X-12451345Y15286182D01*
X-11961818Y15286182D01*
X-11961818Y15101454D01*
X-13532000Y15101454D01*
X-13531855Y15176500D01*
X-13531710Y15251545D01*
X-13033434Y15459363D01*
X-12891859Y15518960D01*
X-12764940Y15573434D01*
X-12658780Y15620083D01*
X-12579481Y15656199D01*
X-12533145Y15679079D01*
X-12523711Y15685317D01*
X-12542260Y15690476D01*
X-12600570Y15694822D01*
X-12692225Y15698155D01*
X-12810807Y15700273D01*
X-12949901Y15700974D01*
X-13016359Y15700779D01*
X-13520454Y15698106D01*
X-13527555Y15792326D01*
X-13534655Y15886545D01*
X-11961818Y15886545D01*
X-11961818Y15730199D01*
X-12429409Y15529779D01*
G36*
X-11967203Y16405795D02*
X-11985960Y16370484D01*
X-12002227Y16362047D01*
X-12039349Y16352751D01*
X-12113710Y16335884D01*
X-12218674Y16312840D01*
X-12347602Y16285010D01*
X-12493857Y16253788D01*
X-12650802Y16220565D01*
X-12811799Y16186736D01*
X-12970211Y16153691D01*
X-13119400Y16122825D01*
X-13252728Y16095529D01*
X-13363560Y16073197D01*
X-13445256Y16057220D01*
X-13491180Y16048992D01*
X-13498147Y16048182D01*
X-13521001Y16063180D01*
X-13531026Y16112978D01*
X-13532000Y16148541D01*
X-13532000Y16248899D01*
X-13151000Y16313727D01*
X-13144030Y16461715D01*
X-13144068Y16556071D01*
X-13154278Y16612906D01*
X-13163906Y16626296D01*
X-13198645Y16638074D01*
X-13265382Y16653758D01*
X-13350478Y16670185D01*
X-13361376Y16672074D01*
X-13532000Y16701260D01*
X-13532000Y16801903D01*
X-13526800Y16870219D01*
X-13509747Y16899967D01*
X-13498721Y16902545D01*
X-13469799Y16897921D01*
X-13402353Y16884975D01*
X-13303009Y16865100D01*
X-13178394Y16839685D01*
X-13035134Y16810122D01*
X-12955312Y16793509D01*
X-12955312Y16594986D01*
X-12970832Y16581225D01*
X-12976855Y16540350D01*
X-12977818Y16473300D01*
X-12976529Y16399963D01*
X-12969708Y16362755D01*
X-12952924Y16351636D01*
X-12925863Y16355584D01*
X-12883245Y16364524D01*
X-12806361Y16379657D01*
X-12706363Y16398818D01*
X-12601459Y16418531D01*
X-12497036Y16438605D01*
X-12412297Y16456107D01*
X-12355735Y16469195D01*
X-12335844Y16476028D01*
X-12335914Y16476129D01*
X-12359987Y16482735D01*
X-12420309Y16495573D01*
X-12507664Y16512764D01*
X-12608363Y16531614D01*
X-12718621Y16551964D01*
X-12816244Y16570288D01*
X-12889861Y16584431D01*
X-12925863Y16591733D01*
X-12955312Y16594986D01*
X-12955312Y16793509D01*
X-12879853Y16777803D01*
X-12719179Y16744118D01*
X-12559736Y16710457D01*
X-12408150Y16678214D01*
X-12271048Y16648778D01*
X-12155056Y16623540D01*
X-12066798Y16603892D01*
X-12012901Y16591224D01*
X-12002227Y16588358D01*
X-11975047Y16566849D01*
X-11963210Y16516847D01*
X-11961818Y16475363D01*
X-11967203Y16405795D01*
X-11967203Y16405795D01*
G37*
X-11967203Y16405795D02*
X-11985960Y16370484D01*
X-12002227Y16362047D01*
X-12039349Y16352751D01*
X-12113710Y16335884D01*
X-12218674Y16312840D01*
X-12347602Y16285010D01*
X-12493857Y16253788D01*
X-12650802Y16220565D01*
X-12811799Y16186736D01*
X-12970211Y16153691D01*
X-13119400Y16122825D01*
X-13252728Y16095529D01*
X-13363560Y16073197D01*
X-13445256Y16057220D01*
X-13491180Y16048992D01*
X-13498147Y16048182D01*
X-13521001Y16063180D01*
X-13531026Y16112978D01*
X-13532000Y16148541D01*
X-13532000Y16248899D01*
X-13151000Y16313727D01*
X-13144030Y16461715D01*
X-13144068Y16556071D01*
X-13154278Y16612906D01*
X-13163906Y16626296D01*
X-13198645Y16638074D01*
X-13265382Y16653758D01*
X-13350478Y16670185D01*
X-13361376Y16672074D01*
X-13532000Y16701260D01*
X-13532000Y16801903D01*
X-13526800Y16870219D01*
X-13509747Y16899967D01*
X-13498721Y16902545D01*
X-13469799Y16897921D01*
X-13402353Y16884975D01*
X-13303009Y16865100D01*
X-13178394Y16839685D01*
X-13035134Y16810122D01*
X-12955312Y16793509D01*
X-12955312Y16594986D01*
X-12970832Y16581225D01*
X-12976855Y16540350D01*
X-12977818Y16473300D01*
X-12976529Y16399963D01*
X-12969708Y16362755D01*
X-12952924Y16351636D01*
X-12925863Y16355584D01*
X-12883245Y16364524D01*
X-12806361Y16379657D01*
X-12706363Y16398818D01*
X-12601459Y16418531D01*
X-12497036Y16438605D01*
X-12412297Y16456107D01*
X-12355735Y16469195D01*
X-12335844Y16476028D01*
X-12335914Y16476129D01*
X-12359987Y16482735D01*
X-12420309Y16495573D01*
X-12507664Y16512764D01*
X-12608363Y16531614D01*
X-12718621Y16551964D01*
X-12816244Y16570288D01*
X-12889861Y16584431D01*
X-12925863Y16591733D01*
X-12955312Y16594986D01*
X-12955312Y16793509D01*
X-12879853Y16777803D01*
X-12719179Y16744118D01*
X-12559736Y16710457D01*
X-12408150Y16678214D01*
X-12271048Y16648778D01*
X-12155056Y16623540D01*
X-12066798Y16603892D01*
X-12012901Y16591224D01*
X-12002227Y16588358D01*
X-11975047Y16566849D01*
X-11963210Y16516847D01*
X-11961818Y16475363D01*
X-11967203Y16405795D01*
G36*
X-11966019Y17564596D02*
X-11975196Y17418442D01*
X-11992094Y17308977D01*
X-12020009Y17226923D01*
X-12062237Y17163000D01*
X-12122076Y17107928D01*
X-12130513Y17101535D01*
X-12174780Y17075430D01*
X-12229066Y17060672D01*
X-12307120Y17054561D01*
X-12372968Y17053929D01*
X-12497362Y17059968D01*
X-12588490Y17079720D01*
X-12658263Y17117316D01*
X-12714962Y17172551D01*
X-12763833Y17230388D01*
X-13107507Y17134064D01*
X-13229580Y17099840D01*
X-13338201Y17069370D01*
X-13424524Y17045137D01*
X-13479702Y17029623D01*
X-13492937Y17025887D01*
X-13517734Y17024177D01*
X-13528629Y17044502D01*
X-13529170Y17096996D01*
X-13527573Y17124797D01*
X-13520454Y17235560D01*
X-13220272Y17319195D01*
X-13103433Y17351613D01*
X-12997644Y17380719D01*
X-12913455Y17403627D01*
X-12861419Y17417449D01*
X-12856591Y17418673D01*
X-12812800Y17436943D01*
X-12795444Y17472649D01*
X-12793091Y17514894D01*
X-12793091Y17595272D01*
X-13532000Y17595272D01*
X-13532000Y17826182D01*
X-12631454Y17826182D01*
X-12631454Y17595272D01*
X-12631454Y17490314D01*
X-12623526Y17409055D01*
X-12594873Y17351161D01*
X-12574776Y17328677D01*
X-12533224Y17295243D01*
X-12483855Y17278050D01*
X-12410090Y17272245D01*
X-12381062Y17272000D01*
X-12271449Y17280178D01*
X-12198322Y17308699D01*
X-12154276Y17363545D01*
X-12131903Y17450698D01*
X-12129086Y17475513D01*
X-12117578Y17595272D01*
X-12631454Y17595272D01*
X-12631454Y17826182D01*
X-11956006Y17826182D01*
X-11966019Y17564596D01*
X-11966019Y17564596D01*
G37*
X-11966019Y17564596D02*
X-11975196Y17418442D01*
X-11992094Y17308977D01*
X-12020009Y17226923D01*
X-12062237Y17163000D01*
X-12122076Y17107928D01*
X-12130513Y17101535D01*
X-12174780Y17075430D01*
X-12229066Y17060672D01*
X-12307120Y17054561D01*
X-12372968Y17053929D01*
X-12497362Y17059968D01*
X-12588490Y17079720D01*
X-12658263Y17117316D01*
X-12714962Y17172551D01*
X-12763833Y17230388D01*
X-13107507Y17134064D01*
X-13229580Y17099840D01*
X-13338201Y17069370D01*
X-13424524Y17045137D01*
X-13479702Y17029623D01*
X-13492937Y17025887D01*
X-13517734Y17024177D01*
X-13528629Y17044502D01*
X-13529170Y17096996D01*
X-13527573Y17124797D01*
X-13520454Y17235560D01*
X-13220272Y17319195D01*
X-13103433Y17351613D01*
X-12997644Y17380719D01*
X-12913455Y17403627D01*
X-12861419Y17417449D01*
X-12856591Y17418673D01*
X-12812800Y17436943D01*
X-12795444Y17472649D01*
X-12793091Y17514894D01*
X-12793091Y17595272D01*
X-13532000Y17595272D01*
X-13532000Y17826182D01*
X-12631454Y17826182D01*
X-12631454Y17595272D01*
X-12631454Y17490314D01*
X-12623526Y17409055D01*
X-12594873Y17351161D01*
X-12574776Y17328677D01*
X-12533224Y17295243D01*
X-12483855Y17278050D01*
X-12410090Y17272245D01*
X-12381062Y17272000D01*
X-12271449Y17280178D01*
X-12198322Y17308699D01*
X-12154276Y17363545D01*
X-12131903Y17450698D01*
X-12129086Y17475513D01*
X-12117578Y17595272D01*
X-12631454Y17595272D01*
X-12631454Y17826182D01*
X-11956006Y17826182D01*
X-11966019Y17564596D01*
G36*
X-11961091Y18379373D02*
X-11976656Y18326005D01*
X-12002227Y18301684D01*
X-12039349Y18292387D01*
X-12113710Y18275521D01*
X-12218674Y18252476D01*
X-12347602Y18224646D01*
X-12493857Y18193424D01*
X-12650802Y18160202D01*
X-12811799Y18126372D01*
X-12970211Y18093328D01*
X-13119400Y18062461D01*
X-13252728Y18035166D01*
X-13363560Y18012833D01*
X-13445256Y17996857D01*
X-13491180Y17988628D01*
X-13498147Y17987818D01*
X-13521001Y18002817D01*
X-13531026Y18052614D01*
X-13532000Y18088177D01*
X-13532000Y18188536D01*
X-13341500Y18220950D01*
X-13151000Y18253363D01*
X-13144030Y18401352D01*
X-13144068Y18495707D01*
X-13154278Y18552542D01*
X-13163906Y18565932D01*
X-13198645Y18577710D01*
X-13265382Y18593394D01*
X-13350478Y18609822D01*
X-13361376Y18611710D01*
X-13532000Y18640896D01*
X-13532000Y18741539D01*
X-13526800Y18809855D01*
X-13509747Y18839603D01*
X-13498721Y18842182D01*
X-13469799Y18837557D01*
X-13402353Y18824612D01*
X-13303009Y18804736D01*
X-13178394Y18779321D01*
X-13035134Y18749759D01*
X-12955312Y18733145D01*
X-12955312Y18534623D01*
X-12970832Y18520861D01*
X-12976855Y18479986D01*
X-12977818Y18412936D01*
X-12976529Y18339599D01*
X-12969708Y18302391D01*
X-12952924Y18291272D01*
X-12925863Y18295220D01*
X-12883245Y18304160D01*
X-12806361Y18319293D01*
X-12706363Y18338454D01*
X-12601459Y18358168D01*
X-12497036Y18378241D01*
X-12412297Y18395743D01*
X-12355735Y18408832D01*
X-12335844Y18415664D01*
X-12335914Y18415765D01*
X-12359987Y18422372D01*
X-12420309Y18435209D01*
X-12507664Y18452400D01*
X-12608363Y18471251D01*
X-12718621Y18491601D01*
X-12816244Y18509924D01*
X-12889861Y18524068D01*
X-12925863Y18531370D01*
X-12955312Y18534623D01*
X-12955312Y18733145D01*
X-12879853Y18717439D01*
X-12719179Y18683754D01*
X-12559736Y18650094D01*
X-12408150Y18617850D01*
X-12271048Y18588414D01*
X-12155056Y18563176D01*
X-12066798Y18543528D01*
X-12012901Y18530861D01*
X-12002227Y18527994D01*
X-11973877Y18498319D01*
X-11960165Y18442795D01*
X-11961091Y18379373D01*
X-11961091Y18379373D01*
G37*
X-11961091Y18379373D02*
X-11976656Y18326005D01*
X-12002227Y18301684D01*
X-12039349Y18292387D01*
X-12113710Y18275521D01*
X-12218674Y18252476D01*
X-12347602Y18224646D01*
X-12493857Y18193424D01*
X-12650802Y18160202D01*
X-12811799Y18126372D01*
X-12970211Y18093328D01*
X-13119400Y18062461D01*
X-13252728Y18035166D01*
X-13363560Y18012833D01*
X-13445256Y17996857D01*
X-13491180Y17988628D01*
X-13498147Y17987818D01*
X-13521001Y18002817D01*
X-13531026Y18052614D01*
X-13532000Y18088177D01*
X-13532000Y18188536D01*
X-13341500Y18220950D01*
X-13151000Y18253363D01*
X-13144030Y18401352D01*
X-13144068Y18495707D01*
X-13154278Y18552542D01*
X-13163906Y18565932D01*
X-13198645Y18577710D01*
X-13265382Y18593394D01*
X-13350478Y18609822D01*
X-13361376Y18611710D01*
X-13532000Y18640896D01*
X-13532000Y18741539D01*
X-13526800Y18809855D01*
X-13509747Y18839603D01*
X-13498721Y18842182D01*
X-13469799Y18837557D01*
X-13402353Y18824612D01*
X-13303009Y18804736D01*
X-13178394Y18779321D01*
X-13035134Y18749759D01*
X-12955312Y18733145D01*
X-12955312Y18534623D01*
X-12970832Y18520861D01*
X-12976855Y18479986D01*
X-12977818Y18412936D01*
X-12976529Y18339599D01*
X-12969708Y18302391D01*
X-12952924Y18291272D01*
X-12925863Y18295220D01*
X-12883245Y18304160D01*
X-12806361Y18319293D01*
X-12706363Y18338454D01*
X-12601459Y18358168D01*
X-12497036Y18378241D01*
X-12412297Y18395743D01*
X-12355735Y18408832D01*
X-12335844Y18415664D01*
X-12335914Y18415765D01*
X-12359987Y18422372D01*
X-12420309Y18435209D01*
X-12507664Y18452400D01*
X-12608363Y18471251D01*
X-12718621Y18491601D01*
X-12816244Y18509924D01*
X-12889861Y18524068D01*
X-12925863Y18531370D01*
X-12955312Y18534623D01*
X-12955312Y18733145D01*
X-12879853Y18717439D01*
X-12719179Y18683754D01*
X-12559736Y18650094D01*
X-12408150Y18617850D01*
X-12271048Y18588414D01*
X-12155056Y18563176D01*
X-12066798Y18543528D01*
X-12012901Y18530861D01*
X-12002227Y18527994D01*
X-11973877Y18498319D01*
X-11960165Y18442795D01*
X-11961091Y18379373D01*
G36*
X-13532000Y19026909D02*
X-13532000Y19234727D01*
X-11961818Y19234727D01*
X-11961818Y19026909D01*
X-13532000Y19026909D01*
X-13532000Y19026909D01*
G37*
X-13532000Y19026909D02*
X-13532000Y19234727D01*
X-11961818Y19234727D01*
X-11961818Y19026909D01*
X-13532000Y19026909D01*
G36*
X-11975851Y19716169D02*
X-12019385Y19607966D01*
X-12094575Y19531575D01*
X-12203573Y19484996D01*
X-12348533Y19466231D01*
X-12384744Y19465636D01*
X-12539091Y19465636D01*
X-12539091Y19673454D01*
X-12387950Y19673454D01*
X-12300772Y19675993D01*
X-12244456Y19686367D01*
X-12203830Y19708714D01*
X-12180132Y19730132D01*
X-12132090Y19806418D01*
X-12126937Y19889398D01*
X-12164623Y19968762D01*
X-12181358Y19987458D01*
X-12239263Y20045362D01*
X-12760710Y20038363D01*
X-12928778Y20035986D01*
X-13056760Y20033517D01*
X-13150747Y20030295D01*
X-13216830Y20025656D01*
X-13261101Y20018938D01*
X-13289652Y20009478D01*
X-13308575Y19996614D01*
X-13323960Y19979684D01*
X-13326260Y19976851D01*
X-13365274Y19895944D01*
X-13362048Y19810742D01*
X-13317219Y19733754D01*
X-13313686Y19730132D01*
X-13275176Y19698392D01*
X-13230284Y19681164D01*
X-13163838Y19674309D01*
X-13105867Y19673454D01*
X-12954727Y19673454D01*
X-12954727Y19465636D01*
X-13084821Y19465636D01*
X-13239964Y19478466D01*
X-13361241Y19518092D01*
X-13453558Y19586219D01*
X-13463836Y19597427D01*
X-13499799Y19642620D01*
X-13520121Y19685532D01*
X-13529004Y19741549D01*
X-13530649Y19826058D01*
X-13530536Y19841667D01*
X-13527171Y19931613D01*
X-13519739Y20008454D01*
X-13509835Y20055816D01*
X-13509628Y20056338D01*
X-13459663Y20127382D01*
X-13376452Y20191030D01*
X-13272908Y20238395D01*
X-13226313Y20251329D01*
X-13145644Y20262355D01*
X-13022956Y20269297D01*
X-12862243Y20272020D01*
X-12667500Y20270389D01*
X-12666091Y20270363D01*
X-12512014Y20267210D01*
X-12396527Y20263635D01*
X-12312039Y20258734D01*
X-12250960Y20251605D01*
X-12205701Y20241342D01*
X-12168670Y20227043D01*
X-12132279Y20207803D01*
X-12130063Y20206536D01*
X-12045253Y20141316D01*
X-11991888Y20056795D01*
X-11965926Y19944601D01*
X-11961818Y19858182D01*
X-11975851Y19716169D01*
X-11975851Y19716169D01*
G37*
X-11975851Y19716169D02*
X-12019385Y19607966D01*
X-12094575Y19531575D01*
X-12203573Y19484996D01*
X-12348533Y19466231D01*
X-12384744Y19465636D01*
X-12539091Y19465636D01*
X-12539091Y19673454D01*
X-12387950Y19673454D01*
X-12300772Y19675993D01*
X-12244456Y19686367D01*
X-12203830Y19708714D01*
X-12180132Y19730132D01*
X-12132090Y19806418D01*
X-12126937Y19889398D01*
X-12164623Y19968762D01*
X-12181358Y19987458D01*
X-12239263Y20045362D01*
X-12760710Y20038363D01*
X-12928778Y20035986D01*
X-13056760Y20033517D01*
X-13150747Y20030295D01*
X-13216830Y20025656D01*
X-13261101Y20018938D01*
X-13289652Y20009478D01*
X-13308575Y19996614D01*
X-13323960Y19979684D01*
X-13326260Y19976851D01*
X-13365274Y19895944D01*
X-13362048Y19810742D01*
X-13317219Y19733754D01*
X-13313686Y19730132D01*
X-13275176Y19698392D01*
X-13230284Y19681164D01*
X-13163838Y19674309D01*
X-13105867Y19673454D01*
X-12954727Y19673454D01*
X-12954727Y19465636D01*
X-13084821Y19465636D01*
X-13239964Y19478466D01*
X-13361241Y19518092D01*
X-13453558Y19586219D01*
X-13463836Y19597427D01*
X-13499799Y19642620D01*
X-13520121Y19685532D01*
X-13529004Y19741549D01*
X-13530649Y19826058D01*
X-13530536Y19841667D01*
X-13527171Y19931613D01*
X-13519739Y20008454D01*
X-13509835Y20055816D01*
X-13509628Y20056338D01*
X-13459663Y20127382D01*
X-13376452Y20191030D01*
X-13272908Y20238395D01*
X-13226313Y20251329D01*
X-13145644Y20262355D01*
X-13022956Y20269297D01*
X-12862243Y20272020D01*
X-12667500Y20270389D01*
X-12666091Y20270363D01*
X-12512014Y20267210D01*
X-12396527Y20263635D01*
X-12312039Y20258734D01*
X-12250960Y20251605D01*
X-12205701Y20241342D01*
X-12168670Y20227043D01*
X-12132279Y20207803D01*
X-12130063Y20206536D01*
X-12045253Y20141316D01*
X-11991888Y20056795D01*
X-11965926Y19944601D01*
X-11961818Y19858182D01*
X-11975851Y19716169D01*
G36*
X103518Y-11756655D02*
X202471Y-11760093D01*
X288514Y-11765664D01*
X342900Y-11771537D01*
X433215Y-11786696D01*
X536111Y-11808400D01*
X643583Y-11834606D01*
X747624Y-11863273D01*
X840227Y-11892359D01*
X895350Y-11912423D01*
X1113648Y-12012036D01*
X1323675Y-12134480D01*
X1523290Y-12277938D01*
X1710353Y-12440593D01*
X1882726Y-12620628D01*
X2038269Y-12816225D01*
X2142298Y-12971564D01*
X2253523Y-13174804D01*
X2344787Y-13392439D01*
X2415320Y-13622230D01*
X2464354Y-13861935D01*
X2475877Y-13944366D01*
X2477850Y-13973618D01*
X2479666Y-14028196D01*
X2481325Y-14108028D01*
X2482827Y-14213040D01*
X2484171Y-14343158D01*
X2485358Y-14498310D01*
X2486385Y-14678423D01*
X2487254Y-14883424D01*
X2487963Y-15113239D01*
X2488513Y-15367795D01*
X2488902Y-15647019D01*
X2489131Y-15950838D01*
X2489200Y-16251941D01*
X2489175Y-16535317D01*
X2489095Y-16794436D01*
X2488951Y-17030438D01*
X2488733Y-17244467D01*
X2488433Y-17437665D01*
X2488040Y-17611173D01*
X2487545Y-17766134D01*
X2486941Y-17903690D01*
X2486216Y-18024983D01*
X2485362Y-18131155D01*
X2484370Y-18223348D01*
X2483231Y-18302704D01*
X2481934Y-18370366D01*
X2480472Y-18427476D01*
X2478834Y-18475175D01*
X2477012Y-18514606D01*
X2474996Y-18546911D01*
X2472778Y-18573232D01*
X2470347Y-18594711D01*
X2470253Y-18595424D01*
X2426515Y-18838661D01*
X2360841Y-19070229D01*
X2272789Y-19290990D01*
X2161915Y-19501803D01*
X2027779Y-19703529D01*
X1869937Y-19897029D01*
X1722117Y-20050541D01*
X1530488Y-20220579D01*
X1331187Y-20366566D01*
X1123346Y-20488924D01*
X906095Y-20588077D01*
X678566Y-20664444D01*
X439890Y-20718449D01*
X305133Y-20738577D01*
X234876Y-20744686D01*
X145992Y-20748521D01*
X45145Y-20750152D01*
X-60999Y-20749649D01*
X-165776Y-20747082D01*
X-262522Y-20742521D01*
X-344572Y-20736036D01*
X-383338Y-20731343D01*
X-500561Y-20710841D01*
X-624929Y-20682941D01*
X-747234Y-20650023D01*
X-858271Y-20614467D01*
X-909652Y-20595268D01*
X-960670Y-20575313D01*
X-1004082Y-20558989D01*
X-1033585Y-20548635D01*
X-1041400Y-20546373D01*
X-1062352Y-20538171D01*
X-1066800Y-20534490D01*
X-1080734Y-20525004D01*
X-1110535Y-20508282D01*
X-1142929Y-20491429D01*
X-1311486Y-20395550D01*
X-1481449Y-20277892D01*
X-1648689Y-20141465D01*
X-1746332Y-20051540D01*
X-1793334Y-20007547D01*
X-1834202Y-19971696D01*
X-1865416Y-19946893D01*
X-1883459Y-19936043D01*
X-1886088Y-19936143D01*
X-1890807Y-19936706D01*
X-1888188Y-19931113D01*
X-1892376Y-19915935D01*
X-1910202Y-19886445D01*
X-1938546Y-19847418D01*
X-1962190Y-19817919D01*
X-2108637Y-19622151D01*
X-2233235Y-19413768D01*
X-2335564Y-19193797D01*
X-2415201Y-18963264D01*
X-2471725Y-18723195D01*
X-2502093Y-18504000D01*
X-2504075Y-18472164D01*
X-2505846Y-18420383D01*
X-2507407Y-18348230D01*
X-2508761Y-18255279D01*
X-2509910Y-18141105D01*
X-2510854Y-18005280D01*
X-2511595Y-17847381D01*
X-2512136Y-17666979D01*
X-2512478Y-17463650D01*
X-2512622Y-17236967D01*
X-2512571Y-16986504D01*
X-2512325Y-16711836D01*
X-2511888Y-16412535D01*
X-2511399Y-16154500D01*
X-2510824Y-15877244D01*
X-2510284Y-15624202D01*
X-2509764Y-15394190D01*
X-2509248Y-15186021D01*
X-2508718Y-14998510D01*
X-2508159Y-14830471D01*
X-2507555Y-14680720D01*
X-2506889Y-14548069D01*
X-2506145Y-14431335D01*
X-2505307Y-14329330D01*
X-2504358Y-14240871D01*
X-2503283Y-14164771D01*
X-2502065Y-14099845D01*
X-2500688Y-14044907D01*
X-2499136Y-13998771D01*
X-2497391Y-13960253D01*
X-2495439Y-13928167D01*
X-2493263Y-13901327D01*
X-2490847Y-13878548D01*
X-2488174Y-13858644D01*
X-2485229Y-13840430D01*
X-2481994Y-13822720D01*
X-2479265Y-13808521D01*
X-2423702Y-13570848D01*
X-2351678Y-13350581D01*
X-2261546Y-13144587D01*
X-2151658Y-12949735D01*
X-2020366Y-12762890D01*
X-1866021Y-12580921D01*
X-1793437Y-12504696D01*
X-1607693Y-12330741D01*
X-1415483Y-12180872D01*
X-1215132Y-12054234D01*
X-1004970Y-11949969D01*
X-783323Y-11867221D01*
X-548518Y-11805133D01*
X-361950Y-11771488D01*
X-293996Y-11764250D01*
X-207102Y-11759149D01*
X-107639Y-11756183D01*
X-1975Y-11755352D01*
X103518Y-11756655D01*
X103518Y-11756655D01*
G37*
X103518Y-11756655D02*
X202471Y-11760093D01*
X288514Y-11765664D01*
X342900Y-11771537D01*
X433215Y-11786696D01*
X536111Y-11808400D01*
X643583Y-11834606D01*
X747624Y-11863273D01*
X840227Y-11892359D01*
X895350Y-11912423D01*
X1113648Y-12012036D01*
X1323675Y-12134480D01*
X1523290Y-12277938D01*
X1710353Y-12440593D01*
X1882726Y-12620628D01*
X2038269Y-12816225D01*
X2142298Y-12971564D01*
X2253523Y-13174804D01*
X2344787Y-13392439D01*
X2415320Y-13622230D01*
X2464354Y-13861935D01*
X2475877Y-13944366D01*
X2477850Y-13973618D01*
X2479666Y-14028196D01*
X2481325Y-14108028D01*
X2482827Y-14213040D01*
X2484171Y-14343158D01*
X2485358Y-14498310D01*
X2486385Y-14678423D01*
X2487254Y-14883424D01*
X2487963Y-15113239D01*
X2488513Y-15367795D01*
X2488902Y-15647019D01*
X2489131Y-15950838D01*
X2489200Y-16251941D01*
X2489175Y-16535317D01*
X2489095Y-16794436D01*
X2488951Y-17030438D01*
X2488733Y-17244467D01*
X2488433Y-17437665D01*
X2488040Y-17611173D01*
X2487545Y-17766134D01*
X2486941Y-17903690D01*
X2486216Y-18024983D01*
X2485362Y-18131155D01*
X2484370Y-18223348D01*
X2483231Y-18302704D01*
X2481934Y-18370366D01*
X2480472Y-18427476D01*
X2478834Y-18475175D01*
X2477012Y-18514606D01*
X2474996Y-18546911D01*
X2472778Y-18573232D01*
X2470347Y-18594711D01*
X2470253Y-18595424D01*
X2426515Y-18838661D01*
X2360841Y-19070229D01*
X2272789Y-19290990D01*
X2161915Y-19501803D01*
X2027779Y-19703529D01*
X1869937Y-19897029D01*
X1722117Y-20050541D01*
X1530488Y-20220579D01*
X1331187Y-20366566D01*
X1123346Y-20488924D01*
X906095Y-20588077D01*
X678566Y-20664444D01*
X439890Y-20718449D01*
X305133Y-20738577D01*
X234876Y-20744686D01*
X145992Y-20748521D01*
X45145Y-20750152D01*
X-60999Y-20749649D01*
X-165776Y-20747082D01*
X-262522Y-20742521D01*
X-344572Y-20736036D01*
X-383338Y-20731343D01*
X-500561Y-20710841D01*
X-624929Y-20682941D01*
X-747234Y-20650023D01*
X-858271Y-20614467D01*
X-909652Y-20595268D01*
X-960670Y-20575313D01*
X-1004082Y-20558989D01*
X-1033585Y-20548635D01*
X-1041400Y-20546373D01*
X-1062352Y-20538171D01*
X-1066800Y-20534490D01*
X-1080734Y-20525004D01*
X-1110535Y-20508282D01*
X-1142929Y-20491429D01*
X-1311486Y-20395550D01*
X-1481449Y-20277892D01*
X-1648689Y-20141465D01*
X-1746332Y-20051540D01*
X-1793334Y-20007547D01*
X-1834202Y-19971696D01*
X-1865416Y-19946893D01*
X-1883459Y-19936043D01*
X-1886088Y-19936143D01*
X-1890807Y-19936706D01*
X-1888188Y-19931113D01*
X-1892376Y-19915935D01*
X-1910202Y-19886445D01*
X-1938546Y-19847418D01*
X-1962190Y-19817919D01*
X-2108637Y-19622151D01*
X-2233235Y-19413768D01*
X-2335564Y-19193797D01*
X-2415201Y-18963264D01*
X-2471725Y-18723195D01*
X-2502093Y-18504000D01*
X-2504075Y-18472164D01*
X-2505846Y-18420383D01*
X-2507407Y-18348230D01*
X-2508761Y-18255279D01*
X-2509910Y-18141105D01*
X-2510854Y-18005280D01*
X-2511595Y-17847381D01*
X-2512136Y-17666979D01*
X-2512478Y-17463650D01*
X-2512622Y-17236967D01*
X-2512571Y-16986504D01*
X-2512325Y-16711836D01*
X-2511888Y-16412535D01*
X-2511399Y-16154500D01*
X-2510824Y-15877244D01*
X-2510284Y-15624202D01*
X-2509764Y-15394190D01*
X-2509248Y-15186021D01*
X-2508718Y-14998510D01*
X-2508159Y-14830471D01*
X-2507555Y-14680720D01*
X-2506889Y-14548069D01*
X-2506145Y-14431335D01*
X-2505307Y-14329330D01*
X-2504358Y-14240871D01*
X-2503283Y-14164771D01*
X-2502065Y-14099845D01*
X-2500688Y-14044907D01*
X-2499136Y-13998771D01*
X-2497391Y-13960253D01*
X-2495439Y-13928167D01*
X-2493263Y-13901327D01*
X-2490847Y-13878548D01*
X-2488174Y-13858644D01*
X-2485229Y-13840430D01*
X-2481994Y-13822720D01*
X-2479265Y-13808521D01*
X-2423702Y-13570848D01*
X-2351678Y-13350581D01*
X-2261546Y-13144587D01*
X-2151658Y-12949735D01*
X-2020366Y-12762890D01*
X-1866021Y-12580921D01*
X-1793437Y-12504696D01*
X-1607693Y-12330741D01*
X-1415483Y-12180872D01*
X-1215132Y-12054234D01*
X-1004970Y-11949969D01*
X-783323Y-11867221D01*
X-548518Y-11805133D01*
X-361950Y-11771488D01*
X-293996Y-11764250D01*
X-207102Y-11759149D01*
X-107639Y-11756183D01*
X-1975Y-11755352D01*
X103518Y-11756655D01*
G36*
X1092200Y-21558350D02*
X1085850Y-21564700D01*
X1079500Y-21558350D01*
X1085850Y-21552000D01*
X1092200Y-21558350D01*
X1092200Y-21558350D01*
G37*
X1092200Y-21558350D02*
X1085850Y-21564700D01*
X1079500Y-21558350D01*
X1085850Y-21552000D01*
X1092200Y-21558350D01*
G36*
X749300Y-21647250D02*
X742950Y-21653600D01*
X736600Y-21647250D01*
X742950Y-21640900D01*
X749300Y-21647250D01*
X749300Y-21647250D01*
G37*
X749300Y-21647250D02*
X742950Y-21653600D01*
X736600Y-21647250D01*
X742950Y-21640900D01*
X749300Y-21647250D01*
G36*
X-3949719Y-16758479D02*
X-3903920Y-16761518D01*
X-3868109Y-16768143D01*
X-3834590Y-16779631D01*
X-3806792Y-16791987D01*
X-3721429Y-16844034D01*
X-3643016Y-16914458D01*
X-3578692Y-16996235D01*
X-3552618Y-17042054D01*
X-3511550Y-17125430D01*
X-3503537Y-17855990D01*
X-3501625Y-18022232D01*
X-3499687Y-18165744D01*
X-3497546Y-18289193D01*
X-3495028Y-18395249D01*
X-3491954Y-18486581D01*
X-3488148Y-18565856D01*
X-3483435Y-18635744D01*
X-3477637Y-18698913D01*
X-3470579Y-18758032D01*
X-3462083Y-18815770D01*
X-3451974Y-18874796D01*
X-3440074Y-18937777D01*
X-3428007Y-18998471D01*
X-3361765Y-19263730D01*
X-3271356Y-19524396D01*
X-3157834Y-19778873D01*
X-3022252Y-20025566D01*
X-2865666Y-20262881D01*
X-2689131Y-20489223D01*
X-2493699Y-20702996D01*
X-2280427Y-20902607D01*
X-2050368Y-21086459D01*
X-2044700Y-21090627D01*
X-1804604Y-21252401D01*
X-1556998Y-21390502D01*
X-1300644Y-21505408D01*
X-1034302Y-21597591D01*
X-756732Y-21667527D01*
X-466696Y-21715690D01*
X-389079Y-21724706D01*
X-259268Y-21734781D01*
X-113121Y-21739796D01*
X41761Y-21739913D01*
X197778Y-21735294D01*
X347330Y-21726099D01*
X482818Y-21712490D01*
X536710Y-21705041D01*
X826332Y-21648637D01*
X1105018Y-21569494D01*
X1373083Y-21467449D01*
X1630841Y-21342341D01*
X1878607Y-21194008D01*
X2116694Y-21022289D01*
X2345417Y-20827021D01*
X2463244Y-20713632D01*
X2670864Y-20489104D01*
X2855080Y-20254882D01*
X3015827Y-20011108D01*
X3153042Y-19757922D01*
X3266660Y-19495465D01*
X3356618Y-19223877D01*
X3422851Y-18943300D01*
X3465295Y-18653874D01*
X3478726Y-18486632D01*
X3480951Y-18435279D01*
X3483104Y-18362220D01*
X3485123Y-18271149D01*
X3486950Y-18165757D01*
X3488524Y-18049740D01*
X3489786Y-17926790D01*
X3490674Y-17800600D01*
X3490979Y-17732204D01*
X3491578Y-17592309D01*
X3492367Y-17475486D01*
X3493428Y-17379406D01*
X3494841Y-17301740D01*
X3496688Y-17240161D01*
X3499049Y-17192340D01*
X3502007Y-17155948D01*
X3505641Y-17128657D01*
X3510033Y-17108139D01*
X3513067Y-17098106D01*
X3560023Y-16998219D01*
X3627895Y-16909364D01*
X3713209Y-16835484D01*
X3779500Y-16795766D01*
X3816956Y-16778029D01*
X3849377Y-16766872D01*
X3884771Y-16760792D01*
X3931145Y-16758283D01*
X3981450Y-16757838D01*
X4071690Y-16761483D01*
X4144730Y-16773984D01*
X4207861Y-16797478D01*
X4268378Y-16834103D01*
X4285904Y-16847044D01*
X4318127Y-16868850D01*
X4342764Y-16880468D01*
X4351772Y-16880611D01*
X4356081Y-16879462D01*
X4353214Y-16883402D01*
X4355378Y-16898679D01*
X4371302Y-16924687D01*
X4383679Y-16939973D01*
X4411917Y-16977906D01*
X4441208Y-17026061D01*
X4456415Y-17055620D01*
X4489450Y-17126050D01*
X4489422Y-17881700D01*
X4489303Y-18055346D01*
X4488853Y-18206284D01*
X4487907Y-18337205D01*
X4486302Y-18450801D01*
X4483875Y-18549762D01*
X4480462Y-18636780D01*
X4475901Y-18714546D01*
X4470027Y-18785752D01*
X4462678Y-18853088D01*
X4453689Y-18919246D01*
X4442898Y-18986917D01*
X4430142Y-19058793D01*
X4415257Y-19137564D01*
X4412245Y-19153165D01*
X4338115Y-19469732D01*
X4239654Y-19779598D01*
X4117259Y-20081882D01*
X3971322Y-20375703D01*
X3802239Y-20660178D01*
X3621499Y-20919679D01*
X3451588Y-21132144D01*
X3264795Y-21339550D01*
X3065174Y-21538137D01*
X2856778Y-21724148D01*
X2643660Y-21893823D01*
X2429875Y-22043404D01*
X2366301Y-22083744D01*
X2079697Y-22246350D01*
X1780574Y-22387503D01*
X1471183Y-22506413D01*
X1153775Y-22602289D01*
X830601Y-22674343D01*
X568325Y-22714437D01*
X495300Y-22723326D01*
X495300Y-23748537D01*
X1558925Y-23751993D01*
X2622550Y-23755450D01*
X2698750Y-23792808D01*
X2772774Y-23838797D01*
X2843633Y-23900156D01*
X2903577Y-23969379D01*
X2938086Y-24024626D01*
X2976278Y-24126367D01*
X2990928Y-24230644D01*
X2983211Y-24334150D01*
X2954304Y-24433580D01*
X2905383Y-24525626D01*
X2837625Y-24606983D01*
X2752207Y-24674344D01*
X2695895Y-24705292D01*
X2609850Y-24746050D01*
X6350Y-24748437D01*
X-305188Y-24748698D01*
X-592269Y-24748883D01*
X-855836Y-24748987D01*
X-1096831Y-24749005D01*
X-1316197Y-24748931D01*
X-1514878Y-24748761D01*
X-1693815Y-24748490D01*
X-1853953Y-24748112D01*
X-1996233Y-24747622D01*
X-2121598Y-24747015D01*
X-2230992Y-24746287D01*
X-2325357Y-24745431D01*
X-2405635Y-24744443D01*
X-2472770Y-24743318D01*
X-2527705Y-24742051D01*
X-2571382Y-24740636D01*
X-2604745Y-24739068D01*
X-2628735Y-24737343D01*
X-2644296Y-24735455D01*
X-2650668Y-24734037D01*
X-2750386Y-24689736D01*
X-2840142Y-24623648D01*
X-2916806Y-24538450D01*
X-2961336Y-24468267D01*
X-2979967Y-24432601D01*
X-2992117Y-24403194D01*
X-2999168Y-24372924D01*
X-3002500Y-24334674D01*
X-3003496Y-24281323D01*
X-3003550Y-24250750D01*
X-3002998Y-24186986D01*
X-3000516Y-24141372D01*
X-2994871Y-24106666D01*
X-2984829Y-24075627D01*
X-2969153Y-24041014D01*
X-2967061Y-24036736D01*
X-2917749Y-23958711D01*
X-2851139Y-23884850D01*
X-2775070Y-23822990D01*
X-2722264Y-23791939D01*
X-2647950Y-23755450D01*
X-1584325Y-23751993D01*
X-520700Y-23748537D01*
X-520700Y-22722783D01*
X-587375Y-22714432D01*
X-922444Y-22660038D01*
X-1248218Y-22582163D01*
X-1564073Y-22481200D01*
X-1869388Y-22357539D01*
X-2163540Y-22211574D01*
X-2445907Y-22043697D01*
X-2715866Y-21854300D01*
X-2972795Y-21643776D01*
X-3216071Y-21412516D01*
X-3445072Y-21160913D01*
X-3659175Y-20889359D01*
X-3797045Y-20691840D01*
X-3967918Y-20411689D01*
X-4115985Y-20120607D01*
X-4240974Y-19819381D01*
X-4342615Y-19508796D01*
X-4420637Y-19189638D01*
X-4474770Y-18862693D01*
X-4495701Y-18662750D01*
X-4499529Y-18599081D01*
X-4502588Y-18511113D01*
X-4504865Y-18399936D01*
X-4506347Y-18266640D01*
X-4507020Y-18112314D01*
X-4506872Y-17938049D01*
X-4506238Y-17799150D01*
X-4502150Y-17113350D01*
X-4464928Y-17039842D01*
X-4412016Y-16958250D01*
X-4341179Y-16882248D01*
X-4259826Y-16819246D01*
X-4222750Y-16797627D01*
X-4186399Y-16779528D01*
X-4155732Y-16767922D01*
X-4123228Y-16761379D01*
X-4081367Y-16758467D01*
X-4022628Y-16757755D01*
X-4013200Y-16757750D01*
X-3949719Y-16758479D01*
X-3949719Y-16758479D01*
G37*
X-3949719Y-16758479D02*
X-3903920Y-16761518D01*
X-3868109Y-16768143D01*
X-3834590Y-16779631D01*
X-3806792Y-16791987D01*
X-3721429Y-16844034D01*
X-3643016Y-16914458D01*
X-3578692Y-16996235D01*
X-3552618Y-17042054D01*
X-3511550Y-17125430D01*
X-3503537Y-17855990D01*
X-3501625Y-18022232D01*
X-3499687Y-18165744D01*
X-3497546Y-18289193D01*
X-3495028Y-18395249D01*
X-3491954Y-18486581D01*
X-3488148Y-18565856D01*
X-3483435Y-18635744D01*
X-3477637Y-18698913D01*
X-3470579Y-18758032D01*
X-3462083Y-18815770D01*
X-3451974Y-18874796D01*
X-3440074Y-18937777D01*
X-3428007Y-18998471D01*
X-3361765Y-19263730D01*
X-3271356Y-19524396D01*
X-3157834Y-19778873D01*
X-3022252Y-20025566D01*
X-2865666Y-20262881D01*
X-2689131Y-20489223D01*
X-2493699Y-20702996D01*
X-2280427Y-20902607D01*
X-2050368Y-21086459D01*
X-2044700Y-21090627D01*
X-1804604Y-21252401D01*
X-1556998Y-21390502D01*
X-1300644Y-21505408D01*
X-1034302Y-21597591D01*
X-756732Y-21667527D01*
X-466696Y-21715690D01*
X-389079Y-21724706D01*
X-259268Y-21734781D01*
X-113121Y-21739796D01*
X41761Y-21739913D01*
X197778Y-21735294D01*
X347330Y-21726099D01*
X482818Y-21712490D01*
X536710Y-21705041D01*
X826332Y-21648637D01*
X1105018Y-21569494D01*
X1373083Y-21467449D01*
X1630841Y-21342341D01*
X1878607Y-21194008D01*
X2116694Y-21022289D01*
X2345417Y-20827021D01*
X2463244Y-20713632D01*
X2670864Y-20489104D01*
X2855080Y-20254882D01*
X3015827Y-20011108D01*
X3153042Y-19757922D01*
X3266660Y-19495465D01*
X3356618Y-19223877D01*
X3422851Y-18943300D01*
X3465295Y-18653874D01*
X3478726Y-18486632D01*
X3480951Y-18435279D01*
X3483104Y-18362220D01*
X3485123Y-18271149D01*
X3486950Y-18165757D01*
X3488524Y-18049740D01*
X3489786Y-17926790D01*
X3490674Y-17800600D01*
X3490979Y-17732204D01*
X3491578Y-17592309D01*
X3492367Y-17475486D01*
X3493428Y-17379406D01*
X3494841Y-17301740D01*
X3496688Y-17240161D01*
X3499049Y-17192340D01*
X3502007Y-17155948D01*
X3505641Y-17128657D01*
X3510033Y-17108139D01*
X3513067Y-17098106D01*
X3560023Y-16998219D01*
X3627895Y-16909364D01*
X3713209Y-16835484D01*
X3779500Y-16795766D01*
X3816956Y-16778029D01*
X3849377Y-16766872D01*
X3884771Y-16760792D01*
X3931145Y-16758283D01*
X3981450Y-16757838D01*
X4071690Y-16761483D01*
X4144730Y-16773984D01*
X4207861Y-16797478D01*
X4268378Y-16834103D01*
X4285904Y-16847044D01*
X4318127Y-16868850D01*
X4342764Y-16880468D01*
X4351772Y-16880611D01*
X4356081Y-16879462D01*
X4353214Y-16883402D01*
X4355378Y-16898679D01*
X4371302Y-16924687D01*
X4383679Y-16939973D01*
X4411917Y-16977906D01*
X4441208Y-17026061D01*
X4456415Y-17055620D01*
X4489450Y-17126050D01*
X4489422Y-17881700D01*
X4489303Y-18055346D01*
X4488853Y-18206284D01*
X4487907Y-18337205D01*
X4486302Y-18450801D01*
X4483875Y-18549762D01*
X4480462Y-18636780D01*
X4475901Y-18714546D01*
X4470027Y-18785752D01*
X4462678Y-18853088D01*
X4453689Y-18919246D01*
X4442898Y-18986917D01*
X4430142Y-19058793D01*
X4415257Y-19137564D01*
X4412245Y-19153165D01*
X4338115Y-19469732D01*
X4239654Y-19779598D01*
X4117259Y-20081882D01*
X3971322Y-20375703D01*
X3802239Y-20660178D01*
X3621499Y-20919679D01*
X3451588Y-21132144D01*
X3264795Y-21339550D01*
X3065174Y-21538137D01*
X2856778Y-21724148D01*
X2643660Y-21893823D01*
X2429875Y-22043404D01*
X2366301Y-22083744D01*
X2079697Y-22246350D01*
X1780574Y-22387503D01*
X1471183Y-22506413D01*
X1153775Y-22602289D01*
X830601Y-22674343D01*
X568325Y-22714437D01*
X495300Y-22723326D01*
X495300Y-23748537D01*
X1558925Y-23751993D01*
X2622550Y-23755450D01*
X2698750Y-23792808D01*
X2772774Y-23838797D01*
X2843633Y-23900156D01*
X2903577Y-23969379D01*
X2938086Y-24024626D01*
X2976278Y-24126367D01*
X2990928Y-24230644D01*
X2983211Y-24334150D01*
X2954304Y-24433580D01*
X2905383Y-24525626D01*
X2837625Y-24606983D01*
X2752207Y-24674344D01*
X2695895Y-24705292D01*
X2609850Y-24746050D01*
X6350Y-24748437D01*
X-305188Y-24748698D01*
X-592269Y-24748883D01*
X-855836Y-24748987D01*
X-1096831Y-24749005D01*
X-1316197Y-24748931D01*
X-1514878Y-24748761D01*
X-1693815Y-24748490D01*
X-1853953Y-24748112D01*
X-1996233Y-24747622D01*
X-2121598Y-24747015D01*
X-2230992Y-24746287D01*
X-2325357Y-24745431D01*
X-2405635Y-24744443D01*
X-2472770Y-24743318D01*
X-2527705Y-24742051D01*
X-2571382Y-24740636D01*
X-2604745Y-24739068D01*
X-2628735Y-24737343D01*
X-2644296Y-24735455D01*
X-2650668Y-24734037D01*
X-2750386Y-24689736D01*
X-2840142Y-24623648D01*
X-2916806Y-24538450D01*
X-2961336Y-24468267D01*
X-2979967Y-24432601D01*
X-2992117Y-24403194D01*
X-2999168Y-24372924D01*
X-3002500Y-24334674D01*
X-3003496Y-24281323D01*
X-3003550Y-24250750D01*
X-3002998Y-24186986D01*
X-3000516Y-24141372D01*
X-2994871Y-24106666D01*
X-2984829Y-24075627D01*
X-2969153Y-24041014D01*
X-2967061Y-24036736D01*
X-2917749Y-23958711D01*
X-2851139Y-23884850D01*
X-2775070Y-23822990D01*
X-2722264Y-23791939D01*
X-2647950Y-23755450D01*
X-1584325Y-23751993D01*
X-520700Y-23748537D01*
X-520700Y-22722783D01*
X-587375Y-22714432D01*
X-922444Y-22660038D01*
X-1248218Y-22582163D01*
X-1564073Y-22481200D01*
X-1869388Y-22357539D01*
X-2163540Y-22211574D01*
X-2445907Y-22043697D01*
X-2715866Y-21854300D01*
X-2972795Y-21643776D01*
X-3216071Y-21412516D01*
X-3445072Y-21160913D01*
X-3659175Y-20889359D01*
X-3797045Y-20691840D01*
X-3967918Y-20411689D01*
X-4115985Y-20120607D01*
X-4240974Y-19819381D01*
X-4342615Y-19508796D01*
X-4420637Y-19189638D01*
X-4474770Y-18862693D01*
X-4495701Y-18662750D01*
X-4499529Y-18599081D01*
X-4502588Y-18511113D01*
X-4504865Y-18399936D01*
X-4506347Y-18266640D01*
X-4507020Y-18112314D01*
X-4506872Y-17938049D01*
X-4506238Y-17799150D01*
X-4502150Y-17113350D01*
X-4464928Y-17039842D01*
X-4412016Y-16958250D01*
X-4341179Y-16882248D01*
X-4259826Y-16819246D01*
X-4222750Y-16797627D01*
X-4186399Y-16779528D01*
X-4155732Y-16767922D01*
X-4123228Y-16761379D01*
X-4081367Y-16758467D01*
X-4022628Y-16757755D01*
X-4013200Y-16757750D01*
X-3949719Y-16758479D01*
%TD*%
D14*
%TO.C,VIAMASK*%
X2873000Y-3000000D03*
%TD*%
%TO.C,VIAMASK*%
X2873000Y1000000D03*
%TD*%
%TO.C,VIAMASK*%
X2873000Y5000000D03*
%TD*%
%TO.C,VIAMASK*%
X2873000Y9000000D03*
%TD*%
%TO.C,VIAMASK*%
X2873000Y13000000D03*
%TD*%
%TO.C,VIAMASK*%
X2873000Y17000000D03*
%TD*%
%TO.C,VIAMASK*%
X2873000Y21000000D03*
%TD*%
%TO.C,VIAMASK*%
X2873000Y25000000D03*
%TD*%
D15*
%TO.C,D1*%
X1050000Y25000000D03*
X-1050000Y25000000D03*
%TD*%
%TO.C,D2*%
X1050000Y21000000D03*
X-1050000Y21000000D03*
%TD*%
%TO.C,D3*%
X1050000Y17000000D03*
X-1050000Y17000000D03*
%TD*%
%TO.C,D4*%
X1050000Y13000000D03*
X-1050000Y13000000D03*
%TD*%
%TO.C,D5*%
X1050000Y9000000D03*
X-1050000Y9000000D03*
%TD*%
%TO.C,D6*%
X1050000Y5000000D03*
X-1050000Y5000000D03*
%TD*%
%TO.C,D7*%
X1050000Y1000000D03*
X-1050000Y1000000D03*
%TD*%
%TO.C,D8*%
X1050000Y-3000000D03*
X-1050000Y-3000000D03*
%TD*%
D16*
%TO.C,MK1*%
X0Y-16250000D03*
%TD*%
D17*
%TO.C,MOUNTING-HOLE*%
X11500000Y-29000000D03*
%TD*%
%TO.C,MOUNTING-HOLE*%
X-11500000Y-29000000D03*
%TD*%
%TO.C,MOUNTING-HOLE*%
X-11500000Y29000000D03*
%TD*%
%TO.C,MOUNTING-HOLE*%
X11500000Y29000000D03*
%TD*%
D18*
%TO.C,P1*%
X12770000Y-24130000D03*
X10230000Y-24130000D03*
X12770000Y-21590000D03*
X10230000Y-21590000D03*
X12770000Y-19050000D03*
X10230000Y-19050000D03*
X12770000Y-16510000D03*
X10230000Y-16510000D03*
X12770000Y-13970000D03*
X10230000Y-13970000D03*
X12770000Y-11430000D03*
X10230000Y-11430000D03*
X12770000Y-8890000D03*
X10230000Y-8890000D03*
X12770000Y-6350000D03*
X10230000Y-6350000D03*
X12770000Y-3810000D03*
X10230000Y-3810000D03*
X12770000Y-1270000D03*
X10230000Y-1270000D03*
X12770000Y1270000D03*
X10230000Y1270000D03*
X12770000Y3810000D03*
X10230000Y3810000D03*
X12770000Y6350000D03*
X10230000Y6350000D03*
X12770000Y8890000D03*
X10230000Y8890000D03*
X12770000Y11430000D03*
X10230000Y11430000D03*
X12770000Y13970000D03*
X10230000Y13970000D03*
X12770000Y16510000D03*
X10230000Y16510000D03*
X12770000Y19050000D03*
X10230000Y19050000D03*
X12770000Y21590000D03*
X10230000Y21590000D03*
X12770000Y24130000D03*
D19*
X10230000Y24130000D03*
%TD*%
M02*
