M48
;DRILL file {KiCad 4.0.5} date 04/11/17 14:08:01
;FORMAT={-:-/ absolute / metric / decimal}
FMAT,2
METRIC,TZ
T1C0.300
T2C1.200
%
G90
G05
M71
T1
X87.Y-28.
X87.25Y-46.23
X92.Y-28.
X92.25Y-46.23
X97.Y-28.
X97.25Y-46.23
X102.Y-28.
X102.25Y-46.23
T2
X81.1Y-28.12
X81.1Y-30.66
X81.1Y-33.2
X81.1Y-35.74
X81.1Y-38.28
X81.1Y-40.82
X81.1Y-43.36
X81.1Y-45.9
X109.4Y-28.
X109.4Y-30.54
X109.4Y-33.08
X109.4Y-35.62
X109.4Y-38.16
X109.4Y-40.7
X109.4Y-43.24
X109.4Y-45.78
T0
M30
